<svg width="64" height="64" viewBox="0 0 64 64" version="1.1" xmlns="http://www.w3.org/2000/svg" xmlns:xlink="http://www.w3.org/1999/xlink">
<title>body_snatchers_orig</title>
<desc>Created using Figma</desc>
<g id="Canvas" transform="translate(414 -326)">
<g id="body_snatchers_orig">
<g id="Canvas">
<g id="body snatchers orig">
<g id="layer1">
<g id="rect4140">
<g id="Vector">
<use xlink:href="#path0_fill" transform="translate(-414 326)" fill="#F5F5F5"/>
</g>
</g>
<g id="path4142">
<g id="Vector">
<use xlink:href="#path1_fill" transform="translate(-387.767 329.776)" fill="#418BC4"/>
</g>
<g id="Vector">
<use xlink:href="#path2_fill" transform="translate(-388.067 329.476)" fill="#418BC4"/>
</g>
</g>
<g id="path4144">
<g id="Vector">
<use xlink:href="#path3_fill" transform="translate(-376.778 334.337)" fill="#418BC4"/>
</g>
</g>
<g id="path4154">
<g id="Vector">
<use xlink:href="#path4_fill" transform="translate(-377.946 359.743)" fill="#418BC4"/>
</g>
</g>
<g id="path4145">
<g id="Vector">
<use xlink:href="#path5_fill" transform="translate(-403.325 359.99)" fill="#418BC4"/>
</g>
</g>
<g id="path4147">
<g id="Vector">
<use xlink:href="#path6_fill" transform="translate(-404.726 334.92)" fill="#418BC4"/>
</g>
</g>
</g>
</g>
</g>
</g>
</g>
<defs>
<path id="path0_fill" d="M 0.0968559 0.0968542L 0.0968559 1.13576e-09L 0.0566165 1.13576e-09L 0.0282237 0.0285141L 0.0968559 0.0968542ZM 63.9031 0.0968542L 64 0.0968542L 64 1.13576e-09L 63.9031 1.13576e-09L 63.9031 0.0968542ZM 0.0968559 63.9031L 0.00760479 63.9407L 0.0325714 64L 0.0968559 64L 0.0968559 63.9031ZM 0.0968542 0.0968559L 0.028222 0.0285158L 1.13576e-09 0.0568585L 1.13576e-09 0.0968559L 0.0968542 0.0968559ZM 0.0968559 0.193708L 63.9031 0.193708L 63.9031 1.13576e-09L 0.0968559 1.13576e-09L 0.0968559 0.193708ZM 63.8063 0.0968542L 63.8063 0.0968559L 64 0.0968559L 64 0.0968542L 63.8063 0.0968542ZM 63.8063 0.0968542L 63.8063 63.9031L 64 63.9031L 64 0.0968542L 63.8063 0.0968542ZM 63.8063 63.9031L 64 63.9031L 63.8063 63.9031ZM 63.9031 63.8063L 0.0968559 63.8063L 0.0968559 64L 63.9031 64L 63.9031 63.8063ZM 0.186107 63.8655L 0.186105 63.8655L 0.00760306 63.9407L 0.00760479 63.9407L 0.186107 63.8655ZM 0.19371 63.9031L 0.193708 0.0968559L 1.13576e-09 0.0968559L 1.73364e-06 63.9031L 0.19371 63.9031ZM 0.165486 0.165196L 0.165488 0.165194L 0.0282237 0.0285141L 0.028222 0.0285158L 0.165486 0.165196Z"/>
<path id="path1_fill" d="M 6.55607 15.4341C 10.1769 15.4341 13.1121 11.9791 13.1121 7.71706C 13.1121 3.45505 10.1769 0 6.55607 0C 2.93525 0 2.55994e-14 3.45505 2.55994e-14 7.71706C 2.55994e-14 11.9791 2.93525 15.4341 6.55607 15.4341Z"/>
<path id="path2_fill" d="M 13.1121 8.01697C 13.1121 12.1611 10.2672 15.4342 6.85598 15.4342L 6.85598 16.0339C 10.6864 16.0339 13.7119 12.3969 13.7119 8.01697L 13.1121 8.01697ZM 6.85598 15.4342C 3.44478 15.4342 0.599814 12.1611 0.599814 8.01697L -4.06901e-10 8.01697C -4.06901e-10 12.3969 3.02554 16.0339 6.85598 16.0339L 6.85598 15.4342ZM 0.599814 8.01697C 0.599814 3.87288 3.44478 0.599813 6.85598 0.599813L 6.85598 -4.06901e-10C 3.02554 -4.06901e-10 -4.06901e-10 3.63702 -4.06901e-10 8.01697L 0.599814 8.01697ZM 6.85598 0.599813C 10.2672 0.599813 13.1121 3.87288 13.1121 8.01697L 13.7119 8.01697C 13.7119 3.63702 10.6864 -4.06901e-10 6.85598 -4.06901e-10L 6.85598 0.599813Z"/>
<path id="path3_fill" d="M 14.8517 2.71995C 15.1754 1.58708 14.5194 0.406311 13.3865 0.0826318C 12.2537 -0.241048 11.0729 0.414938 10.7492 1.54781L 14.8517 2.71995ZM 10.1338 11.4672L 11.0878 13.3753L 11.9272 12.9556L 12.185 12.0533L 10.1338 11.4672ZM 1.17975 13.5591C 0.125922 14.086 -0.301225 15.3674 0.225695 16.4212C 0.752601 17.4751 2.03404 17.9023 3.08786 17.3753L 1.17975 13.5591ZM 10.7492 1.54781L 8.08254 10.8811L 12.185 12.0533L 14.8517 2.71995L 10.7492 1.54781ZM 9.17974 9.5591L 1.17975 13.5591L 3.08786 17.3753L 11.0878 13.3753L 9.17974 9.5591Z"/>
<path id="path4_fill" d="M 3.37549 0.398977C 2.41754 -0.286956 1.08491 -0.0664495 0.398977 0.8915C -0.286956 1.84945 -0.0664494 3.18208 0.891498 3.86801L 3.37549 0.398977ZM 12.0019 9.19974L 14.0933 8.77874L 13.9274 7.95464L 13.2439 7.46522L 12.0019 9.19974ZM 13.8277 18.2699L 11.7364 18.6908L 12.0386 20.1924L 13.558 20.3861L 13.8277 18.2699ZM 17.4903 20.8873C 18.6589 21.0363 19.7272 20.2096 19.8761 19.0408C 20.0252 17.872 19.1984 16.8039 18.0298 16.6548L 17.4903 20.8873ZM 0.891498 3.86801L 10.7599 10.9343L 13.2439 7.46522L 3.37549 0.398977L 0.891498 3.86801ZM 9.91052 9.62074L 11.7364 18.6908L 15.9191 17.8488L 14.0933 8.77874L 9.91052 9.62074ZM 13.558 20.3861L 17.4903 20.8873L 18.0298 16.6548L 14.0975 16.1536L 13.558 20.3861Z"/>
<path id="path5_fill" d="M 18.4947 3.75311C 19.3892 2.98635 19.4928 1.63958 18.726 0.745022C 17.9594 -0.149551 16.6126 -0.253137 15.718 0.513622L 18.4947 3.75311ZM 7.773 10.1334L 6.38464 8.51362L 5.89786 8.93084L 5.72174 9.54729L 7.773 10.1334ZM 5.10633 19.4667L 5.76188 21.4968L 6.84492 21.1471L 7.15757 20.0528L 5.10633 19.4667ZM 1.47836 18.3964C 0.357162 18.7584 -0.258251 19.9608 0.103789 21.082C 0.465842 22.2032 1.66825 22.8187 2.78945 22.4567L 1.47836 18.3964ZM 15.718 0.513622L 6.38464 8.51362L 9.16134 11.7531L 18.4947 3.75311L 15.718 0.513622ZM 5.72174 9.54729L 3.05508 18.8806L 7.15757 20.0528L 9.82425 10.7194L 5.72174 9.54729ZM 4.45079 17.4366L 1.47836 18.3964L 2.78945 22.4567L 5.76188 21.4968L 4.45079 17.4366Z"/>
<path id="path6_fill" d="M 16.4249 17.2014C 17.5281 17.6151 18.7578 17.0562 19.1715 15.953C 19.5851 14.8498 19.0262 13.6201 17.923 13.2065L 16.4249 17.2014ZM 6.50733 11.204L 4.58571 12.1305L 4.95726 12.9011L 5.75826 13.2015L 6.50733 11.204ZM 4.05543 1.20725C 3.5437 0.145971 2.26852 -0.299509 1.20725 0.212211C 0.145971 0.723944 -0.299509 1.99912 0.212211 3.06039L 4.05543 1.20725ZM 17.923 13.2065L 7.25638 9.20646L 5.75826 13.2015L 16.4249 17.2014L 17.923 13.2065ZM 8.42892 10.2774L 4.05543 1.20725L 0.212211 3.06039L 4.58571 12.1305L 8.42892 10.2774Z"/>
</defs>
</svg>
