<svg width="248" height="248" viewBox="0 0 248 248" version="1.1" xmlns="http://www.w3.org/2000/svg" xmlns:xlink="http://www.w3.org/1999/xlink">
<title>complete</title>
<desc>Created using Figma</desc>
<g id="Canvas" transform="translate(-708 -184)">
<g id="complete">
<g id="Group" filter="url(#filter0_d)">
<g id="Polygon 2">
<use xlink:href="#path0_fill" transform="matrix(0.866025 -0.5 0.5 0.866025 667 260)" fill="#5E8EB4"/>
</g>
<g id="Ellipse 2">
<mask id="mask0_outline_ins">
<use xlink:href="#path1_fill" fill="white" transform="translate(712 184)"/>
</mask>
<g mask="url(#mask0_outline_ins)">
<use xlink:href="#path2_stroke_2x" transform="translate(712 184)" fill="#5E8EB4"/>
</g>
</g>
</g>
<g id="Complete!" filter="url(#filter1_d)">
<use xlink:href="#path3_fill" transform="translate(728 274)" fill="#F5F5F5"/>
</g>
</g>
</g>
<defs>
<filter id="filter0_d" filterUnits="userSpaceOnUse" x="708" y="183" width="248" height="249" color-interpolation-filters="sRGB">
<feFlood flood-opacity="0" result="BackgroundImageFix"/>
<feColorMatrix in="SourceAlpha" type="matrix" values="0 0 0 0 0 0 0 0 0 0 0 0 0 0 0 0 0 0 255 0"/>
<feOffset dx="0" dy="4"/>
<feGaussianBlur stdDeviation="2"/>
<feColorMatrix type="matrix" values="0 0 0 0 0 0 0 0 0 0 0 0 0 0 0 0 0 0 0.25 0"/>
<feBlend mode="normal" in2="BackgroundImageFix" result="effect1_dropShadow"/>
<feBlend mode="normal" in="SourceGraphic" in2="effect1_dropShadow" result="shape"/>
</filter>
<filter id="filter1_d" filterUnits="userSpaceOnUse" x="726" y="284" width="210" height="51" color-interpolation-filters="sRGB">
<feFlood flood-opacity="0" result="BackgroundImageFix"/>
<feColorMatrix in="SourceAlpha" type="matrix" values="0 0 0 0 0 0 0 0 0 0 0 0 0 0 0 0 0 0 255 0"/>
<feOffset dx="0" dy="4"/>
<feGaussianBlur stdDeviation="2"/>
<feColorMatrix type="matrix" values="0 0 0 0 0 0 0 0 0 0 0 0 0 0 0 0 0 0 0.25 0"/>
<feBlend mode="normal" in2="BackgroundImageFix" result="effect1_dropShadow"/>
<feBlend mode="normal" in="SourceGraphic" in2="effect1_dropShadow" result="shape"/>
</filter>
<path id="path0_fill" d="M 116.536 6C 118.075 3.33333 121.925 3.33333 123.464 6L 220.459 174C 221.999 176.667 220.074 180 216.995 180L 23.0052 180C 19.926 180 18.0015 176.667 19.5411 174L 116.536 6Z"/>
<path id="path1_fill" d="M 240 120C 240 186.274 186.274 240 120 240C 53.7258 240 0 186.274 0 120C 0 53.7258 53.7258 0 120 0C 186.274 0 240 53.7258 240 120Z"/>
<path id="path2_stroke_2x" d="M 232 120C 232 181.856 181.856 232 120 232L 120 248C 190.692 248 248 190.692 248 120L 232 120ZM 120 232C 58.1441 232 8 181.856 8 120L -8 120C -8 190.692 49.3076 248 120 248L 120 232ZM 8 120C 8 58.1441 58.1441 8 120 8L 120 -8C 49.3076 -8 -8 49.3076 -8 120L 8 120ZM 120 8C 181.856 8 232 58.1441 232 120L 248 120C 248 49.3076 190.692 -8 120 -8L 120 8Z"/>
<path id="path3_fill" d="M 16.992 43.96C 14.016 43.96 11.392 43.24 9.12 41.8C 6.88 40.36 5.152 38.408 3.936 35.944C 2.72 33.448 2.112 30.68 2.112 27.64C 2.112 24.504 2.768 21.608 4.08 18.952C 5.424 16.296 7.232 14.2 9.504 12.664C 11.808 11.128 14.304 10.36 16.992 10.36C 19.552 10.36 21.792 10.728 23.712 11.464C 25.664 12.168 27.104 13.08 28.032 14.2C 28.576 14.872 28.912 15.768 29.04 16.888C 29.168 17.976 29.232 19.48 29.232 21.4L 28.272 21.4C 27.664 18.296 26.544 16.008 24.912 14.536C 23.28 13.032 21.12 12.28 18.432 12.28C 14.976 12.28 12.192 13.496 10.08 15.928C 7.968 18.36 6.912 22.264 6.912 27.64C 6.912 30.168 7.312 32.52 8.112 34.696C 8.944 36.872 10.224 38.648 11.952 40.024C 13.68 41.368 15.84 42.04 18.432 42.04C 20.768 42.04 22.8 41.48 24.528 40.36C 26.288 39.24 27.856 37.56 29.232 35.32L 30.192 36.04C 28.72 38.92 26.896 40.968 24.72 42.184C 22.576 43.368 20 43.96 16.992 43.96ZM 44.6419 43.48C 42.4659 43.48 40.5779 42.968 38.9779 41.944C 37.3779 40.888 36.1619 39.464 35.3299 37.672C 34.4979 35.88 34.0819 33.896 34.0819 31.72C 34.0819 29.544 34.4979 27.56 35.3299 25.768C 36.1619 23.976 37.3779 22.568 38.9779 21.544C 40.5779 20.488 42.4659 19.96 44.6419 19.96C 46.8179 19.96 48.7059 20.488 50.3059 21.544C 51.9059 22.568 53.1219 23.976 53.9539 25.768C 54.7859 27.56 55.2019 29.544 55.2019 31.72C 55.2019 33.896 54.7859 35.88 53.9539 37.672C 53.1219 39.464 51.9059 40.888 50.3059 41.944C 48.7059 42.968 46.8179 43.48 44.6419 43.48ZM 44.6419 41.56C 45.8259 41.56 46.8659 41.128 47.7619 40.264C 48.6899 39.4 49.3939 38.216 49.8739 36.712C 50.3859 35.208 50.6419 33.544 50.6419 31.72C 50.6419 29.896 50.3859 28.232 49.8739 26.728C 49.3939 25.224 48.6899 24.04 47.7619 23.176C 46.8659 22.312 45.8259 21.88 44.6419 21.88C 43.4579 21.88 42.4019 22.312 41.4739 23.176C 40.5779 24.04 39.8739 25.224 39.3619 26.728C 38.8819 28.232 38.6419 29.896 38.6419 31.72C 38.6419 33.544 38.8819 35.208 39.3619 36.712C 39.8739 38.216 40.5779 39.4 41.4739 40.264C 42.4019 41.128 43.4579 41.56 44.6419 41.56ZM 61.551 26.2C 61.551 24.568 61.327 23.368 60.879 22.6C 60.431 21.8 59.535 21.4 58.191 21.4L 57.231 21.4L 57.231 20.44L 61.551 20.44C 62.735 20.44 63.631 20.6 64.239 20.92C 64.879 21.24 65.343 21.72 65.631 22.36L 65.871 22.36C 66.543 21.688 67.407 21.128 68.463 20.68C 69.551 20.2 70.767 19.96 72.111 19.96C 73.455 19.96 74.607 20.216 75.567 20.728C 76.527 21.208 77.295 22.072 77.871 23.32C 78.703 22.264 79.759 21.448 81.039 20.872C 82.351 20.264 83.695 19.96 85.071 19.96C 87.119 19.96 88.751 20.6 89.967 21.88C 91.183 23.16 91.791 25.4 91.791 28.6L 91.791 43L 87.471 43L 87.471 28.6C 87.471 26.296 87.151 24.648 86.511 23.656C 85.871 22.632 84.911 22.12 83.631 22.12C 82.735 22.12 81.791 22.456 80.799 23.128C 79.807 23.768 79.071 24.472 78.591 25.24C 78.751 25.72 78.831 26.84 78.831 28.6L 78.831 43L 74.511 43L 74.511 28.6C 74.511 26.296 74.191 24.648 73.551 23.656C 72.911 22.632 71.951 22.12 70.671 22.12C 68.975 22.12 67.375 22.968 65.871 24.664L 65.871 43L 61.551 43L 61.551 26.2ZM 99.2385 26.2C 99.2385 24.568 99.0145 23.368 98.5665 22.6C 98.1185 21.8 97.2225 21.4 95.8785 21.4L 94.9185 21.4L 94.9185 20.44L 99.2385 20.44C 100.454 20.44 101.367 20.616 101.975 20.968C 102.615 21.288 103.062 21.832 103.319 22.6L 103.558 22.6C 104.135 21.864 104.951 21.24 106.007 20.728C 107.062 20.216 108.406 19.96 110.038 19.96C 112.79 19.96 114.918 21.08 116.422 23.32C 117.927 25.528 118.678 28.328 118.678 31.72C 118.678 35.144 117.894 37.96 116.326 40.168C 114.79 42.376 112.534 43.48 109.558 43.48C 108.343 43.48 107.27 43.352 106.343 43.096C 105.415 42.84 104.486 42.488 103.558 42.04L 103.558 52.12L 99.2385 52.12L 99.2385 26.2ZM 108.118 41.56C 110.166 41.56 111.671 40.664 112.63 38.872C 113.623 37.08 114.118 34.696 114.118 31.72C 114.118 28.776 113.654 26.408 112.727 24.616C 111.799 22.792 110.422 21.88 108.599 21.88C 106.454 21.88 104.774 22.84 103.558 24.76L 103.558 40.12C 104.518 40.568 105.351 40.92 106.055 41.176C 106.758 41.432 107.447 41.56 108.118 41.56ZM 124.539 17.08C 124.539 15.448 124.315 14.248 123.867 13.48C 123.419 12.68 122.523 12.28 121.179 12.28L 120.219 12.28L 120.219 11.32L 124.539 11.32C 125.723 11.32 126.603 11.48 127.179 11.8C 127.787 12.088 128.219 12.632 128.475 13.432C 128.731 14.232 128.859 15.448 128.859 17.08L 128.859 43L 124.539 43L 124.539 17.08ZM 144.756 43.48C 142.58 43.48 140.74 42.968 139.236 41.944C 137.732 40.888 136.596 39.48 135.828 37.72C 135.06 35.928 134.676 33.928 134.676 31.72C 134.676 29.544 135.06 27.56 135.828 25.768C 136.596 23.976 137.7 22.568 139.14 21.544C 140.612 20.488 142.324 19.96 144.276 19.96C 147.508 19.96 149.908 20.872 151.476 22.696C 153.076 24.488 153.876 27.096 153.876 30.52L 153.78 32.44L 139.236 32.44C 139.236 35.128 139.812 37.32 140.964 39.016C 142.116 40.712 143.7 41.56 145.716 41.56C 147.22 41.56 148.484 41.24 149.508 40.6C 150.564 39.96 151.54 39 152.436 37.72L 153.396 38.44C 152.34 40.2 151.108 41.48 149.7 42.28C 148.292 43.08 146.644 43.48 144.756 43.48ZM 149.316 30.52C 149.316 27.704 148.9 25.56 148.068 24.088C 147.236 22.616 145.972 21.88 144.276 21.88C 143.316 21.88 142.452 22.264 141.684 23.032C 140.916 23.768 140.308 24.792 139.86 26.104C 139.444 27.416 139.236 28.888 139.236 30.52L 149.316 30.52ZM 166.081 43.48C 164.289 43.48 162.881 42.968 161.857 41.944C 160.833 40.92 160.321 39.352 160.321 37.24L 160.321 22.36L 156.961 22.36L 156.961 20.44L 160.321 20.44L 160.321 16.12L 162.721 13.24L 164.641 13.24L 164.641 20.44L 170.401 20.44L 170.401 22.36L 164.641 22.36L 164.641 37.24C 164.641 40.12 165.761 41.56 168.001 41.56C 168.769 41.56 169.409 41.48 169.921 41.32C 170.465 41.16 171.025 40.92 171.601 40.6L 172.081 41.56C 171.345 42.104 170.529 42.568 169.633 42.952C 168.737 43.304 167.553 43.48 166.081 43.48ZM 184.412 43.48C 182.236 43.48 180.396 42.968 178.892 41.944C 177.388 40.888 176.252 39.48 175.484 37.72C 174.716 35.928 174.332 33.928 174.332 31.72C 174.332 29.544 174.716 27.56 175.484 25.768C 176.252 23.976 177.356 22.568 178.796 21.544C 180.268 20.488 181.98 19.96 183.932 19.96C 187.164 19.96 189.564 20.872 191.132 22.696C 192.732 24.488 193.532 27.096 193.532 30.52L 193.436 32.44L 178.892 32.44C 178.892 35.128 179.468 37.32 180.62 39.016C 181.772 40.712 183.356 41.56 185.372 41.56C 186.876 41.56 188.14 41.24 189.164 40.6C 190.22 39.96 191.196 39 192.092 37.72L 193.052 38.44C 191.996 40.2 190.764 41.48 189.356 42.28C 187.948 43.08 186.3 43.48 184.412 43.48ZM 188.972 30.52C 188.972 27.704 188.556 25.56 187.724 24.088C 186.892 22.616 185.628 21.88 183.932 21.88C 182.972 21.88 182.108 22.264 181.34 23.032C 180.572 23.768 179.964 24.792 179.516 26.104C 179.1 27.416 178.892 28.888 178.892 30.52L 188.972 30.52ZM 199.833 35.56L 198.969 11.32L 203.481 11.32L 202.617 35.56L 199.833 35.56ZM 201.225 43.672C 200.521 43.672 199.913 43.416 199.401 42.904C 198.889 42.392 198.633 41.768 198.633 41.032C 198.633 40.328 198.889 39.736 199.401 39.256C 199.913 38.744 200.521 38.488 201.225 38.488C 201.929 38.488 202.537 38.744 203.049 39.256C 203.561 39.736 203.817 40.328 203.817 41.032C 203.817 41.768 203.561 42.392 203.049 42.904C 202.537 43.416 201.929 43.672 201.225 43.672Z"/>
</defs>
</svg>
