<svg width="248" height="248" viewBox="0 0 248 248" version="1.1" xmlns="http://www.w3.org/2000/svg" xmlns:xlink="http://www.w3.org/1999/xlink">
<title>continue</title>
<desc>Created using Figma</desc>
<g id="Canvas" transform="translate(-703 -617)">
<g id="continue">
<g id="Group" filter="url(#filter0_d)">
<g id="Polygon 2">
<use xlink:href="#path0_fill" transform="matrix(0.866025 -0.5 0.5 0.866025 662 693)" fill="#5E8EB4"/>
</g>
<g id="Ellipse 2">
<mask id="mask0_outline_ins">
<use xlink:href="#path1_fill" fill="white" transform="translate(707 617)"/>
</mask>
<g mask="url(#mask0_outline_ins)">
<use xlink:href="#path2_stroke_2x" transform="translate(707 617)" fill="#5E8EB4"/>
</g>
</g>
</g>
<g id="Continue" filter="url(#filter1_d)">
<use xlink:href="#path3_fill" transform="translate(730 707)" fill="#F5F5F5"/>
</g>
</g>
</g>
<defs>
<filter id="filter0_d" filterUnits="userSpaceOnUse" x="703" y="617" width="248" height="248" color-interpolation-filters="sRGB">
<feFlood flood-opacity="0" result="BackgroundImageFix"/>
<feColorMatrix in="SourceAlpha" type="matrix" values="0 0 0 0 0 0 0 0 0 0 0 0 0 0 0 0 0 0 255 0"/>
<feOffset dx="0" dy="4"/>
<feGaussianBlur stdDeviation="2"/>
<feColorMatrix type="matrix" values="0 0 0 0 0 0 0 0 0 0 0 0 0 0 0 0 0 0 0.25 0"/>
<feBlend mode="normal" in2="BackgroundImageFix" result="effect1_dropShadow"/>
<feBlend mode="normal" in="SourceGraphic" in2="effect1_dropShadow" result="shape"/>
</filter>
<filter id="filter1_d" filterUnits="userSpaceOnUse" x="728" y="717" width="191" height="42" color-interpolation-filters="sRGB">
<feFlood flood-opacity="0" result="BackgroundImageFix"/>
<feColorMatrix in="SourceAlpha" type="matrix" values="0 0 0 0 0 0 0 0 0 0 0 0 0 0 0 0 0 0 255 0"/>
<feOffset dx="0" dy="4"/>
<feGaussianBlur stdDeviation="2"/>
<feColorMatrix type="matrix" values="0 0 0 0 0 0 0 0 0 0 0 0 0 0 0 0 0 0 0.25 0"/>
<feBlend mode="normal" in2="BackgroundImageFix" result="effect1_dropShadow"/>
<feBlend mode="normal" in="SourceGraphic" in2="effect1_dropShadow" result="shape"/>
</filter>
<path id="path0_fill" d="M 116.536 6C 118.076 3.33333 121.924 3.33333 123.464 6L 220.459 174C 221.999 176.667 220.074 180 216.995 180L 23.0052 180C 19.926 180 18.0015 176.667 19.5411 174L 116.536 6Z"/>
<path id="path1_fill" d="M 240 120C 240 186.274 186.274 240 120 240C 53.7258 240 0 186.274 0 120C 0 53.7258 53.7258 0 120 0C 186.274 0 240 53.7258 240 120Z"/>
<path id="path2_stroke_2x" d="M 232 120C 232 181.856 181.856 232 120 232L 120 248C 190.692 248 248 190.692 248 120L 232 120ZM 120 232C 58.1441 232 8 181.856 8 120L -8 120C -8 190.692 49.3076 248 120 248L 120 232ZM 8 120C 8 58.1441 58.1441 8 120 8L 120 -8C 49.3076 -8 -8 49.3076 -8 120L 8 120ZM 120 8C 181.856 8 232 58.1441 232 120L 248 120C 248 49.3076 190.692 -8 120 -8L 120 8Z"/>
<path id="path3_fill" d="M 16.992 43.96C 14.016 43.96 11.392 43.24 9.12 41.8C 6.88 40.36 5.152 38.408 3.936 35.944C 2.72 33.448 2.112 30.68 2.112 27.64C 2.112 24.504 2.768 21.608 4.08 18.952C 5.424 16.296 7.232 14.2 9.504 12.664C 11.808 11.128 14.304 10.36 16.992 10.36C 19.552 10.36 21.792 10.728 23.712 11.464C 25.664 12.168 27.104 13.08 28.032 14.2C 28.576 14.872 28.912 15.768 29.04 16.888C 29.168 17.976 29.232 19.48 29.232 21.4L 28.272 21.4C 27.664 18.296 26.544 16.008 24.912 14.536C 23.28 13.032 21.12 12.28 18.432 12.28C 14.976 12.28 12.192 13.496 10.08 15.928C 7.968 18.36 6.912 22.264 6.912 27.64C 6.912 30.168 7.312 32.52 8.112 34.696C 8.944 36.872 10.224 38.648 11.952 40.024C 13.68 41.368 15.84 42.04 18.432 42.04C 20.768 42.04 22.8 41.48 24.528 40.36C 26.288 39.24 27.856 37.56 29.232 35.32L 30.192 36.04C 28.72 38.92 26.896 40.968 24.72 42.184C 22.576 43.368 20 43.96 16.992 43.96ZM 44.6419 43.48C 42.4659 43.48 40.5779 42.968 38.9779 41.944C 37.3779 40.888 36.1619 39.464 35.3299 37.672C 34.4979 35.88 34.0819 33.896 34.0819 31.72C 34.0819 29.544 34.4979 27.56 35.3299 25.768C 36.1619 23.976 37.3779 22.568 38.9779 21.544C 40.5779 20.488 42.4659 19.96 44.6419 19.96C 46.8179 19.96 48.7059 20.488 50.3059 21.544C 51.9059 22.568 53.1219 23.976 53.9539 25.768C 54.7859 27.56 55.2019 29.544 55.2019 31.72C 55.2019 33.896 54.7859 35.88 53.9539 37.672C 53.1219 39.464 51.9059 40.888 50.3059 41.944C 48.7059 42.968 46.8179 43.48 44.6419 43.48ZM 44.6419 41.56C 45.8259 41.56 46.8659 41.128 47.7619 40.264C 48.6899 39.4 49.3939 38.216 49.8739 36.712C 50.3859 35.208 50.6419 33.544 50.6419 31.72C 50.6419 29.896 50.3859 28.232 49.8739 26.728C 49.3939 25.224 48.6899 24.04 47.7619 23.176C 46.8659 22.312 45.8259 21.88 44.6419 21.88C 43.4579 21.88 42.4019 22.312 41.4739 23.176C 40.5779 24.04 39.8739 25.224 39.3619 26.728C 38.8819 28.232 38.6419 29.896 38.6419 31.72C 38.6419 33.544 38.8819 35.208 39.3619 36.712C 39.8739 38.216 40.5779 39.4 41.4739 40.264C 42.4019 41.128 43.4579 41.56 44.6419 41.56ZM 61.551 26.2C 61.551 24.568 61.327 23.368 60.879 22.6C 60.431 21.8 59.535 21.4 58.191 21.4L 57.231 21.4L 57.231 20.44L 61.551 20.44C 62.735 20.44 63.631 20.6 64.239 20.92C 64.879 21.24 65.343 21.72 65.631 22.36L 65.871 22.36C 66.543 21.688 67.407 21.128 68.463 20.68C 69.551 20.2 70.767 19.96 72.111 19.96C 74.511 19.96 76.463 20.6 77.967 21.88C 79.503 23.16 80.271 25.4 80.271 28.6L 80.271 43L 75.951 43L 75.951 28.6C 75.951 26.36 75.439 24.728 74.415 23.704C 73.423 22.648 72.175 22.12 70.671 22.12C 68.975 22.12 67.375 22.968 65.871 24.664L 65.871 43L 61.551 43L 61.551 26.2ZM 93.6124 43.48C 91.8204 43.48 90.4124 42.968 89.3884 41.944C 88.3644 40.92 87.8524 39.352 87.8524 37.24L 87.8524 22.36L 84.4924 22.36L 84.4924 20.44L 87.8524 20.44L 87.8524 16.12L 90.2524 13.24L 92.1724 13.24L 92.1724 20.44L 97.9324 20.44L 97.9324 22.36L 92.1724 22.36L 92.1724 37.24C 92.1724 40.12 93.2924 41.56 95.5324 41.56C 96.3004 41.56 96.9404 41.48 97.4524 41.32C 97.9964 41.16 98.5564 40.92 99.1324 40.6L 99.6124 41.56C 98.8764 42.104 98.0604 42.568 97.1644 42.952C 96.2684 43.304 95.0844 43.48 93.6124 43.48ZM 105.703 17.56C 104.967 17.56 104.327 17.256 103.783 16.648C 103.271 16.04 103.015 15.32 103.015 14.488C 103.015 13.816 103.207 13.288 103.591 12.904C 104.007 12.52 104.551 12.328 105.223 12.328C 105.959 12.328 106.583 12.632 107.095 13.24C 107.639 13.848 107.911 14.568 107.911 15.4C 107.911 16.072 107.703 16.6 107.287 16.984C 106.903 17.368 106.375 17.56 105.703 17.56ZM 103.879 26.2C 103.879 24.568 103.655 23.368 103.207 22.6C 102.759 21.8 101.863 21.4 100.519 21.4L 99.5591 21.4L 99.5591 20.44L 103.879 20.44C 105.063 20.44 105.943 20.6 106.519 20.92C 107.127 21.208 107.559 21.752 107.815 22.552C 108.071 23.352 108.199 24.568 108.199 26.2L 108.199 43L 103.879 43L 103.879 26.2ZM 115.692 26.2C 115.692 24.568 115.468 23.368 115.02 22.6C 114.572 21.8 113.676 21.4 112.332 21.4L 111.372 21.4L 111.372 20.44L 115.692 20.44C 116.876 20.44 117.772 20.6 118.38 20.92C 119.02 21.24 119.484 21.72 119.772 22.36L 120.012 22.36C 120.684 21.688 121.548 21.128 122.604 20.68C 123.692 20.2 124.908 19.96 126.252 19.96C 128.652 19.96 130.604 20.6 132.108 21.88C 133.644 23.16 134.412 25.4 134.412 28.6L 134.412 43L 130.092 43L 130.092 28.6C 130.092 26.36 129.58 24.728 128.556 23.704C 127.564 22.648 126.316 22.12 124.812 22.12C 123.116 22.12 121.516 22.968 120.012 24.664L 120.012 43L 115.692 43L 115.692 26.2ZM 149.289 43.48C 146.889 43.48 144.921 42.84 143.385 41.56C 141.881 40.28 141.129 38.04 141.129 34.84L 141.129 26.2C 141.129 24.568 140.905 23.368 140.457 22.6C 140.009 21.8 139.113 21.4 137.769 21.4L 137.289 21.4L 137.289 20.44L 141.129 20.44C 142.313 20.44 143.193 20.6 143.769 20.92C 144.377 21.208 144.809 21.752 145.065 22.552C 145.321 23.352 145.449 24.568 145.449 26.2L 145.449 34.84C 145.449 37.08 145.945 38.728 146.937 39.784C 147.961 40.808 149.225 41.32 150.729 41.32C 152.425 41.32 154.025 40.472 155.529 38.776L 155.529 20.44L 159.849 20.44L 159.849 43L 157.449 43L 155.769 41.08L 155.529 41.08C 154.857 41.752 153.977 42.328 152.889 42.808C 151.833 43.256 150.633 43.48 149.289 43.48ZM 175.552 43.48C 173.377 43.48 171.536 42.968 170.033 41.944C 168.528 40.888 167.393 39.48 166.624 37.72C 165.856 35.928 165.473 33.928 165.473 31.72C 165.473 29.544 165.856 27.56 166.624 25.768C 167.393 23.976 168.497 22.568 169.936 21.544C 171.408 20.488 173.121 19.96 175.073 19.96C 178.305 19.96 180.704 20.872 182.273 22.696C 183.873 24.488 184.672 27.096 184.672 30.52L 184.576 32.44L 170.033 32.44C 170.033 35.128 170.608 37.32 171.76 39.016C 172.913 40.712 174.496 41.56 176.513 41.56C 178.016 41.56 179.28 41.24 180.305 40.6C 181.36 39.96 182.337 39 183.232 37.72L 184.193 38.44C 183.136 40.2 181.905 41.48 180.497 42.28C 179.088 43.08 177.441 43.48 175.552 43.48ZM 180.112 30.52C 180.112 27.704 179.696 25.56 178.865 24.088C 178.033 22.616 176.769 21.88 175.073 21.88C 174.112 21.88 173.249 22.264 172.48 23.032C 171.712 23.768 171.105 24.792 170.656 26.104C 170.24 27.416 170.033 28.888 170.033 30.52L 180.112 30.52Z"/>
</defs>
</svg>
