<svg width="240" height="240" viewBox="0 0 240 240" version="1.1" xmlns="http://www.w3.org/2000/svg" xmlns:xlink="http://www.w3.org/1999/xlink">
<title>pause</title>
<desc>Created using Figma</desc>
<g id="Canvas" transform="translate(-706 246)">
<g id="pause">
<g id="Group">
<g id="Ellipse 2">
<mask id="mask0_outline_ins">
<use xlink:href="#path0_fill" fill="white" transform="translate(706 -246)"/>
</mask>
<g mask="url(#mask0_outline_ins)">
<use xlink:href="#path1_stroke_2x" transform="translate(706 -246)" fill="#5E8EB4"/>
</g>
</g>
<g id="Rectangle 7">
<use xlink:href="#path2_fill" transform="translate(840 -214)" fill="#4D7DA3"/>
</g>
<g id="Rectangle 7">
<use xlink:href="#path2_fill" transform="translate(787 -214)" fill="#4D7DA3"/>
</g>
</g>
<g id="Paused">
<use xlink:href="#path3_fill" transform="translate(741 -158)" fill="#F5F5F5"/>
</g>
</g>
</g>
<defs>
<path id="path0_fill" d="M 240 120C 240 186.274 186.274 240 120 240C 53.7258 240 0 186.274 0 120C 0 53.7258 53.7258 0 120 0C 186.274 0 240 53.7258 240 120Z"/>
<path id="path1_stroke_2x" d="M 232 120C 232 181.856 181.856 232 120 232L 120 248C 190.692 248 248 190.692 248 120L 232 120ZM 120 232C 58.1441 232 8 181.856 8 120L -8 120C -8 190.692 49.3076 248 120 248L 120 232ZM 8 120C 8 58.1441 58.1441 8 120 8L 120 -8C 49.3076 -8 -8 49.3076 -8 120L 8 120ZM 120 8C 181.856 8 232 58.1441 232 120L 248 120C 248 49.3076 190.692 -8 120 -8L 120 8Z"/>
<path id="path2_fill" d="M 0 8C 0 3.58172 3.58172 0 8 0L 16 0C 20.4183 0 24 3.58172 24 8L 24 168C 24 172.418 20.4183 176 16 176L 8 176C 3.58172 176 0 172.418 0 168L 0 8Z"/>
<path id="path3_fill" d="M 5.936 19.76C 5.936 17.856 5.67467 16.456 5.152 15.56C 4.62933 14.6267 3.584 14.16 2.016 14.16L 0.896 14.16L 0.896 13.04L 15.456 13.04C 19.04 13.04 22.2693 13.8053 25.144 15.336C 28.0187 16.8667 29.456 19.8347 29.456 24.24C 29.456 27.152 28.7093 29.392 27.216 30.96C 25.7227 32.528 24.0427 33.5733 22.176 34.096C 20.3467 34.6187 18.6667 34.88 17.136 34.88L 10.976 34.88L 10.976 50L 5.936 50L 5.936 19.76ZM 15.176 32.92C 16.3707 32.92 17.64 32.6213 18.984 32.024C 20.328 31.3893 21.4667 30.4 22.4 29.056C 23.3707 27.712 23.856 26.0133 23.856 23.96C 23.856 21.9067 23.3707 20.208 22.4 18.864C 21.4667 17.52 20.328 16.5493 18.984 15.952C 17.64 15.3173 16.3707 15 15.176 15C 13.8693 15 12.4693 15.1867 10.976 15.56L 10.976 32.36C 12.4693 32.7333 13.8693 32.92 15.176 32.92ZM 40.929 50.56C 39.7343 50.56 38.521 50.3173 37.289 49.832C 36.057 49.3093 34.993 48.4693 34.097 47.312C 33.2383 46.1547 32.809 44.624 32.809 42.72C 32.809 39.8827 34.1157 37.8667 36.729 36.672C 39.3797 35.4773 42.833 34.88 47.089 34.88L 48.769 34.88C 48.769 31.2213 48.265 28.72 47.257 27.376C 46.249 26.032 44.793 25.36 42.889 25.36C 41.209 25.36 39.865 25.7147 38.857 26.424C 37.849 27.1333 37.1397 28.3653 36.729 30.12L 34.209 30.12C 34.209 28.8507 34.2837 27.8613 34.433 27.152C 34.5823 26.4053 34.9743 25.7147 35.609 25.08C 36.281 24.408 37.3823 23.9227 38.913 23.624C 40.481 23.288 42.1797 23.12 44.009 23.12C 47.033 23.12 49.4223 23.9413 51.177 25.584C 52.9317 27.1893 53.809 30.288 53.809 34.88L 53.809 50L 51.009 50L 49.049 47.48L 48.769 47.48C 48.097 48.3387 47.1077 49.0667 45.801 49.664C 44.4943 50.2613 42.8703 50.56 40.929 50.56ZM 43.449 48.04C 44.681 48.04 45.7077 47.7413 46.529 47.144C 47.3503 46.5467 48.097 45.7253 48.769 44.68L 48.769 37.12L 47.089 37.12C 44.3263 37.12 42.1423 37.6427 40.537 38.688C 38.9317 39.696 38.129 41.04 38.129 42.72C 38.129 44.4373 38.633 45.7627 39.641 46.696C 40.6863 47.592 41.9557 48.04 43.449 48.04ZM 71.1939 50.56C 68.3939 50.56 66.0979 49.8133 64.3059 48.32C 62.5513 46.8267 61.6739 44.2133 61.6739 40.48L 61.6739 30.4C 61.6739 28.496 61.4126 27.096 60.8899 26.2C 60.3673 25.2667 59.3219 24.8 57.7539 24.8L 57.1939 24.8L 57.1939 23.68L 61.6739 23.68C 63.0553 23.68 64.0819 23.8667 64.7539 24.24C 65.4633 24.576 65.9673 25.2107 66.2659 26.144C 66.5646 27.0773 66.7139 28.496 66.7139 30.4L 66.7139 40.48C 66.7139 43.0933 67.2926 45.016 68.4499 46.248C 69.6446 47.4427 71.1193 48.04 72.8739 48.04C 74.8526 48.04 76.7193 47.0507 78.4739 45.072L 78.4739 23.68L 83.5139 23.68L 83.5139 50L 80.7139 50L 78.7539 47.76L 78.4739 47.76C 77.6899 48.544 76.6633 49.216 75.3939 49.776C 74.1619 50.2987 72.7619 50.56 71.1939 50.56ZM 100.379 50.56C 96.0854 50.56 93.192 49.8133 91.6987 48.32C 91.064 47.6853 90.672 46.976 90.5227 46.192C 90.3734 45.3707 90.2987 44.12 90.2987 42.44L 91.4187 42.44C 91.7547 44.3067 92.5574 45.7627 93.8267 46.808C 95.1334 47.816 96.944 48.32 99.2587 48.32C 101.312 48.32 102.843 47.9653 103.851 47.256C 104.896 46.5467 105.419 45.5947 105.419 44.4C 105.419 43.3173 105.008 42.384 104.187 41.6C 103.403 40.816 102.133 40.0693 100.379 39.36L 97.0187 37.96C 94.7787 37.064 93.0987 36.0187 91.9787 34.824C 90.8587 33.6293 90.2987 32.1547 90.2987 30.4C 90.2987 28.1227 91.1574 26.3493 92.8747 25.08C 94.592 23.7733 96.8134 23.12 99.5387 23.12C 103.645 23.12 106.445 23.8667 107.939 25.36C 108.573 25.9947 108.965 26.704 109.115 27.488C 109.264 28.272 109.339 29.5227 109.339 31.24L 108.219 31.24C 107.92 29.3733 107.136 27.936 105.867 26.928C 104.597 25.8827 102.861 25.36 100.659 25.36C 98.904 25.36 97.5227 25.7333 96.5147 26.48C 95.544 27.1893 95.0587 28.1227 95.0587 29.28C 95.0587 31.2213 96.552 32.808 99.5387 34.04L 102.899 35.44C 105.437 36.4853 107.285 37.6053 108.443 38.8C 109.6 39.9573 110.179 41.4507 110.179 43.28C 110.179 45.5573 109.264 47.3493 107.435 48.656C 105.605 49.9253 103.253 50.56 100.379 50.56ZM 126.827 50.56C 124.288 50.56 122.142 49.9627 120.387 48.768C 118.632 47.536 117.307 45.8933 116.411 43.84C 115.515 41.7493 115.067 39.416 115.067 36.84C 115.067 34.3013 115.515 31.9867 116.411 29.896C 117.307 27.8053 118.595 26.1627 120.275 24.968C 121.992 23.736 123.99 23.12 126.267 23.12C 130.038 23.12 132.838 24.184 134.667 26.312C 136.534 28.4027 137.467 31.4453 137.467 35.44L 137.355 37.68L 120.387 37.68C 120.387 40.816 121.059 43.3733 122.403 45.352C 123.747 47.3307 125.595 48.32 127.947 48.32C 129.702 48.32 131.176 47.9467 132.371 47.2C 133.603 46.4533 134.742 45.3333 135.787 43.84L 136.907 44.68C 135.675 46.7333 134.238 48.2267 132.595 49.16C 130.952 50.0933 129.03 50.56 126.827 50.56ZM 132.147 35.44C 132.147 32.1547 131.662 29.6533 130.691 27.936C 129.72 26.2187 128.246 25.36 126.267 25.36C 125.147 25.36 124.139 25.808 123.243 26.704C 122.347 27.5627 121.638 28.7573 121.115 30.288C 120.63 31.8187 120.387 33.536 120.387 35.44L 132.147 35.44ZM 152.603 50.56C 149.355 50.56 146.853 49.272 145.099 46.696C 143.381 44.12 142.523 40.8347 142.523 36.84C 142.523 32.8453 143.419 29.56 145.211 26.984C 147.04 24.408 149.691 23.12 153.163 23.12C 154.581 23.12 155.832 23.2693 156.915 23.568C 157.997 23.8667 159.08 24.2773 160.163 24.8L 160.163 19.76C 160.163 17.856 159.901 16.456 159.379 15.56C 158.856 14.6267 157.811 14.16 156.243 14.16L 155.123 14.16L 155.123 13.04L 160.163 13.04C 161.544 13.04 162.571 13.2267 163.243 13.6C 163.952 13.936 164.456 14.5707 164.755 15.504C 165.053 16.4373 165.203 17.856 165.203 19.76L 165.203 50L 162.403 50L 160.443 47.48L 160.163 47.48C 159.341 48.4133 158.371 49.16 157.251 49.72C 156.168 50.28 154.619 50.56 152.603 50.56ZM 154.283 48.32C 155.813 48.32 156.971 48.04 157.755 47.48C 158.539 46.92 159.341 46.08 160.163 44.96L 160.163 27.04C 159.043 26.5173 158.072 26.1067 157.251 25.808C 156.429 25.5093 155.627 25.36 154.843 25.36C 152.453 25.36 150.68 26.4053 149.523 28.496C 148.403 30.5867 147.843 33.368 147.843 36.84C 147.843 40.2747 148.384 43.056 149.467 45.184C 150.549 47.2747 152.155 48.32 154.283 48.32Z"/>
</defs>
</svg>
