<svg width="248" height="248" viewBox="0 0 248 248" version="1.1" xmlns="http://www.w3.org/2000/svg" xmlns:xlink="http://www.w3.org/1999/xlink">
<title>play_button</title>
<desc>Created using Figma</desc>
<g id="Canvas" transform="translate(-702 721)">
<g id="play_button">
<g id="Group" filter="url(#filter0_d)">
<g id="Polygon 2">
<use xlink:href="#path0_fill" transform="matrix(0.866025 -0.5 0.5 0.866025 662 -644)" fill="#F5F5F5"/>
</g>
<g id="Ellipse 2">
<mask id="mask0_outline_ins">
<use xlink:href="#path1_fill" fill="white" transform="translate(706 -721)"/>
</mask>
<g mask="url(#mask0_outline_ins)">
<use xlink:href="#path2_stroke_2x" transform="translate(706 -721)" fill="#F5F5F5"/>
</g>
</g>
</g>
<g id="Start" filter="url(#filter1_i)">
<use xlink:href="#path3_fill" transform="translate(773 -632)" fill="#2B5B81"/>
</g>
</g>
</g>
<defs>
<filter id="filter0_d" filterUnits="userSpaceOnUse" x="702" y="-721" width="248" height="248" color-interpolation-filters="sRGB">
<feFlood flood-opacity="0" result="BackgroundImageFix"/>
<feColorMatrix in="SourceAlpha" type="matrix" values="0 0 0 0 0 0 0 0 0 0 0 0 0 0 0 0 0 0 255 0"/>
<feOffset dx="0" dy="4"/>
<feGaussianBlur stdDeviation="2"/>
<feColorMatrix type="matrix" values="0 0 0 0 0 0 0 0 0 0 0 0 0 0 0 0 0 0 0.25 0"/>
<feBlend mode="normal" in2="BackgroundImageFix" result="effect1_dropShadow"/>
<feBlend mode="normal" in="SourceGraphic" in2="effect1_dropShadow" result="shape"/>
</filter>
<filter id="filter1_i" filterUnits="userSpaceOnUse" x="776" y="-620" width="115" height="40" color-interpolation-filters="sRGB">
<feFlood flood-opacity="0" result="BackgroundImageFix"/>
<feBlend mode="normal" in="SourceGraphic" in2="BackgroundImageFix" result="shape"/>
<feColorMatrix in="SourceAlpha" type="matrix" values="0 0 0 0 0 0 0 0 0 0 0 0 0 0 0 0 0 0 255 0" result="hardAlpha"/>
<feOffset dx="1" dy="1"/>
<feGaussianBlur stdDeviation="0.5"/>
<feComposite in2="hardAlpha" operator="arithmetic" k2="-1" k3="1"/>
<feColorMatrix type="matrix" values="0 0 0 0 0 0 0 0 0 0 0 0 0 0 0 0 0 0 0.25 0"/>
<feBlend mode="normal" in2="shape" result="effect1_innerShadow"/>
</filter>
<path id="path0_fill" d="M 116.536 6C 118.075 3.33333 121.925 3.33333 123.464 6L 220.459 174C 221.999 176.667 220.074 180 216.995 180L 23.0052 180C 19.926 180 18.0015 176.667 19.5411 174L 116.536 6Z"/>
<path id="path1_fill" d="M 240 120C 240 186.274 186.274 240 120 240C 53.7258 240 0 186.274 0 120C 0 53.7258 53.7258 0 120 0C 186.274 0 240 53.7258 240 120Z"/>
<path id="path2_stroke_2x" d="M 232 120C 232 181.856 181.856 232 120 232L 120 248C 190.692 248 248 190.692 248 120L 232 120ZM 120 232C 58.1441 232 8 181.856 8 120L -8 120C -8 190.692 49.3076 248 120 248L 120 232ZM 8 120C 8 58.1441 58.1441 8 120 8L 120 -8C 49.3076 -8 -8 49.3076 -8 120L 8 120ZM 120 8C 181.856 8 232 58.1441 232 120L 248 120C 248 49.3076 190.692 -8 120 -8L 120 8Z"/>
<path id="path3_fill" d="M 15.792 50.952C 13.7387 50.952 11.7227 50.672 9.744 50.112C 7.76533 49.552 6.14133 48.7493 4.872 47.704C 3.64 46.6587 3.024 45.464 3.024 44.12L 3.024 38.128L 4.032 38.128C 4.66667 41.8613 5.89867 44.568 7.728 46.248C 9.55733 47.8907 12.0773 48.712 15.288 48.712C 17.304 48.712 19.0213 48.208 20.44 47.2C 21.896 46.192 22.624 44.792 22.624 43C 22.624 41.432 22.1387 40.0693 21.168 38.912C 20.1973 37.7547 18.6293 36.5413 16.464 35.272L 9.576 31.184C 7.18667 29.7653 5.488 28.328 4.48 26.872C 3.50933 25.416 3.024 23.6427 3.024 21.552C 3.024 18.6773 4.01333 16.3813 5.992 14.664C 8.008 12.9093 10.64 12.032 13.888 12.032C 15.792 12.032 17.6773 12.312 19.544 12.872C 21.4107 13.3947 22.9413 14.1787 24.136 15.224C 25.368 16.232 25.984 17.408 25.984 18.752L 25.984 24.744L 24.976 24.744C 24.3413 21.0107 23.128 18.3413 21.336 16.736C 19.5813 15.0933 17.0987 14.272 13.888 14.272C 12.1707 14.272 10.6587 14.7947 9.352 15.84C 8.04533 16.8853 7.392 18.248 7.392 19.928C 7.392 21.4587 7.85867 22.728 8.792 23.736C 9.76267 24.744 11.368 25.92 13.608 27.264L 20.496 31.352C 23.0347 32.8827 24.8267 34.3013 25.872 35.608C 26.9173 36.9147 27.44 38.576 27.44 40.592C 27.44 43.728 26.3947 46.248 24.304 48.152C 22.2133 50.0187 19.376 50.952 15.792 50.952ZM 41.6754 50.56C 39.5847 50.56 37.942 49.9627 36.7474 48.768C 35.5527 47.5733 34.9554 45.744 34.9554 43.28L 34.9554 25.92L 31.0354 25.92L 31.0354 23.68L 34.9554 23.68L 34.9554 18.64L 37.7554 15.28L 39.9954 15.28L 39.9954 23.68L 46.7154 23.68L 46.7154 25.92L 39.9954 25.92L 39.9954 43.28C 39.9954 46.64 41.302 48.32 43.9154 48.32C 44.8114 48.32 45.558 48.2267 46.1554 48.04C 46.79 47.8533 47.4434 47.5733 48.1154 47.2L 48.6754 48.32C 47.8167 48.9547 46.8647 49.496 45.8194 49.944C 44.774 50.3547 43.3927 50.56 41.6754 50.56ZM 59.0853 50.56C 57.8906 50.56 56.6773 50.3173 55.4453 49.832C 54.2133 49.3093 53.1493 48.4693 52.2533 47.312C 51.3946 46.1547 50.9652 44.624 50.9652 42.72C 50.9652 39.8827 52.2719 37.8667 54.8852 36.672C 57.5359 35.4773 60.9892 34.88 65.2452 34.88L 66.9253 34.88C 66.9253 31.2213 66.4213 28.72 65.4133 27.376C 64.4053 26.032 62.9492 25.36 61.0452 25.36C 59.3652 25.36 58.0213 25.7147 57.0132 26.424C 56.0052 27.1333 55.2959 28.3653 54.8852 30.12L 52.3653 30.12C 52.3653 28.8507 52.4399 27.8613 52.5892 27.152C 52.7386 26.4053 53.1306 25.7147 53.7653 25.08C 54.4372 24.408 55.5386 23.9227 57.0692 23.624C 58.6372 23.288 60.3359 23.12 62.1653 23.12C 65.1893 23.12 67.5786 23.9413 69.3332 25.584C 71.0879 27.1893 71.9652 30.288 71.9652 34.88L 71.9652 50L 69.1653 50L 67.2053 47.48L 66.9253 47.48C 66.2533 48.3387 65.2639 49.0667 63.9573 49.664C 62.6506 50.2613 61.0266 50.56 59.0853 50.56ZM 61.6052 48.04C 62.8372 48.04 63.8639 47.7413 64.6852 47.144C 65.5066 46.5467 66.2533 45.7253 66.9253 44.68L 66.9253 37.12L 65.2452 37.12C 62.4826 37.12 60.2986 37.6427 58.6932 38.688C 57.0879 39.696 56.2852 41.04 56.2852 42.72C 56.2852 44.4373 56.7892 45.7627 57.7972 46.696C 58.8426 47.592 60.1119 48.04 61.6052 48.04ZM 80.2222 30.4C 80.2222 28.496 79.9609 27.096 79.4382 26.2C 78.9155 25.2667 77.8702 24.8 76.3022 24.8L 75.7422 24.8L 75.7422 23.68L 80.2222 23.68C 81.6409 23.68 82.7049 23.8853 83.4142 24.296C 84.1609 24.6693 84.6835 25.304 84.9822 26.2L 85.2622 26.2C 85.9342 25.3413 86.8302 24.6133 87.9502 24.016C 89.1075 23.4187 90.4515 23.12 91.9822 23.12C 93.4755 23.12 94.5955 23.4 95.3422 23.96C 95.9769 24.4453 96.6302 25.2853 97.3022 26.48L 95.0622 28.16C 94.6515 27.6 94.0542 27.1893 93.2702 26.928C 92.4862 26.6293 91.5902 26.48 90.5822 26.48C 89.4622 26.48 88.4355 26.7413 87.5022 27.264C 86.5689 27.7493 85.8222 28.4213 85.2622 29.28L 85.2622 50L 80.2222 50L 80.2222 30.4ZM 109.816 50.56C 107.725 50.56 106.083 49.9627 104.888 48.768C 103.693 47.5733 103.096 45.744 103.096 43.28L 103.096 25.92L 99.176 25.92L 99.176 23.68L 103.096 23.68L 103.096 18.64L 105.896 15.28L 108.136 15.28L 108.136 23.68L 114.856 23.68L 114.856 25.92L 108.136 25.92L 108.136 43.28C 108.136 46.64 109.443 48.32 112.056 48.32C 112.952 48.32 113.699 48.2267 114.296 48.04C 114.931 47.8533 115.584 47.5733 116.256 47.2L 116.816 48.32C 115.957 48.9547 115.005 49.496 113.96 49.944C 112.915 50.3547 111.533 50.56 109.816 50.56Z"/>
</defs>
</svg>
