<svg width="583" height="681" viewBox="0 0 583 681" version="1.1" xmlns="http://www.w3.org/2000/svg" xmlns:xlink="http://www.w3.org/1999/xlink">
<title>portfolio</title>
<desc>Created using Figma</desc>
<g id="Canvas" transform="translate(-724 3984)">
<g id="portfolio">
<g id="play_button" filter="url(#filter0_d)">
<g id="Ellipse 2">
<mask id="mask0_outline_ins">
<use xlink:href="#path0_fill" fill="white" transform="translate(1056 -3551)"/>
</mask>
<g mask="url(#mask0_outline_ins)">
<use xlink:href="#path1_stroke_2x" transform="translate(1056 -3551)" fill="#F5F5F5"/>
</g>
</g>
<g id="Polygon 2">
<use xlink:href="#path2_fill" transform="matrix(0.866025 -0.5 0.5 0.866025 1012 -3474)" fill="#F5F5F5"/>
</g>
<g id="Start" filter="url(#filter1_i)">
<use xlink:href="#path3_fill" transform="translate(1123 -3462)" fill="#2B5B81"/>
</g>
</g>
<g id="pause">
<g id="Group">
<g id="Ellipse 2">
<mask id="mask1_outline_ins">
<use xlink:href="#path0_fill" fill="white" transform="translate(727 -3549)"/>
</mask>
<g mask="url(#mask1_outline_ins)">
<use xlink:href="#path1_stroke_2x" transform="translate(727 -3549)" fill="#5E8EB4"/>
</g>
</g>
<g id="Rectangle 7">
<use xlink:href="#path4_fill" transform="translate(861 -3517)" fill="#4D7DA3"/>
</g>
<g id="Rectangle 7">
<use xlink:href="#path4_fill" transform="translate(808 -3517)" fill="#4D7DA3"/>
</g>
</g>
<g id="Paused">
<use xlink:href="#path5_fill" transform="translate(762 -3461)" fill="#F5F5F5"/>
</g>
</g>
<g id="complete">
<g id="Group" filter="url(#filter2_d)">
<g id="Polygon 2">
<use xlink:href="#path2_fill" transform="matrix(0.866025 -0.5 0.5 0.866025 1018 -3876)" fill="#5E8EB4"/>
</g>
<g id="Ellipse 2">
<mask id="mask2_outline_ins">
<use xlink:href="#path0_fill" fill="white" transform="translate(1063 -3952)"/>
</mask>
<g mask="url(#mask2_outline_ins)">
<use xlink:href="#path1_stroke_2x" transform="translate(1063 -3952)" fill="#5E8EB4"/>
</g>
</g>
</g>
<g id="Complete!" filter="url(#filter3_d)">
<use xlink:href="#path6_fill" transform="translate(1079 -3862)" fill="#F5F5F5"/>
</g>
</g>
<g id="continue">
<g id="Group" filter="url(#filter4_d)">
<g id="Polygon 2">
<use xlink:href="#path2_fill" transform="matrix(0.866025 -0.5 0.5 0.866025 683 -3876)" fill="#5E8EB4"/>
</g>
<g id="Ellipse 2">
<mask id="mask3_outline_ins">
<use xlink:href="#path0_fill" fill="white" transform="translate(728 -3952)"/>
</mask>
<g mask="url(#mask3_outline_ins)">
<use xlink:href="#path1_stroke_2x" transform="translate(728 -3952)" fill="#5E8EB4"/>
</g>
</g>
</g>
<g id="Continue" filter="url(#filter5_d)">
<use xlink:href="#path7_fill" transform="translate(751 -3862)" fill="#F5F5F5"/>
</g>
</g>
<g id="Icon">
<g id="Ellipse 2">
<use xlink:href="#path8_fill" transform="translate(898.923 -3750.05)" fill="#F5F5F5"/>
<mask id="mask4_outline_ins">
<use xlink:href="#path8_fill" fill="white" transform="translate(898.923 -3750.05)"/>
</mask>
<g mask="url(#mask4_outline_ins)">
<use xlink:href="#path9_stroke_2x" transform="translate(898.923 -3750.05)" fill="#5E8EB4"/>
</g>
</g>
<g id="Polygon 2">
<use xlink:href="#path10_fill" transform="matrix(0.866025 -0.5 0.5 0.866025 855 -3675.87)" fill="#5E8EB4"/>
<mask id="mask5_outline_ins">
<use xlink:href="#path10_fill" fill="white" transform="matrix(0.866025 -0.5 0.5 0.866025 855 -3675.87)"/>
</mask>
<g mask="url(#mask5_outline_ins)">
<use xlink:href="#path11_stroke_2x" transform="matrix(0.866025 -0.5 0.5 0.866025 855 -3675.87)" fill="#5E8EB4"/>
</g>
</g>
</g>
</g>
</g>
<defs>
<filter id="filter0_d" filterUnits="userSpaceOnUse" x="1026" y="-3582" width="274" height="279" color-interpolation-filters="sRGB">
<feFlood flood-opacity="0" result="BackgroundImageFix"/>
<feColorMatrix in="SourceAlpha" type="matrix" values="0 0 0 0 0 0 0 0 0 0 0 0 0 0 0 0 0 0 255 0"/>
<feOffset dx="0" dy="4"/>
<feGaussianBlur stdDeviation="2"/>
<feColorMatrix type="matrix" values="0 0 0 0 0 0 0 0 0 0 0 0 0 0 0 0 0 0 0.25 0"/>
<feBlend mode="normal" in2="BackgroundImageFix" result="effect1_dropShadow"/>
<feBlend mode="normal" in="SourceGraphic" in2="effect1_dropShadow" result="shape"/>
</filter>
<filter id="filter1_i" filterUnits="userSpaceOnUse" x="1126" y="-3450" width="115" height="40" color-interpolation-filters="sRGB">
<feFlood flood-opacity="0" result="BackgroundImageFix"/>
<feBlend mode="normal" in="SourceGraphic" in2="BackgroundImageFix" result="shape"/>
<feColorMatrix in="SourceAlpha" type="matrix" values="0 0 0 0 0 0 0 0 0 0 0 0 0 0 0 0 0 0 255 0" result="hardAlpha"/>
<feOffset dx="1" dy="1"/>
<feGaussianBlur stdDeviation="0.5"/>
<feComposite in2="hardAlpha" operator="arithmetic" k2="-1" k3="1"/>
<feColorMatrix type="matrix" values="0 0 0 0 0 0 0 0 0 0 0 0 0 0 0 0 0 0 0.25 0"/>
<feBlend mode="normal" in2="shape" result="effect1_innerShadow"/>
</filter>
<filter id="filter2_d" filterUnits="userSpaceOnUse" x="1032" y="-3984" width="275" height="280" color-interpolation-filters="sRGB">
<feFlood flood-opacity="0" result="BackgroundImageFix"/>
<feColorMatrix in="SourceAlpha" type="matrix" values="0 0 0 0 0 0 0 0 0 0 0 0 0 0 0 0 0 0 255 0"/>
<feOffset dx="0" dy="4"/>
<feGaussianBlur stdDeviation="2"/>
<feColorMatrix type="matrix" values="0 0 0 0 0 0 0 0 0 0 0 0 0 0 0 0 0 0 0.25 0"/>
<feBlend mode="normal" in2="BackgroundImageFix" result="effect1_dropShadow"/>
<feBlend mode="normal" in="SourceGraphic" in2="effect1_dropShadow" result="shape"/>
</filter>
<filter id="filter3_d" filterUnits="userSpaceOnUse" x="1077" y="-3852" width="210" height="51" color-interpolation-filters="sRGB">
<feFlood flood-opacity="0" result="BackgroundImageFix"/>
<feColorMatrix in="SourceAlpha" type="matrix" values="0 0 0 0 0 0 0 0 0 0 0 0 0 0 0 0 0 0 255 0"/>
<feOffset dx="0" dy="4"/>
<feGaussianBlur stdDeviation="2"/>
<feColorMatrix type="matrix" values="0 0 0 0 0 0 0 0 0 0 0 0 0 0 0 0 0 0 0.25 0"/>
<feBlend mode="normal" in2="BackgroundImageFix" result="effect1_dropShadow"/>
<feBlend mode="normal" in="SourceGraphic" in2="effect1_dropShadow" result="shape"/>
</filter>
<filter id="filter4_d" filterUnits="userSpaceOnUse" x="724" y="-3952" width="248" height="248" color-interpolation-filters="sRGB">
<feFlood flood-opacity="0" result="BackgroundImageFix"/>
<feColorMatrix in="SourceAlpha" type="matrix" values="0 0 0 0 0 0 0 0 0 0 0 0 0 0 0 0 0 0 255 0"/>
<feOffset dx="0" dy="4"/>
<feGaussianBlur stdDeviation="2"/>
<feColorMatrix type="matrix" values="0 0 0 0 0 0 0 0 0 0 0 0 0 0 0 0 0 0 0.25 0"/>
<feBlend mode="normal" in2="BackgroundImageFix" result="effect1_dropShadow"/>
<feBlend mode="normal" in="SourceGraphic" in2="effect1_dropShadow" result="shape"/>
</filter>
<filter id="filter5_d" filterUnits="userSpaceOnUse" x="749" y="-3852" width="191" height="42" color-interpolation-filters="sRGB">
<feFlood flood-opacity="0" result="BackgroundImageFix"/>
<feColorMatrix in="SourceAlpha" type="matrix" values="0 0 0 0 0 0 0 0 0 0 0 0 0 0 0 0 0 0 255 0"/>
<feOffset dx="0" dy="4"/>
<feGaussianBlur stdDeviation="2"/>
<feColorMatrix type="matrix" values="0 0 0 0 0 0 0 0 0 0 0 0 0 0 0 0 0 0 0.25 0"/>
<feBlend mode="normal" in2="BackgroundImageFix" result="effect1_dropShadow"/>
<feBlend mode="normal" in="SourceGraphic" in2="effect1_dropShadow" result="shape"/>
</filter>
<path id="path0_fill" d="M 240 120C 240 186.274 186.274 240 120 240C 53.7258 240 0 186.274 0 120C 0 53.7258 53.7258 0 120 0C 186.274 0 240 53.7258 240 120Z"/>
<path id="path1_stroke_2x" d="M 232 120C 232 181.856 181.856 232 120 232L 120 248C 190.692 248 248 190.692 248 120L 232 120ZM 120 232C 58.1441 232 8 181.856 8 120L -8 120C -8 190.692 49.3076 248 120 248L 120 232ZM 8 120C 8 58.1441 58.1441 8 120 8L 120 -8C 49.3076 -8 -8 49.3076 -8 120L 8 120ZM 120 8C 181.856 8 232 58.1441 232 120L 248 120C 248 49.3076 190.692 -8 120 -8L 120 8Z"/>
<path id="path2_fill" d="M 116.536 6C 118.075 3.33333 121.925 3.33333 123.464 6L 220.459 174C 221.999 176.667 220.074 180 216.995 180L 23.0052 180C 19.926 180 18.0015 176.667 19.5411 174L 116.536 6Z"/>
<path id="path3_fill" d="M 15.792 50.952C 13.7387 50.952 11.7227 50.672 9.744 50.112C 7.76533 49.552 6.14133 48.7493 4.872 47.704C 3.64 46.6587 3.024 45.464 3.024 44.12L 3.024 38.128L 4.032 38.128C 4.66667 41.8613 5.89867 44.568 7.728 46.248C 9.55733 47.8907 12.0773 48.712 15.288 48.712C 17.304 48.712 19.0213 48.208 20.44 47.2C 21.896 46.192 22.624 44.792 22.624 43C 22.624 41.432 22.1387 40.0693 21.168 38.912C 20.1973 37.7547 18.6293 36.5413 16.464 35.272L 9.576 31.184C 7.18667 29.7653 5.488 28.328 4.48 26.872C 3.50933 25.416 3.024 23.6427 3.024 21.552C 3.024 18.6773 4.01333 16.3813 5.992 14.664C 8.008 12.9093 10.64 12.032 13.888 12.032C 15.792 12.032 17.6773 12.312 19.544 12.872C 21.4107 13.3947 22.9413 14.1787 24.136 15.224C 25.368 16.232 25.984 17.408 25.984 18.752L 25.984 24.744L 24.976 24.744C 24.3413 21.0107 23.128 18.3413 21.336 16.736C 19.5813 15.0933 17.0987 14.272 13.888 14.272C 12.1707 14.272 10.6587 14.7947 9.352 15.84C 8.04533 16.8853 7.392 18.248 7.392 19.928C 7.392 21.4587 7.85867 22.728 8.792 23.736C 9.76267 24.744 11.368 25.92 13.608 27.264L 20.496 31.352C 23.0347 32.8827 24.8267 34.3013 25.872 35.608C 26.9173 36.9147 27.44 38.576 27.44 40.592C 27.44 43.728 26.3947 46.248 24.304 48.152C 22.2133 50.0187 19.376 50.952 15.792 50.952ZM 41.6754 50.56C 39.5847 50.56 37.942 49.9627 36.7474 48.768C 35.5527 47.5733 34.9554 45.744 34.9554 43.28L 34.9554 25.92L 31.0354 25.92L 31.0354 23.68L 34.9554 23.68L 34.9554 18.64L 37.7554 15.28L 39.9954 15.28L 39.9954 23.68L 46.7154 23.68L 46.7154 25.92L 39.9954 25.92L 39.9954 43.28C 39.9954 46.64 41.302 48.32 43.9154 48.32C 44.8114 48.32 45.558 48.2267 46.1554 48.04C 46.79 47.8533 47.4434 47.5733 48.1154 47.2L 48.6754 48.32C 47.8167 48.9547 46.8647 49.496 45.8194 49.944C 44.774 50.3547 43.3927 50.56 41.6754 50.56ZM 59.0853 50.56C 57.8906 50.56 56.6773 50.3173 55.4453 49.832C 54.2133 49.3093 53.1493 48.4693 52.2532 47.312C 51.3946 46.1547 50.9653 44.624 50.9653 42.72C 50.9653 39.8827 52.2719 37.8667 54.8852 36.672C 57.5359 35.4773 60.9892 34.88 65.2452 34.88L 66.9253 34.88C 66.9253 31.2213 66.4212 28.72 65.4132 27.376C 64.4053 26.032 62.9492 25.36 61.0452 25.36C 59.3652 25.36 58.0213 25.7147 57.0132 26.424C 56.0052 27.1333 55.2959 28.3653 54.8852 30.12L 52.3653 30.12C 52.3653 28.8507 52.4399 27.8613 52.5893 27.152C 52.7386 26.4053 53.1306 25.7147 53.7653 25.08C 54.4373 24.408 55.5386 23.9227 57.0693 23.624C 58.6372 23.288 60.3359 23.12 62.1652 23.12C 65.1893 23.12 67.5786 23.9413 69.3333 25.584C 71.0879 27.1893 71.9653 30.288 71.9653 34.88L 71.9653 50L 69.1652 50L 67.2052 47.48L 66.9253 47.48C 66.2533 48.3387 65.2639 49.0667 63.9572 49.664C 62.6506 50.2613 61.0266 50.56 59.0853 50.56ZM 61.6053 48.04C 62.8372 48.04 63.8639 47.7413 64.6853 47.144C 65.5066 46.5467 66.2533 45.7253 66.9253 44.68L 66.9253 37.12L 65.2452 37.12C 62.4826 37.12 60.2986 37.6427 58.6933 38.688C 57.0879 39.696 56.2853 41.04 56.2853 42.72C 56.2853 44.4373 56.7893 45.7627 57.7972 46.696C 58.8426 47.592 60.1119 48.04 61.6053 48.04ZM 80.2222 30.4C 80.2222 28.496 79.9609 27.096 79.4382 26.2C 78.9155 25.2667 77.8702 24.8 76.3022 24.8L 75.7422 24.8L 75.7422 23.68L 80.2222 23.68C 81.6409 23.68 82.7049 23.8853 83.4142 24.296C 84.1609 24.6693 84.6835 25.304 84.9822 26.2L 85.2622 26.2C 85.9342 25.3413 86.8302 24.6133 87.9502 24.016C 89.1075 23.4187 90.4515 23.12 91.9822 23.12C 93.4755 23.12 94.5955 23.4 95.3422 23.96C 95.9769 24.4453 96.6302 25.2853 97.3022 26.48L 95.0622 28.16C 94.6515 27.6 94.0542 27.1893 93.2702 26.928C 92.4862 26.6293 91.5902 26.48 90.5822 26.48C 89.4622 26.48 88.4355 26.7413 87.5022 27.264C 86.5689 27.7493 85.8222 28.4213 85.2622 29.28L 85.2622 50L 80.2222 50L 80.2222 30.4ZM 109.816 50.56C 107.725 50.56 106.083 49.9627 104.888 48.768C 103.693 47.5733 103.096 45.744 103.096 43.28L 103.096 25.92L 99.176 25.92L 99.176 23.68L 103.096 23.68L 103.096 18.64L 105.896 15.28L 108.136 15.28L 108.136 23.68L 114.856 23.68L 114.856 25.92L 108.136 25.92L 108.136 43.28C 108.136 46.64 109.443 48.32 112.056 48.32C 112.952 48.32 113.699 48.2267 114.296 48.04C 114.931 47.8533 115.584 47.5733 116.256 47.2L 116.816 48.32C 115.957 48.9547 115.005 49.496 113.96 49.944C 112.915 50.3547 111.533 50.56 109.816 50.56Z"/>
<path id="path4_fill" d="M 0 8C 0 3.58172 3.58172 0 8 0L 16 0C 20.4183 0 24 3.58172 24 8L 24 168C 24 172.418 20.4183 176 16 176L 8 176C 3.58172 176 0 172.418 0 168L 0 8Z"/>
<path id="path5_fill" d="M 5.936 19.76C 5.936 17.856 5.67467 16.456 5.152 15.56C 4.62933 14.6267 3.584 14.16 2.016 14.16L 0.896 14.16L 0.896 13.04L 15.456 13.04C 19.04 13.04 22.2693 13.8053 25.144 15.336C 28.0187 16.8667 29.456 19.8347 29.456 24.24C 29.456 27.152 28.7093 29.392 27.216 30.96C 25.7227 32.528 24.0427 33.5733 22.176 34.096C 20.3467 34.6187 18.6667 34.88 17.136 34.88L 10.976 34.88L 10.976 50L 5.936 50L 5.936 19.76ZM 15.176 32.92C 16.3707 32.92 17.64 32.6213 18.984 32.024C 20.328 31.3893 21.4667 30.4 22.4 29.056C 23.3707 27.712 23.856 26.0133 23.856 23.96C 23.856 21.9067 23.3707 20.208 22.4 18.864C 21.4667 17.52 20.328 16.5493 18.984 15.952C 17.64 15.3173 16.3707 15 15.176 15C 13.8693 15 12.4693 15.1867 10.976 15.56L 10.976 32.36C 12.4693 32.7333 13.8693 32.92 15.176 32.92ZM 40.929 50.56C 39.7343 50.56 38.521 50.3173 37.289 49.832C 36.057 49.3093 34.993 48.4693 34.097 47.312C 33.2383 46.1547 32.809 44.624 32.809 42.72C 32.809 39.8827 34.1157 37.8667 36.729 36.672C 39.3797 35.4773 42.833 34.88 47.089 34.88L 48.769 34.88C 48.769 31.2213 48.265 28.72 47.257 27.376C 46.249 26.032 44.793 25.36 42.889 25.36C 41.209 25.36 39.865 25.7147 38.857 26.424C 37.849 27.1333 37.1397 28.3653 36.729 30.12L 34.209 30.12C 34.209 28.8507 34.2837 27.8613 34.433 27.152C 34.5823 26.4053 34.9743 25.7147 35.609 25.08C 36.281 24.408 37.3823 23.9227 38.913 23.624C 40.481 23.288 42.1797 23.12 44.009 23.12C 47.033 23.12 49.4223 23.9413 51.177 25.584C 52.9317 27.1893 53.809 30.288 53.809 34.88L 53.809 50L 51.009 50L 49.049 47.48L 48.769 47.48C 48.097 48.3387 47.1077 49.0667 45.801 49.664C 44.4943 50.2613 42.8703 50.56 40.929 50.56ZM 43.449 48.04C 44.681 48.04 45.7077 47.7413 46.529 47.144C 47.3503 46.5467 48.097 45.7253 48.769 44.68L 48.769 37.12L 47.089 37.12C 44.3263 37.12 42.1423 37.6427 40.537 38.688C 38.9317 39.696 38.129 41.04 38.129 42.72C 38.129 44.4373 38.633 45.7627 39.641 46.696C 40.6863 47.592 41.9557 48.04 43.449 48.04ZM 71.1939 50.56C 68.3939 50.56 66.0979 49.8133 64.3059 48.32C 62.5513 46.8267 61.6739 44.2133 61.6739 40.48L 61.6739 30.4C 61.6739 28.496 61.4126 27.096 60.8899 26.2C 60.3673 25.2667 59.3219 24.8 57.7539 24.8L 57.1939 24.8L 57.1939 23.68L 61.6739 23.68C 63.0553 23.68 64.0819 23.8667 64.7539 24.24C 65.4633 24.576 65.9673 25.2107 66.2659 26.144C 66.5646 27.0773 66.7139 28.496 66.7139 30.4L 66.7139 40.48C 66.7139 43.0933 67.2926 45.016 68.4499 46.248C 69.6446 47.4427 71.1193 48.04 72.8739 48.04C 74.8526 48.04 76.7193 47.0507 78.4739 45.072L 78.4739 23.68L 83.5139 23.68L 83.5139 50L 80.7139 50L 78.7539 47.76L 78.4739 47.76C 77.6899 48.544 76.6633 49.216 75.3939 49.776C 74.1619 50.2987 72.7619 50.56 71.1939 50.56ZM 100.379 50.56C 96.0854 50.56 93.192 49.8133 91.6987 48.32C 91.064 47.6853 90.672 46.976 90.5227 46.192C 90.3734 45.3707 90.2987 44.12 90.2987 42.44L 91.4187 42.44C 91.7547 44.3067 92.5574 45.7627 93.8267 46.808C 95.1334 47.816 96.944 48.32 99.2587 48.32C 101.312 48.32 102.843 47.9653 103.851 47.256C 104.896 46.5467 105.419 45.5947 105.419 44.4C 105.419 43.3173 105.008 42.384 104.187 41.6C 103.403 40.816 102.133 40.0693 100.379 39.36L 97.0187 37.96C 94.7787 37.064 93.0987 36.0187 91.9787 34.824C 90.8587 33.6293 90.2987 32.1547 90.2987 30.4C 90.2987 28.1227 91.1574 26.3493 92.8747 25.08C 94.592 23.7733 96.8134 23.12 99.5387 23.12C 103.645 23.12 106.445 23.8667 107.939 25.36C 108.573 25.9947 108.965 26.704 109.115 27.488C 109.264 28.272 109.339 29.5227 109.339 31.24L 108.219 31.24C 107.92 29.3733 107.136 27.936 105.867 26.928C 104.597 25.8827 102.861 25.36 100.659 25.36C 98.904 25.36 97.5227 25.7333 96.5147 26.48C 95.544 27.1893 95.0587 28.1227 95.0587 29.28C 95.0587 31.2213 96.552 32.808 99.5387 34.04L 102.899 35.44C 105.437 36.4853 107.285 37.6053 108.443 38.8C 109.6 39.9573 110.179 41.4507 110.179 43.28C 110.179 45.5573 109.264 47.3493 107.435 48.656C 105.605 49.9253 103.253 50.56 100.379 50.56ZM 126.827 50.56C 124.288 50.56 122.142 49.9627 120.387 48.768C 118.632 47.536 117.307 45.8933 116.411 43.84C 115.515 41.7493 115.067 39.416 115.067 36.84C 115.067 34.3013 115.515 31.9867 116.411 29.896C 117.307 27.8053 118.595 26.1627 120.275 24.968C 121.992 23.736 123.99 23.12 126.267 23.12C 130.038 23.12 132.838 24.184 134.667 26.312C 136.534 28.4027 137.467 31.4453 137.467 35.44L 137.355 37.68L 120.387 37.68C 120.387 40.816 121.059 43.3733 122.403 45.352C 123.747 47.3307 125.595 48.32 127.947 48.32C 129.702 48.32 131.176 47.9467 132.371 47.2C 133.603 46.4533 134.742 45.3333 135.787 43.84L 136.907 44.68C 135.675 46.7333 134.238 48.2267 132.595 49.16C 130.952 50.0933 129.03 50.56 126.827 50.56ZM 132.147 35.44C 132.147 32.1547 131.662 29.6533 130.691 27.936C 129.72 26.2187 128.246 25.36 126.267 25.36C 125.147 25.36 124.139 25.808 123.243 26.704C 122.347 27.5627 121.638 28.7573 121.115 30.288C 120.63 31.8187 120.387 33.536 120.387 35.44L 132.147 35.44ZM 152.603 50.56C 149.355 50.56 146.853 49.272 145.099 46.696C 143.381 44.12 142.523 40.8347 142.523 36.84C 142.523 32.8453 143.419 29.56 145.211 26.984C 147.04 24.408 149.691 23.12 153.163 23.12C 154.581 23.12 155.832 23.2693 156.915 23.568C 157.997 23.8667 159.08 24.2773 160.163 24.8L 160.163 19.76C 160.163 17.856 159.901 16.456 159.379 15.56C 158.856 14.6267 157.811 14.16 156.243 14.16L 155.123 14.16L 155.123 13.04L 160.163 13.04C 161.544 13.04 162.571 13.2267 163.243 13.6C 163.952 13.936 164.456 14.5707 164.755 15.504C 165.053 16.4373 165.203 17.856 165.203 19.76L 165.203 50L 162.403 50L 160.443 47.48L 160.163 47.48C 159.341 48.4133 158.371 49.16 157.251 49.72C 156.168 50.28 154.619 50.56 152.603 50.56ZM 154.283 48.32C 155.813 48.32 156.971 48.04 157.755 47.48C 158.539 46.92 159.341 46.08 160.163 44.96L 160.163 27.04C 159.043 26.5173 158.072 26.1067 157.251 25.808C 156.429 25.5093 155.627 25.36 154.843 25.36C 152.453 25.36 150.68 26.4053 149.523 28.496C 148.403 30.5867 147.843 33.368 147.843 36.84C 147.843 40.2747 148.384 43.056 149.467 45.184C 150.549 47.2747 152.155 48.32 154.283 48.32Z"/>
<path id="path6_fill" d="M 16.992 43.96C 14.016 43.96 11.392 43.24 9.12 41.8C 6.88 40.36 5.152 38.408 3.936 35.944C 2.72 33.448 2.112 30.68 2.112 27.64C 2.112 24.504 2.768 21.608 4.08 18.952C 5.424 16.296 7.232 14.2 9.504 12.664C 11.808 11.128 14.304 10.36 16.992 10.36C 19.552 10.36 21.792 10.728 23.712 11.464C 25.664 12.168 27.104 13.08 28.032 14.2C 28.576 14.872 28.912 15.768 29.04 16.888C 29.168 17.976 29.232 19.48 29.232 21.4L 28.272 21.4C 27.664 18.296 26.544 16.008 24.912 14.536C 23.28 13.032 21.12 12.28 18.432 12.28C 14.976 12.28 12.192 13.496 10.08 15.928C 7.968 18.36 6.912 22.264 6.912 27.64C 6.912 30.168 7.312 32.52 8.112 34.696C 8.944 36.872 10.224 38.648 11.952 40.024C 13.68 41.368 15.84 42.04 18.432 42.04C 20.768 42.04 22.8 41.48 24.528 40.36C 26.288 39.24 27.856 37.56 29.232 35.32L 30.192 36.04C 28.72 38.92 26.896 40.968 24.72 42.184C 22.576 43.368 20 43.96 16.992 43.96ZM 44.6419 43.48C 42.4659 43.48 40.5779 42.968 38.9779 41.944C 37.3779 40.888 36.1619 39.464 35.3299 37.672C 34.4979 35.88 34.0819 33.896 34.0819 31.72C 34.0819 29.544 34.4979 27.56 35.3299 25.768C 36.1619 23.976 37.3779 22.568 38.9779 21.544C 40.5779 20.488 42.4659 19.96 44.6419 19.96C 46.8179 19.96 48.7059 20.488 50.3059 21.544C 51.9059 22.568 53.1219 23.976 53.9539 25.768C 54.7859 27.56 55.2019 29.544 55.2019 31.72C 55.2019 33.896 54.7859 35.88 53.9539 37.672C 53.1219 39.464 51.9059 40.888 50.3059 41.944C 48.7059 42.968 46.8179 43.48 44.6419 43.48ZM 44.6419 41.56C 45.8259 41.56 46.8659 41.128 47.7619 40.264C 48.6899 39.4 49.3939 38.216 49.8739 36.712C 50.3859 35.208 50.6419 33.544 50.6419 31.72C 50.6419 29.896 50.3859 28.232 49.8739 26.728C 49.3939 25.224 48.6899 24.04 47.7619 23.176C 46.8659 22.312 45.8259 21.88 44.6419 21.88C 43.4579 21.88 42.4019 22.312 41.4739 23.176C 40.5779 24.04 39.8739 25.224 39.3619 26.728C 38.8819 28.232 38.6419 29.896 38.6419 31.72C 38.6419 33.544 38.8819 35.208 39.3619 36.712C 39.8739 38.216 40.5779 39.4 41.4739 40.264C 42.4019 41.128 43.4579 41.56 44.6419 41.56ZM 61.551 26.2C 61.551 24.568 61.327 23.368 60.879 22.6C 60.431 21.8 59.535 21.4 58.191 21.4L 57.231 21.4L 57.231 20.44L 61.551 20.44C 62.735 20.44 63.631 20.6 64.239 20.92C 64.879 21.24 65.343 21.72 65.631 22.36L 65.871 22.36C 66.543 21.688 67.407 21.128 68.463 20.68C 69.551 20.2 70.767 19.96 72.111 19.96C 73.455 19.96 74.607 20.216 75.567 20.728C 76.527 21.208 77.295 22.072 77.871 23.32C 78.703 22.264 79.759 21.448 81.039 20.872C 82.351 20.264 83.695 19.96 85.071 19.96C 87.119 19.96 88.751 20.6 89.967 21.88C 91.183 23.16 91.791 25.4 91.791 28.6L 91.791 43L 87.471 43L 87.471 28.6C 87.471 26.296 87.151 24.648 86.511 23.656C 85.871 22.632 84.911 22.12 83.631 22.12C 82.735 22.12 81.791 22.456 80.799 23.128C 79.807 23.768 79.071 24.472 78.591 25.24C 78.751 25.72 78.831 26.84 78.831 28.6L 78.831 43L 74.511 43L 74.511 28.6C 74.511 26.296 74.191 24.648 73.551 23.656C 72.911 22.632 71.951 22.12 70.671 22.12C 68.975 22.12 67.375 22.968 65.871 24.664L 65.871 43L 61.551 43L 61.551 26.2ZM 99.2385 26.2C 99.2385 24.568 99.0145 23.368 98.5665 22.6C 98.1185 21.8 97.2225 21.4 95.8785 21.4L 94.9185 21.4L 94.9185 20.44L 99.2385 20.44C 100.455 20.44 101.367 20.616 101.974 20.968C 102.614 21.288 103.063 21.832 103.319 22.6L 103.559 22.6C 104.134 21.864 104.951 21.24 106.007 20.728C 107.062 20.216 108.406 19.96 110.039 19.96C 112.79 19.96 114.918 21.08 116.422 23.32C 117.926 25.528 118.679 28.328 118.679 31.72C 118.679 35.144 117.895 37.96 116.326 40.168C 114.791 42.376 112.534 43.48 109.558 43.48C 108.343 43.48 107.271 43.352 106.342 43.096C 105.414 42.84 104.487 42.488 103.559 42.04L 103.559 52.12L 99.2385 52.12L 99.2385 26.2ZM 108.119 41.56C 110.166 41.56 111.67 40.664 112.63 38.872C 113.622 37.08 114.119 34.696 114.119 31.72C 114.119 28.776 113.655 26.408 112.727 24.616C 111.799 22.792 110.422 21.88 108.599 21.88C 106.454 21.88 104.774 22.84 103.559 24.76L 103.559 40.12C 104.518 40.568 105.351 40.92 106.055 41.176C 106.758 41.432 107.446 41.56 108.119 41.56ZM 124.539 17.08C 124.539 15.448 124.315 14.248 123.867 13.48C 123.419 12.68 122.523 12.28 121.179 12.28L 120.219 12.28L 120.219 11.32L 124.539 11.32C 125.723 11.32 126.603 11.48 127.179 11.8C 127.787 12.088 128.219 12.632 128.475 13.432C 128.731 14.232 128.859 15.448 128.859 17.08L 128.859 43L 124.539 43L 124.539 17.08ZM 144.756 43.48C 142.58 43.48 140.74 42.968 139.236 41.944C 137.732 40.888 136.596 39.48 135.828 37.72C 135.06 35.928 134.676 33.928 134.676 31.72C 134.676 29.544 135.06 27.56 135.828 25.768C 136.596 23.976 137.7 22.568 139.14 21.544C 140.612 20.488 142.324 19.96 144.276 19.96C 147.508 19.96 149.908 20.872 151.476 22.696C 153.076 24.488 153.876 27.096 153.876 30.52L 153.78 32.44L 139.236 32.44C 139.236 35.128 139.812 37.32 140.964 39.016C 142.116 40.712 143.7 41.56 145.716 41.56C 147.22 41.56 148.484 41.24 149.508 40.6C 150.564 39.96 151.54 39 152.436 37.72L 153.396 38.44C 152.34 40.2 151.108 41.48 149.7 42.28C 148.292 43.08 146.644 43.48 144.756 43.48ZM 149.316 30.52C 149.316 27.704 148.9 25.56 148.068 24.088C 147.236 22.616 145.972 21.88 144.276 21.88C 143.316 21.88 142.452 22.264 141.684 23.032C 140.916 23.768 140.308 24.792 139.86 26.104C 139.444 27.416 139.236 28.888 139.236 30.52L 149.316 30.52ZM 166.081 43.48C 164.289 43.48 162.881 42.968 161.857 41.944C 160.833 40.92 160.321 39.352 160.321 37.24L 160.321 22.36L 156.961 22.36L 156.961 20.44L 160.321 20.44L 160.321 16.12L 162.721 13.24L 164.641 13.24L 164.641 20.44L 170.401 20.44L 170.401 22.36L 164.641 22.36L 164.641 37.24C 164.641 40.12 165.761 41.56 168.001 41.56C 168.769 41.56 169.409 41.48 169.921 41.32C 170.465 41.16 171.025 40.92 171.601 40.6L 172.081 41.56C 171.345 42.104 170.529 42.568 169.633 42.952C 168.737 43.304 167.553 43.48 166.081 43.48ZM 184.412 43.48C 182.236 43.48 180.396 42.968 178.892 41.944C 177.388 40.888 176.252 39.48 175.484 37.72C 174.716 35.928 174.332 33.928 174.332 31.72C 174.332 29.544 174.716 27.56 175.484 25.768C 176.252 23.976 177.356 22.568 178.796 21.544C 180.268 20.488 181.98 19.96 183.932 19.96C 187.164 19.96 189.564 20.872 191.132 22.696C 192.732 24.488 193.532 27.096 193.532 30.52L 193.436 32.44L 178.892 32.44C 178.892 35.128 179.468 37.32 180.62 39.016C 181.772 40.712 183.356 41.56 185.372 41.56C 186.876 41.56 188.14 41.24 189.164 40.6C 190.22 39.96 191.196 39 192.092 37.72L 193.052 38.44C 191.996 40.2 190.764 41.48 189.356 42.28C 187.948 43.08 186.3 43.48 184.412 43.48ZM 188.972 30.52C 188.972 27.704 188.556 25.56 187.724 24.088C 186.892 22.616 185.628 21.88 183.932 21.88C 182.972 21.88 182.108 22.264 181.34 23.032C 180.572 23.768 179.964 24.792 179.516 26.104C 179.1 27.416 178.892 28.888 178.892 30.52L 188.972 30.52ZM 199.833 35.56L 198.969 11.32L 203.481 11.32L 202.617 35.56L 199.833 35.56ZM 201.225 43.672C 200.521 43.672 199.913 43.416 199.401 42.904C 198.889 42.392 198.633 41.768 198.633 41.032C 198.633 40.328 198.889 39.736 199.401 39.256C 199.913 38.744 200.521 38.488 201.225 38.488C 201.929 38.488 202.537 38.744 203.049 39.256C 203.561 39.736 203.817 40.328 203.817 41.032C 203.817 41.768 203.561 42.392 203.049 42.904C 202.537 43.416 201.929 43.672 201.225 43.672Z"/>
<path id="path7_fill" d="M 16.992 43.96C 14.016 43.96 11.392 43.24 9.12 41.8C 6.88 40.36 5.152 38.408 3.936 35.944C 2.72 33.448 2.112 30.68 2.112 27.64C 2.112 24.504 2.768 21.608 4.08 18.952C 5.424 16.296 7.232 14.2 9.504 12.664C 11.808 11.128 14.304 10.36 16.992 10.36C 19.552 10.36 21.792 10.728 23.712 11.464C 25.664 12.168 27.104 13.08 28.032 14.2C 28.576 14.872 28.912 15.768 29.04 16.888C 29.168 17.976 29.232 19.48 29.232 21.4L 28.272 21.4C 27.664 18.296 26.544 16.008 24.912 14.536C 23.28 13.032 21.12 12.28 18.432 12.28C 14.976 12.28 12.192 13.496 10.08 15.928C 7.968 18.36 6.912 22.264 6.912 27.64C 6.912 30.168 7.312 32.52 8.112 34.696C 8.944 36.872 10.224 38.648 11.952 40.024C 13.68 41.368 15.84 42.04 18.432 42.04C 20.768 42.04 22.8 41.48 24.528 40.36C 26.288 39.24 27.856 37.56 29.232 35.32L 30.192 36.04C 28.72 38.92 26.896 40.968 24.72 42.184C 22.576 43.368 20 43.96 16.992 43.96ZM 44.6419 43.48C 42.4659 43.48 40.5779 42.968 38.9779 41.944C 37.3779 40.888 36.1619 39.464 35.3299 37.672C 34.4979 35.88 34.0819 33.896 34.0819 31.72C 34.0819 29.544 34.4979 27.56 35.3299 25.768C 36.1619 23.976 37.3779 22.568 38.9779 21.544C 40.5779 20.488 42.4659 19.96 44.6419 19.96C 46.8179 19.96 48.7059 20.488 50.3059 21.544C 51.9059 22.568 53.1219 23.976 53.9539 25.768C 54.7859 27.56 55.2019 29.544 55.2019 31.72C 55.2019 33.896 54.7859 35.88 53.9539 37.672C 53.1219 39.464 51.9059 40.888 50.3059 41.944C 48.7059 42.968 46.8179 43.48 44.6419 43.48ZM 44.6419 41.56C 45.8259 41.56 46.8659 41.128 47.7619 40.264C 48.6899 39.4 49.3939 38.216 49.8739 36.712C 50.3859 35.208 50.6419 33.544 50.6419 31.72C 50.6419 29.896 50.3859 28.232 49.8739 26.728C 49.3939 25.224 48.6899 24.04 47.7619 23.176C 46.8659 22.312 45.8259 21.88 44.6419 21.88C 43.4579 21.88 42.4019 22.312 41.4739 23.176C 40.5779 24.04 39.8739 25.224 39.3619 26.728C 38.8819 28.232 38.6419 29.896 38.6419 31.72C 38.6419 33.544 38.8819 35.208 39.3619 36.712C 39.8739 38.216 40.5779 39.4 41.4739 40.264C 42.4019 41.128 43.4579 41.56 44.6419 41.56ZM 61.551 26.2C 61.551 24.568 61.327 23.368 60.879 22.6C 60.431 21.8 59.535 21.4 58.191 21.4L 57.231 21.4L 57.231 20.44L 61.551 20.44C 62.735 20.44 63.631 20.6 64.239 20.92C 64.879 21.24 65.343 21.72 65.631 22.36L 65.871 22.36C 66.543 21.688 67.407 21.128 68.463 20.68C 69.551 20.2 70.767 19.96 72.111 19.96C 74.511 19.96 76.463 20.6 77.967 21.88C 79.503 23.16 80.271 25.4 80.271 28.6L 80.271 43L 75.951 43L 75.951 28.6C 75.951 26.36 75.439 24.728 74.415 23.704C 73.423 22.648 72.175 22.12 70.671 22.12C 68.975 22.12 67.375 22.968 65.871 24.664L 65.871 43L 61.551 43L 61.551 26.2ZM 93.6124 43.48C 91.8204 43.48 90.4124 42.968 89.3884 41.944C 88.3644 40.92 87.8524 39.352 87.8524 37.24L 87.8524 22.36L 84.4924 22.36L 84.4924 20.44L 87.8524 20.44L 87.8524 16.12L 90.2524 13.24L 92.1724 13.24L 92.1724 20.44L 97.9324 20.44L 97.9324 22.36L 92.1724 22.36L 92.1724 37.24C 92.1724 40.12 93.2924 41.56 95.5324 41.56C 96.3004 41.56 96.9404 41.48 97.4524 41.32C 97.9964 41.16 98.5564 40.92 99.1324 40.6L 99.6124 41.56C 98.8764 42.104 98.0604 42.568 97.1644 42.952C 96.2684 43.304 95.0844 43.48 93.6124 43.48ZM 105.703 17.56C 104.967 17.56 104.327 17.256 103.783 16.648C 103.271 16.04 103.015 15.32 103.015 14.488C 103.015 13.816 103.207 13.288 103.591 12.904C 104.007 12.52 104.551 12.328 105.223 12.328C 105.959 12.328 106.583 12.632 107.095 13.24C 107.639 13.848 107.911 14.568 107.911 15.4C 107.911 16.072 107.703 16.6 107.287 16.984C 106.903 17.368 106.375 17.56 105.703 17.56ZM 103.879 26.2C 103.879 24.568 103.655 23.368 103.207 22.6C 102.759 21.8 101.863 21.4 100.519 21.4L 99.5591 21.4L 99.5591 20.44L 103.879 20.44C 105.063 20.44 105.943 20.6 106.519 20.92C 107.127 21.208 107.559 21.752 107.815 22.552C 108.071 23.352 108.199 24.568 108.199 26.2L 108.199 43L 103.879 43L 103.879 26.2ZM 115.692 26.2C 115.692 24.568 115.468 23.368 115.02 22.6C 114.572 21.8 113.676 21.4 112.332 21.4L 111.372 21.4L 111.372 20.44L 115.692 20.44C 116.876 20.44 117.772 20.6 118.38 20.92C 119.02 21.24 119.484 21.72 119.772 22.36L 120.012 22.36C 120.684 21.688 121.548 21.128 122.604 20.68C 123.692 20.2 124.908 19.96 126.252 19.96C 128.652 19.96 130.604 20.6 132.108 21.88C 133.644 23.16 134.412 25.4 134.412 28.6L 134.412 43L 130.092 43L 130.092 28.6C 130.092 26.36 129.58 24.728 128.556 23.704C 127.564 22.648 126.316 22.12 124.812 22.12C 123.116 22.12 121.516 22.968 120.012 24.664L 120.012 43L 115.692 43L 115.692 26.2ZM 149.289 43.48C 146.889 43.48 144.921 42.84 143.385 41.56C 141.881 40.28 141.129 38.04 141.129 34.84L 141.129 26.2C 141.129 24.568 140.905 23.368 140.457 22.6C 140.009 21.8 139.113 21.4 137.769 21.4L 137.289 21.4L 137.289 20.44L 141.129 20.44C 142.313 20.44 143.193 20.6 143.769 20.92C 144.377 21.208 144.809 21.752 145.065 22.552C 145.321 23.352 145.449 24.568 145.449 26.2L 145.449 34.84C 145.449 37.08 145.945 38.728 146.937 39.784C 147.961 40.808 149.225 41.32 150.729 41.32C 152.425 41.32 154.025 40.472 155.529 38.776L 155.529 20.44L 159.849 20.44L 159.849 43L 157.449 43L 155.769 41.08L 155.529 41.08C 154.857 41.752 153.977 42.328 152.889 42.808C 151.833 43.256 150.633 43.48 149.289 43.48ZM 175.552 43.48C 173.377 43.48 171.536 42.968 170.033 41.944C 168.528 40.888 167.393 39.48 166.624 37.72C 165.856 35.928 165.473 33.928 165.473 31.72C 165.473 29.544 165.856 27.56 166.624 25.768C 167.393 23.976 168.497 22.568 169.936 21.544C 171.408 20.488 173.121 19.96 175.073 19.96C 178.305 19.96 180.704 20.872 182.273 22.696C 183.873 24.488 184.672 27.096 184.672 30.52L 184.576 32.44L 170.033 32.44C 170.033 35.128 170.608 37.32 171.76 39.016C 172.913 40.712 174.496 41.56 176.513 41.56C 178.016 41.56 179.28 41.24 180.305 40.6C 181.36 39.96 182.337 39 183.232 37.72L 184.193 38.44C 183.136 40.2 181.905 41.48 180.497 42.28C 179.088 43.08 177.441 43.48 175.552 43.48ZM 180.112 30.52C 180.112 27.704 179.696 25.56 178.865 24.088C 178.033 22.616 176.769 21.88 175.073 21.88C 174.112 21.88 173.249 22.264 172.48 23.032C 171.712 23.768 171.105 24.792 170.656 26.104C 170.24 27.416 170.033 28.888 170.033 30.52L 180.112 30.52Z"/>
<path id="path8_fill" d="M 234.256 117.128C 234.256 181.816 181.816 234.256 117.128 234.256C 52.44 234.256 0 181.816 0 117.128C 0 52.44 52.44 0 117.128 0C 181.816 0 234.256 52.44 234.256 117.128Z"/>
<path id="path9_stroke_2x" d="M 226.256 117.128C 226.256 177.398 177.398 226.256 117.128 226.256L 117.128 242.256C 186.234 242.256 242.256 186.234 242.256 117.128L 226.256 117.128ZM 117.128 226.256C 56.8583 226.256 8 177.398 8 117.128L -8 117.128C -8 186.234 48.0218 242.256 117.128 242.256L 117.128 226.256ZM 8 117.128C 8 56.8583 56.8583 8 117.128 8L 117.128 -8C 48.0218 -8 -8 48.0218 -8 117.128L 8 117.128ZM 117.128 8C 177.398 8 226.256 56.8583 226.256 117.128L 242.256 117.128C 242.256 48.0218 186.234 -8 117.128 -8L 117.128 8Z"/>
<path id="path10_fill" d="M 113.664 6C 115.204 3.33333 119.053 3.33333 120.592 6L 215.1 169.692C 216.64 172.359 214.715 175.692 211.636 175.692L 22.6204 175.692C 19.5412 175.692 17.6167 172.359 19.1563 169.692L 113.664 6Z"/>
<path id="path11_stroke_2x" d="M 215.1 169.692L 228.956 161.692L 215.1 169.692ZM 19.1563 169.692L 33.0127 177.692L 19.1563 169.692ZM 106.736 14L 201.244 177.692L 228.956 161.692L 134.449 -2L 106.736 14ZM 211.636 159.692L 22.6204 159.692L 22.6204 191.692L 211.636 191.692L 211.636 159.692ZM 33.0127 177.692L 127.52 14L 99.8076 -2L 5.29989 161.692L 33.0127 177.692ZM 134.449 -2C 126.751 -15.3333 107.506 -15.3333 99.8076 -2L 127.52 14C 122.902 22 111.355 22 106.736 14L 134.449 -2ZM 201.244 177.692C 196.625 169.692 202.398 159.692 211.636 159.692L 211.636 191.692C 227.032 191.692 236.654 175.026 228.956 161.692L 201.244 177.692ZM 22.6204 159.692C 31.858 159.692 37.6315 169.692 33.0127 177.692L 5.29989 161.692C -2.39811 175.026 7.22439 191.692 22.6204 191.692L 22.6204 159.692Z"/>
</defs>
</svg>
