<svg width="320" height="320" viewBox="0 0 320 320" version="1.1" xmlns="http://www.w3.org/2000/svg" xmlns:xlink="http://www.w3.org/1999/xlink">
<title>phalcon_no_img</title>
<desc>Created using Figma</desc>
<g id="Canvas" transform="translate(108 175)">
<g id="phalcon_no_img">
<g id="Rectangle">
<use xlink:href="#path0_fill" transform="translate(-108 -175)" fill="#445C6C"/>
</g>
<g id="No Image Available">
<use xlink:href="#path1_fill" transform="translate(-68 -175)" fill="#76C39B"/>
</g>
</g>
</g>
<defs>
<path id="path0_fill" d="M 0 4C 0 1.79086 1.79086 0 4 0L 316 0C 318.209 0 320 1.79086 320 4L 320 316C 320 318.209 318.209 320 316 320L 4 320C 1.79086 320 0 318.209 0 316L 0 4Z"/>
<path id="path1_fill" d="M 30.1875 120L 25.6641 120L 8.48438 93.7031L 8.48438 120L 3.96094 120L 3.96094 85.875L 8.48438 85.875L 25.7109 112.289L 25.7109 85.875L 30.1875 85.875L 30.1875 120ZM 36.3516 107.086C 36.3516 104.602 36.8359 102.367 37.8047 100.383C 38.7891 98.3984 40.1484 96.8672 41.8828 95.7891C 43.6328 94.7109 45.625 94.1719 47.8594 94.1719C 51.3125 94.1719 54.1016 95.3672 56.2266 97.7578C 58.3672 100.148 59.4375 103.328 59.4375 107.297L 59.4375 107.602C 59.4375 110.07 58.9609 112.289 58.0078 114.258C 57.0703 116.211 55.7188 117.734 53.9531 118.828C 52.2031 119.922 50.1875 120.469 47.9062 120.469C 44.4688 120.469 41.6797 119.273 39.5391 116.883C 37.4141 114.492 36.3516 111.328 36.3516 107.391L 36.3516 107.086ZM 40.7109 107.602C 40.7109 110.414 41.3594 112.672 42.6562 114.375C 43.9688 116.078 45.7188 116.93 47.9062 116.93C 50.1094 116.93 51.8594 116.07 53.1562 114.352C 54.4531 112.617 55.1016 110.195 55.1016 107.086C 55.1016 104.305 54.4375 102.055 53.1094 100.336C 51.7969 98.6016 50.0469 97.7344 47.8594 97.7344C 45.7188 97.7344 43.9922 98.5859 42.6797 100.289C 41.3672 101.992 40.7109 104.43 40.7109 107.602ZM 8.78906 176L 4.28906 176L 4.28906 141.875L 8.78906 141.875L 8.78906 176ZM 20.4375 150.641L 20.5547 153.453C 22.4141 151.266 24.9219 150.172 28.0781 150.172C 31.625 150.172 34.0391 151.531 35.3203 154.25C 36.1641 153.031 37.2578 152.047 38.6016 151.297C 39.9609 150.547 41.5625 150.172 43.4062 150.172C 48.9688 150.172 51.7969 153.117 51.8906 159.008L 51.8906 176L 47.5547 176L 47.5547 159.266C 47.5547 157.453 47.1406 156.102 46.3125 155.211C 45.4844 154.305 44.0938 153.852 42.1406 153.852C 40.5312 153.852 39.1953 154.336 38.1328 155.305C 37.0703 156.258 36.4531 157.547 36.2812 159.172L 36.2812 176L 31.9219 176L 31.9219 159.383C 31.9219 155.695 30.1172 153.852 26.5078 153.852C 23.6641 153.852 21.7188 155.062 20.6719 157.484L 20.6719 176L 16.3359 176L 16.3359 150.641L 20.4375 150.641ZM 74.1094 176C 73.8594 175.5 73.6562 174.609 73.5 173.328C 71.4844 175.422 69.0781 176.469 66.2812 176.469C 63.7812 176.469 61.7266 175.766 60.1172 174.359C 58.5234 172.938 57.7266 171.141 57.7266 168.969C 57.7266 166.328 58.7266 164.281 60.7266 162.828C 62.7422 161.359 65.5703 160.625 69.2109 160.625L 73.4297 160.625L 73.4297 158.633C 73.4297 157.117 72.9766 155.914 72.0703 155.023C 71.1641 154.117 69.8281 153.664 68.0625 153.664C 66.5156 153.664 65.2188 154.055 64.1719 154.836C 63.125 155.617 62.6016 156.562 62.6016 157.672L 58.2422 157.672C 58.2422 156.406 58.6875 155.188 59.5781 154.016C 60.4844 152.828 61.7031 151.891 63.2344 151.203C 64.7812 150.516 66.4766 150.172 68.3203 150.172C 71.2422 150.172 73.5312 150.906 75.1875 152.375C 76.8438 153.828 77.7031 155.836 77.7656 158.398L 77.7656 170.07C 77.7656 172.398 78.0625 174.25 78.6562 175.625L 78.6562 176L 74.1094 176ZM 66.9141 172.695C 68.2734 172.695 69.5625 172.344 70.7812 171.641C 72 170.938 72.8828 170.023 73.4297 168.898L 73.4297 163.695L 70.0312 163.695C 64.7188 163.695 62.0625 165.25 62.0625 168.359C 62.0625 169.719 62.5156 170.781 63.4219 171.547C 64.3281 172.312 65.4922 172.695 66.9141 172.695ZM 83.5312 163.109C 83.5312 159.156 84.4453 156.016 86.2734 153.688C 88.1016 151.344 90.5234 150.172 93.5391 150.172C 96.6328 150.172 99.0469 151.266 100.781 153.453L 100.992 150.641L 104.953 150.641L 104.953 175.391C 104.953 178.672 103.977 181.258 102.023 183.148C 100.086 185.039 97.4766 185.984 94.1953 185.984C 92.3672 185.984 90.5781 185.594 88.8281 184.812C 87.0781 184.031 85.7422 182.961 84.8203 181.602L 87.0703 179C 88.9297 181.297 91.2031 182.445 93.8906 182.445C 96 182.445 97.6406 181.852 98.8125 180.664C 100 179.477 100.594 177.805 100.594 175.648L 100.594 173.469C 98.8594 175.469 96.4922 176.469 93.4922 176.469C 90.5234 176.469 88.1172 175.273 86.2734 172.883C 84.4453 170.492 83.5312 167.234 83.5312 163.109ZM 87.8906 163.602C 87.8906 166.461 88.4766 168.711 89.6484 170.352C 90.8203 171.977 92.4609 172.789 94.5703 172.789C 97.3047 172.789 99.3125 171.547 100.594 169.062L 100.594 157.484C 99.2656 155.062 97.2734 153.852 94.6172 153.852C 92.5078 153.852 90.8594 154.672 89.6719 156.312C 88.4844 157.953 87.8906 160.383 87.8906 163.602ZM 122.039 176.469C 118.602 176.469 115.805 175.344 113.648 173.094C 111.492 170.828 110.414 167.805 110.414 164.023L 110.414 163.227C 110.414 160.711 110.891 158.469 111.844 156.5C 112.812 154.516 114.156 152.969 115.875 151.859C 117.609 150.734 119.484 150.172 121.5 150.172C 124.797 150.172 127.359 151.258 129.188 153.43C 131.016 155.602 131.93 158.711 131.93 162.758L 131.93 164.562L 114.75 164.562C 114.812 167.062 115.539 169.086 116.93 170.633C 118.336 172.164 120.117 172.93 122.273 172.93C 123.805 172.93 125.102 172.617 126.164 171.992C 127.227 171.367 128.156 170.539 128.953 169.508L 131.602 171.57C 129.477 174.836 126.289 176.469 122.039 176.469ZM 121.5 153.734C 119.75 153.734 118.281 154.375 117.094 155.656C 115.906 156.922 115.172 158.703 114.891 161L 127.594 161L 127.594 160.672C 127.469 158.469 126.875 156.766 125.812 155.562C 124.75 154.344 123.312 153.734 121.5 153.734ZM 22.8047 224.094L 8.50781 224.094L 5.29688 233L 0.65625 233L 13.6875 198.875L 17.625 198.875L 30.6797 233L 26.0625 233L 22.8047 224.094ZM 9.86719 220.391L 21.4688 220.391L 15.6562 204.43L 9.86719 220.391ZM 41.7891 227.117L 48.0703 207.641L 52.5 207.641L 43.4062 233L 40.1016 233L 30.9141 207.641L 35.3438 207.641L 41.7891 227.117ZM 71.9531 233C 71.7031 232.5 71.5 231.609 71.3438 230.328C 69.3281 232.422 66.9219 233.469 64.125 233.469C 61.625 233.469 59.5703 232.766 57.9609 231.359C 56.3672 229.938 55.5703 228.141 55.5703 225.969C 55.5703 223.328 56.5703 221.281 58.5703 219.828C 60.5859 218.359 63.4141 217.625 67.0547 217.625L 71.2734 217.625L 71.2734 215.633C 71.2734 214.117 70.8203 212.914 69.9141 212.023C 69.0078 211.117 67.6719 210.664 65.9062 210.664C 64.3594 210.664 63.0625 211.055 62.0156 211.836C 60.9688 212.617 60.4453 213.562 60.4453 214.672L 56.0859 214.672C 56.0859 213.406 56.5312 212.188 57.4219 211.016C 58.3281 209.828 59.5469 208.891 61.0781 208.203C 62.625 207.516 64.3203 207.172 66.1641 207.172C 69.0859 207.172 71.375 207.906 73.0312 209.375C 74.6875 210.828 75.5469 212.836 75.6094 215.398L 75.6094 227.07C 75.6094 229.398 75.9062 231.25 76.5 232.625L 76.5 233L 71.9531 233ZM 64.7578 229.695C 66.1172 229.695 67.4062 229.344 68.625 228.641C 69.8438 227.938 70.7266 227.023 71.2734 225.898L 71.2734 220.695L 67.875 220.695C 62.5625 220.695 59.9062 222.25 59.9062 225.359C 59.9062 226.719 60.3594 227.781 61.2656 228.547C 62.1719 229.312 63.3359 229.695 64.7578 229.695ZM 87.1172 233L 82.7812 233L 82.7812 207.641L 87.1172 207.641L 87.1172 233ZM 82.4297 200.914C 82.4297 200.211 82.6406 199.617 83.0625 199.133C 83.5 198.648 84.1406 198.406 84.9844 198.406C 85.8281 198.406 86.4688 198.648 86.9062 199.133C 87.3438 199.617 87.5625 200.211 87.5625 200.914C 87.5625 201.617 87.3438 202.203 86.9062 202.672C 86.4688 203.141 85.8281 203.375 84.9844 203.375C 84.1406 203.375 83.5 203.141 83.0625 202.672C 82.6406 202.203 82.4297 201.617 82.4297 200.914ZM 98.7891 233L 94.4531 233L 94.4531 197L 98.7891 197L 98.7891 233ZM 121.406 233C 121.156 232.5 120.953 231.609 120.797 230.328C 118.781 232.422 116.375 233.469 113.578 233.469C 111.078 233.469 109.023 232.766 107.414 231.359C 105.82 229.938 105.023 228.141 105.023 225.969C 105.023 223.328 106.023 221.281 108.023 219.828C 110.039 218.359 112.867 217.625 116.508 217.625L 120.727 217.625L 120.727 215.633C 120.727 214.117 120.273 212.914 119.367 212.023C 118.461 211.117 117.125 210.664 115.359 210.664C 113.812 210.664 112.516 211.055 111.469 211.836C 110.422 212.617 109.898 213.562 109.898 214.672L 105.539 214.672C 105.539 213.406 105.984 212.188 106.875 211.016C 107.781 209.828 109 208.891 110.531 208.203C 112.078 207.516 113.773 207.172 115.617 207.172C 118.539 207.172 120.828 207.906 122.484 209.375C 124.141 210.828 125 212.836 125.062 215.398L 125.062 227.07C 125.062 229.398 125.359 231.25 125.953 232.625L 125.953 233L 121.406 233ZM 114.211 229.695C 115.57 229.695 116.859 229.344 118.078 228.641C 119.297 227.938 120.18 227.023 120.727 225.898L 120.727 220.695L 117.328 220.695C 112.016 220.695 109.359 222.25 109.359 225.359C 109.359 226.719 109.812 227.781 110.719 228.547C 111.625 229.312 112.789 229.695 114.211 229.695ZM 153.328 220.602C 153.328 224.477 152.438 227.594 150.656 229.953C 148.875 232.297 146.484 233.469 143.484 233.469C 140.281 233.469 137.805 232.336 136.055 230.07L 135.844 233L 131.859 233L 131.859 197L 136.195 197L 136.195 210.43C 137.945 208.258 140.359 207.172 143.438 207.172C 146.516 207.172 148.93 208.336 150.68 210.664C 152.445 212.992 153.328 216.18 153.328 220.227L 153.328 220.602ZM 148.992 220.109C 148.992 217.156 148.422 214.875 147.281 213.266C 146.141 211.656 144.5 210.852 142.359 210.852C 139.5 210.852 137.445 212.18 136.195 214.836L 136.195 225.805C 137.523 228.461 139.594 229.789 142.406 229.789C 144.484 229.789 146.102 228.984 147.258 227.375C 148.414 225.766 148.992 223.344 148.992 220.109ZM 163.523 233L 159.188 233L 159.188 197L 163.523 197L 163.523 233ZM 181.008 233.469C 177.57 233.469 174.773 232.344 172.617 230.094C 170.461 227.828 169.383 224.805 169.383 221.023L 169.383 220.227C 169.383 217.711 169.859 215.469 170.812 213.5C 171.781 211.516 173.125 209.969 174.844 208.859C 176.578 207.734 178.453 207.172 180.469 207.172C 183.766 207.172 186.328 208.258 188.156 210.43C 189.984 212.602 190.898 215.711 190.898 219.758L 190.898 221.562L 173.719 221.562C 173.781 224.062 174.508 226.086 175.898 227.633C 177.305 229.164 179.086 229.93 181.242 229.93C 182.773 229.93 184.07 229.617 185.133 228.992C 186.195 228.367 187.125 227.539 187.922 226.508L 190.57 228.57C 188.445 231.836 185.258 233.469 181.008 233.469ZM 180.469 210.734C 178.719 210.734 177.25 211.375 176.062 212.656C 174.875 213.922 174.141 215.703 173.859 218L 186.562 218L 186.562 217.672C 186.438 215.469 185.844 213.766 184.781 212.562C 183.719 211.344 182.281 210.734 180.469 210.734Z"/>
</defs>
</svg>
