<svg width="534" height="479" viewBox="0 0 534 479" version="1.1" xmlns="http://www.w3.org/2000/svg" xmlns:xlink="http://www.w3.org/1999/xlink">
<title>SavvySoftWorks</title>
<desc>Created using Figma</desc>
<g id="Canvas" transform="translate(839 412)">
<g id="SavvySoftWorks">
<g id="SavvySoftWorks_Logo">
<g id="Canvas">
<g id="SavvySoftWorks_Logo">
<g id="layer1">
<g id="path6527">
<g id="Vector">
<use xlink:href="#path0_fill" transform="translate(-837.153 -90.1528)" fill="#418BC4"/>
</g>
<g id="Vector">
<use xlink:href="#path1_fill" transform="translate(-839 -92)" fill="#418BC4"/>
</g>
</g>
<g id="path6542">
<g id="Vector">
<use xlink:href="#path2_fill" transform="translate(-834.437 -88.1058)" fill="#418BC4"/>
</g>
<g id="Vector">
<use xlink:href="#path3_fill" transform="translate(-836.437 -90.1058)" fill="#F5F5F5"/>
</g>
</g>
<g id="S">
<g id="Vector">
<use xlink:href="#path4_fill" transform="matrix(0.960946 0 0 1.04064 -818.107 -82.4394)" fill="#F5F5F5"/>
</g>
</g>
<g id="avvySoftWorks">
<g id="Vector">
<use xlink:href="#path5_fill" transform="translate(-744.041 -64.6608)" fill="#418BC4"/>
</g>
</g>
</g>
</g>
</g>
</g>
<g id="SavvySoftWorks_S">
<g id="Canvas">
<g id="layer1">
<g id="path6527">
<g id="Vector">
<use xlink:href="#path6_fill" transform="matrix(2 0 0 2 -726.916 -409.916)" fill="#418BC4"/>
</g>
<g id="Vector">
<use xlink:href="#path7_fill" transform="matrix(2 0 0 2 -729 -412)" fill="#418BC4"/>
</g>
</g>
<g id="path6542">
<g id="Vector">
<use xlink:href="#path8_fill" transform="matrix(2 0 0 2 -713.381 -396.381)" fill="#418BC4"/>
</g>
<g id="Vector">
<use xlink:href="#path9_fill" transform="matrix(2 0 0 2 -720.149 -403.148)" fill="#F5F5F5"/>
</g>
</g>
<g id="S">
<g id="Vector">
<use xlink:href="#path10_fill" transform="matrix(1.92189 0 0 2.08128 -661.34 -382.141)" fill="#F5F5F5"/>
</g>
</g>
</g>
</g>
</g>
<g id="iosSavvy">
<g id="Canvas">
<g id="iosSavvy_1024">
<g id="g10">
<g id="rect3029">
<g id="Vector">
<use xlink:href="#path11_fill" transform="matrix(1.25 0 0 1.25 -601 3)" fill="#418BC4"/>
</g>
</g>
<g id="path4174">
<g id="Vector">
<use xlink:href="#path12_fill" transform="matrix(1.25 0 0 1.25 -596.68 7.00118)" fill="#418BC4"/>
</g>
<g id="Vector">
<use xlink:href="#path13_fill" transform="matrix(1.25 0 0 1.25 -596.799 6.88254)" fill="#418BC4"/>
</g>
</g>
<g id="path4176">
<g id="Vector">
<use xlink:href="#path14_fill" transform="matrix(1.25 0 0 1.25 -595.562 8.31256)" fill="#418BC4"/>
</g>
<g id="Vector">
<use xlink:href="#path15_fill" transform="matrix(1.25 0 0 1.25 -596.812 7.06256)" fill="#F5F5F5"/>
</g>
</g>
<g id="S">
<g id="Vector">
<use xlink:href="#path16_fill" transform="matrix(1.25 0 0 1.25 -587.247 11.1915)" fill="#F5F5F5"/>
</g>
</g>
</g>
</g>
</g>
</g>
</g>
</g>
<defs>
<path id="path0_fill" d="M 0.00292431 46.0696C -0.133965 33.9953 4.53993 22.3607 12.9975 13.7227C 21.455 5.08474 33.0041 0.150107 45.1068 0.00336816C 57.2095 -0.14337 68.8754 4.50976 77.5408 12.9401C 86.2063 21.3705 91.1622 32.8883 91.3195 44.9625C 91.4768 57.0366 86.8226 68.679 78.3796 77.3312C 69.9367 85.9834 58.3959 90.9375 46.2935 91.1045C 34.1911 91.2716 22.5173 86.6382 13.8376 78.2223C 5.15796 69.8065 0.182586 58.297 0.00492417 46.2231"/>
<path id="path1_fill" d="M 0.00304335 47.9378C 0.0146034 48.9579 0.850933 49.7754 1.87103 49.7639C 2.89112 49.7523 3.70869 48.916 3.69713 47.8959L 0.00304335 47.9378ZM 46.954 1.85053L 46.9764 3.69756L 46.954 1.85053ZM 93.1667 46.8097L 91.3197 46.8337L 93.1667 46.8097ZM 48.1407 92.9517L 48.1152 91.1048L 48.1407 92.9517ZM 3.69905 48.0432C 3.68404 47.0231 2.84496 46.2084 1.82491 46.2234C 0.804863 46.2384 -0.00988657 47.0775 0.00512343 48.0975L 3.69905 48.0432ZM 3.69713 47.8959C 3.56581 36.3125 8.04959 25.1502 16.1645 16.8622L 13.5248 14.2776C 4.7246 23.2656 -0.139417 35.3724 0.00304335 47.9378L 3.69713 47.8959ZM 16.1645 16.8622C 24.2795 8.57398 35.3619 3.83838 46.9764 3.69756L 46.9316 0.00350413C 34.3407 0.156164 22.3248 5.28982 13.5248 14.2776L 16.1645 16.8622ZM 46.9764 3.69756C 58.5909 3.55674 69.7854 8.02222 78.1 16.1113L 80.6761 13.4633C 71.6598 4.69162 59.5225 -0.149156 46.9316 0.00350413L 46.9764 3.69756ZM 78.1 16.1113C 86.4144 24.2002 91.1688 35.2506 91.3197 46.8337L 95.0137 46.7856C 94.85 34.2205 89.6925 22.2352 80.6761 13.4633L 78.1 16.1113ZM 91.3197 46.8337C 91.4706 58.4169 87.0057 69.5867 78.9048 77.8884L 81.5489 80.4685C 90.3339 71.4657 95.1774 59.3507 95.0137 46.7856L 91.3197 46.8337ZM 78.9048 77.8884C 70.8038 86.1902 59.7294 90.9444 48.1152 91.1048L 48.1662 94.7987C 60.7568 94.6249 72.7641 89.4711 81.5489 80.4685L 78.9048 77.8884ZM 48.1152 91.1048C 36.501 91.2651 25.2989 86.8185 16.9707 78.7434L 14.399 81.3957C 23.4301 90.1522 35.5756 94.9726 48.1662 94.7987L 48.1152 91.1048ZM 16.9707 78.7434C 8.64252 70.6685 3.86949 59.626 3.69905 48.0432L 0.00512343 48.0975C 0.190013 60.6623 5.36772 72.639 14.399 81.3957L 16.9707 78.7434Z"/>
<path id="path2_fill" d="M 0.0027497 43.6242C -0.125974 32.1908 4.26939 21.1737 12.2229 12.9942C 20.1764 4.81475 31.0373 0.142133 42.4187 0.00318912C 53.8002 -0.135754 64.7709 4.27035 72.9199 12.2533C 81.069 20.2362 85.7295 31.1427 85.8774 42.5759C 86.0253 54.0091 81.6484 65.0336 73.7086 73.2265C 65.7688 81.4194 54.9158 86.1104 43.5346 86.2686C 32.1535 86.4268 21.1754 82.0393 13.013 74.0702C 4.85055 66.1011 0.171696 55.2024 0.00463035 43.7695"/>
<path id="path3_fill" d="M 0.00287658 45.6467C 0.0153066 46.7512 0.920766 47.6365 2.02526 47.6241C 3.12976 47.6117 4.01506 46.7062 4.00262 45.6017L 0.00287658 45.6467ZM 44.4187 2.00319L 44.4431 4.00304L 44.4187 2.00319ZM 87.8774 44.5759L 89.8773 44.55L 87.8774 44.5759ZM 45.5346 88.2686L 45.5068 86.2688L 45.5346 88.2686ZM 4.00442 45.7403C 3.98828 44.6358 3.07986 43.7536 1.9754 43.7697C 0.870957 43.7858 -0.0113034 44.6943 0.00483662 45.7987L 4.00442 45.7403ZM 4.00262 45.6017C 3.87983 34.6954 8.07265 24.1881 15.6568 16.3885L 12.789 13.6C 4.46614 22.1593 -0.131783 33.6861 0.00287658 45.6467L 4.00262 45.6017ZM 15.6568 16.3885C 23.2406 8.5892 33.5947 4.13548 44.4431 4.00304L 44.3943 0.0033384C 32.4799 0.148788 21.1122 5.0403 12.789 13.6L 15.6568 16.3885ZM 44.4431 4.00304C 55.2915 3.87061 65.7502 8.07024 73.5203 15.682L 76.3195 12.8246C 67.7916 4.47046 56.3088 -0.142112 44.3943 0.0033384L 44.4431 4.00304ZM 73.5203 15.682C 81.2908 23.294 85.7365 33.6957 85.8776 44.6018L 89.8773 44.55C 89.7225 32.5896 84.8471 21.1783 76.3195 12.8246L 73.5203 15.682ZM 85.8776 44.6018C 86.0187 55.5078 81.8435 66.0222 74.2724 73.8347L 77.1449 76.6184C 85.4534 68.045 90.032 56.5104 89.8773 44.55L 85.8776 44.6018ZM 74.2724 73.8347C 66.7016 81.6468 56.355 86.118 45.5068 86.2688L 45.5624 90.2684C 57.4766 90.1028 68.836 85.1921 77.1449 76.6184L 74.2724 73.8347ZM 45.5068 86.2688C 34.6587 86.4196 24.193 82.2376 16.4101 74.6391L 13.6158 77.5012C 22.1577 85.8409 33.6482 90.4341 45.5624 90.2684L 45.5068 86.2688ZM 16.4101 74.6391C 8.62695 67.0402 4.16378 56.6461 4.00442 45.7403L 0.00483662 45.7987C 0.179607 57.7588 5.07416 69.1619 13.6158 77.5012L 16.4101 74.6391Z"/>
<path id="path4_fill" d="M 53.2683 1.6406C 53.8308 1.8906 54.0964 2.2656 54.0652 2.7656C 54.0652 3.2656 53.862 3.8437 53.4558 4.5C 53.0496 5.1562 52.4714 5.8594 51.7214 6.6094C 51.0027 7.3281 50.2058 8.0625 49.3308 8.8125C 48.612 9.4062 47.7839 10.0468 46.8464 10.7344C 46.0339 11.3594 45.0339 12.0781 43.8464 12.8906C 42.6902 13.6718 41.362 14.5312 39.862 15.4687C 40.7058 14.6875 41.2996 13.9844 41.6433 13.3594C 41.987 12.7344 42.1589 12.1562 42.1589 11.625C 42.1589 10.9062 41.8777 10.2812 41.3152 9.75C 40.7527 9.2187 40.0339 8.7812 39.1589 8.4375C 38.2839 8.0625 37.2996 7.7656 36.2058 7.5468C 35.1433 7.3281 34.0964 7.1718 33.0652 7.0781C 32.0652 6.9531 31.1433 6.875 30.2996 6.8437C 29.4558 6.8125 28.8308 6.7968 28.4246 6.7968C 26.7683 6.7968 25.0964 6.9687 23.4089 7.3125C 21.7214 7.625 20.2058 8.1718 18.862 8.9531C 17.5183 9.7031 16.4246 10.7187 15.5808 12C 14.737 13.25 14.3152 14.8125 14.3152 16.6875C 14.3152 18.8125 14.9089 20.6406 16.0964 22.1718C 17.2839 23.6718 18.8464 24.9844 20.7839 26.1094C 22.7214 27.2344 24.9089 28.2187 27.3464 29.0625C 29.8152 29.9062 32.2996 30.7187 34.7996 31.5C 37.3308 32.25 39.7683 33.0156 42.112 33.7968C 44.487 34.5781 46.5496 35.4687 48.2996 36.4687C 50.612 37.8437 52.2683 39.4531 53.2683 41.2968C 54.2996 43.1094 54.8152 45.0312 54.8152 47.0625C 54.8152 49.6875 54.112 52.1875 52.7058 54.5625C 51.3308 56.9066 49.5183 59.0936 47.2683 61.1246C 45.0496 63.1566 42.5183 64.9846 39.6746 66.6096C 36.8308 68.2346 33.9558 69.6246 31.0496 70.7816C 28.1433 71.9376 25.3308 72.8286 22.612 73.4526C 19.8933 74.0786 17.5339 74.3906 15.5339 74.3906C 12.9402 74.3906 10.6589 74.1246 8.69024 73.5936C 6.72146 73.0936 5.08084 72.4846 3.76834 71.7656C 2.45584 71.0466 1.47146 70.3126 0.815222 69.5626C 0.190222 68.7816 -0.0754078 68.1566 0.0183422 67.6876C 0.0808422 67.1246 0.362092 66.5156 0.862092 65.8596C 1.39334 65.1716 2.17459 64.4376 3.20584 63.6566C 4.23709 62.8746 5.53396 62.0156 7.09644 61.0786C 8.65894 60.1406 10.5496 59.1096 12.7683 57.9846C 11.862 58.8596 11.4558 59.6716 11.5496 60.4216C 11.6433 61.1716 12.0808 61.8436 12.862 62.4376C 13.6746 63.0316 14.7214 63.5626 16.0027 64.0316C 17.3152 64.4686 18.6902 64.8436 20.1277 65.1566C 21.5964 65.4376 23.0652 65.6566 24.5339 65.8126C 26.0027 65.9686 27.2996 66.0466 28.4246 66.0466C 30.3308 66.0466 32.2214 65.8436 34.0964 65.4376C 36.0027 65.0316 37.7058 64.3906 39.2058 63.5156C 40.737 62.6096 41.9714 61.4376 42.9089 59.9996C 43.8777 58.5316 44.362 56.7656 44.362 54.7031C 44.362 53.4844 44.112 52.2344 43.612 50.9531C 43.112 49.6406 42.2527 48.375 41.0339 47.1562C 39.8464 45.9375 38.237 44.7968 36.2058 43.7344C 34.1746 42.6406 31.6433 41.7031 28.612 40.9218C 23.987 39.7031 20.0808 38.4531 16.8933 37.1718C 13.737 35.8594 11.1902 34.4687 9.25274 33C 7.34644 31.5 6.01834 29.875 5.26834 28.125C 4.51834 26.3437 4.23709 24.3594 4.42459 22.1718C 4.61209 19.6406 5.37772 17.3437 6.72146 15.2812C 8.06524 13.1875 9.76834 11.3281 11.8308 9.7031C 13.9246 8.0468 16.2527 6.6094 18.8152 5.3906C 21.4089 4.1718 24.0339 3.1718 26.6902 2.3906C 29.3777 1.5781 31.987 0.9844 34.5183 0.6094C 37.0496 0.2031 39.2996 1.70288e-06 41.2683 1.70288e-06C 42.7683 1.70288e-06 44.1746 0.0625017 45.487 0.187502C 46.8308 0.312502 48.0183 0.4531 49.0496 0.6094C 50.112 0.7656 51.0027 0.9531 51.7214 1.1718C 52.4402 1.3594 52.9558 1.5156 53.2683 1.6406Z"/>
<path id="path5_fill" d="M 11.072 48C 9.4933 48 8.0213 47.744 6.656 47.232C 5.33333 46.6773 4.16 45.9307 3.136 44.992C 2.15467 44.0533 1.38667 42.9653 0.832 41.728C 0.27733 40.448 -1.14441e-08 39.0827 -1.14441e-08 37.632C -1.14441e-08 36.1813 0.34133 34.8373 1.024 33.6C 1.70667 32.3627 2.66667 31.296 3.904 30.4C 5.14133 29.504 6.61333 28.8213 8.32 28.352C 10.0267 27.84 11.904 27.584 13.952 27.584C 15.6587 27.584 17.3867 27.7333 19.136 28.032C 20.8853 28.3307 22.4427 28.7573 23.808 29.312L 23.808 26.304C 23.808 23.36 22.976 21.0347 21.312 19.328C 19.648 17.5787 17.344 16.704 14.4 16.704C 12.6933 16.704 10.944 17.0453 9.152 17.728C 7.36 18.4107 5.54667 19.392 3.712 20.672L 2.176 17.792C 6.48533 14.8907 10.6667 13.44 14.72 13.44C 18.9013 13.44 22.1867 14.6133 24.576 16.96C 26.9653 19.3067 28.16 22.5493 28.16 26.688L 28.16 41.728C 28.16 42.9227 28.6933 43.52 29.76 43.52L 29.76 47.36C 29.0347 47.488 28.48 47.552 28.096 47.552C 26.9867 47.552 26.112 47.2747 25.472 46.72C 24.8747 46.1653 24.5547 45.3973 24.512 44.416L 24.384 41.792C 22.848 43.7973 20.9067 45.3333 18.56 46.4C 16.256 47.4667 13.76 48 11.072 48ZM 12.096 44.672C 14.3573 44.672 16.4267 44.2453 18.304 43.392C 20.224 42.5387 21.6747 41.408 22.656 40C 23.04 39.616 23.3173 39.2107 23.488 38.784C 23.7013 38.3147 23.808 37.888 23.808 37.504L 23.808 32.064C 22.3573 31.5093 20.8427 31.0827 19.264 30.784C 17.728 30.4853 16.1493 30.336 14.528 30.336C 11.456 30.336 8.96 30.976 7.04 32.256C 5.12 33.536 4.16 35.2213 4.16 37.312C 4.16 38.336 4.352 39.296 4.736 40.192C 5.16267 41.088 5.71733 41.8773 6.4 42.56C 7.12533 43.2 7.9787 43.712 8.96 44.096C 9.9413 44.48 10.9867 44.672 12.096 44.672ZM 46.672 47.36L 33.104 14.016L 37.584 14.016L 49.04 43.328L 60.56 14.016L 64.784 14.016L 51.216 47.36L 46.672 47.36ZM 80.797 47.36L 67.229 14.016L 71.709 14.016L 83.165 43.328L 94.685 14.016L 98.909 14.016L 85.341 47.36L 80.797 47.36ZM 106.858 57.6C 107.199 57.6427 107.519 57.664 107.818 57.664C 108.159 57.7067 108.479 57.728 108.778 57.728C 109.546 57.728 110.143 57.6213 110.57 57.408C 111.039 57.1947 111.487 56.7253 111.914 56C 112.341 55.2747 112.81 54.2293 113.322 52.864C 113.877 51.4987 114.645 49.664 115.626 47.36L 101.098 14.016L 105.578 14.016L 117.93 43.328L 129.386 14.016L 133.546 14.016L 116.266 57.024C 115.797 58.2613 115.007 59.328 113.898 60.224C 112.831 61.1627 111.359 61.632 109.482 61.632C 109.055 61.632 108.65 61.6107 108.266 61.568C 107.882 61.568 107.413 61.5253 106.858 61.44L 106.858 57.6ZM 167.082 10.432C 165.801 8.9813 164.095 7.808 161.961 6.912C 159.828 6.016 157.396 5.568 154.666 5.568C 150.655 5.568 147.732 6.336 145.898 7.872C 144.063 9.3653 143.145 11.4133 143.145 14.016C 143.145 15.3813 143.38 16.512 143.85 17.408C 144.362 18.2613 145.13 19.008 146.154 19.648C 147.178 20.288 148.479 20.8427 150.057 21.312C 151.679 21.7813 153.578 22.2507 155.753 22.72C 158.185 23.232 160.362 23.808 162.281 24.448C 164.244 25.088 165.908 25.8987 167.274 26.88C 168.639 27.8187 169.684 28.9707 170.41 30.336C 171.135 31.7013 171.497 33.408 171.497 35.456C 171.497 37.5467 171.092 39.36 170.282 40.896C 169.471 42.432 168.34 43.712 166.889 44.736C 165.439 45.76 163.711 46.528 161.705 47.04C 159.7 47.5093 157.503 47.744 155.114 47.744C 148.074 47.744 141.994 45.5467 136.874 41.152L 139.114 37.504C 139.924 38.3573 140.884 39.168 141.994 39.936C 143.145 40.704 144.404 41.3867 145.769 41.984C 147.177 42.5387 148.671 42.9867 150.25 43.328C 151.828 43.6267 153.492 43.776 155.241 43.776C 158.868 43.776 161.684 43.136 163.69 41.856C 165.738 40.5333 166.762 38.5493 166.762 35.904C 166.762 34.496 166.463 33.3227 165.865 32.384C 165.311 31.4027 164.458 30.5707 163.305 29.888C 162.153 29.1627 160.724 28.544 159.018 28.032C 157.311 27.52 155.327 27.008 153.066 26.496C 150.676 25.9413 148.585 25.3653 146.793 24.768C 145.001 24.1707 143.487 23.424 142.25 22.528C 141.012 21.632 140.073 20.5653 139.434 19.328C 138.836 18.048 138.537 16.4907 138.537 14.656C 138.537 12.5653 138.922 10.7093 139.69 9.088C 140.5 7.424 141.631 6.0587 143.082 4.992C 144.532 3.8827 146.239 3.0507 148.202 2.496C 150.164 1.8987 152.34 1.6 154.729 1.6C 157.759 1.6 160.447 2.0693 162.793 3.008C 165.183 3.904 167.338 5.184 169.258 6.848L 167.082 10.432ZM 192.709 48C 190.277 48 188.058 47.552 186.053 46.656C 184.047 45.7173 182.298 44.4587 180.805 42.88C 179.354 41.3013 178.223 39.4667 177.412 37.376C 176.602 35.2853 176.197 33.088 176.197 30.784C 176.197 28.4373 176.602 26.2187 177.412 24.128C 178.266 22.0373 179.418 20.2027 180.869 18.624C 182.362 17.0453 184.111 15.7867 186.116 14.848C 188.122 13.9093 190.319 13.44 192.709 13.44C 195.098 13.44 197.295 13.9093 199.3 14.848C 201.348 15.7867 203.098 17.0453 204.549 18.624C 206.042 20.2027 207.194 22.0373 208.005 24.128C 208.858 26.2187 209.285 28.4373 209.285 30.784C 209.285 33.088 208.879 35.2853 208.068 37.376C 207.258 39.4667 206.106 41.3013 204.613 42.88C 203.162 44.4587 201.412 45.7173 199.364 46.656C 197.359 47.552 195.14 48 192.709 48ZM 180.613 30.848C 180.613 32.7253 180.933 34.4747 181.573 36.096C 182.213 37.6747 183.066 39.0827 184.132 40.32C 185.242 41.5147 186.522 42.4533 187.972 43.136C 189.466 43.8187 191.045 44.16 192.709 44.16C 194.373 44.16 195.93 43.8187 197.381 43.136C 198.874 42.4107 200.175 41.4507 201.285 40.256C 202.394 39.0187 203.268 37.5893 203.908 35.968C 204.548 34.3467 204.869 32.5973 204.869 30.72C 204.869 28.8853 204.548 27.1573 203.908 25.536C 203.268 23.872 202.394 22.4427 201.285 21.248C 200.175 20.0107 198.874 19.0507 197.381 18.368C 195.93 17.6427 194.373 17.28 192.709 17.28C 191.045 17.28 189.487 17.6427 188.037 18.368C 186.586 19.0507 185.306 20.0107 184.197 21.248C 183.087 22.4853 182.213 23.936 181.573 25.6C 180.933 27.2213 180.613 28.9707 180.613 30.848ZM 217.663 47.36L 217.663 17.472L 213.055 17.472L 213.055 14.016L 217.663 14.016L 217.663 13.12C 217.663 9.024 218.538 5.824 220.287 3.52C 222.036 1.1733 224.426 3.43323e-07 227.455 3.43323e-07C 228.778 3.43323e-07 230.058 0.192 231.295 0.576C 232.532 0.96 233.599 1.472 234.495 2.112L 233.151 5.248C 232.554 4.7787 231.807 4.416 230.911 4.16C 230.058 3.904 229.183 3.776 228.287 3.776C 226.239 3.776 224.682 4.5653 223.615 6.144C 222.548 7.7227 222.015 10.0053 222.015 12.992L 222.015 14.016L 231.231 14.016L 231.231 17.472L 222.015 17.472L 222.015 47.36L 217.663 47.36ZM 253.188 45.76C 252.932 45.888 252.548 46.0587 252.036 46.272C 251.567 46.4853 251.012 46.6987 250.372 46.912C 249.732 47.1253 249.007 47.3173 248.196 47.488C 247.385 47.6587 246.532 47.744 245.636 47.744C 244.697 47.744 243.801 47.616 242.948 47.36C 242.095 47.104 241.348 46.72 240.708 46.208C 240.068 45.6533 239.556 44.9707 239.172 44.16C 238.788 43.3493 238.596 42.4107 238.596 41.344L 238.596 17.472L 233.988 17.472L 233.988 14.016L 238.596 14.016L 238.596 2.752L 242.948 2.752L 242.948 14.016L 250.628 14.016L 250.628 17.472L 242.948 17.472L 242.948 40.128C 243.033 41.3653 243.46 42.2827 244.228 42.88C 245.039 43.4347 245.956 43.712 246.98 43.712C 248.217 43.712 249.305 43.52 250.244 43.136C 251.183 42.7093 251.78 42.4107 252.036 42.24L 253.188 45.76ZM 275.172 2.24L 279.396 2.24L 285.796 18.368L 292.26 2.24L 296.548 2.24L 288.612 21.632L 297.316 42.176L 313.764 1.92L 318.628 1.92L 299.364 47.36L 295.396 47.36L 285.86 24.896L 276.26 47.36L 272.356 47.36L 253.156 1.92L 257.956 1.92L 274.468 42.176L 283.108 21.632L 275.172 2.24ZM 334.208 48C 331.776 48 329.558 47.552 327.552 46.656C 325.547 45.7173 323.798 44.4587 322.304 42.88C 320.854 41.3013 319.723 39.4667 318.912 37.376C 318.102 35.2853 317.696 33.088 317.696 30.784C 317.696 28.4373 318.102 26.2187 318.912 24.128C 319.766 22.0373 320.918 20.2027 322.369 18.624C 323.862 17.0453 325.611 15.7867 327.616 14.848C 329.622 13.9093 331.819 13.44 334.208 13.44C 336.598 13.44 338.795 13.9093 340.801 14.848C 342.849 15.7867 344.598 17.0453 346.049 18.624C 347.542 20.2027 348.694 22.0373 349.504 24.128C 350.358 26.2187 350.785 28.4373 350.785 30.784C 350.785 33.088 350.379 35.2853 349.568 37.376C 348.758 39.4667 347.606 41.3013 346.112 42.88C 344.662 44.4587 342.912 45.7173 340.864 46.656C 338.859 47.552 336.64 48 334.208 48ZM 322.112 30.848C 322.112 32.7253 322.433 34.4747 323.073 36.096C 323.713 37.6747 324.566 39.0827 325.633 40.32C 326.742 41.5147 328.022 42.4533 329.472 43.136C 330.966 43.8187 332.544 44.16 334.208 44.16C 335.872 44.16 337.43 43.8187 338.881 43.136C 340.374 42.4107 341.675 41.4507 342.785 40.256C 343.894 39.0187 344.769 37.5893 345.409 35.968C 346.049 34.3467 346.369 32.5973 346.369 30.72C 346.369 28.8853 346.049 27.1573 345.409 25.536C 344.769 23.872 343.894 22.4427 342.785 21.248C 341.675 20.0107 340.374 19.0507 338.881 18.368C 337.43 17.6427 335.872 17.28 334.208 17.28C 332.544 17.28 330.987 17.6427 329.537 18.368C 328.086 19.0507 326.806 20.0107 325.696 21.248C 324.587 22.4853 323.713 23.936 323.073 25.6C 322.433 27.2213 322.112 28.9707 322.112 30.848ZM 374.703 17.856C 371.759 17.9413 369.199 18.752 367.023 20.288C 364.847 21.824 363.311 23.936 362.415 26.624L 362.415 47.36L 358.063 47.36L 358.063 14.016L 362.159 14.016L 362.159 22.016C 363.396 19.456 365.06 17.4507 367.151 16C 369.242 14.5493 371.482 13.824 373.871 13.824C 374.212 13.824 374.49 13.8453 374.703 13.888L 374.703 17.856ZM 404.309 47.36L 392.02 30.272L 384.852 36.928L 384.852 47.36L 380.501 47.36L 380.501 0.64L 384.852 0.64L 384.852 32.384L 403.604 14.08L 408.532 14.08L 394.9 27.712L 409.044 47.36L 404.309 47.36ZM 425.51 48C 422.907 48 420.369 47.5733 417.894 46.72C 415.419 45.8667 413.286 44.6293 411.494 43.008L 413.478 40.064C 415.355 41.6 417.254 42.752 419.174 43.52C 421.137 44.288 423.227 44.672 425.446 44.672C 428.134 44.672 430.267 44.1387 431.846 43.072C 433.467 41.9627 434.278 40.4053 434.278 38.4C 434.278 37.4613 434.065 36.6933 433.638 36.096C 433.211 35.456 432.571 34.9013 431.718 34.432C 430.907 33.9627 429.862 33.5573 428.582 33.216C 427.345 32.832 425.894 32.448 424.23 32.064C 422.31 31.5947 420.646 31.1253 419.238 30.656C 417.83 30.1867 416.657 29.6533 415.718 29.056C 414.822 28.4587 414.139 27.7333 413.67 26.88C 413.243 25.984 413.03 24.8747 413.03 23.552C 413.03 21.888 413.35 20.416 413.99 19.136C 414.673 17.856 415.569 16.8107 416.678 16C 417.83 15.1467 419.153 14.5067 420.646 14.08C 422.182 13.6533 423.803 13.44 425.51 13.44C 428.07 13.44 430.395 13.8667 432.486 14.72C 434.577 15.5307 436.262 16.6187 437.542 17.984L 435.43 20.544C 434.193 19.264 432.678 18.304 430.886 17.664C 429.137 17.024 427.302 16.704 425.382 16.704C 424.23 16.704 423.163 16.832 422.182 17.088C 421.201 17.3013 420.326 17.664 419.558 18.176C 418.833 18.688 418.257 19.3493 417.83 20.16C 417.403 20.928 417.19 21.8453 417.19 22.912C 417.19 23.808 417.339 24.5333 417.638 25.088C 417.937 25.6427 418.427 26.1333 419.11 26.56C 419.793 26.944 420.646 27.3067 421.67 27.648C 422.737 27.9467 424.017 28.2667 425.51 28.608C 427.643 29.12 429.521 29.632 431.142 30.144C 432.763 30.656 434.107 31.2533 435.174 31.936C 436.283 32.6187 437.115 33.4507 437.67 34.432C 438.225 35.4133 438.502 36.608 438.502 38.016C 438.502 41.088 437.329 43.52 434.982 45.312C 432.635 47.104 429.478 48 425.51 48Z"/>
<path id="path6_fill" d="M 0.0050567 79.8509C -0.231652 58.9231 7.85048 38.7571 22.4752 23.7851C 37.1 8.81322 57.071 0.260175 77.9989 0.00583798C 98.9268 -0.2485 119.1 7.81661 134.084 22.4287C 149.068 37.0408 157.638 57.0044 157.91 77.9322C 158.182 98.8595 150.133 119.039 135.534 134.036C 120.935 149.032 100.979 157.619 80.0507 157.909C 59.1234 158.198 38.937 150.167 23.9281 135.58C 8.91918 120.994 0.315729 101.044 0.00851484 80.1171"/>
<path id="path7_fill" d="M 0.00512335 80.9045C 0.0116318 81.4798 0.483295 81.9411 1.05862 81.9344C 1.63394 81.9282 2.09505 81.4561 2.08854 80.8808L 0.00512335 80.9045ZM 79.0407 1.04761L 79.0531 2.08931L 79.0407 1.04761ZM 158.952 78.974L 157.91 78.9875L 158.952 78.974ZM 81.0925 158.951L 81.0784 157.909L 81.0925 158.951ZM 2.09196 81.1437C 2.08351 80.5684 1.61029 80.1087 1.035 80.1172C 0.459703 80.1257 0.000182869 80.5989 0.00862576 81.1741L 2.09196 81.1437ZM 2.08854 80.8808C 1.85496 60.2288 9.83045 40.3293 24.2622 25.5549L 22.7718 24.099C 7.95401 39.2685 -0.234707 59.7003 0.00512335 80.9045L 2.08854 80.8808ZM 24.2622 25.5549C 38.694 10.7805 58.4016 2.34029 79.0531 2.08931L 79.0277 0.00591486C 57.8241 0.263606 37.5895 8.9295 22.7718 24.099L 24.2622 25.5549ZM 79.0531 2.08931C 99.7052 1.83833 119.612 9.79702 134.398 24.2163L 135.853 22.7247C 120.671 7.91974 100.232 -0.251776 79.0277 0.00591486L 79.0531 2.08931ZM 134.398 24.2163C 149.185 38.6357 157.641 58.3361 157.91 78.9875L 159.993 78.9605C 159.718 57.7563 151.035 37.5295 135.853 22.7247L 134.398 24.2163ZM 157.91 78.9875C 158.178 99.639 150.236 119.552 135.83 134.351L 137.323 135.804C 152.115 120.61 160.269 100.164 159.993 78.9605L 157.91 78.9875ZM 135.83 134.351C 121.423 149.15 101.729 157.623 81.0784 157.909L 81.1071 159.992C 102.311 159.699 122.53 150.998 137.323 135.804L 135.83 134.351ZM 81.0784 157.909C 60.4269 158.194 40.5068 150.269 25.6959 135.875L 24.2438 137.369C 39.4507 152.148 59.9035 160.286 81.1071 159.992L 81.0784 157.909ZM 25.6959 135.875C 10.8851 121.481 2.39512 101.795 2.09196 81.1437L 0.00862576 81.1741C 0.319896 102.378 9.03681 122.59 24.2438 137.369L 25.6959 135.875Z"/>
<path id="path8_fill" d="M 0.0046227 73.0069C -0.211783 53.8724 7.17759 35.4349 20.5488 21.7463C 33.92 8.05765 52.1791 0.237864 71.3134 0.00533711C 90.4473 -0.22719 108.891 7.14659 122.591 20.5062C 136.291 33.8659 144.126 52.1184 144.375 71.2523C 144.623 90.3861 137.265 108.836 123.917 122.547C 110.569 136.259 92.3231 144.109 73.1892 144.374C 54.0555 144.638 35.5995 137.296 21.877 123.959C 8.15464 110.623 0.28865 92.3832 0.0077844 73.25"/>
<path id="path9_fill" d="M 0.00483944 76.4292C 0.0259721 78.2976 1.55804 79.7956 3.42682 79.7742C 5.29559 79.7533 6.79339 78.2209 6.77226 76.3525L 0.00483944 76.4292ZM 74.6973 3.38926L 74.7385 6.77292L 74.6973 3.38926ZM 147.759 74.6362L 151.142 74.5923L 147.759 74.6362ZM 76.5732 147.758L 76.5264 144.374L 76.5732 147.758ZM 6.77527 76.5843C 6.74784 74.7152 5.21073 73.2229 3.34204 73.25C 1.47335 73.2776 -0.0192824 74.8145 0.00814997 76.6835L 6.77527 76.5843ZM 6.77226 76.3525C 6.56599 58.115 13.609 40.5417 26.3534 27.4948L 21.512 22.7656C 7.51403 37.096 -0.221709 56.3977 0.00483944 76.4292L 6.77226 76.3525ZM 26.3534 27.4948C 39.0979 14.4478 56.501 6.99455 74.7385 6.77292L 74.6562 0.00558743C 54.625 0.249015 35.51 8.43534 21.512 22.7656L 26.3534 27.4948ZM 74.7385 6.77292C 92.9756 6.5513 110.555 13.5794 123.613 26.3129L 128.338 21.4675C 113.995 7.48157 94.6873 -0.23784 74.6562 0.00558743L 74.7385 6.77292ZM 123.613 26.3129C 136.67 39.0463 144.138 56.4431 144.375 74.6802L 151.142 74.5923C 150.882 54.5614 142.679 35.4534 128.338 21.4675L 123.613 26.3129ZM 144.375 74.6802C 144.612 92.9173 137.598 110.502 124.876 123.571L 129.726 128.292C 143.7 113.938 151.402 94.6228 151.142 74.5923L 144.375 74.6802ZM 124.876 123.571C 112.153 136.639 94.7629 144.122 76.5264 144.374L 76.62 151.141C 96.6506 150.864 115.752 142.646 129.726 128.292L 124.876 123.571ZM 76.5264 144.374C 58.2895 144.626 40.6986 137.628 27.6194 124.916L 22.9025 129.77C 37.2681 143.731 56.5893 151.418 76.62 151.141L 76.5264 144.374ZM 27.6194 124.916C 14.5402 112.205 7.04297 94.8207 6.77527 76.5843L 0.00814997 76.6835C 0.302179 96.7135 8.53686 115.808 22.9025 129.77L 27.6194 124.916Z"/>
<path id="path10_fill" d="M 90.1278 2.77594C 91.0798 3.19893 91.5293 3.83342 91.4763 4.67939C 91.4763 5.52537 91.1328 6.50333 90.4453 7.61382C 89.7578 8.72431 88.7798 9.91376 87.5109 11.1827C 86.2949 12.3987 84.9464 13.6417 83.466 14.9107C 82.25 15.9151 80.8485 16.9991 79.2626 18.1621C 77.8875 19.2195 76.1956 20.4355 74.1867 21.8105C 72.2302 23.1325 69.9833 24.5864 67.4453 26.1723C 68.8728 24.8509 69.8772 23.6609 70.4593 22.6034C 71.0407 21.546 71.3312 20.568 71.3312 19.669C 71.3312 18.4531 70.8558 17.3956 69.9037 16.4966C 68.9523 15.5976 67.7358 14.8577 66.2553 14.2762C 64.7748 13.6417 63.1094 13.1392 61.2589 12.7692C 59.4615 12.3987 57.69 12.1347 55.9451 11.9757C 54.2531 11.7648 52.6937 11.6322 51.2656 11.5792C 49.8382 11.5267 48.7807 11.5002 48.0933 11.5002C 45.291 11.5002 42.4623 11.7907 39.6071 12.3727C 36.7519 12.9012 34.1875 13.8267 31.914 15.1487C 29.6404 16.4176 27.7898 18.1355 26.3622 20.3035C 24.9346 22.4185 24.2208 25.0624 24.2208 28.2348C 24.2208 31.8303 25.2254 34.9232 27.2346 37.5141C 29.2438 40.052 31.8875 42.2725 35.1657 44.1759C 38.4439 46.0794 42.1451 47.7448 46.2692 49.1728C 50.4462 50.6003 54.6496 51.9747 58.8795 53.2967C 63.1624 54.5657 67.2863 55.8611 71.2522 57.1831C 75.2706 58.5046 78.76 60.0115 81.721 61.7035C 85.6339 64.0299 88.4358 66.7534 90.1278 69.8728C 91.8727 72.9392 92.7452 76.1912 92.7452 79.6281C 92.7452 84.0695 91.5558 88.2994 89.1763 92.3178C 86.8499 96.2832 83.7829 99.9841 79.976 103.421C 76.2221 106.858 71.9392 109.951 67.1278 112.7C 62.3164 115.45 57.452 117.803 52.5346 119.759C 47.6175 121.716 42.8588 123.222 38.2589 124.28C 33.6588 125.337 29.6668 125.866 26.2829 125.866C 21.8944 125.866 18.0346 125.416 14.7035 124.517C 11.3725 123.671 8.5966 122.641 6.3759 121.425C 4.15519 120.209 2.48968 118.966 1.3793 117.697C 0.321827 116.375 -0.127586 115.318 0.0310353 114.525C 0.136783 113.573 0.612676 112.542 1.45866 111.431C 2.35748 110.268 3.6793 109.026 5.42417 107.704C 7.16903 106.382 9.36328 104.928 12.007 103.341C 14.6507 101.756 17.8495 100.011 21.6036 98.1071C 20.0702 99.5876 19.3829 100.963 19.5415 102.232C 19.7001 103.501 20.4403 104.637 21.7622 105.642C 23.1369 106.646 24.9082 107.545 27.076 108.338C 29.2967 109.078 31.6231 109.713 34.0553 110.242C 36.5404 110.718 39.0255 111.088 41.5106 111.352C 43.9956 111.616 46.1899 111.749 48.0933 111.749C 51.3187 111.749 54.5176 111.405 57.69 110.718C 60.9155 110.03 63.7969 108.946 66.3348 107.466C 68.9258 105.932 71.0142 103.95 72.6002 101.518C 74.2397 99.0326 75.0591 96.0452 75.0591 92.5558C 75.0591 90.4933 74.6362 88.3783 73.7902 86.2109C 72.9442 83.99 71.4902 81.8485 69.4277 79.7866C 67.4188 77.7246 64.6959 75.7947 61.2589 73.9967C 57.822 72.1463 53.5396 70.5603 48.4106 69.2383C 40.5853 67.1764 33.976 65.0615 28.5829 62.8935C 23.2427 60.6725 18.9334 58.3196 15.6552 55.8346C 12.43 53.2967 10.1828 50.5473 8.91384 47.5863C 7.64487 44.5724 7.16903 41.215 7.48622 37.5141C 7.80352 33.2312 9.09888 29.3448 11.3725 25.8554C 13.646 22.313 16.5277 19.1665 20.0173 16.4176C 23.5599 13.6152 27.499 11.1827 31.8346 9.12079C 36.2232 7.05885 40.6646 5.36689 45.1588 4.04491C 49.706 2.66991 54.1211 1.66545 58.4035 1.03097C 62.6864 0.344035 66.4933 1.6523e-06 69.8242 1.6523e-06C 72.3622 1.6523e-06 74.7416 0.106033 76.9626 0.317528C 79.236 0.529023 81.245 0.767025 82.9899 1.03097C 84.7879 1.29548 86.2949 1.613 87.5109 1.98297C 88.7268 2.29993 89.5993 2.56445 90.1278 2.77594Z"/>
<path id="path11_fill" d="M 40.624 5.80653e-15L 10.576 5.80653e-15C 4.73501 5.80653e-15 0 4.73455 0 10.5749L 0 40.6251C 0 46.4654 4.73501 51.2 10.576 51.2L 40.624 51.2C 46.465 51.2 51.2 46.4654 51.2 40.6251L 51.2 10.5749C 51.2 4.73455 46.465 5.80653e-15 40.624 5.80653e-15Z"/>
<path id="path12_fill" d="M 0.00142854 22.5573C -0.0654445 16.6453 2.21791 10.9486 6.34968 6.71913C 10.4815 2.48964 16.1236 0.0734942 22.0362 0.00164901C 27.9487 -0.0701958 33.6479 2.20814 37.8813 6.33594C 42.1146 10.4638 44.5357 16.1033 44.6125 22.0153C 44.6894 27.9271 42.4156 33.6277 38.291 37.8641C 34.1663 42.1005 28.5283 44.5261 22.6158 44.6079C 16.7034 44.6898 11.0004 42.421 6.7601 38.3004C 2.51982 34.1797 0.0891944 28.5442 0.00240496 22.6324"/>
<path id="path13_fill" d="M 0.00143463 22.6533C 0.00202719 22.7057 0.0450053 22.7477 0.0974283 22.7471C 0.149851 22.7465 0.191868 22.7035 0.191275 22.6512L 0.00143463 22.6533ZM 22.1311 0.0965659L 22.13 0.00165606L 22.1311 0.0965659ZM 44.7075 22.1102L 44.8024 22.1089L 44.7075 22.1102ZM 22.7108 44.7029L 22.7121 44.7978L 22.7108 44.7029ZM 0.192248 22.726C 0.191478 22.6735 0.148359 22.6317 0.0959379 22.6324C 0.0435171 22.6332 0.00164528 22.6764 0.00241473 22.7287L 0.192248 22.726ZM 0.191275 22.6512C 0.124687 16.7643 2.39833 11.0918 6.51255 6.88036L 6.37673 6.74767C 2.22735 10.9952 -0.0657232 16.7161 0.00143463 22.6533L 0.191275 22.6512ZM 6.51255 6.88036C 10.6267 2.66888 16.2449 0.263015 22.1323 0.191476L 22.13 0.00165606C 16.1922 0.0738067 10.5261 2.50023 6.37673 6.74767L 6.51255 6.88036ZM 22.1323 0.191476C 28.0197 0.119937 33.6946 2.38857 37.9099 6.49879L 38.0424 6.36292C 33.7911 2.21753 28.0677 -0.0704952 22.13 0.00165606L 22.1323 0.191476ZM 37.9099 6.49879C 42.1252 10.609 44.5361 16.2246 44.6126 22.1114L 44.8024 22.1089C 44.7253 16.1719 42.2938 10.5083 38.0424 6.36292L 37.9099 6.49879ZM 44.6126 22.1114C 44.6891 27.9981 42.425 33.6744 38.3179 37.8928L 38.4539 38.0252C 42.5961 33.7708 44.8796 28.046 44.8024 22.1089L 44.6126 22.1114ZM 38.3179 37.8928C 34.2108 42.1112 28.5967 44.5265 22.7094 44.608L 22.7121 44.7978C 28.6497 44.7156 34.3118 42.2797 38.4539 38.0252L 38.3179 37.8928ZM 22.7094 44.608C 16.8222 44.6894 11.1434 42.4304 6.92122 38.3272L 6.78889 38.4634C 11.0472 42.6015 16.7745 44.8799 22.7121 44.7978L 22.7094 44.608ZM 6.92122 38.3272C 2.69895 34.224 0.278667 28.6126 0.192248 22.726L 0.00241473 22.7287C 0.0895736 28.6657 2.53055 34.3251 6.78889 38.4634L 6.92122 38.3272Z"/>
<path id="path14_fill" d="M 0.00136106 21.4917C -0.0623528 15.8589 2.11313 10.4313 6.04972 6.40169C 9.98629 2.37202 15.3619 0.0700224 20.9952 0.00157113C 26.6284 -0.0668801 32.0583 2.10382 36.0917 6.03663C 40.1251 9.96944 42.4318 15.3426 42.505 20.9752C 42.5782 26.6078 40.4119 32.0391 36.4821 36.0754C 32.5523 40.1116 27.1806 42.4227 21.5475 42.5006C 15.9144 42.5786 10.4808 40.417 6.44075 36.491C 2.40078 32.565 0.0849809 27.1957 0.00229146 21.5632"/>
<path id="path15_fill" d="M 0.00142517 22.503C 0.00766953 23.0553 0.460466 23.4979 1.01277 23.4916C 1.56507 23.4854 2.00774 23.0326 2.00149 22.4804L 0.00142517 22.503ZM 21.9953 1.00157L 22.0074 2.0015L 21.9953 1.00157ZM 43.5051 21.9752L 42.5051 21.9882L 43.5051 21.9752ZM 22.5476 43.5006L 22.5337 42.5008L 22.5476 43.5006ZM 2.00238 22.5486C 1.99427 21.9964 1.53999 21.5553 0.98771 21.5634C 0.435431 21.5715 -0.00570683 22.0257 0.00240021 22.5779L 2.00238 22.5486ZM 2.00149 22.4804C 1.94078 17.1127 4.01389 11.9405 7.76526 8.10044L 6.3344 6.70292C 2.21257 10.9222 -0.0652876 16.6052 0.00142517 22.503L 2.00149 22.4804ZM 7.76526 8.10044C 11.5166 4.26041 16.6392 2.06673 22.0074 2.0015L 21.9831 0.00164493C 16.0848 0.0733199 10.4562 2.48364 6.3344 6.70292L 7.76526 8.10044ZM 22.0074 2.0015C 27.3755 1.93627 32.55 4.00483 36.3936 7.75256L 37.7901 6.32069C 33.5669 2.20282 27.8814 -0.0700238 21.9831 0.00164493L 22.0074 2.0015ZM 36.3936 7.75256C 40.2372 11.5003 42.4353 16.6206 42.5051 21.9882L 44.5052 21.9622C 44.4285 16.0646 42.0132 10.4386 37.7901 6.32069L 36.3936 7.75256ZM 42.5051 21.9882C 42.5748 27.3558 40.5105 32.5314 36.7656 36.3778L 38.1988 37.7729C 42.3135 33.5467 44.5818 27.8599 44.5052 21.9622L 42.5051 21.9882ZM 36.7656 36.3778C 33.0207 40.2241 27.9018 42.4264 22.5337 42.5008L 22.5614 44.5006C 28.4596 44.4189 34.0841 41.9991 38.1988 37.7729L 36.7656 36.3778ZM 22.5337 42.5008C 17.1657 42.575 11.9877 40.5151 8.13786 36.7739L 6.74384 38.2081C 10.9739 42.3189 16.6632 44.5821 22.5614 44.5006L 22.5337 42.5008ZM 8.13786 36.7739C 4.28801 33.0326 2.08118 27.9161 2.00238 22.5486L 0.00240021 22.5779C 0.0889774 28.4755 2.51375 34.0974 6.74384 38.2081L 8.13786 36.7739Z"/>
<path id="path16_fill" d="M 26.9142 0.828813C 27.1984 0.955126 27.3326 1.14463 27.3169 1.39719C 27.3169 1.64981 27.2143 1.94187 27.009 2.27344C 26.8037 2.60494 26.5116 2.96019 26.1327 3.33912C 25.7695 3.70219 25.3669 4.07325 24.9248 4.45213C 24.5616 4.75213 24.1432 5.07575 23.6695 5.42306C 23.259 5.73881 22.7538 6.10194 22.1538 6.51244C 21.5696 6.90712 20.8985 7.34131 20.1406 7.81494C 20.5669 7.42025 20.867 7.065 21.0406 6.74925C 21.2143 6.4335 21.3011 6.14144 21.3011 5.87306C 21.3011 5.50994 21.159 5.19419 20.8748 4.92575C 20.5906 4.65738 20.2275 4.43637 19.7853 4.26269C 19.3432 4.07325 18.8459 3.92325 18.2933 3.81275C 17.7565 3.70219 17.2275 3.62325 16.7065 3.57594C 16.2012 3.51275 15.7354 3.47331 15.3091 3.4575C 14.8828 3.44169 14.567 3.43381 14.3618 3.43381C 13.5249 3.43381 12.6802 3.52069 11.8276 3.69431C 10.9749 3.85219 10.2092 4.1285 9.53022 4.52319C 8.85128 4.90206 8.29866 5.41519 7.87231 6.0625C 7.44602 6.694 7.23287 7.48338 7.23287 8.43063C 7.23287 9.50419 7.5329 10.4278 8.13283 11.2014C 8.73283 11.9592 9.52235 12.6223 10.5013 13.1907C 11.4802 13.759 12.5855 14.2563 13.817 14.6826C 15.0644 15.1089 16.3196 15.5194 17.5828 15.9141C 18.8617 16.2929 20.0933 16.6798 21.2774 17.0744C 22.4774 17.4691 23.5195 17.9191 24.4037 18.4243C 25.5722 19.1189 26.409 19.9321 26.9142 20.8635C 27.4353 21.7792 27.6958 22.7501 27.6958 23.7764C 27.6958 25.1025 27.3405 26.3656 26.63 27.5654C 25.9353 28.7495 25.0195 29.8546 23.8827 30.8809C 22.7616 31.9071 21.4827 32.8306 20.0459 33.6516C 18.609 34.4726 17.1565 35.1751 15.6881 35.7592C 14.2196 36.3434 12.7986 36.7934 11.4249 37.1091C 10.0513 37.4249 8.85916 37.5827 7.84868 37.5827C 6.53812 37.5827 5.3855 37.4486 4.3908 37.1802C 3.39607 36.9276 2.56714 36.6197 1.90398 36.2566C 1.24084 35.8934 0.74347 35.5224 0.411894 35.1436C 0.0961072 34.7489 -0.0380996 34.4331 0.00926748 34.1962C 0.0408456 33.9121 0.182953 33.6042 0.435578 33.2727C 0.703998 32.9254 1.09873 32.5544 1.61977 32.1596C 2.14083 31.7649 2.79608 31.3308 3.58555 30.8572C 4.37501 30.3836 5.33025 29.8626 6.4513 29.2942C 5.99344 29.7362 5.78817 30.1467 5.83555 30.5256C 5.88287 30.9045 6.10395 31.2439 6.49868 31.5439C 6.90922 31.8439 7.43814 32.1123 8.08552 32.3491C 8.74865 32.5701 9.4434 32.7596 10.1697 32.9174C 10.9118 33.0596 11.6539 33.1701 12.396 33.249C 13.1381 33.3279 13.7933 33.3674 14.3618 33.3674C 15.3249 33.3674 16.2801 33.2648 17.2275 33.0596C 18.1906 32.8543 19.0512 32.5307 19.809 32.0886C 20.5827 31.6307 21.2064 31.0388 21.6801 30.3125C 22.1696 29.5704 22.4143 28.6784 22.4143 27.6364C 22.4143 27.0208 22.288 26.3892 22.0353 25.7419C 21.7827 25.0788 21.3485 24.4394 20.7328 23.8237C 20.1328 23.208 19.3196 22.6318 18.2933 22.0949C 17.267 21.5424 15.988 21.0688 14.4565 20.6741C 12.1197 20.0583 10.146 19.4268 8.5355 18.7795C 6.94078 18.1164 5.65397 17.4139 4.675 16.6719C 3.71186 15.9141 3.04081 15.0931 2.66187 14.209C 2.28293 13.3091 2.14083 12.3066 2.23556 11.2014C 2.33029 9.92256 2.71713 8.76219 3.39607 7.72019C 4.07501 6.66244 4.93552 5.72306 5.97762 4.90206C 7.03548 4.06531 8.21178 3.33913 9.50653 2.72338C 10.817 2.10763 12.1434 1.60244 13.4854 1.20775C 14.8433 0.79725 16.1617 0.497312 17.4407 0.307874C 18.7196 0.102624 19.8564 -3.20435e-07 20.8511 -3.20435e-07C 21.609 -3.20435e-07 22.3195 0.0315631 22.9827 0.0946881C 23.6617 0.157876 24.2617 0.228937 24.7827 0.307874C 25.3195 0.386812 25.7695 0.481501 26.1327 0.592001C 26.4958 0.686751 26.7563 0.765688 26.9142 0.828813Z"/>
</defs>
</svg>
