<svg width="400" height="400" viewBox="0 0 400 400" version="1.1" xmlns="http://www.w3.org/2000/svg" xmlns:xlink="http://www.w3.org/1999/xlink">
<title>Blog_Icon</title>
<desc>Created using Figma</desc>
<g id="Canvas" transform="translate(-127 681)">
<g id="Blog_Icon">
<g id="Rectangle">
<use xlink:href="#path0_fill" transform="translate(127 -681)" fill="url(#paint0_linear)"/>
</g>
<g id="Line 3">
<use xlink:href="#path1_stroke" transform="matrix(0.032877 0.999459 -0.996473 0.0839135 325.75 -446)" fill="#FFFFFF"/>
</g>
<g id="Line 3">
<use xlink:href="#path1_stroke" transform="matrix(0.032877 0.999459 -0.996473 0.0839135 338.25 -446)" fill="#FFFFFF"/>
</g>
<g id="Blog">
<use xlink:href="#path2_fill" transform="translate(212 -601)" fill="#FFFFFF"/>
</g>
<g id="Line 2">
<use xlink:href="#path3_stroke" transform="matrix(0.99807 -0.0621021 0.0242984 0.999705 219.5 -413)" fill="#FFFFFF"/>
</g>
<g id="Line 2">
<use xlink:href="#path3_stroke" transform="matrix(0.99807 -0.0621021 0.0242984 0.999705 219.5 -425)" fill="#FFFFFF"/>
</g>
</g>
</g>
<defs>
<linearGradient id="paint0_linear" x1="0" y1="0" x2="1" y2="0" gradientUnits="userSpaceOnUse" gradientTransform="matrix(2.44929e-14 400 -400 2.44929e-14 400 -2.44929e-14)">
<stop offset="0" stop-color="#660000"/>
<stop offset="1" stop-color="#660000" stop-opacity="0.8"/>
</linearGradient>
<path id="path0_fill" d="M 0 0L 400 0L 400 400L 0 400L 0 0Z"/>
<path id="path1_stroke" d="M 0 0L 38.0206 0L 38.0206 -4L 0 -4L 0 0Z"/>
<path id="path2_fill" d="M 18.72 144.528C 13.344 144.528 9.312 143.616 6.624 141.792C 4.032 139.968 2.736 137.04 2.736 133.008C 2.736 132.72 2.976 132.576 3.456 132.576C 3.84 132.576 4.992 132.816 6.912 133.296C 8.832 133.776 12.192 134.016 16.992 134.016C 27.648 134.016 37.344 132.432 46.08 129.264C 54.912 126 61.824 121.728 66.816 116.448C 71.808 111.168 74.304 105.648 74.304 99.888C 74.304 92.88 70.848 88.128 63.936 85.632C 57.024 83.04 48.384 81.744 38.016 81.744L 27.216 81.888C 25.776 86.784 23.712 94.128 21.024 103.92C 19.008 111.408 16.752 119.52 14.256 128.256C 11.856 128.256 9.84 127.584 8.208 126.24C 6.576 124.896 5.76 123.264 5.76 121.344C 5.76 120.096 6.048 118.56 6.624 116.736C 7.2 114.912 7.584 113.712 7.776 113.136C 10.752 103.152 15.216 89.856 21.168 73.248C 27.216 56.544 32.928 42.912 38.304 32.352C 32.64 33.312 27.072 35.424 21.6 38.688C 19.872 39.648 18.816 40.128 18.432 40.128C 17.664 40.128 16.704 39.648 15.552 38.688C 14.4 37.728 13.824 36.912 13.824 36.24C 20.16 33.648 25.728 31.68 30.528 30.336C 35.424 28.992 41.232 28.32 47.952 28.32C 56.784 28.32 64.512 29.952 71.136 33.216C 77.856 36.384 81.216 42.384 81.216 51.216C 81.216 59.76 78 66.192 71.568 70.512C 65.232 74.832 57.456 77.76 48.24 79.296C 70.128 80.64 81.072 88.368 81.072 102.48C 81.072 111.12 77.568 118.656 70.56 125.088C 63.552 131.424 55.104 136.224 45.216 139.488C 35.424 142.848 26.592 144.528 18.72 144.528ZM 28.08 78.576C 40.464 78.192 50.976 75.744 59.616 71.232C 68.256 66.72 72.576 59.664 72.576 50.064C 72.576 37.584 64.464 31.344 48.24 31.344C 46.992 31.344 46.08 31.392 45.504 31.488C 39.84 42.528 34.032 58.224 28.08 78.576ZM 99.5614 136.32C 95.6254 136.32 92.6974 134.976 90.7774 132.288C 88.9534 129.6 88.0414 126 88.0414 121.488C 88.0414 112.848 91.0174 101.136 96.9694 86.352C 102.921 71.472 109.545 58.08 116.841 46.176C 124.233 34.272 129.561 28.32 132.825 28.32C 134.169 28.32 135.273 29.52 136.137 31.92C 137.097 34.224 137.577 36.576 137.577 38.976C 137.577 43.392 135.753 49.92 132.105 58.56C 128.553 67.104 123.849 75.792 117.993 84.624C 112.137 93.456 105.897 100.608 99.2734 106.08C 98.0254 111.648 97.4014 116.496 97.4014 120.624C 97.4014 128.016 99.5134 131.712 103.737 131.712C 107.289 131.712 110.889 129.456 114.537 124.944C 118.281 120.432 121.593 115.008 124.473 108.672L 126.633 109.824C 118.377 127.488 109.353 136.32 99.5614 136.32ZM 100.569 101.184C 105.849 95.904 110.985 89.28 115.977 81.312C 121.065 73.248 125.193 65.568 128.361 58.272C 131.529 50.88 133.113 45.552 133.113 42.288C 133.113 40.752 132.777 39.984 132.105 39.984C 130.761 39.984 127.977 43.296 123.753 49.92C 119.625 56.448 115.353 64.464 110.937 73.968C 106.521 83.472 103.065 92.544 100.569 101.184ZM 131.577 136.608C 127.641 136.608 124.761 135.408 122.937 133.008C 121.113 130.608 120.201 127.44 120.201 123.504C 120.201 119.568 121.017 115.44 122.649 111.12C 124.281 106.8 126.393 103.2 128.985 100.32C 131.577 97.44 134.169 96 136.761 96C 137.625 96 138.633 96.24 139.785 96.72C 138.633 97.68 137.241 99.792 135.609 103.056C 133.977 106.32 132.537 109.824 131.289 113.568C 130.137 117.216 129.561 120.192 129.561 122.496C 129.561 127.968 131.289 130.704 134.745 130.704C 136.761 130.704 139.161 129.648 141.945 127.536C 144.729 125.424 147.465 122.64 150.153 119.184C 147.465 116.976 145.353 114.096 143.817 110.544C 142.377 106.992 141.657 103.296 141.657 99.456C 141.657 94.464 142.905 90.192 145.401 86.64C 147.993 83.088 151.449 81.312 155.769 81.312C 159.417 81.312 161.961 82.32 163.401 84.336C 164.937 86.256 165.705 88.944 165.705 92.4C 165.705 96.048 164.793 100.176 162.969 104.784C 161.241 109.296 158.937 113.712 156.057 118.032C 157.785 118.992 159.609 119.472 161.529 119.472C 164.313 119.472 167.193 118.656 170.169 117.024C 173.145 115.296 175.401 112.656 176.937 109.104L 178.665 110.544C 176.841 114.768 174.249 117.888 170.889 119.904C 167.529 121.92 164.073 122.928 160.521 122.928C 157.929 122.928 155.625 122.448 153.609 121.488C 150.153 126 146.457 129.648 142.521 132.432C 138.681 135.216 135.033 136.608 131.577 136.608ZM 152.745 115.44C 155.241 111.696 157.257 107.904 158.793 104.064C 160.329 100.128 161.097 96.528 161.097 93.264C 161.097 90.576 160.665 88.56 159.801 87.216C 159.033 85.872 158.025 85.2 156.777 85.2C 155.433 85.2 154.041 85.872 152.601 87.216C 151.257 88.464 150.105 90.24 149.145 92.544C 148.281 94.752 147.849 97.2 147.849 99.888C 147.849 102.864 148.233 105.744 149.001 108.528C 149.865 111.216 151.113 113.52 152.745 115.44ZM 179.706 172.32C 177.402 172.32 175.434 171.6 173.802 170.16C 172.17 168.816 171.354 166.752 171.354 163.968C 171.354 160.416 172.746 157.104 175.53 154.032C 178.314 151.056 181.482 148.464 185.034 146.256C 188.682 144.144 193.482 141.6 199.434 138.624C 202.122 131.712 204.57 123.792 206.778 114.864C 198.234 127.152 190.41 133.296 183.306 133.296C 179.946 133.296 177.306 132.048 175.386 129.552C 173.466 126.96 172.506 123.552 172.506 119.328C 172.506 112.992 174.522 106.944 178.554 101.184C 182.682 95.424 187.722 90.816 193.674 87.36C 199.722 83.808 205.386 82.032 210.666 82.032C 213.258 82.032 215.178 82.464 216.426 83.328C 217.77 84.192 218.442 85.296 218.442 86.64C 218.442 87.408 218.202 88.08 217.722 88.656C 217.338 89.136 217.002 89.424 216.714 89.52C 215.754 88.08 213.834 87.36 210.954 87.36C 206.154 87.36 201.498 89.184 196.986 92.832C 192.57 96.48 188.97 100.896 186.186 106.08C 183.402 111.264 182.01 115.92 182.01 120.048C 182.01 122.352 182.442 124.128 183.306 125.376C 184.266 126.528 185.514 127.104 187.05 127.104C 189.642 127.104 192.858 125.328 196.698 121.776C 200.634 118.224 204.522 113.664 208.362 108.096L 210.09 100.464C 210.474 98.64 211.242 96.96 212.394 95.424C 213.642 93.888 215.322 93.12 217.434 93.12C 218.298 93.12 219.306 93.264 220.458 93.552C 220.458 96.144 219.402 101.376 217.29 109.248C 215.178 117.024 212.538 124.944 209.37 133.008C 214.362 130.608 218.97 127.296 223.194 123.072C 227.514 118.752 230.73 113.952 232.842 108.672L 234.714 110.112C 232.698 115.968 229.05 121.296 223.77 126.096C 218.586 130.896 213.258 134.592 207.786 137.184C 203.274 148.128 198.714 156.72 194.106 162.96C 189.498 169.2 184.698 172.32 179.706 172.32ZM 179.274 167.712C 181.482 167.712 184.218 165.6 187.482 161.376C 190.842 157.248 194.298 150.96 197.85 142.512C 190.842 146.064 185.418 149.376 181.578 152.448C 177.738 155.52 175.818 158.928 175.818 162.672C 175.818 164.208 176.106 165.408 176.682 166.272C 177.354 167.232 178.218 167.712 179.274 167.712Z"/>
<path id="path3_stroke" d="M 0.518999 18.9597C 86.4862 -4.16048 135.567 -3.21875 224.954 18.9694L 225.917 15.0871C 136.09 -7.18442 86.0004 -8.13088 -0.518999 15.0968L 0.518999 18.9597Z"/>
</defs>
</svg>
