<svg width="400" height="400" viewBox="0 0 400 400" version="1.1" xmlns="http://www.w3.org/2000/svg" xmlns:xlink="http://www.w3.org/1999/xlink">
<title>Projects_Icon</title>
<desc>Created using Figma</desc>
<g id="Canvas" transform="translate(617 229)">
<g id="Projects_Icon">
<g id="Rectangle">
<use xlink:href="#path0_fill" transform="translate(-617 -229)" fill="url(#paint0_linear)"/>
</g>
<g id="Projects">
<use xlink:href="#path1_fill" transform="matrix(1 7.85796e-17 -7.85796e-17 1 -617 -83)" fill="#FFFFFF"/>
</g>
</g>
</g>
<defs>
<linearGradient id="paint0_linear" x1="0" y1="0" x2="1" y2="0" gradientUnits="userSpaceOnUse" gradientTransform="matrix(400 3 -2.99999 256 1.5 80.5)">
<stop offset="0" stop-color="#660000"/>
<stop offset="1" stop-color="#19647E"/>
</linearGradient>
<path id="path0_fill" d="M 0 0L 400 0L 400 400L 0 400L 0 0Z"/>
<path id="path1_fill" d="M 74.0469 20.5938C 76.6719 20.5938 79.0156 21.0469 81.0781 21.9531C 83.1406 22.8281 84.875 24.125 86.2812 25.8438C 87.7188 27.5625 88.7969 29.6562 89.5156 32.125C 90.2656 34.5938 90.6406 37.3906 90.6406 40.5156C 90.6406 41.8594 90.5156 43.2969 90.2656 44.8281C 90.0156 46.3281 89.6094 47.8125 89.0469 49.2812C 88.4844 50.75 87.7656 52.1719 86.8906 53.5469C 86.0156 54.8906 84.9375 56.0781 83.6562 57.1094C 82.4062 58.1406 80.9375 58.9688 79.25 59.5938C 77.5938 60.1875 75.7031 60.4844 73.5781 60.4844L 66.3594 60.4844C 66.4219 64.4844 66.5 68.5781 66.5938 72.7656C 66.7188 76.9219 66.9062 81 67.1562 85L 58.3906 85C 58.5781 82.3438 58.7188 79.625 58.8125 76.8438C 58.9375 74.0312 59.0312 71.25 59.0938 68.5C 59.1562 65.7188 59.2031 63 59.2344 60.3438C 59.2656 57.6875 59.2812 55.1562 59.2812 52.75C 59.2812 50.3438 59.2656 47.8125 59.2344 45.1562C 59.2031 42.5 59.1562 39.7969 59.0938 37.0469C 59.0312 34.2969 58.9375 31.5312 58.8125 28.75C 58.7188 25.9688 58.5781 23.25 58.3906 20.5938L 74.0469 20.5938ZM 66.9219 25.8438C 66.7031 30.4688 66.5469 35.0938 66.4531 39.7188C 66.3906 44.3438 66.3594 48.6875 66.3594 52.75L 66.3594 55.2812L 73.5781 55.2812C 76.3906 55.2812 78.5781 54 80.1406 51.4375C 81.7031 48.8438 82.4844 45.2031 82.4844 40.5156C 82.4844 35.7344 81.75 32.0938 80.2812 29.5938C 78.8125 27.0938 76.5781 25.8438 73.5781 25.8438L 66.9219 25.8438ZM 123.266 28.0469C 119.141 28.0469 115.547 28.625 112.484 29.7812C 109.422 30.9375 107.172 32.6875 105.734 35.0312C 105.547 41.0938 105.453 47.2031 105.453 53.3594C 105.453 56.2656 105.469 59.0312 105.5 61.6562C 105.531 64.2812 105.578 66.8594 105.641 69.3906C 105.703 71.9219 105.797 74.4688 105.922 77.0312C 106.047 79.5625 106.188 82.2188 106.344 85L 97.6719 85C 97.8281 82.2188 97.9531 79.5625 98.0469 77.0312C 98.1719 74.4688 98.2656 71.9219 98.3281 69.3906C 98.4219 66.8594 98.4844 64.2812 98.5156 61.6562C 98.5469 59.0312 98.5625 56.2656 98.5625 53.3594C 98.5625 50.4531 98.5469 47.6406 98.5156 44.9219C 98.4844 42.1719 98.4219 39.4688 98.3281 36.8125C 98.2656 34.125 98.1719 31.4531 98.0469 28.7969C 97.9531 26.1094 97.8281 23.375 97.6719 20.5938L 106.391 20.5938C 106.297 22.0625 106.203 23.375 106.109 24.5312C 106.047 25.6875 105.984 26.9844 105.922 28.4219C 106.922 27.2656 108.141 26.1406 109.578 25.0469C 111.047 23.9531 112.578 23 114.172 22.1875C 115.766 21.3438 117.359 20.6719 118.953 20.1719C 120.547 19.6719 121.984 19.4219 123.266 19.4219L 123.266 28.0469ZM 164.234 52.8438C 164.234 58.625 163.719 63.625 162.688 67.8438C 161.656 72.0312 160.219 75.5 158.375 78.25C 156.562 80.9688 154.422 82.9844 151.953 84.2969C 149.484 85.6094 146.828 86.2656 143.984 86.2656C 141.109 86.2656 138.438 85.6094 135.969 84.2969C 133.5 82.9844 131.344 80.9688 129.5 78.25C 127.688 75.5 126.25 72.0312 125.188 67.8438C 124.156 63.625 123.641 58.625 123.641 52.8438C 123.641 47.0938 124.156 42.125 125.188 37.9375C 126.25 33.7188 127.688 30.2344 129.5 27.4844C 131.344 24.7344 133.5 22.7031 135.969 21.3906C 138.438 20.0781 141.109 19.4219 143.984 19.4219C 146.828 19.4219 149.484 20.0781 151.953 21.3906C 154.422 22.7031 156.562 24.7344 158.375 27.4844C 160.219 30.2344 161.656 33.7188 162.688 37.9375C 163.719 42.125 164.234 47.0938 164.234 52.8438ZM 156.172 52.8438C 156.172 48.0312 155.859 43.875 155.234 40.375C 154.609 36.875 153.75 34 152.656 31.75C 151.562 29.4687 150.266 27.7969 148.766 26.7344C 147.297 25.6406 145.703 25.0938 143.984 25.0938C 142.234 25.0938 140.609 25.6406 139.109 26.7344C 137.641 27.7969 136.344 29.4687 135.219 31.75C 134.125 34 133.266 36.875 132.641 40.375C 132.016 43.875 131.703 48.0312 131.703 52.8438C 131.703 57.6875 132.016 61.8594 132.641 65.3594C 133.266 68.8594 134.125 71.7344 135.219 73.9844C 136.344 76.2344 137.641 77.9062 139.109 79C 140.609 80.0625 142.234 80.5938 143.984 80.5938C 145.703 80.5938 147.297 80.0625 148.766 79C 150.266 77.9062 151.562 76.2344 152.656 73.9844C 153.75 71.7344 154.609 68.8594 155.234 65.3594C 155.859 61.8594 156.172 57.6875 156.172 52.8438ZM 168.359 79.3281C 168.672 79.4219 169.266 79.5938 170.141 79.8438C 171.016 80.0938 172.125 80.2188 173.469 80.2188C 174.438 80.2188 175.359 80.0781 176.234 79.7969C 177.109 79.5156 177.891 79 178.578 78.25C 179.266 77.5 179.859 76.4688 180.359 75.1562C 180.859 73.8438 181.234 72.1562 181.484 70.0938C 181.734 68.0938 181.859 65.4688 181.859 62.2188C 181.891 58.9688 181.906 55.1562 181.906 50.7812C 181.906 46.0312 181.844 41.0938 181.719 35.9688C 181.625 30.8438 181.406 25.7187 181.062 20.5938L 189.875 20.5938C 189.719 23.1563 189.594 25.6719 189.5 28.1406C 189.406 30.6094 189.312 32.9688 189.219 35.2188C 189.156 37.4688 189.109 39.5781 189.078 41.5469C 189.047 43.4844 189.031 45.2344 189.031 46.7969C 189.031 48.5469 189.031 50.3594 189.031 52.2344C 189.062 54.1094 189.094 55.8906 189.125 57.5781C 189.156 59.2656 189.172 60.7812 189.172 62.125C 189.203 63.4375 189.219 64.4219 189.219 65.0781C 189.219 68.4219 188.891 71.4062 188.234 74.0312C 187.578 76.6562 186.578 78.875 185.234 80.6875C 183.891 82.5 182.172 83.875 180.078 84.8125C 178.016 85.75 175.562 86.2188 172.719 86.2188C 171.812 86.2188 170.922 86.1562 170.047 86.0312C 169.203 85.9062 168.641 85.8125 168.359 85.75L 168.359 79.3281ZM 219.875 80.7812C 221.25 80.7812 222.484 80.6094 223.578 80.2656C 224.703 79.9219 225.734 79.5 226.672 79C 227.609 78.4688 228.469 77.8906 229.25 77.2656C 230.031 76.6094 230.781 75.9844 231.5 75.3906L 231.5 84.625C 230.688 84.7812 229.859 84.9531 229.016 85.1406C 228.203 85.3281 227.281 85.5 226.25 85.6562C 225.25 85.8125 224.125 85.9531 222.875 86.0781C 221.625 86.2031 220.188 86.2656 218.562 86.2656C 215.281 86.2656 212.328 85.5156 209.703 84.0156C 207.109 82.4844 204.891 80.2969 203.047 77.4531C 201.234 74.5781 199.844 71.0938 198.875 67C 197.906 62.875 197.422 58.2188 197.422 53.0312C 197.422 48.0312 197.828 43.4688 198.641 39.3438C 199.453 35.1875 200.641 31.6406 202.203 28.7031C 203.797 25.7656 205.75 23.4844 208.062 21.8594C 210.406 20.2344 213.109 19.4219 216.172 19.4219C 219.328 19.4219 222.031 20.1563 224.281 21.625C 226.562 23.0625 228.422 25.1719 229.859 27.9531C 231.328 30.7031 232.391 34.0938 233.047 38.125C 233.734 42.1562 234.078 46.7656 234.078 51.9531L 234.078 53.6875L 205.766 53.6875C 205.953 58.6562 206.344 62.8594 206.938 66.2969C 207.562 69.7344 208.438 72.5312 209.562 74.6875C 210.688 76.8438 212.094 78.4062 213.781 79.375C 215.5 80.3125 217.531 80.7812 219.875 80.7812ZM 226.016 48.25C 225.953 46.4375 225.859 44.5938 225.734 42.7188C 225.609 40.8438 225.406 39.0312 225.125 37.2812C 224.875 35.5312 224.516 33.8906 224.047 32.3594C 223.609 30.8281 223.031 29.5 222.312 28.375C 221.594 27.25 220.719 26.3594 219.688 25.7031C 218.656 25.0469 217.438 24.7188 216.031 24.7188C 214.156 24.7188 212.594 25.4063 211.344 26.7812C 210.125 28.1562 209.125 29.9531 208.344 32.1719C 207.594 34.3906 207.031 36.9062 206.656 39.7188C 206.281 42.5312 206.016 45.375 205.859 48.25L 226.016 48.25ZM 248.234 52.8438C 248.234 57.3438 248.594 61.3281 249.312 64.7969C 250.031 68.2344 251.047 71.125 252.359 73.4688C 253.703 75.8125 255.297 77.5938 257.141 78.8125C 259.016 80 261.094 80.5938 263.375 80.5938C 264.75 80.5938 265.969 80.4219 267.031 80.0781C 268.094 79.7344 269.047 79.3125 269.891 78.8125C 270.766 78.2812 271.578 77.7031 272.328 77.0781C 273.078 76.4219 273.812 75.7969 274.531 75.2031L 274.531 84.625C 272.781 85.0625 271.016 85.4062 269.234 85.6562C 267.484 85.9375 265.531 86.0781 263.375 86.0781C 260.031 86.0781 256.938 85.4062 254.094 84.0625C 251.25 82.7188 248.781 80.6875 246.688 77.9688C 244.625 75.2188 243 71.7656 241.812 67.6094C 240.656 63.4219 240.078 58.5 240.078 52.8438C 240.078 47.1875 240.688 42.2812 241.906 38.125C 243.156 33.9375 244.828 30.4844 246.922 27.7656C 249.047 25.0156 251.516 22.9688 254.328 21.625C 257.172 20.2812 260.188 19.6094 263.375 19.6094C 265.531 19.6094 267.484 19.75 269.234 20.0312C 271.016 20.2812 272.781 20.625 274.531 21.0625L 274.531 30.4844C 273.812 29.8906 273.078 29.2812 272.328 28.6562C 271.578 28 270.766 27.4219 269.891 26.9219C 269.047 26.3906 268.094 25.9531 267.031 25.6094C 265.969 25.2656 264.75 25.0938 263.375 25.0938C 261.094 25.0938 259.016 25.7031 257.141 26.9219C 255.297 28.1094 253.703 29.875 252.359 32.2188C 251.047 34.5625 250.031 37.4688 249.312 40.9375C 248.594 44.375 248.234 48.3438 248.234 52.8438ZM 277.531 20.5938L 309.641 20.5938L 309.641 26.0781L 297.688 26.0781C 297.438 30.6719 297.281 35.2656 297.219 39.8594C 297.156 44.4531 297.125 48.75 297.125 52.75C 297.125 55.1562 297.141 57.6875 297.172 60.3438C 297.203 63 297.25 65.7188 297.312 68.5C 297.375 71.25 297.453 74.0312 297.547 76.8438C 297.641 79.625 297.766 82.3438 297.922 85L 289.156 85C 289.344 82.3438 289.484 79.625 289.578 76.8438C 289.703 74.0312 289.797 71.25 289.859 68.5C 289.922 65.7188 289.969 63 290 60.3438C 290.031 57.6875 290.047 55.1562 290.047 52.75C 290.047 48.75 290 44.4531 289.906 39.8594C 289.844 35.2656 289.703 30.6719 289.484 26.0781L 277.531 26.0781L 277.531 20.5938ZM 325.953 80.9688C 327.203 80.9688 328.422 80.7812 329.609 80.4062C 330.828 80 331.906 79.3594 332.844 78.4844C 333.781 77.6094 334.531 76.5 335.094 75.1562C 335.656 73.7812 335.938 72.1094 335.938 70.1406C 335.938 68.4531 335.594 66.8906 334.906 65.4531C 334.25 64.0156 333.375 62.6406 332.281 61.3281C 331.188 60.0156 329.938 58.75 328.531 57.5312C 327.125 56.2812 325.688 55.0312 324.219 53.7812C 322.75 52.5312 321.312 51.25 319.906 49.9375C 318.5 48.5938 317.25 47.1875 316.156 45.7188C 315.062 44.2188 314.172 42.6094 313.484 40.8906C 312.828 39.1719 312.5 37.2969 312.5 35.2656C 312.5 32.2969 313.047 29.7969 314.141 27.7656C 315.234 25.7344 316.625 24.1094 318.312 22.8906C 320 21.6406 321.859 20.75 323.891 20.2188C 325.953 19.6875 327.953 19.4219 329.891 19.4219C 331.922 19.4219 333.875 19.5938 335.75 19.9375C 337.656 20.25 339.484 20.5938 341.234 20.9688L 341.234 30.2969C 340.234 29.4531 339.281 28.6875 338.375 28C 337.5 27.3125 336.609 26.7344 335.703 26.2656C 334.828 25.7656 333.922 25.3906 332.984 25.1406C 332.047 24.8594 331.047 24.7188 329.984 24.7188C 328.672 24.7188 327.422 24.9062 326.234 25.2812C 325.078 25.625 324.062 26.1719 323.188 26.9219C 322.344 27.6719 321.656 28.625 321.125 29.7812C 320.625 30.9375 320.375 32.3125 320.375 33.9062C 320.375 36.125 320.953 38.1562 322.109 40C 323.266 41.8125 324.719 43.5469 326.469 45.2031C 328.219 46.8594 330.109 48.5156 332.141 50.1719C 334.172 51.8281 336.062 53.6094 337.812 55.5156C 339.562 57.4219 341.016 59.5156 342.172 61.7969C 343.328 64.0469 343.906 66.625 343.906 69.5312C 343.906 71.7188 343.656 73.6562 343.156 75.3438C 342.656 77 341.969 78.4531 341.094 79.7031C 340.25 80.9219 339.266 81.9531 338.141 82.7969C 337.016 83.6406 335.812 84.3281 334.531 84.8594C 333.25 85.3594 331.922 85.7188 330.547 85.9375C 329.203 86.1562 327.891 86.2656 326.609 86.2656C 325.078 86.2656 323.672 86.2031 322.391 86.0781C 321.109 85.9844 319.906 85.8281 318.781 85.6094C 317.688 85.4219 316.656 85.2031 315.688 84.9531C 314.75 84.6719 313.828 84.375 312.922 84.0625L 312.922 74.4531C 313.891 75.3594 314.859 76.2188 315.828 77.0312C 316.797 77.8125 317.797 78.5 318.828 79.0938C 319.891 79.6875 321 80.1562 322.156 80.5C 323.312 80.8125 324.578 80.9688 325.953 80.9688Z"/>
</defs>
</svg>
