<svg width="400" height="400" viewBox="0 0 400 400" version="1.1" xmlns="http://www.w3.org/2000/svg" xmlns:xlink="http://www.w3.org/1999/xlink">
<title>Resume_Icon</title>
<desc>Created using Figma</desc>
<g id="Canvas" transform="translate(617 681)">
<g id="Resume_Icon">
<g id="Rectangle">
<use xlink:href="#path0_fill" transform="translate(-617 -681)" fill="url(#paint0_linear)"/>
</g>
<g id="Resume">
<use xlink:href="#path1_fill" transform="translate(-617 -633)" fill="#FFFFFF"/>
</g>
<g id="Resume Groups">
<g id="Resume Content">
<g id="Resume Right">
<g id="Line">
<use xlink:href="#path2_stroke" transform="translate(-583.925 -496.315)" fill="#FFFFFF"/>
</g>
<g id="Line">
<use xlink:href="#path2_stroke" transform="translate(-583.925 -510.73)" fill="#FFFFFF"/>
</g>
<g id="Line">
<use xlink:href="#path2_stroke" transform="translate(-583.925 -525.144)" fill="#FFFFFF"/>
</g>
</g>
<g id="Resume Left">
<g id="Line">
<use xlink:href="#path3_stroke" transform="translate(-486.767 -496.315)" fill="#FFFFFF"/>
</g>
<g id="Line">
<use xlink:href="#path3_stroke" transform="translate(-486.767 -510.73)" fill="#FFFFFF"/>
</g>
<g id="Line">
<use xlink:href="#path3_stroke" transform="translate(-486.767 -525.144)" fill="#FFFFFF"/>
</g>
</g>
</g>
<g id="Resume Content">
<g id="Resume Right">
<g id="Line">
<use xlink:href="#path2_stroke" transform="translate(-583.925 -438.658)" fill="#FFFFFF"/>
</g>
<g id="Line">
<use xlink:href="#path2_stroke" transform="translate(-583.925 -453.072)" fill="#FFFFFF"/>
</g>
<g id="Line">
<use xlink:href="#path2_stroke" transform="translate(-583.925 -467.487)" fill="#FFFFFF"/>
</g>
</g>
<g id="Resume Left">
<g id="Line">
<use xlink:href="#path3_stroke" transform="translate(-486.767 -438.658)" fill="#FFFFFF"/>
</g>
<g id="Line">
<use xlink:href="#path3_stroke" transform="translate(-486.767 -453.072)" fill="#FFFFFF"/>
</g>
<g id="Line">
<use xlink:href="#path3_stroke" transform="translate(-486.767 -467.487)" fill="#FFFFFF"/>
</g>
</g>
</g>
<g id="Resume Content">
<g id="Resume Right">
<g id="Line">
<use xlink:href="#path2_stroke" transform="translate(-583.925 -381)" fill="#FFFFFF"/>
</g>
<g id="Line">
<use xlink:href="#path2_stroke" transform="translate(-583.925 -395.414)" fill="#FFFFFF"/>
</g>
<g id="Line">
<use xlink:href="#path2_stroke" transform="translate(-583.925 -409.829)" fill="#FFFFFF"/>
</g>
</g>
<g id="Resume Left">
<g id="Line">
<use xlink:href="#path3_stroke" transform="translate(-486.767 -381)" fill="#FFFFFF"/>
</g>
<g id="Line">
<use xlink:href="#path3_stroke" transform="translate(-486.767 -395.414)" fill="#FFFFFF"/>
</g>
<g id="Line">
<use xlink:href="#path3_stroke" transform="translate(-486.767 -409.829)" fill="#FFFFFF"/>
</g>
</g>
</g>
<g id="Resume Content">
<g id="Resume Right">
<g id="Line">
<use xlink:href="#path2_stroke" transform="translate(-583.925 -323.342)" fill="#FFFFFF"/>
</g>
<g id="Line">
<use xlink:href="#path2_stroke" transform="translate(-583.925 -337.757)" fill="#FFFFFF"/>
</g>
<g id="Line">
<use xlink:href="#path2_stroke" transform="translate(-583.925 -352.171)" fill="#FFFFFF"/>
</g>
</g>
<g id="Resume Left">
<g id="Line">
<use xlink:href="#path3_stroke" transform="translate(-486.767 -323.342)" fill="#FFFFFF"/>
</g>
<g id="Line">
<use xlink:href="#path3_stroke" transform="translate(-486.767 -337.757)" fill="#FFFFFF"/>
</g>
<g id="Line">
<use xlink:href="#path3_stroke" transform="translate(-486.767 -352.171)" fill="#FFFFFF"/>
</g>
</g>
</g>
</g>
</g>
</g>
<defs>
<linearGradient id="paint0_linear" x1="0" y1="0" x2="1" y2="0" gradientUnits="userSpaceOnUse" gradientTransform="matrix(2.44929e-14 400 -400 2.44929e-14 400 -2.44929e-14)">
<stop offset="0" stop-color="#19647E"/>
<stop offset="1" stop-color="#155369"/>
</linearGradient>
<path id="path0_fill" d="M 0 0L 400 0L 400 400L 0 400L 0 0Z"/>
<path id="path1_fill" d="M 84.9219 -1.40625C 90.2031 -1.40625 94.2812 0.140625 97.1562 3.23438C 100.062 6.32812 101.516 11.0156 101.516 17.2969C 101.516 21.3594 100.812 24.7188 99.4062 27.375C 98 30 95.9219 32.0156 93.1719 33.4219C 93.8594 36.1094 94.7188 39.0312 95.75 42.1875C 96.6562 44.9062 97.7812 48.0469 99.125 51.6094C 100.5 55.1719 102.172 58.9688 104.141 63L 94.25 63C 92.8438 58.3438 91.6719 54.2969 90.7344 50.8594C 89.8281 47.3906 89.1094 44.4844 88.5781 42.1406C 87.9531 39.4219 87.4688 37.0938 87.125 35.1562L 77.6094 35.1562C 77.6094 37.3438 77.625 39.6094 77.6562 41.9531C 77.7188 44.2656 77.7812 46.6094 77.8438 48.9844C 77.9062 51.3281 77.9844 53.6875 78.0781 56.0625C 78.1719 58.4375 78.2812 60.75 78.4062 63L 69.6406 63C 69.8281 60.3438 69.9688 57.625 70.0625 54.8438C 70.1875 52.0312 70.2812 49.25 70.3438 46.5C 70.4062 43.7188 70.4531 41 70.4844 38.3438C 70.5156 35.6875 70.5312 33.1562 70.5312 30.75C 70.5312 28.3438 70.5156 25.8125 70.4844 23.1562C 70.4531 20.5 70.4062 17.7969 70.3438 15.0469C 70.2812 12.2969 70.1875 9.53125 70.0625 6.75C 69.9688 3.96875 69.8281 1.25 69.6406 -1.40625L 84.9219 -1.40625ZM 78.1719 3.84375C 77.9531 8.3125 77.7969 12.7969 77.7031 17.2969C 77.6406 21.7656 77.6094 25.9844 77.6094 29.9531L 84.4531 29.9531C 85.8594 29.9531 87.1094 29.7344 88.2031 29.2969C 89.2969 28.8594 90.2188 28.1406 90.9688 27.1406C 91.75 26.1406 92.3438 24.8438 92.75 23.25C 93.1562 21.625 93.3594 19.6406 93.3594 17.2969C 93.3594 12.5469 92.6094 9.125 91.1094 7.03125C 89.6406 4.90625 87.4219 3.84375 84.4531 3.84375L 78.1719 3.84375ZM 130.25 58.7812C 131.625 58.7812 132.859 58.6094 133.953 58.2656C 135.078 57.9219 136.109 57.5 137.047 57C 137.984 56.4688 138.844 55.8906 139.625 55.2656C 140.406 54.6094 141.156 53.9844 141.875 53.3906L 141.875 62.625C 141.062 62.7812 140.234 62.9531 139.391 63.1406C 138.578 63.3281 137.656 63.5 136.625 63.6562C 135.625 63.8125 134.5 63.9531 133.25 64.0781C 132 64.2031 130.562 64.2656 128.938 64.2656C 125.656 64.2656 122.703 63.5156 120.078 62.0156C 117.484 60.4844 115.266 58.2969 113.422 55.4531C 111.609 52.5781 110.219 49.0938 109.25 45C 108.281 40.875 107.797 36.2188 107.797 31.0312C 107.797 26.0312 108.203 21.4688 109.016 17.3438C 109.828 13.1875 111.016 9.64063 112.578 6.70312C 114.172 3.76562 116.125 1.48438 118.438 -0.140625C 120.781 -1.76563 123.484 -2.57812 126.547 -2.57812C 129.703 -2.57812 132.406 -1.84375 134.656 -0.375C 136.938 1.0625 138.797 3.17188 140.234 5.95312C 141.703 8.70313 142.766 12.0938 143.422 16.125C 144.109 20.1562 144.453 24.7656 144.453 29.9531L 144.453 31.6875L 116.141 31.6875C 116.328 36.6562 116.719 40.8594 117.312 44.2969C 117.938 47.7344 118.812 50.5312 119.938 52.6875C 121.062 54.8438 122.469 56.4062 124.156 57.375C 125.875 58.3125 127.906 58.7812 130.25 58.7812ZM 136.391 26.25C 136.328 24.4375 136.234 22.5938 136.109 20.7188C 135.984 18.8438 135.781 17.0312 135.5 15.2812C 135.25 13.5313 134.891 11.8906 134.422 10.3594C 133.984 8.82812 133.406 7.5 132.688 6.375C 131.969 5.25 131.094 4.35938 130.062 3.70312C 129.031 3.04688 127.812 2.71875 126.406 2.71875C 124.531 2.71875 122.969 3.40625 121.719 4.78125C 120.5 6.15625 119.5 7.95313 118.719 10.1719C 117.969 12.3906 117.406 14.9062 117.031 17.7188C 116.656 20.5312 116.391 23.375 116.234 26.25L 136.391 26.25ZM 162.828 58.9688C 164.078 58.9688 165.297 58.7812 166.484 58.4062C 167.703 58 168.781 57.3594 169.719 56.4844C 170.656 55.6094 171.406 54.5 171.969 53.1562C 172.531 51.7812 172.812 50.1094 172.812 48.1406C 172.812 46.4531 172.469 44.8906 171.781 43.4531C 171.125 42.0156 170.25 40.6406 169.156 39.3281C 168.062 38.0156 166.812 36.75 165.406 35.5312C 164 34.2812 162.562 33.0312 161.094 31.7812C 159.625 30.5312 158.188 29.25 156.781 27.9375C 155.375 26.5938 154.125 25.1875 153.031 23.7188C 151.938 22.2188 151.047 20.6094 150.359 18.8906C 149.703 17.1719 149.375 15.2969 149.375 13.2656C 149.375 10.2969 149.922 7.79687 151.016 5.76562C 152.109 3.73438 153.5 2.10938 155.188 0.890625C 156.875 -0.359375 158.734 -1.25 160.766 -1.78125C 162.828 -2.3125 164.828 -2.57812 166.766 -2.57812C 168.797 -2.57812 170.75 -2.40625 172.625 -2.0625C 174.531 -1.75 176.359 -1.40625 178.109 -1.03125L 178.109 8.29688C 177.109 7.45312 176.156 6.6875 175.25 6C 174.375 5.3125 173.484 4.73438 172.578 4.26562C 171.703 3.76562 170.797 3.39062 169.859 3.14062C 168.922 2.85938 167.922 2.71875 166.859 2.71875C 165.547 2.71875 164.297 2.90625 163.109 3.28125C 161.953 3.625 160.938 4.17188 160.062 4.92188C 159.219 5.67188 158.531 6.625 158 7.78125C 157.5 8.9375 157.25 10.3125 157.25 11.9062C 157.25 14.125 157.828 16.1562 158.984 18C 160.141 19.8125 161.594 21.5469 163.344 23.2031C 165.094 24.8594 166.984 26.5156 169.016 28.1719C 171.047 29.8281 172.938 31.6094 174.688 33.5156C 176.438 35.4219 177.891 37.5156 179.047 39.7969C 180.203 42.0469 180.781 44.625 180.781 47.5312C 180.781 49.7188 180.531 51.6562 180.031 53.3438C 179.531 55 178.844 56.4531 177.969 57.7031C 177.125 58.9219 176.141 59.9531 175.016 60.7969C 173.891 61.6406 172.688 62.3281 171.406 62.8594C 170.125 63.3594 168.797 63.7188 167.422 63.9375C 166.078 64.1562 164.766 64.2656 163.484 64.2656C 161.953 64.2656 160.547 64.2031 159.266 64.0781C 157.984 63.9844 156.781 63.8281 155.656 63.6094C 154.562 63.4219 153.531 63.2031 152.562 62.9531C 151.625 62.6719 150.703 62.375 149.797 62.0625L 149.797 52.4531C 150.766 53.3594 151.734 54.2188 152.703 55.0312C 153.672 55.8125 154.672 56.5 155.703 57.0938C 156.766 57.6875 157.875 58.1562 159.031 58.5C 160.188 58.8125 161.453 58.9688 162.828 58.9688ZM 195.5 29.4375C 195.531 31.7188 195.562 33.9062 195.594 36C 195.625 38.0625 195.672 40.0156 195.734 41.8594C 195.797 43.6719 195.875 45.3281 195.969 46.8281C 196.062 48.3281 196.188 49.625 196.344 50.7188C 196.75 53.4375 197.531 55.4062 198.688 56.625C 199.844 57.8125 201.328 58.4062 203.141 58.4062C 204.172 58.4062 205.234 58.1406 206.328 57.6094C 207.422 57.0781 208.469 56.375 209.469 55.5C 210.5 54.625 211.469 53.625 212.375 52.5C 213.312 51.375 214.141 50.2188 214.859 49.0312C 215.047 42.8438 215.141 36.5781 215.141 30.2344C 215.141 27.3281 215.125 24.5625 215.094 21.9375C 215.062 19.3125 215 16.7344 214.906 14.2031C 214.844 11.6719 214.75 9.14062 214.625 6.60938C 214.531 4.04687 214.406 1.375 214.25 -1.40625L 222.922 -1.40625C 222.766 1.375 222.625 4.04687 222.5 6.60938C 222.406 9.14062 222.312 11.6719 222.219 14.2031C 222.156 16.7344 222.109 19.3125 222.078 21.9375C 222.047 24.5625 222.031 27.3281 222.031 30.2344C 222.031 33.1406 222.047 35.9688 222.078 38.7188C 222.109 41.4375 222.156 44.1406 222.219 46.8281C 222.312 49.4844 222.406 52.1562 222.5 54.8438C 222.625 57.5 222.766 60.2188 222.922 63L 214.203 63C 214.266 61.7812 214.328 60.5781 214.391 59.3906C 214.453 58.1719 214.516 56.9688 214.578 55.7812C 213.672 56.9062 212.703 57.9844 211.672 59.0156C 210.672 60.0156 209.578 60.9062 208.391 61.6875C 207.203 62.4375 205.922 63.0312 204.547 63.4688C 203.203 63.9375 201.734 64.1719 200.141 64.1719C 196.422 64.1719 193.531 62.7031 191.469 59.7656C 189.438 56.7969 188.422 52.3906 188.422 46.5469C 188.422 45.1094 188.422 43.5781 188.422 41.9531C 188.453 40.2969 188.484 38.6875 188.516 37.125C 188.547 35.5312 188.562 34.0625 188.562 32.7188C 188.594 31.375 188.609 30.2812 188.609 29.4375C 188.609 26.5312 188.594 23.8125 188.562 21.2812C 188.531 18.75 188.484 16.2656 188.422 13.8281C 188.359 11.3906 188.266 8.9375 188.141 6.46875C 188.047 4 187.922 1.375 187.766 -1.40625L 196.391 -1.40625C 196.234 1.375 196.094 4 195.969 6.46875C 195.844 8.9375 195.734 11.3906 195.641 13.8281C 195.578 16.2656 195.531 18.75 195.5 21.2812C 195.469 23.8125 195.469 26.5312 195.5 29.4375ZM 256.625 32.1562C 256.562 27.2812 256.453 23.0312 256.297 19.4062C 256.172 15.75 255.875 12.7344 255.406 10.3594C 254.969 7.95313 254.312 6.15625 253.438 4.96875C 252.562 3.78125 251.359 3.1875 249.828 3.1875C 249.266 3.1875 248.594 3.32812 247.812 3.60938C 247.062 3.89062 246.266 4.28125 245.422 4.78125C 244.609 5.25 243.781 5.82812 242.938 6.51562C 242.094 7.17188 241.281 7.875 240.5 8.625C 240.344 12.4063 240.234 16.1719 240.172 19.9219C 240.109 23.6406 240.078 27.4531 240.078 31.3594C 240.078 34.2656 240.094 37.0312 240.125 39.6562C 240.156 42.2812 240.203 44.8594 240.266 47.3906C 240.328 49.9219 240.422 52.4688 240.547 55.0312C 240.672 57.5625 240.812 60.2188 240.969 63L 232.297 63C 232.453 60.2188 232.578 57.5625 232.672 55.0312C 232.797 52.4688 232.891 49.9219 232.953 47.3906C 233.047 44.8594 233.109 42.2812 233.141 39.6562C 233.172 37.0312 233.188 34.2656 233.188 31.3594C 233.188 28.4531 233.172 25.6406 233.141 22.9219C 233.109 20.1719 233.047 17.4688 232.953 14.8125C 232.891 12.125 232.797 9.45313 232.672 6.79688C 232.578 4.10938 232.453 1.375 232.297 -1.40625L 241.016 -1.40625L 240.781 2.53125C 242.469 1.03125 244.281 -0.1875 246.219 -1.125C 248.188 -2.09375 250.109 -2.57812 251.984 -2.57812C 254.328 -2.57812 256.344 -1.96875 258.031 -0.75C 259.75 0.4375 261.078 2.23438 262.016 4.64062C 262.953 3.64063 263.953 2.70313 265.016 1.82812C 266.109 0.953125 267.219 0.1875 268.344 -0.46875C 269.5 -1.125 270.672 -1.64062 271.859 -2.01562C 273.078 -2.39062 274.266 -2.57812 275.422 -2.57812C 279.141 -2.57812 282.016 -1.09375 284.047 1.875C 286.109 4.8125 287.141 9.20312 287.141 15.0469C 287.141 16.4844 287.125 18.0312 287.094 19.6875C 287.094 21.3125 287.078 22.9219 287.047 24.5156C 287.016 26.0781 286.984 27.5312 286.953 28.875C 286.953 30.2188 286.953 31.3125 286.953 32.1562C 286.953 35.0625 286.969 37.7812 287 40.3125C 287.031 42.8438 287.078 45.3281 287.141 47.7656C 287.203 50.2031 287.281 52.6562 287.375 55.125C 287.5 57.5938 287.641 60.2188 287.797 63L 279.172 63C 279.328 60.2188 279.469 57.5938 279.594 55.125C 279.719 52.6562 279.828 50.2031 279.922 47.7656C 280.016 45.3281 280.062 42.8438 280.062 40.3125C 280.094 37.7812 280.094 35.0625 280.062 32.1562C 280 27.2812 279.891 23.0312 279.734 19.4062C 279.609 15.75 279.312 12.7344 278.844 10.3594C 278.406 7.95313 277.75 6.15625 276.875 4.96875C 276 3.78125 274.797 3.1875 273.266 3.1875C 272.641 3.1875 271.922 3.35938 271.109 3.70312C 270.297 4.01563 269.438 4.45312 268.531 5.01562C 267.656 5.54687 266.75 6.1875 265.812 6.9375C 264.906 7.6875 264.062 8.48438 263.281 9.32812C 263.562 11.0781 263.703 12.9844 263.703 15.0469C 263.703 16.4844 263.688 18.0312 263.656 19.6875C 263.656 21.3125 263.641 22.9219 263.609 24.5156C 263.578 26.0781 263.547 27.5312 263.516 28.875C 263.516 30.2188 263.516 31.3125 263.516 32.1562C 263.516 35.0625 263.531 37.7812 263.562 40.3125C 263.594 42.8438 263.641 45.3281 263.703 47.7656C 263.766 50.2031 263.844 52.6562 263.938 55.125C 264.062 57.5938 264.203 60.2188 264.359 63L 255.734 63C 255.891 60.2188 256.031 57.5938 256.156 55.125C 256.281 52.6562 256.391 50.2031 256.484 47.7656C 256.578 45.3281 256.625 42.8438 256.625 40.3125C 256.656 37.7812 256.656 35.0625 256.625 32.1562ZM 318.031 58.7812C 319.406 58.7812 320.641 58.6094 321.734 58.2656C 322.859 57.9219 323.891 57.5 324.828 57C 325.766 56.4688 326.625 55.8906 327.406 55.2656C 328.188 54.6094 328.938 53.9844 329.656 53.3906L 329.656 62.625C 328.844 62.7812 328.016 62.9531 327.172 63.1406C 326.359 63.3281 325.438 63.5 324.406 63.6562C 323.406 63.8125 322.281 63.9531 321.031 64.0781C 319.781 64.2031 318.344 64.2656 316.719 64.2656C 313.438 64.2656 310.484 63.5156 307.859 62.0156C 305.266 60.4844 303.047 58.2969 301.203 55.4531C 299.391 52.5781 298 49.0938 297.031 45C 296.062 40.875 295.578 36.2188 295.578 31.0312C 295.578 26.0312 295.984 21.4688 296.797 17.3438C 297.609 13.1875 298.797 9.64063 300.359 6.70312C 301.953 3.76562 303.906 1.48438 306.219 -0.140625C 308.562 -1.76563 311.266 -2.57812 314.328 -2.57812C 317.484 -2.57812 320.188 -1.84375 322.438 -0.375C 324.719 1.0625 326.578 3.17188 328.016 5.95312C 329.484 8.70313 330.547 12.0938 331.203 16.125C 331.891 20.1562 332.234 24.7656 332.234 29.9531L 332.234 31.6875L 303.922 31.6875C 304.109 36.6562 304.5 40.8594 305.094 44.2969C 305.719 47.7344 306.594 50.5312 307.719 52.6875C 308.844 54.8438 310.25 56.4062 311.938 57.375C 313.656 58.3125 315.688 58.7812 318.031 58.7812ZM 324.172 26.25C 324.109 24.4375 324.016 22.5938 323.891 20.7188C 323.766 18.8438 323.562 17.0312 323.281 15.2812C 323.031 13.5313 322.672 11.8906 322.203 10.3594C 321.766 8.82812 321.188 7.5 320.469 6.375C 319.75 5.25 318.875 4.35938 317.844 3.70312C 316.812 3.04688 315.594 2.71875 314.188 2.71875C 312.312 2.71875 310.75 3.40625 309.5 4.78125C 308.281 6.15625 307.281 7.95313 306.5 10.1719C 305.75 12.3906 305.188 14.9062 304.812 17.7188C 304.438 20.5312 304.172 23.375 304.016 26.25L 324.172 26.25Z"/>
<path id="path2_stroke" d="M 0 0L 74.4186 0L 74.4186 -4L 0 -4L 0 0Z"/>
<path id="path3_stroke" d="M 0 0L 248.062 0L 248.062 -4L 0 -4L 0 0Z"/>
</defs>
</svg>
