<svg width="130" height="130" viewBox="0 0 130 130" fill="none" xmlns="http://www.w3.org/2000/svg">
<path d="M119.984 0H9.56332C4.28675 0 0 4.18238 0 9.33928V120.225C0 125.386 4.28675 129.575 9.56332 129.575H119.984C125.27 129.575 129.577 125.386 129.577 120.225V9.33928C129.577 4.18238 125.27 0 119.984 0Z" fill="#0F001A"/>
<path d="M28.8243 17.839C34.9701 17.839 39.9624 22.8321 39.9624 28.9788C39.9624 35.13 34.9701 40.1249 28.8243 40.1249C22.6659 40.1249 17.68 35.13 17.68 28.9788C17.68 22.8321 22.6659 17.839 28.8243 17.839ZM19.2115 48.5779H38.4299V110.415H19.2115V48.5779Z" fill="#FAFAFA"/>
<path d="M50.484 48.5777H68.9205V57.0262H69.176C71.7405 52.1653 78.0105 47.039 87.3597 47.039C106.821 47.039 110.414 59.8462 110.414 76.4956V110.415H91.2092V80.3433C91.2092 73.169 91.0769 63.9458 81.222 63.9458C71.2205 63.9458 69.689 71.7581 69.689 79.8241V110.415H50.484V48.5777Z" fill="#FAFAFA"/>
</svg>
