<svg width="200" height="483" viewBox="0 0 200 483" version="1.1" xmlns="http://www.w3.org/2000/svg" xmlns:xlink="http://www.w3.org/1999/xlink">
<title>SavvyBot</title>
<desc>Created using Figma</desc>
<g id="Canvas" transform="translate(90 277)">
<g id="SavvyBot">
<g id="body" filter="url(#filter0_i)">
<g id="Polygon 3">
<use xlink:href="#path0_fill" transform="matrix(0.939693 0.34202 -0.34202 0.939693 15.6244 -289)" fill="#3270A0"/>
</g>
<g id="Rectangle">
<use xlink:href="#path1_fill" transform="translate(-87 -121)" fill="#3270A0"/>
</g>
<g id="Polygon">
<use xlink:href="#path2_fill" transform="translate(-86 -172)" fill="#3270A0"/>
</g>
<g id="Ellipse">
<use xlink:href="#path3_fill" transform="translate(-90 -230)" fill="#3270A0"/>
</g>
<g id="Polygon 2">
<use xlink:href="#path4_fill" transform="matrix(-1 -1.22465e-16 1.22465e-16 -1 109 206)" fill="#3270A0"/>
</g>
</g>
<g id="body overlay" style="mix-blend-mode:soft-light" opacity="0.75" filter="url(#filter1_ii)">
<g id="Polygon 3">
<use xlink:href="#path0_fill" transform="matrix(0.939693 0.34202 -0.34202 0.939693 16.6244 -289)" fill="#418BC4"/>
</g>
<g id="Rectangle">
<use xlink:href="#path1_fill" transform="translate(-86 -121)" fill="#418BC4"/>
</g>
<g id="Polygon">
<use xlink:href="#path2_fill" transform="translate(-85 -172)" fill="#418BC4"/>
</g>
<g id="Ellipse">
<use xlink:href="#path3_fill" transform="translate(-89 -230)" fill="#418BC4"/>
</g>
<g id="Polygon 2">
<use xlink:href="#path4_fill" transform="matrix(-1 -1.22465e-16 1.22465e-16 -1 110 206)" fill="#418BC4"/>
</g>
</g>
<g id="Ellipse 2" filter="url(#filter2_dd)">
<use xlink:href="#path5_fill" transform="translate(-53 -215)" fill="url(#paint10_radial)"/>
</g>
<g id="SavvySoftWorks_S" filter="url(#filter3_d)">
<g id="Canvas">
<g id="layer1">
<g id="path6527">
<g id="Vector">
<use xlink:href="#path6_fill" transform="matrix(2 0 0 2 32.4167 -114.583)" fill="#418BC4"/>
</g>
<g id="Vector">
<use xlink:href="#path7_fill" transform="matrix(2 0 0 2 32 -115)" fill="#418BC4"/>
</g>
</g>
<g id="path6542">
<g id="Vector">
<use xlink:href="#path8_fill" transform="matrix(2 0 0 2 35.1239 -111.876)" fill="#418BC4"/>
</g>
<g id="Vector">
<use xlink:href="#path9_fill" transform="matrix(2 0 0 2 33.7703 -113.23)" fill="#F5F5F5"/>
</g>
</g>
<g id="S">
<g id="Vector">
<use xlink:href="#path10_fill" transform="matrix(1.92189 0 0 2.08128 45.5319 -109.028)" fill="#F5F5F5"/>
</g>
</g>
</g>
</g>
</g>
<g id="Icon" filter="url(#filter4_d)">
<g id="Canvas">
<g id="Icon">
<g id="Ellipse 2">
<g id="Vector">
<use xlink:href="#path11_fill" transform="translate(13.153 -73.8585)" fill="#F5F5F5"/>
</g>
<mask id="mask0_alpha" mask-type="alpha">
<g id="mask0 outline ins">
<g id="Vector">
<use xlink:href="#path11_fill" transform="translate(13.153 -73.8585)" fill="#FFFFFF"/>
</g>
</g>
</mask>
<g id="Group" mask="url(#mask0_alpha)">
<g id="Vector">
<use xlink:href="#path12_fill" transform="translate(11.0252 -75.9864)" fill="#5E8EB4"/>
</g>
</g>
</g>
<g id="Polygon 2">
<g id="Vector">
<use xlink:href="#path13_fill" transform="matrix(0.866025 -0.5 0.5 0.866025 7 -59.6073)" fill="#5E8EB4"/>
</g>
<mask id="mask1_alpha" mask-type="alpha">
<g id="mask1 outline ins">
<g id="Vector">
<use xlink:href="#path13_fill" transform="matrix(0.866025 -0.5 0.5 0.866025 7 -59.6073)" fill="#FFFFFF"/>
</g>
</g>
</mask>
<g id="Group" mask="url(#mask1_alpha)">
<g id="Vector">
<use xlink:href="#path14_fill" transform="matrix(0.866025 -0.5 0.5 0.866025 5.54507 -59.996)" fill="#5E8EB4"/>
</g>
</g>
</g>
</g>
</g>
</g>
</g>
</g>
<defs>
<filter id="filter0_i" filterUnits="userSpaceOnUse" x="-90" y="-277" width="204" height="487" color-interpolation-filters="sRGB">
<feFlood flood-opacity="0" result="BackgroundImageFix"/>
<feBlend mode="normal" in="SourceGraphic" in2="BackgroundImageFix" result="shape"/>
<feColorMatrix in="SourceAlpha" type="matrix" values="0 0 0 0 0 0 0 0 0 0 0 0 0 0 0 0 0 0 255 0" result="hardAlpha"/>
<feOffset dx="4" dy="4"/>
<feGaussianBlur stdDeviation="2"/>
<feComposite in2="hardAlpha" operator="arithmetic" k2="-1" k3="1"/>
<feColorMatrix type="matrix" values="0 0 0 0 1 0 0 0 0 1 0 0 0 0 1 0 0 0 1 0"/>
<feBlend mode="normal" in2="shape" result="effect1_innerShadow"/>
</filter>
<filter id="filter1_ii" filterUnits="userSpaceOnUse" x="-93" y="-281" width="208" height="491" color-interpolation-filters="sRGB">
<feFlood flood-opacity="0" result="BackgroundImageFix"/>
<feBlend mode="normal" in="SourceGraphic" in2="BackgroundImageFix" result="shape"/>
<feColorMatrix in="SourceAlpha" type="matrix" values="0 0 0 0 0 0 0 0 0 0 0 0 0 0 0 0 0 0 255 0" result="hardAlpha"/>
<feOffset dx="4" dy="4"/>
<feGaussianBlur stdDeviation="2"/>
<feComposite in2="hardAlpha" operator="arithmetic" k2="-1" k3="1"/>
<feColorMatrix type="matrix" values="0 0 0 0 0 0 0 0 0 0 0 0 0 0 0.470588 0 0 0 0.5 0"/>
<feBlend mode="normal" in2="shape" result="effect1_innerShadow"/>
<feColorMatrix in="SourceAlpha" type="matrix" values="0 0 0 0 0 0 0 0 0 0 0 0 0 0 0 0 0 0 255 0" result="hardAlpha"/>
<feOffset dx="-4" dy="-5"/>
<feGaussianBlur stdDeviation="2"/>
<feComposite in2="hardAlpha" operator="arithmetic" k2="-1" k3="1"/>
<feColorMatrix type="matrix" values="0 0 0 0 0 0 0 0 0 0 0 0 0 0 0.470588 0 0 0 0.5 0"/>
<feBlend mode="normal" in2="effect1_innerShadow" result="effect2_innerShadow"/>
</filter>
<filter id="filter2_dd" filterUnits="userSpaceOnUse" x="-55" y="-217" width="142" height="54" color-interpolation-filters="sRGB">
<feFlood flood-opacity="0" result="BackgroundImageFix"/>
<feColorMatrix in="SourceAlpha" type="matrix" values="0 0 0 0 0 0 0 0 0 0 0 0 0 0 0 0 0 0 255 0"/>
<feOffset dx="0" dy="0"/>
<feColorMatrix type="matrix" values="0 0 0 0 1 0 0 0 0 1 0 0 0 0 1 0 0 0 1 0"/>
<feBlend mode="normal" in2="BackgroundImageFix" result="effect1_dropShadow"/>
<feColorMatrix in="SourceAlpha" type="matrix" values="0 0 0 0 0 0 0 0 0 0 0 0 0 0 0 0 0 0 255 0"/>
<feOffset dx="2" dy="2"/>
<feGaussianBlur stdDeviation="2"/>
<feColorMatrix type="matrix" values="0 0 0 0 0.4 0 0 0 0 0 0 0 0 0 0 0 0 0 1 0"/>
<feBlend mode="normal" in2="effect1_dropShadow" result="effect2_dropShadow"/>
<feBlend mode="normal" in="SourceGraphic" in2="effect2_dropShadow" result="shape"/>
</filter>
<filter id="filter3_d" filterUnits="userSpaceOnUse" x="31" y="-116" width="69" height="70" color-interpolation-filters="sRGB">
<feFlood flood-opacity="0" result="BackgroundImageFix"/>
<feColorMatrix in="SourceAlpha" type="matrix" values="0 0 0 0 0 0 0 0 0 0 0 0 0 0 0 0 0 0 255 0"/>
<feOffset dx="2" dy="2"/>
<feGaussianBlur stdDeviation="1"/>
<feColorMatrix type="matrix" values="0 0 0 0 0 0 0 0 0 0 0 0 0 0 0 0 0 0 0.25 0"/>
<feBlend mode="normal" in2="BackgroundImageFix" result="effect1_dropShadow"/>
<feBlend mode="normal" in="SourceGraphic" in2="effect1_dropShadow" result="shape"/>
</filter>
<filter id="filter4_d" filterUnits="userSpaceOnUse" x="13" y="-74" width="55" height="54" color-interpolation-filters="sRGB">
<feFlood flood-opacity="0" result="BackgroundImageFix"/>
<feColorMatrix in="SourceAlpha" type="matrix" values="0 0 0 0 0 0 0 0 0 0 0 0 0 0 0 0 0 0 255 0"/>
<feOffset dx="2" dy="2"/>
<feGaussianBlur stdDeviation="1"/>
<feColorMatrix type="matrix" values="0 0 0 0 0 0 0 0 0 0 0 0 0 0 0 0 0 0 0.25 0"/>
<feBlend mode="normal" in2="BackgroundImageFix" result="effect1_dropShadow"/>
<feBlend mode="normal" in="SourceGraphic" in2="effect1_dropShadow" result="shape"/>
</filter>
<radialGradient id="paint10_radial" cx="0.5" cy="0.5" r="0.5" gradientUnits="userSpaceOnUse" gradientTransform="matrix(9.5497e-06 64 -186.435 2.78187e-05 160.217 -9.00001)">
<stop offset="0"/>
<stop offset="1" stop-color="#000000" stop-opacity="0"/>
</radialGradient>
<path id="path0_fill" d="M 14.3843 8.97187C 14.8415 6.87273 17.8354 6.87273 18.2926 8.97187L 29.9596 62.5364C 30.2312 63.7832 29.2815 64.962 28.0055 64.962L 4.67145 64.962C 3.39541 64.962 2.4457 63.7832 2.71727 62.5364L 14.3843 8.97187Z"/>
<path id="path1_fill" d="M 0 0L 196 0L 196 170L 0 170L 0 0Z"/>
<path id="path2_fill" d="M 97 0C 127.598 27.6467 150.222 37.3423 194 51L 0 51C 44.3158 35.0342 67.3116 24.9468 97 0Z"/>
<path id="path3_fill" d="M 198 38.5C 198 59.763 153.676 77 99 77C 44.3238 77 0 59.763 0 38.5C 0 17.237 44.3238 0 99 0C 153.676 0 198 17.237 198 38.5Z"/>
<path id="path4_fill" d="M 97.5 0C 110.64 68.8128 125.004 104.521 195 157L 0 157C 45.7191 109.403 65.9581 73.5479 97.5 0Z"/>
<path id="path5_fill" d="M 134 23C 134 35.7025 104.003 46 67 46C 29.9969 46 0 35.7025 0 23C 0 10.2975 29.9969 0 67 0C 104.003 0 134 10.2975 134 23Z"/>
<path id="path6_fill" d="M 0.00101134 15.9702C -0.0463304 11.7846 1.5701 7.75144 4.49505 4.75704C 7.42 1.76265 11.4142 0.0520352 15.5998 0.0011676C 19.7854 -0.0497001 23.8199 1.56332 26.8167 4.48575C 29.8136 7.40818 31.5276 11.4009 31.582 15.5865C 31.6363 19.7719 30.0267 23.8078 27.1068 26.8072C 24.1869 29.8065 20.1957 31.5239 16.0101 31.5819C 11.8247 31.6397 7.78739 30.0335 4.78562 27.1161C 1.78384 24.1988 0.0631458 20.2089 0.00170297 16.0235"/>
<path id="path7_fill" d="M 0.00102467 16.1809C 0.00232635 16.296 0.096659 16.3883 0.211723 16.3869C 0.326787 16.3857 0.419011 16.2913 0.417709 16.1762L 0.00102467 16.1809ZM 15.8081 0.209523L 15.8106 0.417864L 15.8081 0.209523ZM 31.7903 15.7948L 31.582 15.7975L 31.7903 15.7948ZM 16.2185 31.7902L 16.2157 31.5819L 16.2185 31.7902ZM 0.418391 16.2288C 0.416703 16.1137 0.322059 16.0218 0.207 16.0235C 0.0919406 16.0252 3.65739e-05 16.1198 0.00172515 16.2349L 0.418391 16.2288ZM 0.417709 16.1762C 0.370991 12.0458 1.96609 8.06588 4.85244 5.11099L 4.55435 4.81981C 1.5908 7.85371 -0.0469413 11.9401 0.00102467 16.1809L 0.417709 16.1762ZM 4.85244 5.11099C 7.73881 2.15611 11.6803 0.46806 15.8106 0.417864L 15.8055 0.00118298C 11.5648 0.0527213 7.51789 1.7859 4.55435 4.81981L 4.85244 5.11099ZM 15.8106 0.417864C 19.941 0.367667 23.9223 1.95941 26.8797 4.84328L 27.1706 4.54494C 24.1342 1.58395 20.0464 -0.0503553 15.8055 0.00118298L 15.8106 0.417864ZM 26.8797 4.84328C 29.837 7.72715 31.5283 11.6672 31.582 15.7975L 31.9986 15.7921C 31.9436 11.5513 30.207 7.50592 27.1706 4.54494L 26.8797 4.84328ZM 31.582 15.7975C 31.6357 19.9279 30.0472 23.9105 27.1659 26.8702L 27.4645 27.1609C 30.423 24.122 32.0538 20.0329 31.9986 15.7921L 31.582 15.7975ZM 27.1659 26.8702C 24.2845 29.83 20.3459 31.5247 16.2157 31.5819L 16.2214 31.9985C 20.4622 31.9398 24.5061 30.1998 27.4645 27.1609L 27.1659 26.8702ZM 16.2157 31.5819C 12.0854 31.6389 8.10136 30.0539 5.13919 27.1751L 4.84875 27.4739C 7.89015 30.4298 11.9807 32.0572 16.2214 31.9985L 16.2157 31.5819ZM 5.13919 27.1751C 2.17701 24.2962 0.479023 20.359 0.418391 16.2288L 0.00172515 16.2349C 0.0639792 20.4756 1.80736 24.518 4.84875 27.4739L 5.13919 27.1751Z"/>
<path id="path8_fill" d="M 0.000924541 14.6014C -0.0423566 10.7745 1.43552 7.087 4.10977 4.34927C 6.784 1.61153 10.4358 0.0475729 14.2627 0.00106742C 18.0895 -0.0454381 21.7782 1.42932 24.5182 4.10126C 27.2582 6.77321 28.8252 10.4237 28.8749 14.2505C 28.9247 18.0773 27.453 21.7672 24.7834 24.5095C 22.1137 27.2518 18.4646 28.8218 14.6378 28.8748C 10.8111 28.9277 7.11989 27.4592 4.37541 24.7919C 1.63093 22.1246 0.0577301 18.4767 0.00155688 14.65"/>
<path id="path9_fill" d="M 0.000967889 15.2859C 0.00519441 15.6596 0.311609 15.9592 0.685364 15.9549C 1.05912 15.9507 1.35868 15.6442 1.35445 15.2705L 0.000967889 15.2859ZM 14.9395 0.677853L 14.9477 1.35459L 14.9395 0.677853ZM 29.5517 14.9273L 30.2285 14.9185L 29.5517 14.9273ZM 15.3146 29.5516L 15.3053 28.8748L 15.3146 29.5516ZM 1.35505 15.3169C 1.34957 14.9431 1.04215 14.6446 0.668408 14.65C 0.29467 14.6556 -0.00385648 14.9629 0.00162999 15.3367L 1.35505 15.3169ZM 1.35445 15.2705C 1.3132 11.623 2.72179 8.10837 5.27069 5.49897L 4.3024 4.55314C 1.50281 7.41921 -0.0443418 11.2796 0.000967889 15.2859L 1.35445 15.2705ZM 5.27069 5.49897C 7.81958 2.88956 11.3002 1.39891 14.9477 1.35459L 14.9312 0.00111749C 10.925 0.0498032 7.102 1.68707 4.3024 4.55314L 5.27069 5.49897ZM 14.9477 1.35459C 18.5951 1.31026 22.1109 2.71589 24.7225 5.26259L 25.6675 4.29351C 22.7991 1.49632 18.9375 -0.0475682 14.9312 0.00111749L 14.9477 1.35459ZM 24.7225 5.26259C 27.334 7.80927 28.8277 11.2886 28.875 14.9361L 30.2285 14.9185C 30.1764 10.9123 28.5359 7.0907 25.6675 4.29351L 24.7225 5.26259ZM 28.875 14.9361C 28.9224 18.5835 27.5197 22.1005 24.9752 24.7142L 25.9451 25.6584C 28.7399 22.7876 30.2805 18.9246 30.2285 14.9185L 28.875 14.9361ZM 24.9752 24.7142C 22.4307 27.3279 18.9526 28.8244 15.3053 28.8748L 15.324 30.2283C 19.3301 30.1729 23.1503 28.5292 25.9451 25.6584L 24.9752 24.7142ZM 15.3053 28.8748C 11.6579 28.9253 8.13972 27.5256 5.52388 24.9833L 4.5805 25.954C 7.45363 28.7463 11.3179 30.2838 15.324 30.2283L 15.3053 28.8748ZM 5.52388 24.9833C 2.90804 22.4411 1.40859 18.9642 1.35505 15.3169L 0.00162999 15.3367C 0.0604359 19.3427 1.70737 23.1616 4.5805 25.954L 5.52388 24.9833Z"/>
<path id="path10_fill" d="M 18.0256 0.555189C 18.216 0.639788 18.3059 0.766685 18.2953 0.935881C 18.2953 1.10508 18.2266 1.30067 18.0891 1.52277C 17.9516 1.74487 17.756 1.98276 17.5022 2.23655C 17.259 2.47974 16.9893 2.72835 16.6932 2.98214C 16.45 3.18303 16.1697 3.39983 15.8525 3.63242C 15.5775 3.84391 15.2391 4.08711 14.8373 4.36211C 14.446 4.6265 13.9967 4.91729 13.4891 5.23448C 13.7746 4.9702 13.9754 4.7322 14.0919 4.5207C 14.2081 4.30921 14.2662 4.11361 14.2662 3.93381C 14.2662 3.69062 14.1712 3.47913 13.9808 3.29933C 13.7905 3.11953 13.5472 2.97154 13.2511 2.85524C 12.955 2.72835 12.6219 2.62784 12.2518 2.55385C 11.8923 2.47974 11.538 2.42695 11.189 2.39514C 10.8506 2.35296 10.5387 2.32645 10.2531 2.31585C 9.96764 2.30536 9.75614 2.30005 9.61867 2.30005C 9.05821 2.30005 8.49246 2.35815 7.92142 2.47455C 7.35039 2.58024 6.83751 2.76534 6.3828 3.02974C 5.92808 3.28354 5.55795 3.62712 5.27244 4.06071C 4.98693 4.4837 4.84416 5.0125 4.84416 5.64698C 4.84416 6.36607 5.04509 6.98465 5.44693 7.50284C 5.84877 8.01043 6.37751 8.45451 7.03314 8.83521C 7.68878 9.2159 8.42901 9.54899 9.25385 9.83459C 10.0892 10.1201 10.9299 10.395 11.7759 10.6594C 12.6325 10.9132 13.4573 11.1723 14.2504 11.4367C 15.0541 11.7009 15.752 12.0023 16.3442 12.3407C 17.1268 12.806 17.6872 13.3507 18.0256 13.9746C 18.3746 14.5879 18.549 15.2383 18.549 15.9257C 18.549 16.8139 18.3112 17.6599 17.8353 18.4636C 17.37 19.2567 16.7566 19.9969 15.9952 20.6842C 15.2444 21.3716 14.3878 21.9902 13.4256 22.5401C 12.4633 23.09 11.4904 23.5606 10.5069 23.9519C 9.5235 24.3432 8.57177 24.6445 7.65177 24.8561C 6.73176 25.0674 5.93337 25.1733 5.25658 25.1733C 4.37887 25.1733 3.60692 25.0834 2.9407 24.9036C 2.2745 24.7344 1.71932 24.5282 1.27518 24.285C 0.831039 24.0418 0.497937 23.7933 0.275861 23.5395C 0.0643655 23.2751 -0.0255172 23.0636 0.00620706 22.905C 0.0273566 22.7146 0.122535 22.5084 0.291731 22.2863C 0.471497 22.0537 0.73586 21.8052 1.08483 21.5408C 1.43381 21.2764 1.87266 20.9856 2.4014 20.6683C 2.93013 20.3512 3.5699 20.0022 4.32071 19.6215C 4.01405 19.9176 3.87657 20.1926 3.90829 20.4464C 3.94002 20.7002 4.08807 20.9274 4.35244 21.1284C 4.62738 21.3293 4.98164 21.5091 5.4152 21.6677C 5.85934 21.8157 6.32463 21.9426 6.81107 22.0484C 7.30809 22.1436 7.8051 22.2176 8.30212 22.2705C 8.79912 22.3233 9.23797 22.3498 9.61867 22.3498C 10.2637 22.3498 10.9035 22.281 11.538 22.1436C 12.1831 22.0061 12.7594 21.7893 13.267 21.4932C 13.7852 21.1865 14.2028 20.7901 14.52 20.3036C 14.8479 19.8066 15.0118 19.2091 15.0118 18.5112C 15.0118 18.0987 14.9272 17.6757 14.758 17.2422C 14.5888 16.798 14.298 16.3697 13.8855 15.9574C 13.4838 15.545 12.9392 15.159 12.2518 14.7994C 11.5644 14.4293 10.7079 14.1121 9.68213 13.8477C 8.11706 13.4353 6.79521 13.0123 5.71658 12.5787C 4.64854 12.1345 3.78668 11.6639 3.13105 11.167C 2.48599 10.6594 2.03656 10.1095 1.78277 9.51729C 1.52897 8.9145 1.43381 8.24302 1.49724 7.50284C 1.5607 6.64626 1.81978 5.86897 2.2745 5.17109C 2.72921 4.46261 3.30553 3.83331 4.00347 3.28354C 4.71197 2.72305 5.4998 2.23655 6.36693 1.82416C 7.24464 1.41177 8.13292 1.07338 9.03177 0.808984C 9.9412 0.533984 10.8242 0.333092 11.6807 0.206195C 12.5373 0.0688072 13.2987 3.30462e-07 13.9648 3.30462e-07C 14.4724 3.30462e-07 14.9483 0.0212067 15.3925 0.0635057C 15.8472 0.105805 16.249 0.153405 16.598 0.206195C 16.9576 0.259097 17.259 0.3226 17.5022 0.396595C 17.7454 0.459988 17.9199 0.51289 18.0256 0.555189Z"/>
<path id="path11_fill" d="M 49.8532 24.9266C 49.8532 38.6932 38.6932 49.8532 24.9266 49.8532C 11.16 49.8532 0 38.6932 0 24.9266C 0 11.16 11.16 0 24.9266 0C 38.6932 0 49.8532 11.16 49.8532 24.9266Z"/>
<path id="path12_fill" d="M 49.8532 27.0547C 49.8532 39.646 39.646 49.8532 27.0547 49.8532L 27.0547 54.1095C 41.9967 54.1095 54.1095 41.9967 54.1095 27.0547L 49.8532 27.0547ZM 27.0547 49.8532C 14.4635 49.8532 4.2563 39.646 4.2563 27.0547L 0 27.0547C 0 41.9967 12.1128 54.1095 27.0547 54.1095L 27.0547 49.8532ZM 4.2563 27.0547C 4.2563 14.4635 14.4635 4.2563 27.0547 4.2563L 27.0547 0C 12.1128 0 0 12.1128 0 27.0547L 4.2563 27.0547ZM 27.0547 4.2563C 39.646 4.2563 49.8532 14.4635 49.8532 27.0547L 54.1095 27.0547C 54.1095 12.1128 41.9967 0 27.0547 0L 27.0547 4.2563Z"/>
<path id="path13_fill" d="M 21.1624 0.133009C 21.2647 -0.0443365 21.5207 -0.0443365 21.6231 0.133009L 42.7494 36.7248C 42.8518 36.9022 42.7238 37.1239 42.519 37.1239L 0.266415 37.1239C 0.0616342 37.1239 -0.0663539 36.9022 0.0360366 36.7248L 21.1624 0.133009Z"/>
<path id="path14_fill" d="M 22.6888 1.19708L 21.7673 1.72912L 22.6888 1.19708ZM 43.8151 37.7889L 42.8935 38.321L 43.8151 37.7889ZM 22.228 1.19708L 23.1495 1.72912L 22.228 1.19708ZM 1.1017 37.7889L 2.02321 38.321L 1.1017 37.7889ZM 21.7673 1.72912L 42.8935 38.321L 44.7366 37.2569L 23.6102 0.665044L 21.7673 1.72912ZM 43.5847 37.1239L 1.33208 37.1239L 1.33208 39.252L 43.5847 39.252L 43.5847 37.1239ZM 2.02321 38.321L 23.1495 1.72912L 21.3065 0.665044L 0.180183 37.2569L 2.02321 38.321ZM 23.6102 0.665044C 23.0983 -0.221681 21.8185 -0.221681 21.3065 0.665044L 23.1495 1.72912C 22.8423 2.26116 22.0744 2.26116 21.7673 1.72912L 23.6102 0.665044ZM 42.8935 38.321C 42.5864 37.7889 42.9703 37.1239 43.5847 37.1239L 43.5847 39.252C 44.6086 39.252 45.2485 38.1436 44.7366 37.2569L 42.8935 38.321ZM 1.33208 37.1239C 1.94642 37.1239 2.33038 37.7889 2.02321 38.321L 0.180183 37.2569C -0.33177 38.1436 0.308171 39.252 1.33208 39.252L 1.33208 37.1239Z"/>
</defs>
</svg>
