<svg width="534" height="96" viewBox="0 0 534 96" version="1.1" xmlns="http://www.w3.org/2000/svg" xmlns:xlink="http://www.w3.org/1999/xlink" xmlns:figma="http://www.figma.com/figma/ns">
<title>SavvySoftWorks_Logo_042617 (Canvas)</title>
<desc>Created using Figma</desc>
<g id="Canvas" transform="translate(340 129)" figma:type="canvas">
<g id="SavvySoftWorks_Logo" figma:type="frame">
<g id="layer1" figma:type="frame">
<g id="path6527" figma:type="vector">
<use xlink:href="#path0_fill" transform="translate(-338 -126.852)" fill="#418BC4"/>
<use xlink:href="#path1_stroke" transform="translate(-338 -126.852)" fill="#418BC4"/>
</g>
<g id="path6542" figma:type="vector">
<use xlink:href="#path2_fill" transform="translate(-335.284 -124.805)" fill="#418BC4"/>
<use xlink:href="#path3_stroke" transform="translate(-335.284 -124.805)" fill="#F5F5F5"/>
</g>
<g id="S" figma:type="text">
<use xlink:href="#path4_fill" transform="matrix(0.960946 0 0 1.04064 -322 -164)" fill="#F5F5F5"/>
</g>
<g id="avvySoftWorks" figma:type="text">
<use xlink:href="#path5_fill" transform="translate(-247 -114)" fill="#418BC4"/>
</g>
</g>
</g>
</g>
<defs>
<path id="path0_fill" d="M 0.00292414 46.0696C -0.133965 33.9953 4.53993 22.3607 12.9975 13.7227C 21.455 5.08472 33.0041 0.150086 45.1068 0.0033476C 57.2095 -0.143391 68.8754 4.50974 77.5408 12.9401C 86.2063 21.3705 91.1622 32.8883 91.3195 44.9625C 91.4768 57.0366 86.8226 68.679 78.3796 77.3312C 69.9367 85.9834 58.3959 90.9375 46.2935 91.1045C 34.1911 91.2716 22.5173 86.6382 13.8376 78.2223C 5.15796 69.8065 0.182586 58.297 0.004924 46.2231"/>
<path id="path1_stroke" d="M -1.84412 46.0906C -1.83256 47.1107 -0.99623 47.9282 0.0238644 47.9167C 1.04396 47.9051 1.86153 47.0688 1.84997 46.0487L -1.84412 46.0906ZM 45.1068 0.0033476L 45.1292 1.85038L 45.1292 1.85038L 45.1068 0.0033476ZM 91.3195 44.9625L 89.4725 44.9865L 89.4725 44.9865L 91.3195 44.9625ZM 46.2935 91.1045L 46.268 89.2576L 46.2935 91.1045ZM 1.85189 46.196C 1.83688 45.1759 0.997797 44.3612 -0.0222534 44.3762C -1.0423 44.3912 -1.85705 45.2303 -1.84204 46.2503L 1.85189 46.196ZM 1.84997 46.0487C 1.71865 34.4653 6.20243 23.303 14.3173 15.015L 11.6776 12.4304C 2.87744 21.4184 -1.98658 33.5252 -1.84412 46.0906L 1.84997 46.0487ZM 14.3173 15.015C 22.4323 6.7268 33.5147 1.9912 45.1292 1.85038L 45.0844 -1.84368C 32.4935 -1.69102 20.4776 3.44264 11.6776 12.4304L 14.3173 15.015ZM 45.1292 1.85038C 56.7437 1.70956 67.9382 6.17504 76.2528 14.2641L 78.8289 11.6161C 69.8126 2.84444 57.6753 -1.99634 45.0844 -1.84368L 45.1292 1.85038ZM 76.2528 14.2641C 84.5672 22.353 89.3216 33.4034 89.4725 44.9865L 93.1665 44.9384C 93.0028 32.3733 87.8453 20.388 78.8289 11.6161L 76.2528 14.2641ZM 89.4725 44.9865C 89.6234 56.5697 85.1585 67.7395 77.0576 76.0412L 79.7017 78.6213C 88.4867 69.6185 93.3302 57.5035 93.1665 44.9384L 89.4725 44.9865ZM 77.0576 76.0412C 68.9566 84.343 57.8822 89.0972 46.268 89.2576L 46.319 92.9515C 58.9096 92.7777 70.9169 87.6239 79.7017 78.6213L 77.0576 76.0412ZM 46.268 89.2576C 34.6538 89.4179 23.4517 84.9713 15.1235 76.8962L 12.5518 79.5485C 21.5829 88.305 33.7284 93.1254 46.319 92.9515L 46.268 89.2576ZM 15.1235 76.8962C 6.79536 68.8213 2.02233 57.7788 1.85189 46.196L -1.84204 46.2503C -1.65715 58.8151 3.52056 70.7918 12.5518 79.5485L 15.1235 76.8962Z"/>
<path id="path2_fill" d="M 0.00274941 43.6242C -0.125974 32.1908 4.26939 21.1737 12.2229 12.9942C 20.1764 4.81476 31.0373 0.142144 42.4187 0.00320042C 53.8002 -0.135743 64.7709 4.27036 72.9199 12.2533C 81.069 20.2362 85.7295 31.1427 85.8774 42.5759C 86.0253 54.0091 81.6484 65.0336 73.7086 73.2265C 65.7688 81.4194 54.9158 86.1104 43.5346 86.2686C 32.1535 86.4268 21.1754 82.0393 13.013 74.0702C 4.85055 66.1011 0.171696 55.2024 0.00463006 43.7695"/>
<path id="path3_stroke" d="M -1.99712 43.6467C -1.98469 44.7512 -1.07923 45.6365 0.0252649 45.6241C 1.12976 45.6117 2.01506 44.7062 2.00262 43.6017L -1.99712 43.6467ZM 42.4187 0.00320042L 42.4431 2.00305L 42.4187 0.00320042ZM 85.8774 42.5759L 87.8773 42.55L 87.8773 42.55L 85.8774 42.5759ZM 43.5346 86.2686L 43.5068 84.2688L 43.5346 86.2686ZM 2.00442 43.7403C 1.98828 42.6358 1.07986 41.7536 -0.0245921 41.7697C -1.12904 41.7858 -2.0113 42.6943 -1.99516 43.7987L 2.00442 43.7403ZM 2.00262 43.6017C 1.87983 32.6954 6.07265 22.1881 13.6568 14.3885L 10.789 11.6C 2.46614 20.1593 -2.13178 31.6861 -1.99712 43.6467L 2.00262 43.6017ZM 13.6568 14.3885C 21.2406 6.58921 31.5947 2.13549 42.4431 2.00305L 42.3943 -1.99665C 30.4799 -1.8512 19.1122 3.04031 10.789 11.6L 13.6568 14.3885ZM 42.4431 2.00305C 53.2915 1.87062 63.7502 6.07025 71.5203 13.682L 74.3195 10.8246C 65.7916 2.47047 54.3088 -2.1421 42.3943 -1.99665L 42.4431 2.00305ZM 71.5203 13.682C 79.2908 21.294 83.7365 31.6957 83.8776 42.6018L 87.8773 42.55C 87.7225 30.5896 82.8471 19.1783 74.3195 10.8246L 71.5203 13.682ZM 83.8776 42.6018C 84.0187 53.5078 79.8435 64.0222 72.2724 71.8347L 75.1449 74.6184C 83.4534 66.045 88.032 54.5104 87.8773 42.55L 83.8776 42.6018ZM 72.2724 71.8347C 64.7016 79.6468 54.355 84.118 43.5068 84.2688L 43.5624 88.2684C 55.4766 88.1028 66.836 83.1921 75.1449 74.6184L 72.2724 71.8347ZM 43.5068 84.2688C 32.6587 84.4196 22.193 80.2376 14.4101 72.6391L 11.6158 75.5012C 20.1577 83.8409 31.6482 88.4341 43.5624 88.2684L 43.5068 84.2688ZM 14.4101 72.6391C 6.62695 65.0402 2.16378 54.6461 2.00442 43.7403L -1.99516 43.7987C -1.82039 55.7588 3.07416 67.1619 11.6158 75.5012L 14.4101 72.6391Z"/>
<path id="path4_fill" d="M 56.4375 44.75C 57 45 57.2656 45.375 57.2344 45.875C 57.2344 46.375 57.0312 46.9531 56.625 47.6094C 56.2188 48.2656 55.6406 48.9688 54.8906 49.7188C 54.1719 50.4375 53.375 51.1719 52.5 51.9219C 51.7812 52.5156 50.9531 53.1562 50.0156 53.8438C 49.2031 54.4688 48.2031 55.1875 47.0156 56C 45.8594 56.7812 44.5312 57.6406 43.0312 58.5781C 43.875 57.7969 44.4688 57.0938 44.8125 56.4688C 45.1562 55.8438 45.3281 55.2656 45.3281 54.7344C 45.3281 54.0156 45.0469 53.3906 44.4844 52.8594C 43.9219 52.3281 43.2031 51.8906 42.3281 51.5469C 41.4531 51.1719 40.4688 50.875 39.375 50.6562C 38.3125 50.4375 37.2656 50.2812 36.2344 50.1875C 35.2344 50.0625 34.3125 49.9844 33.4688 49.9531C 32.625 49.9219 32 49.9062 31.5938 49.9062C 29.9375 49.9062 28.2656 50.0781 26.5781 50.4219C 24.8906 50.7344 23.375 51.2812 22.0312 52.0625C 20.6875 52.8125 19.5938 53.8281 18.75 55.1094C 17.9062 56.3594 17.4844 57.9219 17.4844 59.7969C 17.4844 61.9219 18.0781 63.75 19.2656 65.2812C 20.4531 66.7812 22.0156 68.0938 23.9531 69.2188C 25.8906 70.3438 28.0781 71.3281 30.5156 72.1719C 32.9844 73.0156 35.4688 73.8281 37.9688 74.6094C 40.5 75.3594 42.9375 76.125 45.2812 76.9062C 47.6562 77.6875 49.7188 78.5781 51.4688 79.5781C 53.7812 80.9531 55.4375 82.5625 56.4375 84.4062C 57.4688 86.2188 57.9844 88.1406 57.9844 90.1719C 57.9844 92.7969 57.2812 95.2969 55.875 97.6719C 54.5 100.016 52.6875 102.203 50.4375 104.234C 48.2188 106.266 45.6875 108.094 42.8438 109.719C 40 111.344 37.125 112.734 34.2188 113.891C 31.3125 115.047 28.5 115.938 25.7812 116.562C 23.0625 117.188 20.7031 117.5 18.7031 117.5C 16.1094 117.5 13.8281 117.234 11.8594 116.703C 9.89062 116.203 8.25 115.594 6.9375 114.875C 5.625 114.156 4.64062 113.422 3.98438 112.672C 3.35938 111.891 3.09375 111.266 3.1875 110.797C 3.25 110.234 3.53125 109.625 4.03125 108.969C 4.5625 108.281 5.34375 107.547 6.375 106.766C 7.40625 105.984 8.70312 105.125 10.2656 104.188C 11.8281 103.25 13.7188 102.219 15.9375 101.094C 15.0312 101.969 14.625 102.781 14.7188 103.531C 14.8125 104.281 15.25 104.953 16.0312 105.547C 16.8438 106.141 17.8906 106.672 19.1719 107.141C 20.4844 107.578 21.8594 107.953 23.2969 108.266C 24.7656 108.547 26.2344 108.766 27.7031 108.922C 29.1719 109.078 30.4688 109.156 31.5938 109.156C 33.5 109.156 35.3906 108.953 37.2656 108.547C 39.1719 108.141 40.875 107.5 42.375 106.625C 43.9062 105.719 45.1406 104.547 46.0781 103.109C 47.0469 101.641 47.5312 99.875 47.5312 97.8125C 47.5312 96.5938 47.2812 95.3438 46.7812 94.0625C 46.2812 92.75 45.4219 91.4844 44.2031 90.2656C 43.0156 89.0469 41.4062 87.9062 39.375 86.8438C 37.3438 85.75 34.8125 84.8125 31.7812 84.0312C 27.1562 82.8125 23.25 81.5625 20.0625 80.2812C 16.9062 78.9688 14.3594 77.5781 12.4219 76.1094C 10.5156 74.6094 9.1875 72.9844 8.4375 71.2344C 7.6875 69.4531 7.40625 67.4688 7.59375 65.2812C 7.78125 62.75 8.54688 60.4531 9.89062 58.3906C 11.2344 56.2969 12.9375 54.4375 15 52.8125C 17.0938 51.1562 19.4219 49.7188 21.9844 48.5C 24.5781 47.2812 27.2031 46.2812 29.8594 45.5C 32.5469 44.6875 35.1562 44.0938 37.6875 43.7188C 40.2188 43.3125 42.4688 43.1094 44.4375 43.1094C 45.9375 43.1094 47.3438 43.1719 48.6562 43.2969C 50 43.4219 51.1875 43.5625 52.2188 43.7188C 53.2812 43.875 54.1719 44.0625 54.8906 44.2812C 55.6094 44.4688 56.125 44.625 56.4375 44.75Z"/>
<path id="path5_fill" d="M 13.184 60.64C 11.6053 60.64 10.1333 60.384 8.768 59.872C 7.44533 59.3173 6.272 58.5707 5.248 57.632C 4.26667 56.6933 3.49867 55.6053 2.944 54.368C 2.38933 53.088 2.112 51.7227 2.112 50.272C 2.112 48.8213 2.45333 47.4773 3.136 46.24C 3.81867 45.0027 4.77867 43.936 6.016 43.04C 7.25333 42.144 8.72533 41.4613 10.432 40.992C 12.1387 40.48 14.016 40.224 16.064 40.224C 17.7707 40.224 19.4987 40.3733 21.248 40.672C 22.9973 40.9707 24.5547 41.3973 25.92 41.952L 25.92 38.944C 25.92 36 25.088 33.6747 23.424 31.968C 21.76 30.2187 19.456 29.344 16.512 29.344C 14.8053 29.344 13.056 29.6853 11.264 30.368C 9.472 31.0507 7.65867 32.032 5.824 33.312L 4.288 30.432C 8.59733 27.5307 12.7787 26.08 16.832 26.08C 21.0133 26.08 24.2987 27.2533 26.688 29.6C 29.0773 31.9467 30.272 35.1893 30.272 39.328L 30.272 54.368C 30.272 55.5627 30.8053 56.16 31.872 56.16L 31.872 60C 31.1467 60.128 30.592 60.192 30.208 60.192C 29.0987 60.192 28.224 59.9147 27.584 59.36C 26.9867 58.8053 26.6667 58.0373 26.624 57.056L 26.496 54.432C 24.96 56.4373 23.0187 57.9733 20.672 59.04C 18.368 60.1067 15.872 60.64 13.184 60.64ZM 14.208 57.312C 16.4693 57.312 18.5387 56.8853 20.416 56.032C 22.336 55.1787 23.7867 54.048 24.768 52.64C 25.152 52.256 25.4293 51.8507 25.6 51.424C 25.8133 50.9547 25.92 50.528 25.92 50.144L 25.92 44.704C 24.4693 44.1493 22.9547 43.7227 21.376 43.424C 19.84 43.1253 18.2613 42.976 16.64 42.976C 13.568 42.976 11.072 43.616 9.152 44.896C 7.232 46.176 6.272 47.8613 6.272 49.952C 6.272 50.976 6.464 51.936 6.848 52.832C 7.27467 53.728 7.82933 54.5173 8.512 55.2C 9.23733 55.84 10.0907 56.352 11.072 56.736C 12.0533 57.12 13.0987 57.312 14.208 57.312ZM 48.784 60L 35.216 26.656L 39.696 26.656L 51.152 55.968L 62.672 26.656L 66.896 26.656L 53.328 60L 48.784 60ZM 82.909 60L 69.341 26.656L 73.821 26.656L 85.277 55.968L 96.797 26.656L 101.021 26.656L 87.453 60L 82.909 60ZM 108.97 70.24C 109.311 70.2827 109.631 70.304 109.93 70.304C 110.271 70.3467 110.591 70.368 110.89 70.368C 111.658 70.368 112.255 70.2613 112.682 70.048C 113.151 69.8347 113.599 69.3653 114.026 68.64C 114.453 67.9147 114.922 66.8693 115.434 65.504C 115.989 64.1387 116.757 62.304 117.738 60L 103.21 26.656L 107.69 26.656L 120.042 55.968L 131.498 26.656L 135.658 26.656L 118.378 69.664C 117.909 70.9013 117.119 71.968 116.01 72.864C 114.943 73.8027 113.471 74.272 111.594 74.272C 111.167 74.272 110.762 74.2507 110.378 74.208C 109.994 74.208 109.525 74.1653 108.97 74.08L 108.97 70.24ZM 169.194 23.072C 167.913 21.6213 166.207 20.448 164.073 19.552C 161.94 18.656 159.508 18.208 156.778 18.208C 152.767 18.208 149.844 18.976 148.01 20.512C 146.175 22.0053 145.257 24.0533 145.257 26.656C 145.257 28.0213 145.492 29.152 145.962 30.048C 146.474 30.9013 147.242 31.648 148.266 32.288C 149.29 32.928 150.591 33.4827 152.169 33.952C 153.791 34.4213 155.69 34.8907 157.865 35.36C 160.297 35.872 162.474 36.448 164.393 37.088C 166.356 37.728 168.02 38.5387 169.386 39.52C 170.751 40.4587 171.796 41.6107 172.522 42.976C 173.247 44.3413 173.609 46.048 173.609 48.096C 173.609 50.1867 173.204 52 172.394 53.536C 171.583 55.072 170.452 56.352 169.001 57.376C 167.551 58.4 165.823 59.168 163.817 59.68C 161.812 60.1493 159.615 60.384 157.226 60.384C 150.186 60.384 144.106 58.1867 138.986 53.792L 141.226 50.144C 142.036 50.9973 142.996 51.808 144.106 52.576C 145.257 53.344 146.516 54.0267 147.881 54.624C 149.289 55.1787 150.783 55.6267 152.362 55.968C 153.94 56.2667 155.604 56.416 157.353 56.416C 160.98 56.416 163.796 55.776 165.802 54.496C 167.85 53.1733 168.874 51.1893 168.874 48.544C 168.874 47.136 168.575 45.9627 167.977 45.024C 167.423 44.0427 166.57 43.2107 165.417 42.528C 164.265 41.8027 162.836 41.184 161.13 40.672C 159.423 40.16 157.439 39.648 155.178 39.136C 152.788 38.5813 150.697 38.0053 148.905 37.408C 147.113 36.8107 145.599 36.064 144.362 35.168C 143.124 34.272 142.185 33.2053 141.546 31.968C 140.948 30.688 140.649 29.1307 140.649 27.296C 140.649 25.2053 141.034 23.3493 141.802 21.728C 142.612 20.064 143.743 18.6987 145.194 17.632C 146.644 16.5227 148.351 15.6907 150.314 15.136C 152.276 14.5387 154.452 14.24 156.841 14.24C 159.871 14.24 162.559 14.7093 164.905 15.648C 167.295 16.544 169.45 17.824 171.37 19.488L 169.194 23.072ZM 194.821 60.64C 192.389 60.64 190.17 60.192 188.165 59.296C 186.159 58.3573 184.41 57.0987 182.917 55.52C 181.466 53.9413 180.335 52.1067 179.524 50.016C 178.714 47.9253 178.309 45.728 178.309 43.424C 178.309 41.0773 178.714 38.8587 179.524 36.768C 180.378 34.6773 181.53 32.8427 182.981 31.264C 184.474 29.6853 186.223 28.4267 188.228 27.488C 190.234 26.5493 192.431 26.08 194.821 26.08C 197.21 26.08 199.407 26.5493 201.412 27.488C 203.46 28.4267 205.21 29.6853 206.661 31.264C 208.154 32.8427 209.306 34.6773 210.117 36.768C 210.97 38.8587 211.397 41.0773 211.397 43.424C 211.397 45.728 210.991 47.9253 210.18 50.016C 209.37 52.1067 208.218 53.9413 206.725 55.52C 205.274 57.0987 203.524 58.3573 201.476 59.296C 199.471 60.192 197.252 60.64 194.821 60.64ZM 182.725 43.488C 182.725 45.3653 183.045 47.1147 183.685 48.736C 184.325 50.3147 185.178 51.7227 186.244 52.96C 187.354 54.1547 188.634 55.0933 190.084 55.776C 191.578 56.4587 193.157 56.8 194.821 56.8C 196.485 56.8 198.042 56.4587 199.493 55.776C 200.986 55.0507 202.287 54.0907 203.397 52.896C 204.506 51.6587 205.38 50.2293 206.02 48.608C 206.66 46.9867 206.981 45.2373 206.981 43.36C 206.981 41.5253 206.66 39.7973 206.02 38.176C 205.38 36.512 204.506 35.0827 203.397 33.888C 202.287 32.6507 200.986 31.6907 199.493 31.008C 198.042 30.2827 196.485 29.92 194.821 29.92C 193.157 29.92 191.599 30.2827 190.149 31.008C 188.698 31.6907 187.418 32.6507 186.309 33.888C 185.199 35.1253 184.325 36.576 183.685 38.24C 183.045 39.8613 182.725 41.6107 182.725 43.488ZM 219.775 60L 219.775 30.112L 215.167 30.112L 215.167 26.656L 219.775 26.656L 219.775 25.76C 219.775 21.664 220.65 18.464 222.399 16.16C 224.148 13.8133 226.538 12.64 229.567 12.64C 230.89 12.64 232.17 12.832 233.407 13.216C 234.644 13.6 235.711 14.112 236.607 14.752L 235.263 17.888C 234.666 17.4187 233.919 17.056 233.023 16.8C 232.17 16.544 231.295 16.416 230.399 16.416C 228.351 16.416 226.794 17.2053 225.727 18.784C 224.66 20.3627 224.127 22.6453 224.127 25.632L 224.127 26.656L 233.343 26.656L 233.343 30.112L 224.127 30.112L 224.127 60L 219.775 60ZM 255.3 58.4C 255.044 58.528 254.66 58.6987 254.148 58.912C 253.679 59.1253 253.124 59.3387 252.484 59.552C 251.844 59.7653 251.119 59.9573 250.308 60.128C 249.497 60.2987 248.644 60.384 247.748 60.384C 246.809 60.384 245.913 60.256 245.06 60C 244.207 59.744 243.46 59.36 242.82 58.848C 242.18 58.2933 241.668 57.6107 241.284 56.8C 240.9 55.9893 240.708 55.0507 240.708 53.984L 240.708 30.112L 236.1 30.112L 236.1 26.656L 240.708 26.656L 240.708 15.392L 245.06 15.392L 245.06 26.656L 252.74 26.656L 252.74 30.112L 245.06 30.112L 245.06 52.768C 245.145 54.0053 245.572 54.9227 246.34 55.52C 247.151 56.0747 248.068 56.352 249.092 56.352C 250.329 56.352 251.417 56.16 252.356 55.776C 253.295 55.3493 253.892 55.0507 254.148 54.88L 255.3 58.4ZM 277.284 14.88L 281.508 14.88L 287.908 31.008L 294.372 14.88L 298.66 14.88L 290.724 34.272L 299.428 54.816L 315.876 14.56L 320.74 14.56L 301.476 60L 297.508 60L 287.972 37.536L 278.372 60L 274.468 60L 255.268 14.56L 260.068 14.56L 276.58 54.816L 285.22 34.272L 277.284 14.88ZM 336.32 60.64C 333.888 60.64 331.67 60.192 329.664 59.296C 327.659 58.3573 325.91 57.0987 324.416 55.52C 322.966 53.9413 321.835 52.1067 321.024 50.016C 320.214 47.9253 319.808 45.728 319.808 43.424C 319.808 41.0773 320.214 38.8587 321.024 36.768C 321.878 34.6773 323.03 32.8427 324.481 31.264C 325.974 29.6853 327.723 28.4267 329.728 27.488C 331.734 26.5493 333.931 26.08 336.32 26.08C 338.71 26.08 340.907 26.5493 342.913 27.488C 344.961 28.4267 346.71 29.6853 348.161 31.264C 349.654 32.8427 350.806 34.6773 351.616 36.768C 352.47 38.8587 352.897 41.0773 352.897 43.424C 352.897 45.728 352.491 47.9253 351.68 50.016C 350.87 52.1067 349.718 53.9413 348.224 55.52C 346.774 57.0987 345.024 58.3573 342.976 59.296C 340.971 60.192 338.752 60.64 336.32 60.64ZM 324.224 43.488C 324.224 45.3653 324.545 47.1147 325.185 48.736C 325.825 50.3147 326.678 51.7227 327.745 52.96C 328.854 54.1547 330.134 55.0933 331.584 55.776C 333.078 56.4587 334.656 56.8 336.32 56.8C 337.984 56.8 339.542 56.4587 340.993 55.776C 342.486 55.0507 343.787 54.0907 344.897 52.896C 346.006 51.6587 346.881 50.2293 347.521 48.608C 348.161 46.9867 348.481 45.2373 348.481 43.36C 348.481 41.5253 348.161 39.7973 347.521 38.176C 346.881 36.512 346.006 35.0827 344.897 33.888C 343.787 32.6507 342.486 31.6907 340.993 31.008C 339.542 30.2827 337.984 29.92 336.32 29.92C 334.656 29.92 333.099 30.2827 331.649 31.008C 330.198 31.6907 328.918 32.6507 327.808 33.888C 326.699 35.1253 325.825 36.576 325.185 38.24C 324.545 39.8613 324.224 41.6107 324.224 43.488ZM 376.815 30.496C 373.871 30.5813 371.311 31.392 369.135 32.928C 366.959 34.464 365.423 36.576 364.527 39.264L 364.527 60L 360.175 60L 360.175 26.656L 364.271 26.656L 364.271 34.656C 365.508 32.096 367.172 30.0907 369.263 28.64C 371.354 27.1893 373.594 26.464 375.983 26.464C 376.324 26.464 376.602 26.4853 376.815 26.528L 376.815 30.496ZM 406.421 60L 394.132 42.912L 386.964 49.568L 386.964 60L 382.613 60L 382.613 13.28L 386.964 13.28L 386.964 45.024L 405.716 26.72L 410.644 26.72L 397.012 40.352L 411.156 60L 406.421 60ZM 427.622 60.64C 425.019 60.64 422.481 60.2133 420.006 59.36C 417.531 58.5067 415.398 57.2693 413.606 55.648L 415.59 52.704C 417.467 54.24 419.366 55.392 421.286 56.16C 423.249 56.928 425.339 57.312 427.558 57.312C 430.246 57.312 432.379 56.7787 433.958 55.712C 435.579 54.6027 436.39 53.0453 436.39 51.04C 436.39 50.1013 436.177 49.3333 435.75 48.736C 435.323 48.096 434.683 47.5413 433.83 47.072C 433.019 46.6027 431.974 46.1973 430.694 45.856C 429.457 45.472 428.006 45.088 426.342 44.704C 424.422 44.2347 422.758 43.7653 421.35 43.296C 419.942 42.8267 418.769 42.2933 417.83 41.696C 416.934 41.0987 416.251 40.3733 415.782 39.52C 415.355 38.624 415.142 37.5147 415.142 36.192C 415.142 34.528 415.462 33.056 416.102 31.776C 416.785 30.496 417.681 29.4507 418.79 28.64C 419.942 27.7867 421.265 27.1467 422.758 26.72C 424.294 26.2933 425.915 26.08 427.622 26.08C 430.182 26.08 432.507 26.5067 434.598 27.36C 436.689 28.1707 438.374 29.2587 439.654 30.624L 437.542 33.184C 436.305 31.904 434.79 30.944 432.998 30.304C 431.249 29.664 429.414 29.344 427.494 29.344C 426.342 29.344 425.275 29.472 424.294 29.728C 423.313 29.9413 422.438 30.304 421.67 30.816C 420.945 31.328 420.369 31.9893 419.942 32.8C 419.515 33.568 419.302 34.4853 419.302 35.552C 419.302 36.448 419.451 37.1733 419.75 37.728C 420.049 38.2827 420.539 38.7733 421.222 39.2C 421.905 39.584 422.758 39.9467 423.782 40.288C 424.849 40.5867 426.129 40.9067 427.622 41.248C 429.755 41.76 431.633 42.272 433.254 42.784C 434.875 43.296 436.219 43.8933 437.286 44.576C 438.395 45.2587 439.227 46.0907 439.782 47.072C 440.337 48.0533 440.614 49.248 440.614 50.656C 440.614 53.728 439.441 56.16 437.094 57.952C 434.747 59.744 431.59 60.64 427.622 60.64Z"/>
</defs>
</svg>
