<svg width="568" height="568" viewBox="0 0 568 568" version="1.1" xmlns="http://www.w3.org/2000/svg" xmlns:xlink="http://www.w3.org/1999/xlink" xmlns:figma="http://www.figma.com/figma/ns">
<title>layer1</title>
<desc>Created using Figma</desc>
<g id="Canvas" transform="matrix(2 0 0 2 864 442)" figma:type="canvas">
<g id="layer1" figma:type="frame">
<g id="path6527" figma:type="vector">
<use xlink:href="#path0_fill" transform="translate(-430 -219)" fill="#418BC4"/>
<use xlink:href="#path1_stroke" transform="translate(-430 -219)" fill="#418BC4"/>
</g>
<g id="path6542" figma:type="vector">
<use xlink:href="#path2_fill" transform="translate(-418 -207)" fill="#418BC4"/>
<use xlink:href="#path3_stroke" transform="translate(-418 -207)" fill="#F5F5F5"/>
</g>
<g id="S" figma:type="text">
<use xlink:href="#path4_fill" transform="matrix(0.960946 0 0 1.04064 -381 -330)" fill="#F5F5F5"/>
</g>
</g>
</g>
<defs>
<path id="path0_fill" d="M 0.00896551 141.583C -0.41074 104.476 13.9196 68.7199 39.8506 42.1732C 65.7816 15.6266 101.192 0.461252 138.299 0.010288C 175.406 -0.440677 211.174 13.8595 237.742 39.7681C 264.311 65.6767 279.506 101.074 279.988 138.181C 280.47 175.287 266.2 211.067 240.314 237.658C 214.428 264.248 179.044 279.473 141.937 279.987C 104.831 280.5 69.0387 266.26 42.4266 240.396C 15.8145 214.533 0.559815 179.161 0.0150971 142.055"/>
<path id="path1_stroke" d="M -1.83808 141.604C -1.82654 142.624 -0.990239 143.442 0.0298566 143.43C 1.04995 143.419 1.86755 142.582 1.85601 141.562L -1.83808 141.604ZM 138.299 0.010288L 138.321 1.85732L 138.321 1.85732L 138.299 0.010288ZM 279.988 138.181L 278.141 138.205L 278.141 138.205L 279.988 138.181ZM 141.937 279.987L 141.912 278.14L 141.937 279.987ZM 1.86206 142.028C 1.84709 141.008 1.00803 140.193 -0.0120165 140.208C -1.03207 140.223 -1.84684 141.062 -1.83187 142.082L 1.86206 142.028ZM 1.85601 141.562C 1.44184 104.944 15.5831 69.6604 41.1719 43.464L 38.5292 40.8825C 12.256 67.7794 -2.26332 104.007 -1.83808 141.604L 1.85601 141.562ZM 41.1719 43.464C 66.7608 17.2676 101.704 2.30233 138.321 1.85732L 138.276 -1.83674C 100.68 -1.37983 64.8023 13.9856 38.5292 40.8825L 41.1719 43.464ZM 138.321 1.85732C 174.939 1.4123 210.235 15.5238 236.453 41.0906L 239.032 38.4457C 212.113 12.1952 175.873 -2.29365 138.276 -1.83674L 138.321 1.85732ZM 236.453 41.0906C 262.671 66.6574 277.665 101.588 278.141 138.205L 281.835 138.157C 281.347 100.56 265.951 64.6961 239.032 38.4457L 236.453 41.0906ZM 278.141 138.205C 278.617 174.822 264.535 210.13 238.991 236.369L 241.638 238.946C 267.866 212.005 282.324 175.753 281.835 138.157L 278.141 138.205ZM 238.991 236.369C 213.446 262.609 178.528 277.633 141.912 278.14L 141.963 281.834C 179.559 281.313 215.41 265.887 241.638 238.946L 238.991 236.369ZM 141.912 278.14C 105.295 278.646 69.975 264.594 43.714 239.072L 41.1392 241.721C 68.1025 267.926 104.367 282.354 141.963 281.834L 141.912 278.14ZM 43.714 239.072C 17.453 213.549 2.39959 178.644 1.86206 142.028L -1.83187 142.082C -1.27996 179.678 14.1759 215.516 41.1392 241.721L 43.714 239.072Z"/>
<path id="path2_fill" d="M 0.00819563 129.448C -0.375511 95.5208 12.7265 62.8294 36.4349 38.5582C 60.1432 14.287 92.5181 0.421788 126.445 0.0094967C 160.371 -0.402795 193.073 12.6716 217.365 36.3595C 241.656 60.0475 255.548 92.4107 255.989 126.337C 256.43 160.263 243.383 192.976 219.716 217.288C 196.048 241.599 163.697 255.518 129.771 255.988C 95.8452 256.457 63.121 243.438 38.7899 219.791C 14.4589 196.144 0.511802 163.804 0.0138016 129.879"/>
<path id="path3_stroke" d="M -5.99142 129.516C -5.95395 132.829 -3.23745 135.485 0.0760501 135.447C 3.38955 135.41 6.04529 132.693 6.00781 129.38L -5.99142 129.516ZM 126.445 0.0094967L 126.518 6.00905L 126.445 0.0094967ZM 255.989 126.337L 261.989 126.259L 261.989 126.259L 255.989 126.337ZM 129.771 255.988L 129.688 249.988L 129.771 255.988ZM 6.01316 129.791C 5.96452 126.477 3.23909 123.831 -0.0742647 123.879C -3.38762 123.928 -6.03419 126.653 -5.98555 129.967L 6.01316 129.791ZM 6.00781 129.38C 5.64209 97.0433 18.1299 65.8843 40.727 42.7508L 32.1427 34.3656C 7.32305 59.7746 -6.39311 93.9983 -5.99142 129.516L 6.00781 129.38ZM 40.727 42.7508C 63.324 19.6173 94.1813 6.40202 126.518 6.00905L 126.372 -5.99006C 90.8549 -5.55844 56.9624 8.95668 32.1427 34.3656L 40.727 42.7508ZM 126.518 6.00905C 158.854 5.61609 190.023 18.0776 213.176 40.6552L 221.554 32.0639C 196.124 7.26555 161.889 -6.42168 126.372 -5.99006L 126.518 6.00905ZM 213.176 40.6552C 236.328 63.2327 249.57 94.0789 249.99 126.415L 261.989 126.259C 261.527 90.7424 246.983 56.8622 221.554 32.0639L 213.176 40.6552ZM 249.99 126.415C 250.41 158.751 237.974 189.931 215.416 213.102L 224.015 221.473C 248.792 196.022 262.45 161.775 261.989 126.259L 249.99 126.415ZM 215.416 213.102C 192.858 236.274 162.023 249.541 129.688 249.988L 129.854 261.987C 165.37 261.496 199.238 246.924 224.015 221.473L 215.416 213.102ZM 129.688 249.988C 97.3525 250.436 66.1622 238.027 42.9716 215.488L 34.6082 224.094C 60.0797 248.849 94.3379 262.479 129.854 261.987L 129.688 249.988ZM 42.9716 215.488C 19.7811 192.95 6.48781 162.126 6.01316 129.791L -5.98555 129.967C -5.46421 165.482 9.13661 199.338 34.6082 224.094L 42.9716 215.488Z"/>
<path id="path4_fill" d="M 169.312 135.25C 171 136 171.797 137.125 171.703 138.625C 171.703 140.125 171.094 141.859 169.875 143.828C 168.656 145.797 166.922 147.906 164.672 150.156C 162.516 152.312 160.125 154.516 157.5 156.766C 155.344 158.547 152.859 160.469 150.047 162.531C 147.609 164.406 144.609 166.562 141.047 169C 137.578 171.344 133.594 173.922 129.094 176.734C 131.625 174.391 133.406 172.281 134.438 170.406C 135.469 168.531 135.984 166.797 135.984 165.203C 135.984 163.047 135.141 161.172 133.453 159.578C 131.766 157.984 129.609 156.672 126.984 155.641C 124.359 154.516 121.406 153.625 118.125 152.969C 114.938 152.312 111.797 151.844 108.703 151.562C 105.703 151.188 102.938 150.953 100.406 150.859C 97.875 150.766 96 150.719 94.7812 150.719C 89.8125 150.719 84.7969 151.234 79.7344 152.266C 74.6719 153.203 70.125 154.844 66.0938 157.188C 62.0625 159.438 58.7812 162.484 56.25 166.328C 53.7188 170.078 52.4531 174.766 52.4531 180.391C 52.4531 186.766 54.2344 192.25 57.7969 196.844C 61.3594 201.344 66.0469 205.281 71.8594 208.656C 77.6719 212.031 84.2344 214.984 91.5469 217.516C 98.9531 220.047 106.406 222.484 113.906 224.828C 121.5 227.078 128.812 229.375 135.844 231.719C 142.969 234.062 149.156 236.734 154.406 239.734C 161.344 243.859 166.312 248.688 169.312 254.219C 172.406 259.656 173.953 265.422 173.953 271.516C 173.953 279.391 171.844 286.891 167.625 294.016C 163.5 301.047 158.062 307.609 151.312 313.703C 144.656 319.797 137.062 325.281 128.531 330.156C 120 335.031 111.375 339.203 102.656 342.672C 93.9375 346.141 85.5 348.812 77.3438 350.688C 69.1875 352.562 62.1094 353.5 56.1094 353.5C 48.3281 353.5 41.4844 352.703 35.5781 351.109C 29.6719 349.609 24.75 347.781 20.8125 345.625C 16.875 343.469 13.9219 341.266 11.9531 339.016C 10.0781 336.672 9.28125 334.797 9.5625 333.391C 9.75 331.703 10.5938 329.875 12.0938 327.906C 13.6875 325.844 16.0312 323.641 19.125 321.297C 22.2188 318.953 26.1094 316.375 30.7969 313.562C 35.4844 310.75 41.1562 307.656 47.8125 304.281C 45.0938 306.906 43.875 309.344 44.1562 311.594C 44.4375 313.844 45.75 315.859 48.0938 317.641C 50.5312 319.422 53.6719 321.016 57.5156 322.422C 61.4531 323.734 65.5781 324.859 69.8906 325.797C 74.2969 326.641 78.7031 327.297 83.1094 327.766C 87.5156 328.234 91.4062 328.469 94.7812 328.469C 100.5 328.469 106.172 327.859 111.797 326.641C 117.516 325.422 122.625 323.5 127.125 320.875C 131.719 318.156 135.422 314.641 138.234 310.328C 141.141 305.922 142.594 300.625 142.594 294.438C 142.594 290.781 141.844 287.031 140.344 283.188C 138.844 279.25 136.266 275.453 132.609 271.797C 129.047 268.141 124.219 264.719 118.125 261.531C 112.031 258.25 104.438 255.438 95.3438 253.094C 81.4688 249.438 69.75 245.688 60.1875 241.844C 50.7188 237.906 43.0781 233.734 37.2656 229.328C 31.5469 224.828 27.5625 219.953 25.3125 214.703C 23.0625 209.359 22.2188 203.406 22.7812 196.844C 23.3438 189.25 25.6406 182.359 29.6719 176.172C 33.7031 169.891 38.8125 164.312 45 159.438C 51.2812 154.469 58.2656 150.156 65.9531 146.5C 73.7344 142.844 81.6094 139.844 89.5781 137.5C 97.6406 135.062 105.469 133.281 113.062 132.156C 120.656 130.938 127.406 130.328 133.312 130.328C 137.812 130.328 142.031 130.516 145.969 130.891C 150 131.266 153.562 131.688 156.656 132.156C 159.844 132.625 162.516 133.188 164.672 133.844C 166.828 134.406 168.375 134.875 169.312 135.25Z"/>
</defs>
</svg>
