<svg width="464" height="559" viewBox="0 0 464 559" version="1.1" xmlns="http://www.w3.org/2000/svg" xmlns:xlink="http://www.w3.org/1999/xlink">
<title>SavvyAudioVisual_Desktop</title>
<desc>Created using Figma</desc>
<g id="Canvas" transform="translate(286 -62)">
<g id="SavvyAudioVisual_Desktop">
<g id="Svy">
<g id="S" filter="url(#filter0_i)">
<use xlink:href="#path0_fill" transform="translate(-286 47)" fill="#418BC4"/>
</g>
<g id="V" filter="url(#filter1_i)">
<use xlink:href="#path1_fill" transform="translate(-286 395)" fill="#418BC4"/>
</g>
<g id="Y" filter="url(#filter2_i)">
<use xlink:href="#path2_fill" transform="translate(-283 502)" fill="#418BC4"/>
</g>
</g>
<g id="Visual">
<g id="Visual" filter="url(#filter3_i)">
<use xlink:href="#path3_fill" transform="translate(-286 286)" fill="#BE2C17"/>
</g>
</g>
<g id="Audio">
<g id="Audio" filter="url(#filter4_i)">
<use xlink:href="#path4_fill" transform="translate(-286 161)" fill="#F29F1A"/>
</g>
</g>
</g>
</g>
<defs>
<filter id="filter0_i" filterUnits="userSpaceOnUse" x="-285" y="62" width="98" height="111" color-interpolation-filters="sRGB">
<feFlood flood-opacity="0" result="BackgroundImageFix"/>
<feBlend mode="normal" in="SourceGraphic" in2="BackgroundImageFix" result="shape"/>
<feColorMatrix in="SourceAlpha" type="matrix" values="0 0 0 0 0 0 0 0 0 0 0 0 0 0 0 0 0 0 255 0" result="hardAlpha"/>
<feOffset dx="0" dy="4"/>
<feGaussianBlur stdDeviation="2"/>
<feComposite in2="hardAlpha" operator="arithmetic" k2="-1" k3="1"/>
<feColorMatrix type="matrix" values="0 0 0 0 0 0 0 0 0 0 0 0 0 0 0 0 0 0 0.25 0"/>
<feBlend mode="normal" in2="shape" result="effect1_innerShadow"/>
</filter>
<filter id="filter1_i" filterUnits="userSpaceOnUse" x="-290" y="412" width="108" height="106" color-interpolation-filters="sRGB">
<feFlood flood-opacity="0" result="BackgroundImageFix"/>
<feBlend mode="normal" in="SourceGraphic" in2="BackgroundImageFix" result="shape"/>
<feColorMatrix in="SourceAlpha" type="matrix" values="0 0 0 0 0 0 0 0 0 0 0 0 0 0 0 0 0 0 255 0" result="hardAlpha"/>
<feOffset dx="0" dy="4"/>
<feGaussianBlur stdDeviation="2"/>
<feComposite in2="hardAlpha" operator="arithmetic" k2="-1" k3="1"/>
<feColorMatrix type="matrix" values="0 0 0 0 0 0 0 0 0 0 0 0 0 0 0 0 0 0 0.25 0"/>
<feBlend mode="normal" in2="shape" result="effect1_innerShadow"/>
</filter>
<filter id="filter2_i" filterUnits="userSpaceOnUse" x="-288" y="519" width="103" height="106" color-interpolation-filters="sRGB">
<feFlood flood-opacity="0" result="BackgroundImageFix"/>
<feBlend mode="normal" in="SourceGraphic" in2="BackgroundImageFix" result="shape"/>
<feColorMatrix in="SourceAlpha" type="matrix" values="0 0 0 0 0 0 0 0 0 0 0 0 0 0 0 0 0 0 255 0" result="hardAlpha"/>
<feOffset dx="0" dy="4"/>
<feGaussianBlur stdDeviation="2"/>
<feComposite in2="hardAlpha" operator="arithmetic" k2="-1" k3="1"/>
<feColorMatrix type="matrix" values="0 0 0 0 0 0 0 0 0 0 0 0 0 0 0 0 0 0 0.25 0"/>
<feBlend mode="normal" in2="shape" result="effect1_innerShadow"/>
</filter>
<filter id="filter3_i" filterUnits="userSpaceOnUse" x="-290" y="286" width="472" height="125" color-interpolation-filters="sRGB">
<feFlood flood-opacity="0" result="BackgroundImageFix"/>
<feBlend mode="normal" in="SourceGraphic" in2="BackgroundImageFix" result="shape"/>
<feColorMatrix in="SourceAlpha" type="matrix" values="0 0 0 0 0 0 0 0 0 0 0 0 0 0 0 0 0 0 255 0" result="hardAlpha"/>
<feOffset dx="0" dy="4"/>
<feGaussianBlur stdDeviation="2"/>
<feComposite in2="hardAlpha" operator="arithmetic" k2="-1" k3="1"/>
<feColorMatrix type="matrix" values="0 0 0 0 0 0 0 0 0 0 0 0 0 0 0 0 0 0 0.25 0"/>
<feBlend mode="normal" in2="shape" result="effect1_innerShadow"/>
</filter>
<filter id="filter4_i" filterUnits="userSpaceOnUse" x="-280" y="166" width="452" height="140" color-interpolation-filters="sRGB">
<feFlood flood-opacity="0" result="BackgroundImageFix"/>
<feBlend mode="normal" in="SourceGraphic" in2="BackgroundImageFix" result="shape"/>
<feColorMatrix in="SourceAlpha" type="matrix" values="0 0 0 0 0 0 0 0 0 0 0 0 0 0 0 0 0 0 255 0" result="hardAlpha"/>
<feOffset dx="0" dy="4"/>
<feGaussianBlur stdDeviation="2"/>
<feComposite in2="hardAlpha" operator="arithmetic" k2="-1" k3="1"/>
<feColorMatrix type="matrix" values="0 0 0 0 0 0 0 0 0 0 0 0 0 0 0 0 0 0 0.25 0"/>
<feBlend mode="normal" in2="shape" result="effect1_innerShadow"/>
</filter>
<path id="path0_fill" d="M 94.4297 88.0625C 94.4297 92.4219 93.8672 96.2656 92.7422 99.5938C 91.6641 102.922 90.1172 105.805 88.1016 108.242C 86.1328 110.68 83.7891 112.719 81.0703 114.359C 78.3516 116 75.375 117.312 72.1406 118.297C 68.9531 119.281 65.5547 119.984 61.9453 120.406C 58.3828 120.828 54.75 121.039 51.0469 121.039C 46.1719 121.039 41.6719 120.664 37.5469 119.914C 33.4219 119.211 29.5312 118.086 25.875 116.539C 22.2656 114.945 18.7734 112.906 15.3984 110.422C 12.0703 107.938 8.74219 104.914 5.41406 101.352L 19.7578 86.7969C 21.0703 90.0312 22.875 93.0312 25.1719 95.7969C 27.4688 98.5156 29.9766 100.859 32.6953 102.828C 35.4609 104.797 38.3203 106.344 41.2734 107.469C 44.2266 108.594 47.0156 109.156 49.6406 109.156C 52.7344 109.156 55.6406 108.945 58.3594 108.523C 61.0781 108.055 63.4453 107.305 65.4609 106.273C 67.4766 105.242 69.0469 103.883 70.1719 102.195C 71.3438 100.461 71.9297 98.3047 71.9297 95.7266C 71.9297 93.7578 71.4844 92.0703 70.5938 90.6641C 69.7031 89.2578 68.5312 88.0625 67.0781 87.0781C 65.6719 86.0469 64.0547 85.1797 62.2266 84.4766C 60.3984 83.7734 58.5234 83.1875 56.6016 82.7188C 54.7266 82.2031 52.875 81.7578 51.0469 81.3828C 49.2188 80.9609 47.6016 80.5391 46.1953 80.1172C 43.4297 79.3203 40.5469 78.4766 37.5469 77.5859C 34.5469 76.6484 31.5938 75.5938 28.6875 74.4219C 25.7812 73.25 23.0156 71.9141 20.3906 70.4141C 17.8125 68.8672 15.5391 67.0625 13.5703 65C 11.6016 62.8906 10.0312 60.4766 8.85938 57.7578C 7.6875 54.9922 7.10156 51.8281 7.10156 48.2656C 7.10156 44 7.61719 40.2266 8.64844 36.9453C 9.72656 33.6172 11.2266 30.7344 13.1484 28.2969C 15.0703 25.8594 17.3438 23.8203 19.9688 22.1797C 22.5938 20.4922 25.4766 19.1562 28.6172 18.1719C 31.7578 17.1406 35.0859 16.4141 38.6016 15.9922C 42.1641 15.5234 45.7969 15.2891 49.5 15.2891C 54.5625 15.2891 59.1562 15.7578 63.2812 16.6953C 67.4531 17.6328 71.2969 18.9687 74.8125 20.7031C 78.3281 22.4375 81.5391 24.5234 84.4453 26.9609C 87.3984 29.3516 90.1641 32.0234 92.7422 34.9766L 78.3984 49.5312C 77.2734 46.1562 75.7031 43.1094 73.6875 40.3906C 71.7188 37.6719 69.5156 35.3516 67.0781 33.4297C 64.6406 31.4609 62.0859 29.9609 59.4141 28.9297C 56.7422 27.8516 54.1641 27.3125 51.6797 27.3125C 48.4453 27.3125 45.4688 27.5469 42.75 28.0156C 40.0312 28.4375 37.6875 29.1641 35.7188 30.1953C 33.7969 31.1797 32.2969 32.5391 31.2188 34.2734C 30.1406 35.9609 29.6016 38.0703 29.6016 40.6016C 29.6016 42.6172 30 44.3281 30.7969 45.7344C 31.5938 47.1406 32.6484 48.3359 33.9609 49.3203C 35.3203 50.3047 36.8438 51.125 38.5312 51.7812C 40.2188 52.3906 41.9531 52.9297 43.7344 53.3984C 45.5625 53.8672 47.3438 54.2891 49.0781 54.6641C 50.8594 54.9922 52.4766 55.3672 53.9297 55.7891C 56.7422 56.5859 59.6953 57.4297 62.7891 58.3203C 65.8828 59.2109 68.9297 60.2656 71.9297 61.4844C 74.9297 62.6562 77.7891 64.0156 80.5078 65.5625C 83.2266 67.1094 85.6172 68.9609 87.6797 71.1172C 89.7422 73.2266 91.3828 75.6875 92.6016 78.5C 93.8203 81.2656 94.4297 84.4531 94.4297 88.0625Z"/>
<path id="path1_fill" d="M 63.9141 119L 38.3906 119L 0.5625 17.75L 29.0391 17.75L 57.0938 99.2422L 82.4766 17.75L 99.7734 17.75L 63.9141 119Z"/>
<path id="path2_fill" d="M 93.6562 17.75L 60.8906 76.4609L 60.8906 119L 32.9766 119L 32.9766 78.0078L -0.140625 17.75L 28.3359 17.75L 50.3438 68.6562L 73.9688 17.75L 93.6562 17.75Z"/>
<path id="path3_fill" d="M 63.9141 119L 38.3906 119L 0.5625 17.75L 29.0391 17.75L 57.0938 99.2422L 82.4766 17.75L 99.7734 17.75L 63.9141 119ZM 135.422 18.1719C 135.422 19.9531 135.07 21.6406 134.367 23.2344C 133.711 24.8281 132.797 26.2109 131.625 27.3828C 130.453 28.5547 129.07 29.4922 127.477 30.1953C 125.883 30.8516 124.195 31.1797 122.414 31.1797C 120.633 31.1797 118.945 30.8516 117.352 30.1953C 115.805 29.4922 114.445 28.5547 113.273 27.3828C 112.102 26.2109 111.164 24.8281 110.461 23.2344C 109.805 21.6406 109.477 19.9531 109.477 18.1719C 109.477 16.3906 109.805 14.7266 110.461 13.1797C 111.164 11.5859 112.102 10.2031 113.273 9.03125C 114.445 7.85937 115.805 6.94531 117.352 6.28906C 118.945 5.58594 120.633 5.23438 122.414 5.23438C 124.195 5.23438 125.883 5.58594 127.477 6.28906C 129.07 6.94531 130.453 7.85937 131.625 9.03125C 132.797 10.2031 133.711 11.5859 134.367 13.1797C 135.07 14.7266 135.422 16.3906 135.422 18.1719ZM 134.367 119L 110.531 119L 110.531 37.8594L 134.367 37.8594L 134.367 119ZM 224.227 93.0547C 224.227 96.6172 223.711 99.7812 222.68 102.547C 221.648 105.312 220.242 107.727 218.461 109.789C 216.68 111.805 214.57 113.516 212.133 114.922C 209.695 116.281 207.07 117.383 204.258 118.227C 201.492 119.07 198.586 119.68 195.539 120.055C 192.492 120.43 189.469 120.617 186.469 120.617C 182.438 120.617 178.875 120.359 175.781 119.844C 172.688 119.328 169.734 118.508 166.922 117.383C 164.109 116.211 161.297 114.711 158.484 112.883C 155.719 111.055 152.625 108.828 149.203 106.203L 163.055 94.8828C 164.32 97.2734 165.984 99.4531 168.047 101.422C 170.156 103.344 172.336 105.008 174.586 106.414C 176.836 107.82 179.016 108.898 181.125 109.648C 183.234 110.398 184.945 110.773 186.258 110.773C 187.336 110.773 188.555 110.75 189.914 110.703C 191.273 110.609 192.656 110.469 194.062 110.281C 195.469 110.047 196.852 109.719 198.211 109.297C 199.57 108.875 200.766 108.312 201.797 107.609C 202.875 106.859 203.719 105.945 204.328 104.867C 204.984 103.742 205.312 102.406 205.312 100.859C 205.312 99.2656 204.891 97.8828 204.047 96.7109C 203.25 95.4922 202.195 94.4375 200.883 93.5469C 199.57 92.6562 198.07 91.9062 196.383 91.2969C 194.695 90.6875 192.984 90.1484 191.25 89.6797C 189.562 89.2109 187.922 88.8125 186.328 88.4844C 184.734 88.1094 183.352 87.7578 182.18 87.4297C 180.023 86.8203 177.75 86.2109 175.359 85.6016C 172.969 84.9453 170.602 84.2188 168.258 83.4219C 165.914 82.5781 163.664 81.5938 161.508 80.4688C 159.398 79.3438 157.523 78.0078 155.883 76.4609C 154.289 74.8672 153 73.0156 152.016 70.9062C 151.078 68.75 150.609 66.2422 150.609 63.3828C 150.609 58.1328 151.641 53.75 153.703 50.2344C 155.812 46.6719 158.578 43.8359 162 41.7266C 165.422 39.5703 169.312 38.0469 173.672 37.1562C 178.031 36.2656 182.461 35.8203 186.961 35.8203C 190.055 35.8203 193.312 36.1484 196.734 36.8047C 200.156 37.4141 203.484 38.3516 206.719 39.6172C 209.953 40.8359 212.977 42.3359 215.789 44.1172C 218.602 45.8984 220.945 47.9375 222.82 50.2344L 208.969 61.625C 207.938 58.8125 206.578 56.3984 204.891 54.3828C 203.25 52.3672 201.445 50.7266 199.477 49.4609C 197.555 48.1484 195.562 47.1875 193.5 46.5781C 191.484 45.9687 189.609 45.6641 187.875 45.6641C 186.188 45.6641 184.289 45.7344 182.18 45.875C 180.07 46.0156 178.078 46.4141 176.203 47.0703C 174.375 47.7266 172.805 48.7344 171.492 50.0938C 170.227 51.4062 169.594 53.2344 169.594 55.5781C 169.594 57.2656 169.969 58.7188 170.719 59.9375C 171.516 61.1094 172.547 62.1406 173.812 63.0312C 175.078 63.875 176.508 64.6016 178.102 65.2109C 179.742 65.7734 181.406 66.2891 183.094 66.7578C 184.781 67.1797 186.422 67.5547 188.016 67.8828C 189.609 68.2109 191.039 68.5625 192.305 68.9375C 194.461 69.5469 196.734 70.1797 199.125 70.8359C 201.562 71.4453 203.953 72.1719 206.297 73.0156C 208.641 73.8125 210.891 74.7734 213.047 75.8984C 215.25 76.9766 217.172 78.3125 218.812 79.9062C 220.453 81.5 221.766 83.375 222.75 85.5312C 223.734 87.6406 224.227 90.1484 224.227 93.0547ZM 235.125 84.2656C 235.125 80.5625 235.43 76.7188 236.039 72.7344C 236.695 68.75 237.609 64.7656 238.781 60.7812C 240 56.7969 241.453 52.8594 243.141 48.9688C 244.828 45.0781 246.727 41.3516 248.836 37.7891L 266.203 37.7891C 265.031 41.3047 263.977 44.9844 263.039 48.8281C 262.148 52.625 261.375 56.4453 260.719 60.2891C 260.109 64.0859 259.617 67.8125 259.242 71.4688C 258.914 75.125 258.75 78.5234 258.75 81.6641C 258.75 83.4922 258.82 85.4609 258.961 87.5703C 259.148 89.6328 259.453 91.7188 259.875 93.8281C 260.297 95.8906 260.883 97.8828 261.633 99.8047C 262.43 101.727 263.438 103.438 264.656 104.938C 265.875 106.391 267.352 107.562 269.086 108.453C 270.867 109.297 272.953 109.719 275.344 109.719C 277.688 109.719 279.773 109.203 281.602 108.172C 283.477 107.094 285.117 105.711 286.523 104.023C 287.93 102.289 289.125 100.32 290.109 98.1172C 291.094 95.9141 291.891 93.6641 292.5 91.3672C 293.156 89.0234 293.625 86.75 293.906 84.5469C 294.234 82.2969 294.398 80.2812 294.398 78.5L 294.398 37.7891L 318.164 37.7891L 318.164 119L 309.023 119L 298.125 100.086C 296.766 103.227 295.102 106.086 293.133 108.664C 291.211 111.195 289.008 113.375 286.523 115.203C 284.039 117.031 281.273 118.438 278.227 119.422C 275.227 120.406 271.969 120.898 268.453 120.898C 262.828 120.898 257.93 119.984 253.758 118.156C 249.586 116.328 246.117 113.797 243.352 110.562C 240.586 107.328 238.523 103.484 237.164 99.0312C 235.805 94.5312 235.125 89.6094 235.125 84.2656ZM 419.766 119L 396 119L 396 109.297C 393.188 113.141 389.789 116 385.805 117.875C 381.867 119.703 377.531 120.617 372.797 120.617C 366.609 120.617 361.078 119.516 356.203 117.312C 351.328 115.109 347.203 112.109 343.828 108.312C 340.453 104.469 337.875 99.9688 336.094 94.8125C 334.312 89.6562 333.422 84.125 333.422 78.2188C 333.422 72.3125 334.312 66.7812 336.094 61.625C 337.875 56.4688 340.453 51.9922 343.828 48.1953C 347.203 44.3516 351.328 41.3281 356.203 39.125C 361.078 36.9219 366.609 35.8203 372.797 35.8203C 375.938 35.8203 378.914 36.2891 381.727 37.2266C 384.586 38.1641 387.188 39.5 389.531 41.2344C 391.922 42.9219 394.008 44.9844 395.789 47.4219C 397.617 49.8125 399.047 52.4844 400.078 55.4375L 410.625 37.7891L 419.766 37.7891L 419.766 119ZM 395.859 78.2188C 395.859 76.1094 395.742 73.8828 395.508 71.5391C 395.32 69.1953 394.969 66.875 394.453 64.5781C 393.938 62.2812 393.211 60.1016 392.273 58.0391C 391.383 55.9297 390.211 54.0781 388.758 52.4844C 387.352 50.8438 385.641 49.5547 383.625 48.6172C 381.609 47.6797 379.266 47.2109 376.594 47.2109C 373.922 47.2109 371.602 47.7031 369.633 48.6875C 367.664 49.625 365.977 50.9141 364.57 52.5547C 363.164 54.1484 361.992 56 361.055 58.1094C 360.164 60.2188 359.461 62.4219 358.945 64.7188C 358.43 67.0156 358.055 69.3359 357.82 71.6797C 357.633 73.9766 357.539 76.1562 357.539 78.2188C 357.539 80.2812 357.633 82.4844 357.82 84.8281C 358.055 87.1719 358.43 89.4922 358.945 91.7891C 359.461 94.0859 360.164 96.2891 361.055 98.3984C 361.992 100.508 363.164 102.383 364.57 104.023C 365.977 105.617 367.664 106.906 369.633 107.891C 371.602 108.828 373.922 109.297 376.594 109.297C 379.031 109.297 381.188 108.805 383.062 107.82C 384.984 106.789 386.648 105.43 388.055 103.742C 389.508 102.055 390.727 100.133 391.711 97.9766C 392.695 95.8203 393.492 93.5938 394.102 91.2969C 394.711 89 395.156 86.7266 395.438 84.4766C 395.719 82.1797 395.859 80.0938 395.859 78.2188ZM 463.43 119L 439.664 119L 439.664 0.382812L 448.805 0.382812L 463.43 25.0625L 463.43 119Z"/>
<path id="path4_fill" d="M 107.859 70.5547L 107.859 71.8906C 107.766 75.8281 107.344 79.9062 106.594 84.125C 105.891 88.3438 104.883 92.5625 103.57 96.7812C 102.258 101 100.688 105.172 98.8594 109.297C 97.0312 113.422 94.9688 117.359 92.6719 121.109C 90.4219 124.906 87.9844 128.445 85.3594 131.727C 82.7344 135.055 79.9688 137.984 77.0625 140.516L 66.5859 134.469C 68.2266 131.703 69.7031 128.68 71.0156 125.398C 72.375 122.164 73.5938 118.766 74.6719 115.203C 75.75 111.641 76.6641 107.984 77.4141 104.234C 78.2109 100.484 78.8672 96.7578 79.3828 93.0547C 79.8984 89.3516 80.2734 85.7188 80.5078 82.1562C 80.7891 78.5469 80.9297 75.125 80.9297 71.8906C 80.9297 69.3594 80.9062 66.5 80.8594 63.3125C 80.8594 60.0781 80.6719 56.7969 80.2969 53.4688C 79.9688 50.1406 79.4062 46.9063 78.6094 43.7656C 77.8125 40.5781 76.6172 37.7422 75.0234 35.2578C 73.4766 32.7734 71.4609 30.7812 68.9766 29.2812C 66.5391 27.7813 63.4922 27.0312 59.8359 27.0312C 56.6016 27.0312 53.8125 27.5938 51.4688 28.7188C 49.1719 29.7969 47.2031 31.2734 45.5625 33.1484C 43.9688 34.9766 42.6797 37.1094 41.6953 39.5469C 40.7578 41.9844 40.0078 44.5625 39.4453 47.2812C 38.9297 49.9531 38.5781 52.6719 38.3906 55.4375C 38.25 58.1562 38.1797 60.7344 38.1797 63.1719L 38.1797 82.7891L 68.4844 82.7891L 68.4844 94.3906L 38.1797 94.3906L 38.1797 119L 10.2656 119L 10.2656 67.5312C 10.2656 60.1719 11.4375 53.3281 13.7812 47C 16.125 40.6719 19.4297 35.1875 23.6953 30.5469C 28.0078 25.8594 33.1641 22.2031 39.1641 19.5781C 45.2109 16.9062 51.9375 15.5703 59.3438 15.5703C 64.3594 15.5703 69.0469 16.2969 73.4062 17.75C 77.8125 19.1562 81.8203 21.125 85.4297 23.6562C 89.0391 26.1406 92.25 29.1172 95.0625 32.5859C 97.9219 36.0078 100.289 39.7578 102.164 43.8359C 104.086 47.9141 105.539 52.2266 106.523 56.7734C 107.508 61.3203 107.953 65.9141 107.859 70.5547ZM 119.672 84.2656C 119.672 80.5625 119.977 76.7188 120.586 72.7344C 121.242 68.75 122.156 64.7656 123.328 60.7812C 124.547 56.7969 126 52.8594 127.688 48.9688C 129.375 45.0781 131.273 41.3516 133.383 37.7891L 150.75 37.7891C 149.578 41.3047 148.523 44.9844 147.586 48.8281C 146.695 52.625 145.922 56.4453 145.266 60.2891C 144.656 64.0859 144.164 67.8125 143.789 71.4688C 143.461 75.125 143.297 78.5234 143.297 81.6641C 143.297 83.4922 143.367 85.4609 143.508 87.5703C 143.695 89.6328 144 91.7188 144.422 93.8281C 144.844 95.8906 145.43 97.8828 146.18 99.8047C 146.977 101.727 147.984 103.438 149.203 104.938C 150.422 106.391 151.898 107.562 153.633 108.453C 155.414 109.297 157.5 109.719 159.891 109.719C 162.234 109.719 164.32 109.203 166.148 108.172C 168.023 107.094 169.664 105.711 171.07 104.023C 172.477 102.289 173.672 100.32 174.656 98.1172C 175.641 95.9141 176.438 93.6641 177.047 91.3672C 177.703 89.0234 178.172 86.75 178.453 84.5469C 178.781 82.2969 178.945 80.2812 178.945 78.5L 178.945 37.7891L 202.711 37.7891L 202.711 119L 193.57 119L 182.672 100.086C 181.312 103.227 179.648 106.086 177.68 108.664C 175.758 111.195 173.555 113.375 171.07 115.203C 168.586 117.031 165.82 118.438 162.773 119.422C 159.773 120.406 156.516 120.898 153 120.898C 147.375 120.898 142.477 119.984 138.305 118.156C 134.133 116.328 130.664 113.797 127.898 110.562C 125.133 107.328 123.07 103.484 121.711 99.0312C 120.352 94.5312 119.672 89.6094 119.672 84.2656ZM 304.383 119L 295.242 119L 284.695 101.352C 283.664 104.305 282.234 106.977 280.406 109.367C 278.625 111.758 276.539 113.82 274.148 115.555C 271.805 117.242 269.203 118.555 266.344 119.492C 263.531 120.43 260.555 120.898 257.414 120.898C 251.227 120.898 245.695 119.797 240.82 117.594C 235.945 115.391 231.82 112.391 228.445 108.594C 225.07 104.75 222.492 100.25 220.711 95.0938C 218.93 89.9375 218.039 84.4062 218.039 78.5C 218.039 72.5938 218.93 67.0625 220.711 61.9062C 222.492 56.75 225.07 52.2734 228.445 48.4766C 231.82 44.6797 235.945 41.6797 240.82 39.4766C 245.695 37.2734 251.227 36.1719 257.414 36.1719C 262.148 36.1719 266.484 37.0859 270.422 38.9141C 274.406 40.7422 277.805 43.6016 280.617 47.4922L 280.617 7.90625L 304.383 7.90625L 304.383 119ZM 280.477 78.5C 280.477 76.625 280.336 74.5625 280.055 72.3125C 279.773 70.0625 279.328 67.7891 278.719 65.4922C 278.109 63.1953 277.312 60.9688 276.328 58.8125C 275.344 56.6562 274.125 54.7344 272.672 53.0469C 271.266 51.3594 269.602 50.0234 267.68 49.0391C 265.805 48.0078 263.648 47.4922 261.211 47.4922C 258.539 47.4922 256.219 47.9844 254.25 48.9688C 252.281 49.9062 250.594 51.1953 249.188 52.8359C 247.781 54.4297 246.609 56.2812 245.672 58.3906C 244.781 60.5 244.078 62.7031 243.562 65C 243.047 67.2969 242.672 69.6172 242.438 71.9609C 242.25 74.2578 242.156 76.4375 242.156 78.5C 242.156 80.5625 242.25 82.7656 242.438 85.1094C 242.672 87.4062 243.047 89.7031 243.562 92C 244.078 94.2969 244.781 96.5234 245.672 98.6797C 246.609 100.789 247.781 102.664 249.188 104.305C 250.594 105.898 252.281 107.188 254.25 108.172C 256.219 109.109 258.539 109.578 261.211 109.578C 263.883 109.578 266.227 109.109 268.242 108.172C 270.258 107.234 271.969 105.969 273.375 104.375C 274.828 102.734 276 100.883 276.891 98.8203C 277.828 96.7109 278.555 94.5078 279.07 92.2109C 279.586 89.8672 279.938 87.5234 280.125 85.1797C 280.359 82.8359 280.477 80.6094 280.477 78.5ZM 349.172 18.1719C 349.172 19.9531 348.82 21.6406 348.117 23.2344C 347.461 24.8281 346.547 26.2109 345.375 27.3828C 344.203 28.5547 342.82 29.4922 341.227 30.1953C 339.633 30.8516 337.945 31.1797 336.164 31.1797C 334.383 31.1797 332.695 30.8516 331.102 30.1953C 329.555 29.4922 328.195 28.5547 327.023 27.3828C 325.852 26.2109 324.914 24.8281 324.211 23.2344C 323.555 21.6406 323.227 19.9531 323.227 18.1719C 323.227 16.3906 323.555 14.7266 324.211 13.1797C 324.914 11.5859 325.852 10.2031 327.023 9.03125C 328.195 7.85937 329.555 6.94531 331.102 6.28906C 332.695 5.58594 334.383 5.23438 336.164 5.23438C 337.945 5.23438 339.633 5.58594 341.227 6.28906C 342.82 6.94531 344.203 7.85937 345.375 9.03125C 346.547 10.2031 347.461 11.5859 348.117 13.1797C 348.82 14.7266 349.172 16.3906 349.172 18.1719ZM 348.117 119L 324.281 119L 324.281 37.8594L 348.117 37.8594L 348.117 119ZM 453.867 78.2188C 453.867 82.4375 453.305 86.3984 452.18 90.1016C 451.055 93.8047 449.484 97.2266 447.469 100.367C 445.5 103.508 443.109 106.344 440.297 108.875C 437.484 111.359 434.391 113.469 431.016 115.203C 427.688 116.938 424.102 118.273 420.258 119.211C 416.461 120.148 412.547 120.617 408.516 120.617C 404.484 120.617 400.57 120.148 396.773 119.211C 392.977 118.273 389.391 116.938 386.016 115.203C 382.688 113.469 379.617 111.359 376.805 108.875C 373.992 106.344 371.578 103.508 369.562 100.367C 367.594 97.2266 366.047 93.8047 364.922 90.1016C 363.797 86.3516 363.234 82.3906 363.234 78.2188C 363.234 74.0469 363.797 70.1094 364.922 66.4062C 366.047 62.6562 367.594 59.2109 369.562 56.0703C 371.578 52.9297 373.992 50.1172 376.805 47.6328C 379.617 45.1016 382.688 42.9688 386.016 41.2344C 389.391 39.5 392.977 38.1641 396.773 37.2266C 400.57 36.2891 404.484 35.8203 408.516 35.8203C 412.547 35.8203 416.461 36.2891 420.258 37.2266C 424.102 38.1641 427.688 39.5 431.016 41.2344C 434.391 42.9688 437.484 45.1016 440.297 47.6328C 443.109 50.1172 445.5 52.9297 447.469 56.0703C 449.484 59.2109 451.055 62.6562 452.18 66.4062C 453.305 70.1094 453.867 74.0469 453.867 78.2188ZM 429.68 78.2188C 429.68 75.9688 429.539 73.6016 429.258 71.1172C 429.023 68.5859 428.602 66.125 427.992 63.7344C 427.383 61.2969 426.539 58.9766 425.461 56.7734C 424.43 54.5234 423.141 52.5781 421.594 50.9375C 420.047 49.25 418.195 47.9141 416.039 46.9297C 413.883 45.8984 411.375 45.3828 408.516 45.3828C 405.797 45.3828 403.383 45.8984 401.273 46.9297C 399.164 47.9609 397.312 49.3438 395.719 51.0781C 394.172 52.7656 392.859 54.7344 391.781 56.9844C 390.75 59.2344 389.906 61.5781 389.25 64.0156C 388.594 66.4062 388.125 68.8438 387.844 71.3281C 387.562 73.7656 387.422 76.0625 387.422 78.2188C 387.422 80.375 387.562 82.6953 387.844 85.1797C 388.125 87.6172 388.594 90.0547 389.25 92.4922C 389.906 94.9297 390.75 97.2734 391.781 99.5234C 392.859 101.727 394.172 103.695 395.719 105.43C 397.312 107.117 399.164 108.477 401.273 109.508C 403.383 110.539 405.797 111.055 408.516 111.055C 411.328 111.055 413.812 110.562 415.969 109.578C 418.125 108.547 419.977 107.188 421.523 105.5C 423.117 103.812 424.43 101.867 425.461 99.6641C 426.492 97.4609 427.312 95.1406 427.922 92.7031C 428.578 90.2656 429.023 87.8047 429.258 85.3203C 429.539 82.8359 429.68 80.4688 429.68 78.2188Z"/>
</defs>
</svg>
