<svg width="560" height="742" viewBox="0 0 560 742" version="1.1" xmlns="http://www.w3.org/2000/svg" xmlns:xlink="http://www.w3.org/1999/xlink">
<title>SavvyAudioVisual</title>
<desc>Created using Figma</desc>
<g id="Canvas" transform="translate(-5 475)">
<g id="SavvyAudioVisual">
<g id="SavvyAudioVisual_Desktop">
<g id="Canvas">
<g id="SavvyAudioVisual_Desktop">
<g id="Svy">
<g id="S" filter="url(#filter0_i)">
<g id="Vector">
<use xlink:href="#path0_fill" transform="translate(57.8516 -475)" fill="#418BC4"/>
</g>
</g>
<g id="V" filter="url(#filter1_i)">
<g id="Vector">
<use xlink:href="#path1_fill" transform="translate(53 -124.539)" fill="#418BC4"/>
</g>
</g>
<g id="Y" filter="url(#filter2_i)">
<g id="Vector">
<use xlink:href="#path2_fill" transform="translate(55.2969 -17.5391)" fill="#418BC4"/>
</g>
</g>
</g>
<g id="Visual">
<g id="Visual" filter="url(#filter3_i)">
<g id="Vector">
<use xlink:href="#path3_fill" transform="translate(53 -250.906)" fill="#BE2C17"/>
</g>
</g>
</g>
<g id="Audio">
<g id="Audio" filter="url(#filter4_i)">
<g id="Vector">
<use xlink:href="#path4_fill" transform="translate(62.7031 -371.055)" fill="#F29F1A"/>
</g>
</g>
</g>
</g>
</g>
</g>
<g id="SavvyAudioVisual_Mobile">
<g id="Canvas">
<g id="SavvyAudioVisual_Mobile" filter="url(#filter5_i)">
<g id="Vector">
<use xlink:href="#path5_fill" transform="translate(386.253 119)" fill="#BE2C17"/>
</g>
<g id="Vector">
<use xlink:href="#path6_fill" transform="translate(196.997 120.874)" fill="#F29F1A"/>
</g>
<g id="Vector">
<use xlink:href="#path7_fill" transform="translate(5 124.756)" fill="#418BC4"/>
</g>
</g>
</g>
</g>
<g id="SavvyAudiophiles">
<g id="Canvas">
<g id="SavvyAudiophiles">
<g id="SavvyAudiophiles">
<g id="Vector">
<use xlink:href="#path8_fill" transform="translate(56 214)" fill="#F29F1A"/>
</g>
</g>
</g>
</g>
</g>
</g>
</g>
<defs>
<filter id="filter0_i" filterUnits="userSpaceOnUse" x="53" y="-475" width="98" height="110" color-interpolation-filters="sRGB">
<feFlood flood-opacity="0" result="BackgroundImageFix"/>
<feBlend mode="normal" in="SourceGraphic" in2="BackgroundImageFix" result="shape"/>
<feColorMatrix in="SourceAlpha" type="matrix" values="0 0 0 0 0 0 0 0 0 0 0 0 0 0 0 0 0 0 255 0" result="hardAlpha"/>
<feOffset dx="0" dy="4"/>
<feGaussianBlur stdDeviation="2"/>
<feComposite in2="hardAlpha" operator="arithmetic" k2="-1" k3="1"/>
<feColorMatrix type="matrix" values="0 0 0 0 0 0 0 0 0 0 0 0 0 0 0 0 0 0 0.25 0"/>
<feBlend mode="normal" in2="shape" result="effect1_innerShadow"/>
</filter>
<filter id="filter1_i" filterUnits="userSpaceOnUse" x="49" y="-125" width="108" height="106" color-interpolation-filters="sRGB">
<feFlood flood-opacity="0" result="BackgroundImageFix"/>
<feBlend mode="normal" in="SourceGraphic" in2="BackgroundImageFix" result="shape"/>
<feColorMatrix in="SourceAlpha" type="matrix" values="0 0 0 0 0 0 0 0 0 0 0 0 0 0 0 0 0 0 255 0" result="hardAlpha"/>
<feOffset dx="0" dy="4"/>
<feGaussianBlur stdDeviation="2"/>
<feComposite in2="hardAlpha" operator="arithmetic" k2="-1" k3="1"/>
<feColorMatrix type="matrix" values="0 0 0 0 0 0 0 0 0 0 0 0 0 0 0 0 0 0 0.25 0"/>
<feBlend mode="normal" in2="shape" result="effect1_innerShadow"/>
</filter>
<filter id="filter2_i" filterUnits="userSpaceOnUse" x="51" y="-18" width="103" height="106" color-interpolation-filters="sRGB">
<feFlood flood-opacity="0" result="BackgroundImageFix"/>
<feBlend mode="normal" in="SourceGraphic" in2="BackgroundImageFix" result="shape"/>
<feColorMatrix in="SourceAlpha" type="matrix" values="0 0 0 0 0 0 0 0 0 0 0 0 0 0 0 0 0 0 255 0" result="hardAlpha"/>
<feOffset dx="0" dy="4"/>
<feGaussianBlur stdDeviation="2"/>
<feComposite in2="hardAlpha" operator="arithmetic" k2="-1" k3="1"/>
<feColorMatrix type="matrix" values="0 0 0 0 0 0 0 0 0 0 0 0 0 0 0 0 0 0 0.25 0"/>
<feBlend mode="normal" in2="shape" result="effect1_innerShadow"/>
</filter>
<filter id="filter3_i" filterUnits="userSpaceOnUse" x="49" y="-251" width="471" height="125" color-interpolation-filters="sRGB">
<feFlood flood-opacity="0" result="BackgroundImageFix"/>
<feBlend mode="normal" in="SourceGraphic" in2="BackgroundImageFix" result="shape"/>
<feColorMatrix in="SourceAlpha" type="matrix" values="0 0 0 0 0 0 0 0 0 0 0 0 0 0 0 0 0 0 255 0" result="hardAlpha"/>
<feOffset dx="0" dy="4"/>
<feGaussianBlur stdDeviation="2"/>
<feComposite in2="hardAlpha" operator="arithmetic" k2="-1" k3="1"/>
<feColorMatrix type="matrix" values="0 0 0 0 0 0 0 0 0 0 0 0 0 0 0 0 0 0 0.25 0"/>
<feBlend mode="normal" in2="shape" result="effect1_innerShadow"/>
</filter>
<filter id="filter4_i" filterUnits="userSpaceOnUse" x="58" y="-372" width="453" height="141" color-interpolation-filters="sRGB">
<feFlood flood-opacity="0" result="BackgroundImageFix"/>
<feBlend mode="normal" in="SourceGraphic" in2="BackgroundImageFix" result="shape"/>
<feColorMatrix in="SourceAlpha" type="matrix" values="0 0 0 0 0 0 0 0 0 0 0 0 0 0 0 0 0 0 255 0" result="hardAlpha"/>
<feOffset dx="0" dy="4"/>
<feGaussianBlur stdDeviation="2"/>
<feComposite in2="hardAlpha" operator="arithmetic" k2="-1" k3="1"/>
<feColorMatrix type="matrix" values="0 0 0 0 0 0 0 0 0 0 0 0 0 0 0 0 0 0 0.25 0"/>
<feBlend mode="normal" in2="shape" result="effect1_innerShadow"/>
</filter>
<filter id="filter5_i" filterUnits="userSpaceOnUse" x="1" y="119" width="568" height="65" color-interpolation-filters="sRGB">
<feFlood flood-opacity="0" result="BackgroundImageFix"/>
<feBlend mode="normal" in="SourceGraphic" in2="BackgroundImageFix" result="shape"/>
<feColorMatrix in="SourceAlpha" type="matrix" values="0 0 0 0 0 0 0 0 0 0 0 0 0 0 0 0 0 0 255 0" result="hardAlpha"/>
<feOffset dx="0" dy="4"/>
<feGaussianBlur stdDeviation="2"/>
<feComposite in2="hardAlpha" operator="arithmetic" k2="-1" k3="1"/>
<feColorMatrix type="matrix" values="0 0 0 0 0 0 0 0 0 0 0 0 0 0 0 0 0 0 0.25 0"/>
<feBlend mode="normal" in2="shape" result="effect1_innerShadow"/>
</filter>
<path id="path0_fill" d="M 89.0156 72.7734C 89.0156 77.1328 88.4531 80.9765 87.3281 84.3047C 86.25 87.6329 84.7031 90.5159 82.6875 92.9529C 80.7187 95.3909 78.375 97.4299 75.6562 99.0699C 72.9375 100.711 69.9609 102.023 66.7265 103.008C 63.539 103.992 60.1406 104.695 56.5312 105.117C 52.9687 105.539 49.3359 105.75 45.6328 105.75C 40.7578 105.75 36.2578 105.375 32.1328 104.625C 28.0078 103.922 24.1171 102.797 20.4609 101.25C 16.8515 99.6559 13.3593 97.6169 9.98434 95.1329C 6.65624 92.6489 3.32813 89.6249 1.15814e-07 86.0629L 14.3437 71.5078C 15.6562 74.7421 17.4609 77.7421 19.7578 80.5078C 22.0547 83.2265 24.5625 85.5699 27.2812 87.5389C 30.0468 89.5079 32.9062 91.0549 35.8593 92.1799C 38.8125 93.3049 41.6015 93.8669 44.2265 93.8669C 47.3203 93.8669 50.2265 93.6559 52.9453 93.2339C 55.664 92.7659 58.0312 92.0159 60.0468 90.9839C 62.0625 89.9529 63.6328 88.5939 64.7578 86.9059C 65.9297 85.1719 66.5156 83.0156 66.5156 80.4375C 66.5156 78.4687 66.0703 76.7812 65.1797 75.375C 64.289 73.9687 63.1171 72.7734 61.664 71.789C 60.2578 70.7578 58.6406 69.8906 56.8125 69.1875C 54.9843 68.4843 53.1093 67.8984 51.1875 67.4297C 49.3125 66.914 47.4609 66.4687 45.6328 66.0937C 43.8047 65.6718 42.1875 65.25 40.7812 64.8281C 38.0156 64.0312 35.1328 63.1875 32.1328 62.2968C 29.1328 61.3593 26.1797 60.3047 23.2734 59.1328C 20.3671 57.9609 17.6015 56.625 14.9765 55.125C 12.3984 53.5781 10.125 51.7734 8.15624 49.7109C 6.18754 47.6015 4.61714 45.1875 3.44532 42.4687C 2.27344 39.7031 1.6875 36.539 1.6875 32.9765C 1.6875 28.7109 2.20313 24.9375 3.23438 21.6562C 4.3125 18.3281 5.81254 15.4453 7.73434 13.0078C 9.65624 10.5703 11.9297 8.5312 14.5547 6.8906C 17.1797 5.2031 20.0625 3.8671 23.2031 2.8828C 26.3437 1.8515 29.6718 1.125 33.1875 0.7031C 36.75 0.2343 40.3828 -3.06702e-07 44.0859 -3.06702e-07C 49.1484 -3.06702e-07 53.7421 0.468699 57.8671 1.4062C 62.039 2.3437 65.8828 3.6796 69.3984 5.414C 72.914 7.1484 76.125 9.2343 79.0312 11.6718C 81.9843 14.0625 84.75 16.7343 87.3281 19.6875L 72.9843 34.2421C 71.8593 30.8671 70.289 27.8203 68.2734 25.1015C 66.3047 22.3828 64.1015 20.0625 61.664 18.1406C 59.2265 16.1718 56.6718 14.6718 54 13.6406C 51.3281 12.5625 48.75 12.0234 46.2656 12.0234C 43.0312 12.0234 40.0547 12.2578 37.3359 12.7265C 34.6171 13.1484 32.2734 13.875 30.3047 14.9062C 28.3828 15.8906 26.8828 17.25 25.8047 18.9843C 24.7265 20.6718 24.1875 22.7812 24.1875 25.3125C 24.1875 27.3281 24.5859 29.039 25.3828 30.4453C 26.1797 31.8515 27.2343 33.0468 28.5468 34.0312C 29.9062 35.0156 31.4297 35.8359 33.1171 36.4921C 34.8047 37.1015 36.539 37.6406 38.3203 38.1093C 40.1484 38.5781 41.9297 39 43.664 39.375C 45.4453 39.7031 47.0625 40.0781 48.5156 40.5C 51.3281 41.2968 54.2812 42.1406 57.375 43.0312C 60.4687 43.9218 63.5156 44.9765 66.5156 46.1953C 69.5156 47.3671 72.375 48.7265 75.0937 50.2734C 77.8125 51.8203 80.2031 53.6718 82.2656 55.8281C 84.3281 57.9375 85.9687 60.3984 87.1875 63.2109C 88.4062 65.9765 89.0156 69.164 89.0156 72.7734Z"/>
<path id="path1_fill" d="M 63.3516 101.25L 37.8281 101.25L 0 0L 28.4766 0L 56.5313 81.4922L 81.9141 0L 99.2109 0L 63.3516 101.25Z"/>
<path id="path2_fill" d="M 93.7968 0L 61.0312 58.7109L 61.0312 101.25L 33.1172 101.25L 33.1172 60.2578L 0 0L 28.4765 0L 50.4844 50.9062L 74.1094 0L 93.7968 0Z"/>
<path id="path3_fill" d="M 63.3516 118.617L 37.8281 118.617L 0 17.3672L 28.4766 17.3672L 56.5313 98.8594L 81.9141 17.3672L 99.2109 17.3672L 63.3516 118.617ZM 134.859 17.7891C 134.859 19.5703 134.508 21.2578 133.805 22.8516C 133.149 24.4453 132.235 25.8281 131.062 27C 129.89 28.1719 128.507 29.1094 126.914 29.8125C 125.32 30.4688 123.633 30.7969 121.852 30.7969C 120.071 30.7969 118.382 30.4688 116.789 29.8125C 115.242 29.1094 113.883 28.1719 112.711 27C 111.54 25.8281 110.601 24.4453 109.898 22.8516C 109.242 21.2578 108.914 19.5703 108.914 17.7891C 108.914 16.0078 109.242 14.3438 109.898 12.7969C 110.601 11.2031 111.54 9.82029 112.711 8.64844C 113.883 7.47656 115.242 6.5625 116.789 5.90625C 118.382 5.20313 120.071 4.85157 121.852 4.85157C 123.633 4.85157 125.32 5.20313 126.914 5.90625C 128.507 6.5625 129.89 7.47656 131.062 8.64844C 132.235 9.82029 133.149 11.2031 133.805 12.7969C 134.508 14.3438 134.859 16.0078 134.859 17.7891ZM 133.805 118.617L 109.968 118.617L 109.968 37.4766L 133.805 37.4766L 133.805 118.617ZM 223.665 92.6719C 223.665 96.2344 223.148 99.3984 222.117 102.164C 221.085 104.929 219.679 107.344 217.898 109.406C 216.117 111.422 214.007 113.133 211.57 114.539C 209.132 115.898 206.507 117 203.695 117.844C 200.929 118.687 198.024 119.297 194.977 119.672C 191.93 120.047 188.906 120.234 185.906 120.234C 181.875 120.234 178.313 119.976 175.219 119.461C 172.126 118.945 169.171 118.125 166.359 117C 163.546 115.828 160.734 114.328 157.921 112.5C 155.156 110.672 152.063 108.445 148.641 105.82L 162.492 94.5C 163.757 96.8906 165.421 99.0703 167.484 101.039C 169.593 102.961 171.773 104.625 174.023 106.031C 176.273 107.437 178.454 108.515 180.562 109.265C 182.671 110.015 184.382 110.39 185.695 110.39C 186.773 110.39 187.993 110.367 189.352 110.32C 190.711 110.226 192.093 110.086 193.499 109.898C 194.906 109.664 196.289 109.336 197.648 108.914C 199.007 108.492 200.203 107.929 201.234 107.226C 202.312 106.476 203.157 105.562 203.766 104.484C 204.422 103.359 204.749 102.023 204.749 100.476C 204.749 98.8828 204.328 97.5 203.484 96.3281C 202.687 95.1094 201.632 94.0547 200.32 93.1641C 199.007 92.2734 197.507 91.5234 195.82 90.9141C 194.132 90.3047 192.421 89.7656 190.688 89.2969C 189 88.8281 187.36 88.4297 185.766 88.1016C 184.172 87.7266 182.789 87.375 181.617 87.0469C 179.46 86.4375 177.187 85.8281 174.796 85.2188C 172.406 84.5625 170.039 83.836 167.695 83.0391C 165.351 82.1953 163.101 81.211 160.945 80.086C 158.835 78.961 156.96 77.625 155.32 76.0781C 153.726 74.4844 152.438 72.6328 151.454 70.5234C 150.516 68.3672 150.046 65.8594 150.046 63C 150.046 57.75 151.079 53.3672 153.141 49.8516C 155.25 46.2891 158.016 43.4531 161.438 41.3438C 164.859 39.1875 168.749 37.6641 173.109 36.7734C 177.468 35.8828 181.898 35.4375 186.398 35.4375C 189.492 35.4375 192.749 35.7656 196.171 36.4219C 199.593 37.0313 202.921 37.9688 206.156 39.2344C 209.39 40.4531 212.415 41.9531 215.227 43.7344C 218.04 45.5156 220.383 47.5547 222.258 49.8516L 208.406 61.2422C 207.375 58.4297 206.016 56.0156 204.329 54C 202.688 51.9844 200.883 50.3438 198.915 49.0781C 196.993 47.7656 195 46.8047 192.938 46.1953C 190.921 45.5859 189.046 45.2813 187.312 45.2813C 185.625 45.2813 183.726 45.3516 181.617 45.4922C 179.507 45.6328 177.516 46.0313 175.641 46.6875C 173.813 47.3438 172.243 48.3516 170.93 49.711C 169.665 51.0234 169.031 52.8516 169.031 55.1953C 169.031 56.8828 169.406 58.336 170.156 59.5547C 170.953 60.7266 171.984 61.7578 173.249 62.6484C 174.515 63.4922 175.946 64.2188 177.54 64.8281C 179.18 65.3906 180.843 65.9063 182.531 66.375C 184.218 66.7969 185.86 67.1719 187.454 67.5C 189.047 67.8281 190.476 68.1797 191.742 68.5547C 193.898 69.1641 196.171 69.7969 198.562 70.4531C 201 71.0625 203.39 71.7891 205.734 72.6328C 208.078 73.4297 210.328 74.3906 212.484 75.5156C 214.687 76.5938 216.609 77.9297 218.249 79.5234C 219.89 81.1172 221.203 82.9922 222.188 85.1484C 223.172 87.2578 223.665 89.7656 223.665 92.6719ZM 234.562 83.8828C 234.562 80.1797 234.868 76.336 235.477 72.3516C 236.133 68.3672 237.047 64.3828 238.219 60.3984C 239.438 56.4141 240.891 52.4766 242.579 48.586C 244.266 44.6953 246.164 40.9688 248.273 37.4063L 265.641 37.4063C 264.469 40.9219 263.415 44.6016 262.477 48.4453C 261.586 52.2422 260.812 56.0625 260.156 59.9063C 259.546 63.7031 259.055 67.4297 258.68 71.086C 258.352 74.7422 258.188 78.1406 258.188 81.2813C 258.188 83.1094 258.257 85.0781 258.398 87.1875C 258.585 89.25 258.891 91.336 259.312 93.4453C 259.734 95.5078 260.32 97.5 261.07 99.4219C 261.867 101.344 262.876 103.055 264.094 104.555C 265.313 106.008 266.789 107.179 268.523 108.07C 270.304 108.914 272.39 109.336 274.781 109.336C 277.125 109.336 279.21 108.82 281.039 107.789C 282.914 106.711 284.555 105.328 285.961 103.64C 287.368 101.906 288.563 99.9372 289.547 97.7344C 290.532 95.5313 291.328 93.2813 291.938 90.9844C 292.594 88.6406 293.063 86.3672 293.344 84.1641C 293.672 81.9141 293.836 79.8984 293.836 78.1172L 293.836 37.4063L 317.602 37.4063L 317.602 118.617L 308.461 118.617L 297.562 99.7032C 296.204 102.844 294.539 105.703 292.57 108.281C 290.648 110.812 288.446 112.992 285.961 114.82C 283.477 116.648 280.71 118.055 277.664 119.039C 274.664 120.023 271.407 120.515 267.891 120.515C 262.266 120.515 257.367 119.601 253.195 117.773C 249.023 115.945 245.555 113.414 242.79 110.179C 240.024 106.945 237.961 103.101 236.602 98.6484C 235.243 94.1484 234.562 89.2266 234.562 83.8828ZM 419.203 118.617L 395.438 118.617L 395.438 108.914C 392.625 112.758 389.226 115.617 385.242 117.492C 381.304 119.32 376.968 120.234 372.234 120.234C 366.046 120.234 360.516 119.133 355.641 116.929C 350.766 114.726 346.641 111.726 343.266 107.929C 339.891 104.086 337.312 99.586 335.531 94.4297C 333.749 89.2734 332.859 83.7422 332.859 77.836C 332.859 71.9297 333.749 66.3984 335.531 61.2422C 337.312 56.086 339.891 51.6094 343.266 47.8125C 346.641 43.9688 350.766 40.9453 355.641 38.7422C 360.516 36.5391 366.046 35.4375 372.234 35.4375C 375.375 35.4375 378.351 35.9063 381.164 36.8438C 384.023 37.7813 386.626 39.1172 388.969 40.8516C 391.36 42.5391 393.446 44.6016 395.227 47.0391C 397.055 49.4297 398.485 52.1016 399.516 55.0547L 410.062 37.4063L 419.203 37.4063L 419.203 118.617ZM 395.297 77.836C 395.297 75.7266 395.179 73.5 394.945 71.1563C 394.757 68.8125 394.407 66.4922 393.891 64.1953C 393.376 61.8984 392.649 59.7188 391.711 57.6563C 390.821 55.5469 389.648 53.6953 388.195 52.1016C 386.789 50.461 385.079 49.1719 383.062 48.2344C 381.046 47.2969 378.703 46.8281 376.031 46.8281C 373.359 46.8281 371.039 47.3203 369.07 48.3047C 367.101 49.2422 365.415 50.5313 364.008 52.1719C 362.602 53.7656 361.429 55.6172 360.492 57.7266C 359.601 59.836 358.899 62.0391 358.383 64.336C 357.868 66.6328 357.493 68.9531 357.258 71.2969C 357.071 73.5938 356.977 75.7734 356.977 77.836C 356.977 79.8984 357.071 82.1016 357.258 84.4453C 357.493 86.7891 357.868 89.1094 358.383 91.4063C 358.899 93.7031 359.601 95.9063 360.492 98.0156C 361.429 100.125 362.602 102 364.008 103.64C 365.415 105.234 367.101 106.523 369.07 107.508C 371.039 108.445 373.359 108.914 376.031 108.914C 378.468 108.914 380.626 108.422 382.5 107.437C 384.422 106.406 386.085 105.047 387.492 103.359C 388.945 101.672 390.164 99.7502 391.148 97.5938C 392.132 95.4375 392.929 93.211 393.539 90.9141C 394.148 88.6172 394.593 86.3438 394.875 84.0938C 395.156 81.7969 395.297 79.711 395.297 77.836ZM 462.867 118.617L 439.102 118.617L 439.102 -6.63948e-09L 448.242 -6.63948e-09L 462.867 24.6797L 462.867 118.617Z"/>
<path id="path4_fill" d="M 97.5934 65.3203L 97.5934 66.6562C 97.5004 70.5937 97.0784 74.6718 96.3284 78.8906C 95.6254 83.1094 94.6174 87.3281 93.3044 91.5468C 91.9924 95.7656 90.4224 99.9376 88.5938 104.063C 86.7656 108.188 84.7032 112.125 82.4063 115.875C 80.1563 119.672 77.7188 123.211 75.0938 126.493C 72.4688 129.821 69.7032 132.75 66.7969 135.282L 56.3203 129.235C 57.961 126.469 59.4375 123.446 60.75 120.164C 62.1094 116.93 63.3282 113.532 64.4063 109.969C 65.4844 106.407 66.3985 102.75 67.1485 98.9996C 67.9453 95.2496 68.6016 91.5234 69.1172 87.8203C 69.6328 84.1172 70.0078 80.4844 70.2422 76.9218C 70.5235 73.3125 70.6641 69.8906 70.6641 66.6562C 70.6641 64.125 70.6406 61.2656 70.5938 58.0781C 70.5938 54.8437 70.4063 51.5625 70.0313 48.2344C 69.7032 44.9062 69.1406 41.6719 68.3438 38.5312C 67.5469 35.3437 66.3516 32.5078 64.7578 30.0234C 63.211 27.539 61.1953 25.5468 58.711 24.0468C 56.2735 22.5469 53.2266 21.7968 49.5703 21.7968C 46.336 21.7968 43.5469 22.3594 41.2032 23.4844C 38.9063 24.5625 36.9375 26.039 35.2969 27.914C 33.7032 29.7422 32.4141 31.875 31.4297 34.3125C 30.4922 36.75 29.7422 39.3281 29.1797 42.0468C 28.6641 44.7187 28.3125 47.4375 28.125 50.2031C 27.9844 52.9218 27.9141 55.5 27.9141 57.9375L 27.9141 77.5547L 58.2188 77.5547L 58.2188 89.1562L 27.9141 89.1562L 27.9141 113.766L 2.04468e-07 113.766L 2.04468e-07 62.2968C 2.04468e-07 54.9375 1.1719 48.0937 3.5156 41.7656C 5.8594 35.4375 9.1641 29.9531 13.4297 25.3125C 17.7422 20.625 22.8985 16.9687 28.8985 14.3437C 34.9453 11.6718 41.6719 10.3359 49.0782 10.3359C 54.0938 10.3359 58.7813 11.0625 63.1406 12.5156C 67.5469 13.9218 71.5547 15.8906 75.1641 18.4218C 78.7735 20.9062 81.9844 23.8828 84.7969 27.3515C 87.6563 30.7734 90.0234 34.5234 91.8984 38.6015C 93.8204 42.6797 95.2734 46.9922 96.2574 51.539C 97.2424 56.0859 97.6874 60.6797 97.5934 65.3203ZM 109.406 79.0312C 109.406 75.3281 109.711 71.4844 110.32 67.5C 110.976 63.5156 111.89 59.5312 113.062 55.5468C 114.281 51.5625 115.734 47.625 117.422 43.7344C 119.109 39.8437 121.007 36.1172 123.117 32.5547L 140.484 32.5547C 139.312 36.0703 138.257 39.75 137.32 43.5937C 136.429 47.3906 135.656 51.2109 135 55.0547C 134.39 58.8515 133.898 62.5781 133.523 66.2344C 133.195 69.8906 133.031 73.289 133.031 76.4297C 133.031 78.2578 133.101 80.2265 133.242 82.3359C 133.429 84.3984 133.734 86.4844 134.156 88.5937C 134.578 90.6562 135.164 92.6484 135.914 94.5703C 136.711 96.4926 137.718 98.2036 138.937 99.7036C 140.156 101.157 141.632 102.328 143.367 103.219C 145.148 104.063 147.234 104.485 149.625 104.485C 151.968 104.485 154.054 103.969 155.882 102.938C 157.757 101.86 159.398 100.477 160.804 98.7886C 162.211 97.0546 163.406 95.0856 164.39 92.8828C 165.375 90.6797 166.172 88.4297 166.781 86.1328C 167.437 83.789 167.906 81.5156 168.187 79.3125C 168.515 77.0625 168.679 75.0468 168.679 73.2656L 168.679 32.5547L 192.445 32.5547L 192.445 113.766L 183.304 113.766L 172.406 94.8516C 171.046 97.9926 169.382 100.852 167.414 103.43C 165.492 105.961 163.289 108.141 160.804 109.969C 158.32 111.797 155.554 113.204 152.507 114.188C 149.507 115.172 146.25 115.664 142.734 115.664C 137.109 115.664 132.211 114.75 128.039 112.922C 123.867 111.094 120.398 108.563 117.632 105.328C 114.867 102.094 112.804 98.2496 111.445 93.7968C 110.086 89.2968 109.406 84.375 109.406 79.0312ZM 294.117 113.766L 284.976 113.766L 274.429 96.1176C 273.398 99.0706 271.968 101.743 270.14 104.133C 268.359 106.524 266.273 108.586 263.882 110.321C 261.539 112.008 258.937 113.321 256.078 114.258C 253.265 115.196 250.289 115.664 247.148 115.664C 240.961 115.664 235.429 114.563 230.554 112.36C 225.679 110.157 221.554 107.157 218.179 103.36C 214.804 99.5156 212.226 95.0156 210.445 89.8594C 208.664 84.7031 207.773 79.1718 207.773 73.2656C 207.773 67.3594 208.664 61.8281 210.445 56.6718C 212.226 51.5156 214.804 47.039 218.179 43.2422C 221.554 39.4453 225.679 36.4453 230.554 34.2422C 235.429 32.039 240.961 30.9375 247.148 30.9375C 251.882 30.9375 256.218 31.8515 260.156 33.6797C 264.14 35.5078 267.539 38.3672 270.351 42.2578L 270.351 2.67187L 294.117 2.67187L 294.117 113.766ZM 270.211 73.2656C 270.211 71.3906 270.07 69.3281 269.789 67.0781C 269.507 64.8281 269.062 62.5547 268.453 60.2578C 267.843 57.9609 267.046 55.7344 266.062 53.5781C 265.078 51.4218 263.859 49.5 262.406 47.8125C 261 46.125 259.336 44.789 257.414 43.8047C 255.539 42.7734 253.382 42.2578 250.945 42.2578C 248.273 42.2578 245.953 42.75 243.984 43.7344C 242.015 44.6718 240.328 45.9609 238.922 47.6015C 237.515 49.1953 236.343 51.0468 235.406 53.1562C 234.515 55.2656 233.812 57.4687 233.296 59.7656C 232.781 62.0625 232.406 64.3828 232.172 66.7265C 231.984 69.0234 231.89 71.2031 231.89 73.2656C 231.89 75.3281 231.984 77.5312 232.172 79.875C 232.406 82.1718 232.781 84.4687 233.296 86.7656C 233.812 89.0625 234.515 91.289 235.406 93.4453C 236.343 95.5546 237.515 97.4296 238.922 99.0706C 240.328 100.664 242.015 101.954 243.984 102.938C 245.953 103.875 248.273 104.344 250.945 104.344C 253.617 104.344 255.961 103.875 257.976 102.938C 259.992 102 261.703 100.735 263.109 99.1406C 264.562 97.4996 265.734 95.6486 266.625 93.5859C 267.562 91.4765 268.289 89.2734 268.804 86.9765C 269.32 84.6328 269.672 82.289 269.859 79.9453C 270.093 77.6015 270.211 75.375 270.211 73.2656ZM 338.906 12.9375C 338.906 14.7187 338.554 16.4062 337.851 18C 337.195 19.5937 336.281 20.9765 335.109 22.1484C 333.937 23.3203 332.554 24.2578 330.961 24.9609C 329.367 25.6172 327.679 25.9453 325.898 25.9453C 324.117 25.9453 322.429 25.6172 320.836 24.9609C 319.289 24.2578 317.929 23.3203 316.757 22.1484C 315.586 20.9765 314.648 19.5937 313.945 18C 313.289 16.4062 312.961 14.7187 312.961 12.9375C 312.961 11.1562 313.289 9.49222 313.945 7.94532C 314.648 6.35152 315.586 4.96872 316.757 3.79687C 317.929 2.62499 319.289 1.71093 320.836 1.05468C 322.429 0.35156 324.117 -2.31628e-07 325.898 -2.31628e-07C 327.679 -2.31628e-07 329.367 0.35156 330.961 1.05468C 332.554 1.71093 333.937 2.62499 335.109 3.79687C 336.281 4.96872 337.195 6.35152 337.851 7.94532C 338.554 9.49222 338.906 11.1562 338.906 12.9375ZM 337.851 113.766L 314.015 113.766L 314.015 32.625L 337.851 32.625L 337.851 113.766ZM 443.601 72.9844C 443.601 77.2031 443.039 81.164 441.914 84.8672C 440.789 88.5703 439.218 91.9922 437.203 95.1326C 435.234 98.2736 432.843 101.11 430.031 103.641C 427.218 106.125 424.125 108.235 420.75 109.969C 417.422 111.704 413.836 113.039 409.992 113.977C 406.195 114.914 402.281 115.383 398.25 115.383C 394.218 115.383 390.304 114.914 386.507 113.977C 382.711 113.039 379.125 111.704 375.75 109.969C 372.422 108.235 369.351 106.125 366.539 103.641C 363.726 101.11 361.312 98.2736 359.296 95.1326C 357.328 91.9922 355.781 88.5703 354.656 84.8672C 353.531 81.1172 352.968 77.1562 352.968 72.9844C 352.968 68.8125 353.531 64.875 354.656 61.1718C 355.781 57.4218 357.328 53.9765 359.296 50.8359C 361.312 47.6953 363.726 44.8828 366.539 42.3984C 369.351 39.8672 372.422 37.7344 375.75 36C 379.125 34.2656 382.711 32.9297 386.507 31.9922C 390.304 31.0547 394.218 30.5859 398.25 30.5859C 402.281 30.5859 406.195 31.0547 409.992 31.9922C 413.836 32.9297 417.422 34.2656 420.75 36C 424.125 37.7344 427.218 39.8672 430.031 42.3984C 432.843 44.8828 435.234 47.6953 437.203 50.8359C 439.218 53.9765 440.789 57.4218 441.914 61.1718C 443.039 64.875 443.601 68.8125 443.601 72.9844ZM 419.414 72.9844C 419.414 70.7344 419.273 68.3672 418.992 65.8828C 418.757 63.3515 418.336 60.8906 417.726 58.5C 417.117 56.0625 416.273 53.7422 415.195 51.539C 414.164 49.289 412.875 47.3437 411.328 45.7031C 409.781 44.0156 407.929 42.6797 405.773 41.6953C 403.617 40.664 401.109 40.1484 398.25 40.1484C 395.531 40.1484 393.117 40.664 391.007 41.6953C 388.898 42.7265 387.046 44.1094 385.453 45.8437C 383.906 47.5312 382.593 49.5 381.515 51.75C 380.484 54 379.64 56.3437 378.984 58.7812C 378.328 61.1718 377.859 63.6094 377.578 66.0937C 377.296 68.5312 377.156 70.8281 377.156 72.9844C 377.156 75.1406 377.296 77.4609 377.578 79.9453C 377.859 82.3828 378.328 84.8203 378.984 87.2578C 379.64 89.6953 380.484 92.039 381.515 94.289C 382.593 96.4926 383.906 98.4606 385.453 100.196C 387.046 101.883 388.898 103.243 391.007 104.274C 393.117 105.305 395.531 105.821 398.25 105.821C 401.062 105.821 403.546 105.328 405.703 104.344C 407.859 103.313 409.711 101.954 411.257 100.266C 412.851 98.5776 414.164 96.6326 415.195 94.4297C 416.226 92.2265 417.046 89.9062 417.656 87.4687C 418.312 85.0312 418.757 82.5703 418.992 80.0859C 419.273 77.6015 419.414 75.2344 419.414 72.9844Z"/>
<path id="path5_fill" d="M 24.4651 45.8068L 14.6084 45.8068L 3.3941e-06 6.70675L 10.9973 6.70675L 21.8312 38.1769L 31.6334 6.70675L 38.3129 6.70675L 24.4651 45.8068ZM 52.0796 6.86964C 52.0796 7.55751 51.9435 8.20918 51.6718 8.82465C 51.4186 9.44017 51.0659 9.97413 50.6129 10.4267C 50.1605 10.8792 49.6264 11.2413 49.0112 11.5128C 48.3955 11.7662 47.7438 11.8929 47.0562 11.8929C 46.3681 11.8929 45.7164 11.7662 45.1012 11.5128C 44.5034 11.2413 43.9786 10.8792 43.5262 10.4267C 43.0738 9.97413 42.7118 9.44017 42.4401 8.82465C 42.1864 8.20918 42.0601 7.55751 42.0601 6.86964C 42.0601 6.18183 42.1864 5.53918 42.4401 4.94181C 42.7118 4.32635 43.0738 3.79235 43.5262 3.3398C 43.9786 2.88725 44.5034 2.53426 45.1012 2.28084C 45.7164 2.00931 46.3681 1.87355 47.0562 1.87355C 47.7438 1.87355 48.3955 2.00931 49.0112 2.28084C 49.6264 2.53426 50.1605 2.88725 50.6129 3.3398C 51.0659 3.79235 51.4186 4.32635 51.6718 4.94181C 51.9435 5.53918 52.0796 6.18183 52.0796 6.86964ZM 51.6718 45.8068L 42.4673 45.8068L 42.4673 14.4724L 51.6718 14.4724L 51.6718 45.8068ZM 86.3735 35.7874C 86.3735 37.1632 86.1743 38.3851 85.7757 39.4531C 85.3778 40.5211 84.8344 41.4534 84.1469 42.2498C 83.4587 43.0282 82.6443 43.689 81.703 44.232C 80.7617 44.7569 79.748 45.1823 78.6618 45.5082C 77.5937 45.834 76.4717 46.0693 75.2952 46.2141C 74.1181 46.3589 72.9509 46.4314 71.7924 46.4314C 70.2353 46.4314 68.8596 46.3318 67.6652 46.1327C 66.4701 45.9336 65.3296 45.6168 64.244 45.1823C 63.1574 44.7298 62.0718 44.1505 60.9851 43.4446C 59.9176 42.7386 58.7225 41.8788 57.4012 40.8651L 62.7501 36.4934C 63.239 37.4166 63.8814 38.2584 64.6785 39.0186C 65.4929 39.7608 66.3346 40.4034 67.2035 40.9465C 68.0724 41.4896 68.9141 41.9059 69.7285 42.1955C 70.5429 42.4851 71.2039 42.63 71.7107 42.63C 72.1272 42.63 72.5976 42.6209 73.123 42.6028C 73.6478 42.5666 74.1818 42.5123 74.7246 42.4399C 75.268 42.3494 75.802 42.2227 76.3268 42.0597C 76.8517 41.8968 77.3133 41.6796 77.7119 41.4081C 78.1278 41.1184 78.4539 40.7655 78.6891 40.3491C 78.9422 39.9147 79.0691 39.3988 79.0691 38.8014C 79.0691 38.186 78.9063 37.652 78.5807 37.1994C 78.2726 36.7287 77.8654 36.3215 77.3585 35.9775C 76.8517 35.6336 76.2724 35.344 75.6207 35.1086C 74.9691 34.8733 74.3081 34.6651 73.6385 34.4841C 72.9868 34.3031 72.3537 34.1492 71.7379 34.0225C 71.1222 33.8777 70.5887 33.7419 70.1357 33.6152C 69.3033 33.3799 68.4252 33.1446 67.5018 32.9093C 66.5791 32.6558 65.665 32.3752 64.7596 32.0675C 63.8548 31.7417 62.9859 31.3615 62.1529 30.9271C 61.3385 30.4926 60.6144 29.9768 59.9807 29.3794C 59.3655 28.7639 58.8674 28.0489 58.4874 27.2343C 58.1253 26.4016 57.944 25.4332 57.944 24.329C 57.944 22.3016 58.3425 20.609 59.139 19.2513C 59.9535 17.8756 61.0216 16.7804 62.3429 15.9659C 63.6648 15.1332 65.1668 14.5449 66.8507 14.2009C 68.5341 13.857 70.2446 13.685 71.9824 13.685C 73.1768 13.685 74.435 13.8117 75.7563 14.0652C 77.0782 14.3005 78.3629 14.6626 79.6124 15.1513C 80.8613 15.6219 82.0291 16.2012 83.1152 16.8891C 84.2013 17.5769 85.1061 18.3644 85.8302 19.2513L 80.4813 23.6501C 80.0828 22.564 79.558 21.6318 78.9063 20.8534C 78.2726 20.075 77.5757 19.4415 76.8157 18.9527C 76.0731 18.4458 75.3039 18.0747 74.5074 17.8394C 73.7289 17.6041 73.0048 17.4864 72.3352 17.4864C 71.6835 17.4864 70.9507 17.5136 70.1357 17.5679C 69.3213 17.6222 68.552 17.7761 67.8279 18.0295C 67.1218 18.2829 66.5153 18.6721 66.0085 19.1971C 65.5202 19.7039 65.2757 20.4099 65.2757 21.315C 65.2757 21.9667 65.4205 22.5278 65.7102 22.9985C 66.0177 23.451 66.4163 23.8493 66.9046 24.1932C 67.3935 24.519 67.9455 24.7996 68.5613 25.0349C 69.1944 25.2521 69.8374 25.4513 70.4891 25.6323C 71.1407 25.7952 71.7744 25.94 72.3896 26.0667C 73.0048 26.1934 73.5574 26.3292 74.0457 26.474C 74.8787 26.7093 75.7563 26.9537 76.6796 27.2071C 77.6209 27.4425 78.5442 27.723 79.4496 28.0489C 80.3544 28.3566 81.2233 28.7277 82.0563 29.1621C 82.9067 29.5785 83.6493 30.0944 84.2824 30.7099C 84.9161 31.3253 85.423 32.0494 85.803 32.8821C 86.183 33.6967 86.3735 34.6651 86.3735 35.7874ZM 90.5819 32.3934C 90.5819 30.9633 90.6995 29.4789 90.9352 27.9402C 91.1883 26.4016 91.5411 24.863 91.9941 23.3243C 92.4645 21.7856 93.0258 20.265 93.6774 18.7626C 94.3291 17.2602 95.0624 15.8211 95.8769 14.4453L 102.584 14.4453C 102.131 15.8029 101.724 17.2239 101.362 18.7083C 101.018 20.1746 100.719 21.6499 100.466 23.1342C 100.23 24.6005 100.04 26.0396 99.8952 27.4515C 99.7689 28.8635 99.7052 30.1758 99.7052 31.3887C 99.7052 32.0946 99.7324 32.8549 99.7869 33.6695C 99.8593 34.466 99.9769 35.2715 100.14 36.0862C 100.303 36.8826 100.529 37.652 100.819 38.3941C 101.126 39.1363 101.515 39.797 101.986 40.3763C 102.457 40.9375 103.027 41.39 103.697 41.734C 104.384 42.0597 105.19 42.2227 106.114 42.2227C 107.018 42.2227 107.824 42.0236 108.53 41.6253C 109.254 41.209 109.887 40.6749 110.431 40.0233C 110.974 39.3535 111.435 38.5933 111.815 37.7424C 112.196 36.8917 112.503 36.0228 112.739 35.1358C 112.992 34.2307 113.173 33.3527 113.282 32.5019C 113.408 31.633 113.472 30.8547 113.472 30.1668L 113.472 14.4453L 122.65 14.4453L 122.65 45.8068L 119.12 45.8068L 114.911 38.5027C 114.386 39.7156 113.744 40.8198 112.983 41.8154C 112.241 42.7929 111.39 43.6346 110.431 44.3406C 109.472 45.0466 108.403 45.5896 107.227 45.9697C 106.068 46.3499 104.81 46.54 103.452 46.54C 101.28 46.54 99.3884 46.187 97.7774 45.481C 96.1665 44.7751 94.8267 43.7975 93.7591 42.5485C 92.691 41.2995 91.8945 39.8151 91.3697 38.0954C 90.8443 36.3577 90.5819 34.4569 90.5819 32.3934ZM 161.885 45.8068L 152.708 45.8068L 152.708 42.0597C 151.621 43.5441 150.309 44.6483 148.77 45.3724C 147.25 46.0784 145.576 46.4314 143.748 46.4314C 141.358 46.4314 139.222 46.006 137.339 45.1552C 135.457 44.3044 133.864 43.1458 132.56 41.6796C 131.257 40.1953 130.261 38.4575 129.574 36.4663C 128.885 34.4751 128.542 32.339 128.542 30.0582C 128.542 27.7774 128.885 25.6413 129.574 23.6501C 130.261 21.6589 131.257 19.9302 132.56 18.4639C 133.864 16.9796 135.457 15.812 137.339 14.9612C 139.222 14.1105 141.358 13.685 143.748 13.685C 144.96 13.685 146.11 13.8661 147.196 14.2281C 148.3 14.5901 149.304 15.106 150.21 15.7758C 151.133 16.4274 151.938 17.2239 152.626 18.1652C 153.332 19.0885 153.885 20.1202 154.283 21.2607L 158.355 14.4453L 161.885 14.4453L 161.885 45.8068ZM 152.653 30.0582C 152.653 29.2436 152.608 28.3838 152.518 27.4787C 152.445 26.5736 152.31 25.6775 152.11 24.7906C 151.911 23.9036 151.631 23.0618 151.269 22.2653C 150.925 21.4507 150.472 20.7358 149.911 20.1202C 149.368 19.4867 148.707 18.9889 147.929 18.6268C 147.15 18.2648 146.245 18.0838 145.214 18.0838C 144.182 18.0838 143.286 18.2739 142.525 18.654C 141.765 19.016 141.114 19.5139 140.57 20.1474C 140.028 20.7629 139.575 21.4779 139.213 22.2925C 138.869 23.1071 138.597 23.9578 138.398 24.8449C 138.199 25.7319 138.054 26.6279 137.964 27.533C 137.891 28.42 137.855 29.2617 137.855 30.0582C 137.855 30.8547 137.891 31.7054 137.964 32.6106C 138.054 33.5156 138.199 34.4117 138.398 35.2987C 138.597 36.1857 138.869 37.0365 139.213 37.8511C 139.575 38.6657 140.028 39.3897 140.57 40.0233C 141.114 40.6387 141.765 41.1366 142.525 41.5167C 143.286 41.8788 144.182 42.0597 145.214 42.0597C 146.155 42.0597 146.987 41.8697 147.711 41.4896C 148.453 41.0913 149.096 40.5663 149.639 39.9147C 150.201 39.263 150.671 38.5208 151.051 37.6882C 151.431 36.8555 151.739 35.9956 151.975 35.1086C 152.21 34.2216 152.382 33.3437 152.49 32.4748C 152.599 31.5878 152.653 30.7823 152.653 30.0582ZM 178.747 45.8068L 169.57 45.8068L 169.57 0L 173.099 0L 178.747 9.53065L 178.747 45.8068Z"/>
<path id="path6_fill" d="M 37.6884 25.225L 37.6884 25.7409C 37.6519 27.2615 37.4892 28.8363 37.1995 30.4655C 36.9279 32.0947 36.5392 33.7238 36.0323 35.353C 35.5255 36.9822 34.919 38.5932 34.2129 40.1862C 33.5068 41.7791 32.7103 43.2997 31.8234 44.7479C 30.9545 46.2141 30.0132 47.5808 28.9995 48.848C 27.9858 50.1332 26.9177 51.2645 25.7956 52.2421L 21.7495 49.9069C 22.3832 48.8389 22.9538 47.6713 23.4601 46.4042C 23.9855 45.1552 24.4558 43.8428 24.8723 42.4671C 25.2888 41.0913 25.6416 39.6793 25.9312 38.2312C 26.2388 36.783 26.4925 35.344 26.6917 33.9139C 26.8904 32.4839 27.0352 31.081 27.1262 29.7052C 27.2345 28.3113 27.289 26.9899 27.289 25.7409C 27.289 24.7634 27.2797 23.6592 27.2617 22.4282C 27.2617 21.1792 27.1893 19.9121 27.0445 18.6268C 26.9177 17.3416 26.7004 16.0926 26.3929 14.8798C 26.0853 13.6489 25.6236 12.5536 25.0078 11.5943C 24.4106 10.6348 23.6321 9.86553 22.6728 9.28627C 21.7315 8.70701 20.5551 8.41738 19.1428 8.41738C 17.8939 8.41738 16.8171 8.6346 15.9117 9.06905C 15.0249 9.48536 14.2649 10.0556 13.6312 10.7797C 13.0154 11.4857 12.5178 12.3093 12.1378 13.2506C 11.7758 14.1919 11.4862 15.1875 11.2689 16.2374C 11.0697 17.2692 10.9341 18.3191 10.8611 19.3871C 10.8073 20.437 10.78 21.4326 10.78 22.3739L 10.78 29.9496L 22.4828 29.9496L 22.4828 34.4298L 10.78 34.4298L 10.78 43.9333L 6.78821e-06 43.9333L 6.78821e-06 24.0574C 6.78821e-06 21.2154 0.452985 18.5726 1.35779 16.1288C 2.26317 13.685 3.53928 11.5671 5.18669 9.77499C 6.85207 7.96481 8.84299 6.55286 11.16 5.53921C 13.495 4.50737 16.093 3.99148 18.9528 3.99148C 20.8899 3.99148 22.7001 4.27202 24.3834 4.83321C 26.0853 5.37626 27.633 6.13654 29.0267 7.11404C 30.4204 8.07342 31.6606 9.2229 32.7468 10.5624C 33.8508 11.8839 34.7649 13.3321 35.489 14.9069C 36.231 16.4818 36.7923 18.1472 37.1723 19.903C 37.5529 21.6589 37.7249 23.4329 37.6884 25.225ZM 42.2501 30.5198C 42.2501 29.0897 42.3677 27.6054 42.6029 26.0667C 42.8566 24.5281 43.2094 22.9894 43.6623 21.4507C 44.1327 19.9121 44.694 18.3915 45.3457 16.8891C 45.9973 15.3866 46.7301 13.9475 47.5451 12.5718L 54.2518 12.5718C 53.7994 13.9294 53.3916 15.3504 53.0296 16.8348C 52.6861 18.301 52.3872 19.7763 52.1335 21.2607C 51.8983 22.7269 51.7083 24.166 51.5635 25.578C 51.4366 26.9899 51.3735 28.3023 51.3735 29.5152C 51.3735 30.2211 51.4007 30.9814 51.4551 31.796C 51.5275 32.5925 51.6451 33.398 51.8079 34.2126C 51.9707 35.0091 52.1972 35.7784 52.4868 36.5206C 52.7944 37.2628 53.1837 37.9235 53.6546 38.5027C 54.1249 39.0639 54.6949 39.5164 55.3651 39.8604C 56.0527 40.1862 56.8585 40.3491 57.7813 40.3491C 58.6866 40.3491 59.4924 40.15 60.1979 39.7517C 60.922 39.3354 61.5557 38.8014 62.0991 38.1497C 62.6418 37.48 63.1035 36.7197 63.4835 35.8689C 63.8635 35.0181 64.1717 34.1492 64.4068 33.2622C 64.6605 32.3571 64.8413 31.4792 64.9502 30.6284C 65.0765 29.7595 65.1402 28.9811 65.1402 28.2933L 65.1402 12.5718L 74.3174 12.5718L 74.3174 43.9333L 70.788 43.9333L 66.5791 36.6292C 66.0542 37.842 65.4113 38.9462 64.6513 39.9418C 63.9092 40.9193 63.0583 41.7611 62.0991 42.4671C 61.1392 43.173 60.0717 43.7161 58.8946 44.0962C 57.7361 44.4764 56.4779 44.6664 55.1207 44.6664C 52.9485 44.6664 51.0566 44.3134 49.4457 43.6075C 47.8348 42.9015 46.4949 41.924 45.4268 40.675C 44.3592 39.426 43.5627 37.9415 43.0373 36.2219C 42.5125 34.4841 42.2501 32.5834 42.2501 30.5198ZM 113.581 43.9333L 110.051 43.9333L 105.978 37.1179C 105.58 38.2583 105.027 39.2902 104.321 40.2133C 103.634 41.1366 102.828 41.9331 101.905 42.6028C 101 43.2545 99.9955 43.7613 98.8908 44.1234C 97.8047 44.4854 96.6554 44.6664 95.4425 44.6664C 93.053 44.6664 90.9173 44.241 89.0347 43.3902C 87.1521 42.5395 85.5591 41.381 84.2558 39.9147C 82.9524 38.4303 81.9567 36.6925 81.2685 34.7013C 80.581 32.7101 80.2369 30.5741 80.2369 28.2933C 80.2369 26.0124 80.581 23.8764 81.2685 21.8852C 81.9567 19.894 82.9524 18.1652 84.2558 16.699C 85.5591 15.2327 87.1521 14.0742 89.0347 13.2234C 90.9173 12.3726 93.053 11.9472 95.4425 11.9472C 97.2706 11.9472 98.9452 12.3002 100.466 13.0062C 102.004 13.7122 103.317 14.8164 104.403 16.3188L 104.403 1.03181L 113.581 1.03181L 113.581 43.9333ZM 104.349 28.2933C 104.349 27.5692 104.294 26.7727 104.186 25.9038C 104.077 25.0349 103.905 24.157 103.67 23.27C 103.435 22.383 103.127 21.5232 102.747 20.6905C 102.366 19.8578 101.896 19.1156 101.335 18.4639C 100.791 17.8122 100.149 17.2963 99.4069 16.9162C 98.6828 16.518 97.8499 16.3188 96.9086 16.3188C 95.8769 16.3188 94.9808 16.5089 94.2208 16.8891C 93.4602 17.2511 92.8086 17.7489 92.2658 18.3825C 91.7224 18.9979 91.27 19.713 90.908 20.5276C 90.5639 21.3421 90.2928 22.193 90.0936 23.0799C 89.8943 23.9669 89.7495 24.8629 89.6591 25.768C 89.5867 26.6551 89.5502 27.4968 89.5502 28.2933C 89.5502 29.0897 89.5867 29.9406 89.6591 30.8456C 89.7495 31.7326 89.8943 32.6196 90.0936 33.5066C 90.2928 34.3936 90.5639 35.2534 90.908 36.0861C 91.27 36.9007 91.7224 37.6248 92.2658 38.2583C 92.8086 38.8738 93.4602 39.3716 94.2208 39.7517C 94.9808 40.1138 95.8769 40.2948 96.9086 40.2948C 97.9408 40.2948 98.8456 40.1138 99.6241 39.7517C 100.403 39.3897 101.063 38.901 101.606 38.2855C 102.168 37.6519 102.62 36.9369 102.964 36.1404C 103.326 35.3258 103.607 34.4751 103.806 33.5881C 104.005 32.683 104.141 31.7779 104.213 30.8728C 104.303 29.9677 104.349 29.1078 104.349 28.2933ZM 130.877 4.99609C 130.877 5.68397 130.741 6.33563 130.47 6.9511C 130.216 7.56662 129.863 8.10058 129.411 8.55316C 128.958 9.00568 128.424 9.36772 127.809 9.63927C 127.193 9.8927 126.542 10.0194 125.854 10.0194C 125.166 10.0194 124.514 9.8927 123.899 9.63927C 123.301 9.36772 122.777 9.00568 122.324 8.55316C 121.871 8.10058 121.509 7.56662 121.238 6.9511C 120.984 6.33563 120.858 5.68397 120.858 4.99609C 120.858 4.30828 120.984 3.66564 121.238 3.06827C 121.509 2.4528 121.871 1.9188 122.324 1.46625C 122.777 1.01371 123.301 0.660716 123.899 0.407296C 124.514 0.135761 125.166 0 125.854 0C 126.542 0 127.193 0.135761 127.809 0.407296C 128.424 0.660716 128.958 1.01371 129.411 1.46625C 129.863 1.9188 130.216 2.4528 130.47 3.06827C 130.741 3.66564 130.877 4.30828 130.877 4.99609ZM 130.47 43.9333L 121.265 43.9333L 121.265 12.5989L 130.47 12.5989L 130.47 43.9333ZM 171.308 28.1847C 171.308 29.8138 171.09 31.3434 170.656 32.7735C 170.222 34.2035 169.615 35.525 168.837 36.7378C 168.077 37.9506 167.153 39.0458 166.067 40.0233C 164.981 40.9827 163.786 41.7973 162.483 42.4671C 161.198 43.1368 159.813 43.6527 158.329 44.0147C 156.862 44.3768 155.351 44.5578 153.794 44.5578C 152.237 44.5578 150.726 44.3768 149.259 44.0147C 147.793 43.6527 146.408 43.1368 145.105 42.4671C 143.82 41.7973 142.634 40.9827 141.548 40.0233C 140.462 39.0458 139.53 37.9506 138.751 36.7378C 137.991 35.525 137.394 34.2035 136.959 32.7735C 136.525 31.3253 136.308 29.7957 136.308 28.1847C 136.308 26.5736 136.525 25.053 136.959 23.623C 137.394 22.1748 137.991 20.8443 138.751 19.6315C 139.53 18.4187 140.462 17.3325 141.548 16.3732C 142.634 15.3957 143.82 14.572 145.105 13.9022C 146.408 13.2325 147.793 12.7166 149.259 12.3546C 150.726 11.9925 152.237 11.8115 153.794 11.8115C 155.351 11.8115 156.862 11.9925 158.329 12.3546C 159.813 12.7166 161.198 13.2325 162.483 13.9022C 163.786 14.572 164.981 15.3957 166.067 16.3732C 167.153 17.3325 168.077 18.4187 168.837 19.6315C 169.615 20.8443 170.222 22.1748 170.656 23.623C 171.09 25.053 171.308 26.5736 171.308 28.1847ZM 161.967 28.1847C 161.967 27.3158 161.913 26.4016 161.804 25.4422C 161.713 24.4647 161.551 23.5144 161.315 22.5911C 161.08 21.6498 160.754 20.7538 160.338 19.903C 159.94 19.0341 159.441 18.2829 158.844 17.6493C 158.247 16.9977 157.532 16.4818 156.699 16.1016C 155.867 15.7034 154.898 15.5043 153.794 15.5043C 152.744 15.5043 151.812 15.7034 150.997 16.1016C 150.183 16.4999 149.468 17.0339 148.852 17.7037C 148.255 18.3554 147.748 19.1156 147.331 19.9845C 146.934 20.8534 146.607 21.7585 146.354 22.6998C 146.101 23.623 145.92 24.5643 145.811 25.5237C 145.703 26.465 145.648 27.352 145.648 28.1847C 145.648 29.0173 145.703 29.9134 145.811 30.8728C 145.92 31.8141 146.101 32.7554 146.354 33.6967C 146.607 34.638 146.934 35.5431 147.331 36.4119C 147.748 37.2628 148.255 38.023 148.852 38.6928C 149.468 39.3445 150.183 39.8694 150.997 40.2677C 151.812 40.6659 152.744 40.865 153.794 40.865C 154.88 40.865 155.84 40.675 156.672 40.2948C 157.505 39.8965 158.22 39.3716 158.817 38.72C 159.433 38.0683 159.94 37.317 160.338 36.4663C 160.736 35.6155 161.053 34.7195 161.288 33.7782C 161.542 32.8369 161.713 31.8865 161.804 30.9271C 161.913 29.9677 161.967 29.0535 161.967 28.1847Z"/>
<path id="path7_fill" d="M 34.3755 28.1032C 34.3755 29.7866 34.1583 31.271 33.7238 32.5563C 33.3075 33.8415 32.7101 34.9547 31.9318 35.896C 31.1715 36.8373 30.2664 37.6248 29.2165 38.2583C 28.1666 38.8919 27.0171 39.3988 25.7681 39.7789C 24.5371 40.159 23.2247 40.4305 21.8309 40.5935C 20.4552 40.7564 19.0522 40.8379 17.6222 40.8379C 15.7396 40.8379 14.0018 40.6931 12.4088 40.4034C 10.8158 40.1319 9.31342 39.6974 7.90147 39.1001C 6.50766 38.4846 5.15902 37.6972 3.85569 36.7378C 2.57047 35.7784 1.28523 34.6108 3.93327e-09 33.2351L 5.53919 27.6144C 6.04604 28.8635 6.74295 30.022 7.62992 31.09C 8.51694 32.1399 9.4854 33.045 10.5353 33.8053C 11.6033 34.5655 12.7075 35.1629 13.8479 35.5974C 14.9884 36.0318 16.0655 36.249 17.0792 36.249C 18.2738 36.249 19.3962 36.1676 20.4461 36.0047C 21.496 35.8236 22.4102 35.534 23.1885 35.1358C 23.9669 34.7375 24.5733 34.2126 25.0077 33.5609C 25.4603 32.8911 25.6866 32.0584 25.6866 31.0629C 25.6866 30.3026 25.5146 29.6509 25.1707 29.1079C 24.8268 28.5648 24.3742 28.1032 23.8131 27.7231C 23.27 27.3248 22.6455 26.9899 21.9395 26.7184C 21.2335 26.4469 20.5094 26.2206 19.7673 26.0396C 19.0432 25.8405 18.3282 25.6685 17.6222 25.5237C 16.9162 25.3607 16.2917 25.1978 15.7487 25.0349C 14.6806 24.7272 13.5673 24.4014 12.4088 24.0574C 11.2503 23.6954 10.1099 23.2881 8.98759 22.8355C 7.86527 22.383 6.79729 21.8671 5.78358 21.2878C 4.78795 20.6905 3.91002 19.9935 3.14973 19.1971C 2.38945 18.3825 1.78303 17.4502 1.33049 16.4003C 0.877939 15.3323 0.651668 14.1105 0.651668 12.7347C 0.651668 11.0874 0.850783 9.63022 1.24903 8.36309C 1.66537 7.07782 2.24464 5.9646 2.98681 5.02324C 3.729 4.08195 4.60693 3.29456 5.62064 2.66096C 6.63434 2.00929 7.74762 1.4934 8.96042 1.11323C 10.1733 0.714993 11.4585 0.434457 12.8162 0.271511C 14.1919 0.0904922 15.5947 -1.34173e-07 17.0248 -1.34173e-07C 18.9798 -1.34173e-07 20.7538 0.18103 22.3468 0.543068C 23.9579 0.905106 25.4422 1.421 26.7999 2.09079C 28.1575 2.76054 29.3975 3.56606 30.5198 4.50735C 31.6602 5.43058 32.7282 6.46236 33.7238 7.60281L 28.1846 13.2234C 27.7502 11.9201 27.1438 10.7435 26.3654 9.69359C 25.6051 8.64362 24.7544 7.74762 23.8131 7.00542C 22.8718 6.24514 21.8852 5.66588 20.8534 5.26763C 19.8216 4.85132 18.826 4.64313 17.8666 4.64313C 16.6175 4.64313 15.4681 4.73361 14.4182 4.91469C 13.3682 5.07758 12.4632 5.35817 11.7029 5.75641C 10.9607 6.13652 10.3814 6.66151 9.96509 7.33125C 9.54877 7.98292 9.34059 8.79753 9.34059 9.77503C 9.34059 10.5534 9.49444 11.2141 9.80214 11.7571C 10.1099 12.3003 10.5172 12.7618 11.024 13.142C 11.549 13.5221 12.1373 13.8389 12.789 14.0923C 13.4407 14.3277 14.1105 14.5358 14.7983 14.7168C 15.5043 14.8978 16.1921 15.0608 16.8619 15.2056C 17.5498 15.3323 18.1743 15.4771 18.7354 15.64C 19.8216 15.9478 20.962 16.2736 22.1567 16.6176C 23.3515 16.9615 24.528 17.3688 25.6866 17.8394C 26.8451 18.292 27.9493 18.8169 28.9992 19.4143C 30.0492 20.0116 30.9723 20.7267 31.7688 21.5593C 32.5653 22.374 33.1989 23.3243 33.6695 24.4104C 34.1402 25.4784 34.3755 26.7094 34.3755 28.1032ZM 71.765 40.0504L 62.5871 40.0504L 62.5871 36.3033C 61.501 37.7877 60.189 38.8919 58.6499 39.616C 57.1294 40.322 55.4552 40.6749 53.6269 40.6749C 51.2374 40.6749 49.1014 40.2496 47.2188 39.3988C 45.3362 38.548 43.7432 37.3894 42.4399 35.9232C 41.1366 34.4389 40.1409 32.7011 39.4531 30.7099C 38.7652 28.7187 38.4213 26.5826 38.4213 24.3018C 38.4213 22.021 38.7652 19.8849 39.4531 17.8937C 40.1409 15.9025 41.1366 14.1738 42.4399 12.7075C 43.7432 11.2232 45.3362 10.0556 47.2188 9.20481C 49.1014 8.35405 51.2374 7.92864 53.6269 7.92864C 54.8397 7.92864 55.9894 8.10966 57.0755 8.4717C 58.1796 8.83374 59.184 9.34963 60.0894 10.0194C 61.0127 10.671 61.8179 11.4675 62.5061 12.4088C 63.2116 13.332 63.7642 14.3638 64.1622 15.5043L 68.2349 8.68892L 71.765 8.68892L 71.765 40.0504ZM 62.5327 24.3018C 62.5327 23.4872 62.4875 22.6274 62.3972 21.7223C 62.3247 20.8172 62.1892 19.9211 61.9899 19.0342C 61.7907 18.1471 61.5103 17.3054 61.1483 16.5089C 60.8042 15.6943 60.3518 14.9793 59.7905 14.3638C 59.2477 13.7303 58.5868 13.2325 57.8082 12.8704C 57.0297 12.5084 56.1249 12.3274 55.0931 12.3274C 54.0613 12.3274 53.1652 12.5175 52.405 12.8976C 51.6447 13.2596 50.993 13.7575 50.45 14.391C 49.9069 15.0065 49.4544 15.7215 49.0923 16.536C 48.7484 17.3507 48.4769 18.2014 48.2777 19.0884C 48.0786 19.9755 47.9338 20.8715 47.8433 21.7766C 47.7709 22.6636 47.7347 23.5053 47.7347 24.3018C 47.7347 25.0983 47.7709 25.949 47.8433 26.8542C 47.9338 27.7592 48.0786 28.6553 48.2777 29.5423C 48.4769 30.4293 48.7484 31.2801 49.0923 32.0946C 49.4544 32.9093 49.9069 33.6333 50.45 34.2669C 50.993 34.8823 51.6447 35.3802 52.405 35.7603C 53.1652 36.1224 54.0613 36.3033 55.0931 36.3033C 56.0346 36.3033 56.867 36.1133 57.591 35.7332C 58.3331 35.3349 58.976 34.8099 59.5188 34.1583C 60.0801 33.5066 60.551 32.7644 60.931 31.9318C 61.311 31.0991 61.6186 30.2392 61.8544 29.3522C 62.0896 28.4652 62.2616 27.5873 62.3699 26.7184C 62.4788 25.8314 62.5327 25.0259 62.5327 24.3018ZM 95.5778 40.0504L 87.3233 40.0504L 75.9194 8.68892L 85.0972 8.68892L 93.46 33.6695L 101.579 8.68892L 107.933 8.68892L 95.5778 40.0504ZM 127.944 40.0504L 119.69 40.0504L 108.286 8.68892L 117.463 8.68892L 125.826 33.6695L 133.945 8.68892L 140.298 8.68892L 127.944 40.0504ZM 172.257 8.68892L 160.854 36.2762C 159.55 39.4259 158.093 42.5395 156.482 45.6168C 154.889 48.7122 153.16 51.6809 151.296 54.5227L 147.711 52.3505C 148.164 51.5361 148.698 50.5948 149.313 49.5268C 149.929 48.4588 150.535 47.3546 151.133 46.2141C 151.73 45.0737 152.282 43.9424 152.789 42.82C 153.296 41.7158 153.685 40.7021 153.957 39.7789L 140.245 8.68892L 149.422 8.68892L 158.736 29.8953L 165.904 8.68892L 172.257 8.68892Z"/>
<path id="path8_fill" d="M 29.6719 29.2266C 29.6719 30.6797 29.4844 31.961 29.1094 33.0703C 28.75 34.1797 28.2344 35.1407 27.5625 35.9532C 26.9062 36.7657 26.125 37.4453 25.2187 37.9922C 24.3125 38.5391 23.3203 38.9766 22.2422 39.3047C 21.1797 39.6329 20.0469 39.8672 18.8437 40.0079C 17.6562 40.1485 16.4453 40.2188 15.2109 40.2188C 13.5859 40.2188 12.0859 40.0938 10.7109 39.8438C 9.33591 39.6094 8.03906 39.2344 6.82031 38.7188C 5.61719 38.1875 4.45312 37.5079 3.32812 36.6797C 2.21875 35.8516 1.10937 34.8438 3.39508e-09 33.6563L 4.78125 28.8047C 5.21875 29.8829 5.82031 30.8829 6.58593 31.8047C 7.35156 32.711 8.1875 33.4922 9.09371 34.1485C 10.0156 34.8047 10.9687 35.3203 11.9531 35.6953C 12.9375 36.0703 13.8672 36.2579 14.7422 36.2579C 15.7734 36.2579 16.7422 36.1875 17.6484 36.0469C 18.5547 35.8907 19.3437 35.6407 20.0156 35.2969C 20.6875 34.9532 21.2109 34.5 21.5859 33.9375C 21.9765 33.3594 22.1719 32.6407 22.1719 31.7813C 22.1719 31.125 22.0234 30.5625 21.7265 30.0938C 21.4297 29.625 21.0391 29.2266 20.5547 28.8985C 20.0859 28.5547 19.5469 28.2657 18.9375 28.0313C 18.3281 27.7969 17.7031 27.6016 17.0625 27.4453C 16.4375 27.2735 15.8203 27.125 15.2109 27C 14.6015 26.8594 14.0625 26.7188 13.5937 26.5782C 12.6719 26.3125 11.7109 26.0313 10.7109 25.7344C 9.71091 25.4219 8.72651 25.0703 7.75781 24.6797C 6.78906 24.2891 5.86719 23.8438 4.99219 23.3438C 4.13281 22.8282 3.375 22.2266 2.71875 21.5391C 2.0625 20.836 1.53906 20.0313 1.14843 19.125C 0.75781 18.2032 0.5625 17.1485 0.5625 15.961C 0.5625 14.5391 0.73437 13.2813 1.07812 12.1875C 1.4375 11.0782 1.9375 10.1172 2.57812 9.30468C 3.21875 8.49218 3.97656 7.8125 4.85156 7.26562C 5.72656 6.70312 6.6875 6.25781 7.73437 5.92968C 8.78121 5.58593 9.89061 5.34375 11.0625 5.20312C 12.25 5.04687 13.4609 4.96875 14.6953 4.96875C 16.3828 4.96875 17.9141 5.125 19.2891 5.4375C 20.6797 5.75 21.9609 6.19531 23.1328 6.77344C 24.3047 7.35156 25.375 8.04687 26.3437 8.85937C 27.3281 9.65626 28.25 10.5469 29.1094 11.5313L 24.3281 16.3829C 23.9531 15.2579 23.4297 14.2422 22.7578 13.336C 22.1015 12.4297 21.3672 11.6563 20.5547 11.0157C 19.7422 10.3594 18.8906 9.85936 18 9.51562C 17.1094 9.15625 16.25 8.97656 15.4219 8.97656C 14.3437 8.97656 13.3515 9.05468 12.4453 9.21094C 11.5391 9.35156 10.7578 9.59376 10.1015 9.93746C 9.46091 10.2657 8.96091 10.7188 8.60151 11.2969C 8.24221 11.8594 8.0625 12.5625 8.0625 13.4063C 8.0625 14.0782 8.19531 14.6485 8.46091 15.1172C 8.72651 15.586 9.07811 15.9844 9.51561 16.3125C 9.96871 16.6407 10.4765 16.9141 11.0391 17.1329C 11.6015 17.336 12.1797 17.5157 12.7734 17.6719C 13.3828 17.8282 13.9765 17.9688 14.5547 18.0938C 15.1484 18.2032 15.6875 18.3282 16.1719 18.4688C 17.1094 18.7344 18.0937 19.0157 19.125 19.3125C 20.1562 19.6094 21.1719 19.961 22.1719 20.3672C 23.1719 20.7579 24.125 21.211 25.0312 21.7266C 25.9375 22.2422 26.7344 22.8594 27.4219 23.5782C 28.1094 24.2813 28.6562 25.1016 29.0625 26.0391C 29.4687 26.961 29.6719 28.0235 29.6719 29.2266ZM 61.9453 39.5391L 54.0234 39.5391L 54.0234 36.3047C 53.0859 37.586 51.9531 38.5391 50.625 39.1641C 49.3125 39.7735 47.8672 40.0782 46.2891 40.0782C 44.2265 40.0782 42.3828 39.711 40.7578 38.9766C 39.1328 38.2422 37.7578 37.2422 36.6328 35.9766C 35.5078 34.6953 34.6484 33.1953 34.0547 31.4766C 33.4609 29.7579 33.1641 27.9141 33.1641 25.9453C 33.1641 23.9766 33.4609 22.1329 34.0547 20.4141C 34.6484 18.6953 35.5078 17.2032 36.6328 15.9375C 37.7578 14.6563 39.1328 13.6485 40.7578 12.9141C 42.3828 12.1797 44.2265 11.8125 46.2891 11.8125C 47.3359 11.8125 48.3281 11.9688 49.2656 12.2813C 50.2187 12.5938 51.0859 13.0391 51.8672 13.6172C 52.6641 14.1797 53.3594 14.8672 53.9531 15.6797C 54.5625 16.4766 55.0391 17.3672 55.3828 18.3516L 58.8984 12.4688L 61.9453 12.4688L 61.9453 39.5391ZM 53.9765 25.9453C 53.9765 25.2422 53.9375 24.5 53.8594 23.7188C 53.7969 22.9375 53.6797 22.1641 53.5078 21.3985C 53.3359 20.6329 53.0937 19.9063 52.7812 19.2188C 52.4844 18.5157 52.0937 17.8985 51.6094 17.3672C 51.1406 16.8203 50.5703 16.3907 49.8984 16.0782C 49.2265 15.7657 48.4453 15.6094 47.5547 15.6094C 46.6641 15.6094 45.8906 15.7735 45.2344 16.1016C 44.5781 16.4141 44.0156 16.8438 43.5469 17.3907C 43.0781 17.9219 42.6875 18.5391 42.375 19.2422C 42.0781 19.9453 41.8437 20.6797 41.6719 21.4453C 41.5 22.211 41.375 22.9844 41.2969 23.7657C 41.2344 24.5313 41.2031 25.2579 41.2031 25.9453C 41.2031 26.6329 41.2344 27.3672 41.2969 28.1485C 41.375 28.9297 41.5 29.7032 41.6719 30.4688C 41.8437 31.2344 42.0781 31.9688 42.375 32.6719C 42.6875 33.375 43.0781 34 43.5469 34.5469C 44.0156 35.0782 44.5781 35.5079 45.2344 35.836C 45.8906 36.1485 46.6641 36.3047 47.5547 36.3047C 48.3672 36.3047 49.0859 36.1407 49.7109 35.8125C 50.3515 35.4688 50.9062 35.0157 51.375 34.4532C 51.8594 33.8907 52.2656 33.25 52.5937 32.5313C 52.9219 31.8125 53.1875 31.0703 53.3906 30.3047C 53.5937 29.5391 53.7422 28.7813 53.8359 28.0313C 53.9297 27.2657 53.9765 26.5703 53.9765 25.9453ZM 82.5 39.5391L 75.375 39.5391L 65.5312 12.4688L 73.4531 12.4688L 80.6719 34.0313L 87.6797 12.4688L 93.1641 12.4688L 82.5 39.5391ZM 110.437 39.5391L 103.312 39.5391L 93.4687 12.4688L 101.39 12.4688L 108.609 34.0313L 115.617 12.4688L 121.101 12.4688L 110.437 39.5391ZM 148.687 12.4688L 138.843 36.2813C 137.718 39 136.461 41.6875 135.07 44.3438C 133.695 47.0157 132.203 49.5782 130.593 52.0313L 127.5 50.1563C 127.89 49.4532 128.351 48.6407 128.883 47.7188C 129.414 46.7969 129.937 45.8438 130.453 44.8594C 130.968 43.875 131.445 42.8985 131.883 41.9297C 132.32 40.9766 132.656 40.1016 132.89 39.3047L 121.054 12.4688L 128.976 12.4688L 137.015 30.7735L 143.203 12.4688L 148.687 12.4688ZM 184.664 23.3907L 184.664 23.836C 184.633 25.1485 184.492 26.5079 184.242 27.9141C 184.007 29.3203 183.672 30.7266 183.234 32.1329C 182.797 33.5391 182.273 34.9297 181.664 36.3047C 181.054 37.6797 180.367 38.9922 179.601 40.2422C 178.851 41.5079 178.039 42.6875 177.164 43.7813C 176.289 44.8907 175.367 45.8672 174.398 46.711L 170.906 44.6953C 171.453 43.7735 171.945 42.7657 172.383 41.6719C 172.836 40.5938 173.242 39.461 173.601 38.2735C 173.961 37.086 174.265 35.8672 174.515 34.6172C 174.781 33.3672 175 32.125 175.172 30.8907C 175.343 29.6563 175.468 28.4453 175.547 27.2579C 175.64 26.0547 175.687 24.9141 175.687 23.836C 175.687 22.9922 175.679 22.0391 175.664 20.9766C 175.664 19.8985 175.601 18.8047 175.476 17.6953C 175.367 16.586 175.179 15.5079 174.914 14.461C 174.648 13.3985 174.25 12.4532 173.718 11.625C 173.203 10.7969 172.531 10.1328 171.703 9.63286C 170.89 9.13281 169.875 8.88281 168.656 8.88281C 167.578 8.88281 166.648 9.07031 165.867 9.44531C 165.101 9.80466 164.445 10.2969 163.898 10.9219C 163.367 11.5313 162.937 12.2422 162.609 13.0547C 162.297 13.8672 162.047 14.7266 161.859 15.6329C 161.687 16.5235 161.57 17.4297 161.507 18.3516C 161.461 19.2579 161.437 20.1172 161.437 20.9297L 161.437 27.4688L 171.539 27.4688L 171.539 31.336L 161.437 31.336L 161.437 39.5391L 152.133 39.5391L 152.133 22.3829C 152.133 19.9297 152.523 17.6485 153.304 15.5391C 154.086 13.4297 155.187 11.6016 156.609 10.0547C 158.047 8.49218 159.765 7.27343 161.765 6.39844C 163.781 5.50781 166.023 5.0625 168.492 5.0625C 170.164 5.0625 171.726 5.30468 173.179 5.78906C 174.648 6.25781 175.984 6.91406 177.187 7.75781C 178.39 8.58593 179.461 9.57816 180.398 10.7344C 181.351 11.875 182.14 13.125 182.765 14.4844C 183.406 15.8438 183.89 17.2813 184.218 18.7969C 184.547 20.3125 184.695 21.8438 184.664 23.3907ZM 188.601 27.961C 188.601 26.7266 188.703 25.4453 188.906 24.1172C 189.125 22.7891 189.429 21.461 189.82 20.1329C 190.226 18.8047 190.711 17.4922 191.273 16.1953C 191.836 14.8985 192.468 13.6563 193.172 12.4688L 198.961 12.4688C 198.57 13.6407 198.218 14.8672 197.906 16.1485C 197.609 17.4141 197.351 18.6875 197.133 19.9688C 196.929 21.2344 196.765 22.4766 196.64 23.6953C 196.531 24.9141 196.476 26.0469 196.476 27.0938C 196.476 27.7032 196.5 28.3594 196.547 29.0625C 196.609 29.75 196.711 30.4453 196.851 31.1485C 196.992 31.836 197.187 32.5 197.437 33.1407C 197.703 33.7813 198.039 34.3516 198.445 34.8516C 198.851 35.336 199.343 35.7266 199.922 36.0235C 200.515 36.3047 201.211 36.4453 202.007 36.4453C 202.789 36.4453 203.484 36.2735 204.093 35.9297C 204.718 35.5703 205.265 35.1094 205.734 34.5469C 206.203 33.9688 206.601 33.3125 206.929 32.5782C 207.257 31.8438 207.523 31.0938 207.726 30.3282C 207.945 29.5469 208.101 28.7891 208.195 28.0547C 208.304 27.3047 208.359 26.6329 208.359 26.0391L 208.359 12.4688L 216.281 12.4688L 216.281 39.5391L 213.234 39.5391L 209.601 33.2344C 209.148 34.2813 208.593 35.2344 207.937 36.0938C 207.297 36.9375 206.562 37.6641 205.734 38.2735C 204.906 38.8829 203.984 39.3516 202.968 39.6797C 201.968 40.0079 200.883 40.1719 199.711 40.1719C 197.836 40.1719 196.203 39.8672 194.812 39.2579C 193.422 38.6485 192.265 37.8047 191.343 36.7266C 190.422 35.6485 189.734 34.3672 189.281 32.8829C 188.828 31.3829 188.601 29.7422 188.601 27.961ZM 250.172 39.5391L 247.125 39.5391L 243.609 33.6563C 243.265 34.6407 242.789 35.5313 242.179 36.3282C 241.586 37.125 240.89 37.8125 240.093 38.3907C 239.312 38.9532 238.445 39.3907 237.492 39.7032C 236.554 40.0157 235.562 40.1719 234.515 40.1719C 232.453 40.1719 230.609 39.8047 228.984 39.0703C 227.359 38.336 225.984 37.336 224.859 36.0703C 223.734 34.7891 222.875 33.2891 222.281 31.5703C 221.687 29.8516 221.39 28.0079 221.39 26.0391C 221.39 24.0703 221.687 22.2266 222.281 20.5079C 222.875 18.7891 223.734 17.2969 224.859 16.0313C 225.984 14.7657 227.359 13.7657 228.984 13.0313C 230.609 12.2969 232.453 11.9297 234.515 11.9297C 236.093 11.9297 237.539 12.2344 238.851 12.8438C 240.179 13.4532 241.312 14.4063 242.25 15.7032L 242.25 2.50781L 250.172 2.50781L 250.172 39.5391ZM 242.203 26.0391C 242.203 25.4141 242.156 24.7266 242.062 23.9766C 241.968 23.2266 241.82 22.4688 241.617 21.7032C 241.414 20.9375 241.148 20.1953 240.82 19.4766C 240.492 18.7579 240.086 18.1172 239.601 17.5547C 239.133 16.9922 238.578 16.5469 237.937 16.2188C 237.312 15.875 236.593 15.7032 235.781 15.7032C 234.89 15.7032 234.117 15.8672 233.461 16.1953C 232.804 16.5079 232.242 16.9375 231.773 17.4844C 231.304 18.0157 230.914 18.6329 230.601 19.336C 230.304 20.0391 230.07 20.7735 229.898 21.5391C 229.726 22.3047 229.601 23.0782 229.523 23.8594C 229.461 24.625 229.429 25.3516 229.429 26.0391C 229.429 26.7266 229.461 27.461 229.523 28.2422C 229.601 29.0079 229.726 29.7735 229.898 30.5391C 230.07 31.3047 230.304 32.0469 230.601 32.7657C 230.914 33.4688 231.304 34.0938 231.773 34.6407C 232.242 35.1719 232.804 35.6016 233.461 35.9297C 234.117 36.2422 234.89 36.3985 235.781 36.3985C 236.672 36.3985 237.453 36.2422 238.125 35.9297C 238.797 35.6172 239.367 35.1953 239.836 34.6641C 240.32 34.1172 240.711 33.5 241.007 32.8125C 241.32 32.1094 241.562 31.375 241.734 30.6094C 241.906 29.8282 242.023 29.0469 242.086 28.2657C 242.164 27.4844 242.203 26.7422 242.203 26.0391ZM 265.101 5.92968C 265.101 6.52343 264.984 7.08593 264.75 7.61718C 264.531 8.14844 264.226 8.60937 263.836 9C 263.445 9.39062 262.984 9.70316 262.453 9.93746C 261.922 10.1563 261.359 10.2657 260.765 10.2657C 260.172 10.2657 259.609 10.1563 259.078 9.93746C 258.562 9.70316 258.109 9.39062 257.718 9C 257.328 8.60937 257.015 8.14844 256.781 7.61718C 256.562 7.08593 256.453 6.52343 256.453 5.92968C 256.453 5.33594 256.562 4.78125 256.781 4.26562C 257.015 3.73437 257.328 3.27344 257.718 2.88281C 258.109 2.49218 258.562 2.1875 259.078 1.96875C 259.609 1.73437 260.172 1.61718 260.765 1.61718C 261.359 1.61718 261.922 1.73437 262.453 1.96875C 262.984 2.1875 263.445 2.49218 263.836 2.88281C 264.226 3.27344 264.531 3.73437 264.75 4.26562C 264.984 4.78125 265.101 5.33594 265.101 5.92968ZM 264.75 39.5391L 256.804 39.5391L 256.804 12.4922L 264.75 12.4922L 264.75 39.5391ZM 300 25.9453C 300 27.3516 299.812 28.6719 299.437 29.9063C 299.062 31.1407 298.539 32.2813 297.867 33.3282C 297.211 34.375 296.414 35.3203 295.476 36.1641C 294.539 36.9922 293.507 37.6953 292.383 38.2735C 291.273 38.8516 290.078 39.2969 288.797 39.6094C 287.531 39.9219 286.226 40.0782 284.883 40.0782C 283.539 40.0782 282.234 39.9219 280.968 39.6094C 279.703 39.2969 278.507 38.8516 277.383 38.2735C 276.273 37.6953 275.25 36.9922 274.312 36.1641C 273.375 35.3203 272.57 34.375 271.898 33.3282C 271.242 32.2813 270.726 31.1407 270.351 29.9063C 269.976 28.6563 269.789 27.336 269.789 25.9453C 269.789 24.5547 269.976 23.2422 270.351 22.0079C 270.726 20.7579 271.242 19.6094 271.898 18.5625C 272.57 17.5157 273.375 16.5782 274.312 15.75C 275.25 14.9063 276.273 14.1954 277.383 13.6172C 278.507 13.0391 279.703 12.5938 280.968 12.2813C 282.234 11.9688 283.539 11.8125 284.883 11.8125C 286.226 11.8125 287.531 11.9688 288.797 12.2813C 290.078 12.5938 291.273 13.0391 292.383 13.6172C 293.507 14.1954 294.539 14.9063 295.476 15.75C 296.414 16.5782 297.211 17.5157 297.867 18.5625C 298.539 19.6094 299.062 20.7579 299.437 22.0079C 299.812 23.2422 300 24.5547 300 25.9453ZM 291.937 25.9453C 291.937 25.1953 291.89 24.4063 291.797 23.5782C 291.718 22.7344 291.578 21.9141 291.375 21.1172C 291.172 20.3047 290.89 19.5313 290.531 18.7969C 290.187 18.0469 289.757 17.3985 289.242 16.8516C 288.726 16.2891 288.109 15.8438 287.39 15.5157C 286.672 15.1719 285.836 15 284.883 15C 283.976 15 283.172 15.1719 282.468 15.5157C 281.765 15.8594 281.148 16.3203 280.617 16.8985C 280.101 17.461 279.664 18.1172 279.304 18.8672C 278.961 19.6172 278.679 20.3985 278.461 21.211C 278.242 22.0079 278.086 22.8203 277.992 23.6485C 277.898 24.461 277.851 25.2266 277.851 25.9453C 277.851 26.6641 277.898 27.4375 277.992 28.2657C 278.086 29.0782 278.242 29.8907 278.461 30.7032C 278.679 31.5157 278.961 32.2969 279.304 33.0469C 279.664 33.7813 280.101 34.4375 280.617 35.0157C 281.148 35.5782 281.765 36.0313 282.468 36.375C 283.172 36.7188 283.976 36.8907 284.883 36.8907C 285.82 36.8907 286.648 36.7266 287.367 36.3985C 288.086 36.0547 288.703 35.6016 289.218 35.0391C 289.75 34.4766 290.187 33.8282 290.531 33.0938C 290.875 32.3594 291.148 31.586 291.351 30.7735C 291.57 29.961 291.718 29.1407 291.797 28.3125C 291.89 27.4844 291.937 26.6953 291.937 25.9453ZM 333.797 25.9453C 333.797 27.9141 333.5 29.7579 332.906 31.4766C 332.312 33.1953 331.453 34.6953 330.328 35.9766C 329.203 37.2422 327.828 38.2422 326.203 38.9766C 324.578 39.711 322.734 40.0782 320.672 40.0782C 319.093 40.0782 317.64 39.7735 316.312 39.1641C 315 38.5391 313.875 37.586 312.937 36.3047L 312.937 52.0313L 305.015 52.0313L 305.015 12.4688L 308.062 12.4688L 311.578 18.3516C 311.922 17.3672 312.39 16.4766 312.984 15.6797C 313.593 14.8672 314.289 14.1797 315.07 13.6172C 315.867 13.0391 316.734 12.5938 317.672 12.2813C 318.625 11.9688 319.625 11.8125 320.672 11.8125C 322.734 11.8125 324.578 12.1797 326.203 12.9141C 327.828 13.6485 329.203 14.6563 330.328 15.9375C 331.453 17.2032 332.312 18.6953 332.906 20.4141C 333.5 22.1329 333.797 23.9766 333.797 25.9453ZM 325.757 25.9453C 325.757 25.2579 325.718 24.5313 325.64 23.7657C 325.578 22.9844 325.461 22.211 325.289 21.4453C 325.117 20.6797 324.875 19.9453 324.562 19.2422C 324.265 18.5391 323.883 17.9219 323.414 17.3907C 322.945 16.8438 322.375 16.4141 321.703 16.1016C 321.047 15.7735 320.281 15.6094 319.406 15.6094C 318.5 15.6094 317.711 15.7657 317.039 16.0782C 316.383 16.3907 315.812 16.8203 315.328 17.3672C 314.859 17.8985 314.468 18.5157 314.156 19.2188C 313.859 19.9063 313.625 20.6329 313.453 21.3985C 313.281 22.1641 313.156 22.9375 313.078 23.7188C 313.015 24.5 312.984 25.2422 312.984 25.9453C 312.984 26.5703 313.031 27.2657 313.125 28.0313C 313.218 28.7813 313.367 29.5391 313.57 30.3047C 313.773 31.0703 314.039 31.8125 314.367 32.5313C 314.695 33.25 315.093 33.8907 315.562 34.4532C 316.047 35.0157 316.601 35.4688 317.226 35.8125C 317.867 36.1407 318.593 36.3047 319.406 36.3047C 320.297 36.3047 321.07 36.1485 321.726 35.836C 322.383 35.5079 322.945 35.0782 323.414 34.5469C 323.883 34 324.265 33.375 324.562 32.6719C 324.875 31.9688 325.117 31.2344 325.289 30.4688C 325.461 29.7032 325.578 28.9297 325.64 28.1485C 325.718 27.3672 325.757 26.6329 325.757 25.9453ZM 366.586 24.0235C 366.586 25.8516 366.359 27.7579 365.906 29.7422C 365.468 31.7266 364.851 33.6719 364.054 35.5782C 363.257 37.4844 362.304 39.2735 361.195 40.9453C 360.086 42.6329 358.867 44.086 357.539 45.3047L 354.562 43.6875C 354.984 42.9063 355.383 42.0313 355.757 41.0625C 356.133 40.0938 356.468 39.0703 356.765 37.9922C 357.078 36.8985 357.351 35.7735 357.586 34.6172C 357.836 33.461 358.039 32.3203 358.195 31.1953C 358.367 30.0547 358.492 28.9532 358.57 27.8907C 358.664 26.8125 358.711 25.8125 358.711 24.8907C 358.711 24.2813 358.687 23.6329 358.64 22.9453C 358.593 22.2422 358.492 21.5469 358.336 20.8594C 358.195 20.1563 358 19.4844 357.75 18.8438C 357.5 18.2032 357.164 17.6407 356.742 17.1563C 356.336 16.6719 355.836 16.2813 355.242 15.9844C 354.664 15.6875 353.976 15.5391 353.179 15.5391C 352.398 15.5391 351.703 15.7188 351.093 16.0782C 350.484 16.4219 349.945 16.8829 349.476 17.461C 349.007 18.0235 348.601 18.6719 348.257 19.4063C 347.929 20.1407 347.656 20.8985 347.437 21.6797C 347.234 22.4453 347.086 23.2032 346.992 23.9532C 346.898 24.7032 346.851 25.375 346.851 25.9688L 346.851 39.5391L 338.906 39.5391L 338.906 2.50781L 346.828 2.50781L 346.828 16.4532C 347.843 14.9688 349.086 13.8282 350.554 13.0313C 352.039 12.2188 353.679 11.8125 355.476 11.8125C 357.351 11.8125 358.984 12.1172 360.375 12.7266C 361.765 13.336 362.922 14.1875 363.843 15.2813C 364.765 16.3594 365.453 17.6485 365.906 19.1485C 366.359 20.6329 366.586 22.2579 366.586 24.0235ZM 380.133 5.92968C 380.133 6.52343 380.015 7.08593 379.781 7.61718C 379.562 8.14844 379.257 8.60937 378.867 9C 378.476 9.39062 378.015 9.70316 377.484 9.93746C 376.953 10.1563 376.39 10.2657 375.797 10.2657C 375.203 10.2657 374.64 10.1563 374.109 9.93746C 373.593 9.70316 373.14 9.39062 372.75 9C 372.359 8.60937 372.047 8.14844 371.812 7.61718C 371.593 7.08593 371.484 6.52343 371.484 5.92968C 371.484 5.33594 371.593 4.78125 371.812 4.26562C 372.047 3.73437 372.359 3.27344 372.75 2.88281C 373.14 2.49218 373.593 2.1875 374.109 1.96875C 374.64 1.73437 375.203 1.61718 375.797 1.61718C 376.39 1.61718 376.953 1.73437 377.484 1.96875C 378.015 2.1875 378.476 2.49218 378.867 2.88281C 379.257 3.27344 379.562 3.73437 379.781 4.26562C 380.015 4.78125 380.133 5.33594 380.133 5.92968ZM 379.781 39.5391L 371.836 39.5391L 371.836 12.4922L 379.781 12.4922L 379.781 39.5391ZM 394.359 39.5391L 386.437 39.5391L 386.437 6.63948e-09L 389.484 6.63948e-09L 394.359 8.22656L 394.359 39.5391ZM 407.484 26.6953C 408.453 26.9141 409.422 27.086 410.39 27.211C 411.359 27.336 412.336 27.3985 413.32 27.3985C 414.351 27.3985 415.304 27.3047 416.179 27.1172C 417.07 26.9141 417.836 26.586 418.476 26.1329C 419.133 25.6641 419.648 25.0469 420.023 24.2813C 420.398 23.5157 420.586 22.5625 420.586 21.4219C 420.586 20.5 420.461 19.6563 420.211 18.8907C 419.961 18.125 419.586 17.4688 419.086 16.9219C 418.601 16.375 418 15.9532 417.281 15.6563C 416.562 15.3438 415.726 15.1875 414.773 15.1875C 413.883 15.1875 413.078 15.3516 412.359 15.6797C 411.656 16.0079 411.031 16.4532 410.484 17.0157C 409.953 17.5625 409.492 18.2032 409.101 18.9375C 408.726 19.6719 408.414 20.4375 408.164 21.2344C 407.914 22.0313 407.734 22.836 407.625 23.6485C 407.515 24.461 407.461 25.2266 407.461 25.9453C 407.461 26.0703 407.461 26.1953 407.461 26.3203C 407.461 26.4453 407.468 26.5703 407.484 26.6953ZM 427.007 21.3516C 427.007 22.461 426.828 23.4532 426.468 24.3282C 426.109 25.1875 425.617 25.9453 424.992 26.6016C 424.383 27.2579 423.672 27.8125 422.859 28.2657C 422.047 28.7188 421.179 29.0938 420.257 29.3907C 419.336 29.6719 418.383 29.875 417.398 30C 416.429 30.125 415.484 30.1875 414.562 30.1875C 413.39 30.1875 412.234 30.1094 411.093 29.9532C 409.953 29.7813 408.828 29.5157 407.718 29.1563C 407.89 30.1875 408.164 31.1719 408.539 32.1094C 408.914 33.0313 409.414 33.8438 410.039 34.5469C 410.664 35.2344 411.429 35.7813 412.336 36.1875C 413.257 36.5938 414.343 36.7969 415.593 36.7969C 416.422 36.7969 417.211 36.6719 417.961 36.4219C 418.711 36.1719 419.398 35.8203 420.023 35.3672C 420.648 34.9141 421.195 34.375 421.664 33.75C 422.148 33.125 422.539 32.4297 422.836 31.6641L 426.257 32.9297C 425.742 34.1641 425.031 35.2344 424.125 36.1407C 423.234 37.0313 422.218 37.7735 421.078 38.3672C 419.953 38.9453 418.75 39.375 417.468 39.6563C 416.203 39.9375 414.945 40.0782 413.695 40.0782C 411.633 40.0782 409.726 39.7344 407.976 39.0469C 406.226 38.3438 404.718 37.3672 403.453 36.1172C 402.187 34.8672 401.195 33.375 400.476 31.6407C 399.757 29.9063 399.398 28.0079 399.398 25.9453C 399.398 23.8829 399.757 21.9844 400.476 20.25C 401.195 18.5157 402.187 17.0235 403.453 15.7735C 404.718 14.5235 406.226 13.5547 407.976 12.8672C 409.726 12.1641 411.633 11.8125 413.695 11.8125C 414.695 11.8125 415.718 11.8829 416.765 12.0235C 417.812 12.1641 418.828 12.3907 419.812 12.7032C 420.797 13 421.726 13.3907 422.601 13.875C 423.476 14.3594 424.234 14.961 424.875 15.6797C 425.531 16.3829 426.047 17.2032 426.422 18.1407C 426.812 19.0782 427.007 20.1485 427.007 21.3516ZM 455.25 30.8907C 455.25 32.0782 455.078 33.1329 454.734 34.0547C 454.39 34.9766 453.922 35.7813 453.328 36.4688C 452.734 37.1407 452.031 37.711 451.218 38.1797C 450.406 38.6329 449.531 39 448.593 39.2813C 447.672 39.5625 446.703 39.7657 445.687 39.8907C 444.672 40.0157 443.664 40.0782 442.664 40.0782C 441.32 40.0782 440.133 39.9922 439.101 39.8203C 438.07 39.6485 437.086 39.375 436.148 39C 435.211 38.6094 434.273 38.1094 433.336 37.5C 432.414 36.8907 431.383 36.1485 430.242 35.2735L 434.859 31.5C 435.281 32.2969 435.836 33.0235 436.523 33.6797C 437.226 34.3203 437.953 34.875 438.703 35.3438C 439.453 35.8125 440.179 36.1719 440.883 36.4219C 441.586 36.6719 442.156 36.7969 442.593 36.7969C 442.953 36.7969 443.359 36.7891 443.812 36.7735C 444.265 36.7422 444.726 36.6953 445.195 36.6329C 445.664 36.5547 446.125 36.4453 446.578 36.3047C 447.031 36.1641 447.429 35.9766 447.773 35.7422C 448.133 35.4922 448.414 35.1875 448.617 34.8282C 448.836 34.4532 448.945 34.0079 448.945 33.4922C 448.945 32.961 448.804 32.5 448.523 32.1094C 448.257 31.7032 447.906 31.3516 447.468 31.0547C 447.031 30.7579 446.531 30.5079 445.968 30.3047C 445.406 30.1016 444.836 29.9219 444.257 29.7657C 443.695 29.6094 443.148 29.4766 442.617 29.3672C 442.086 29.2422 441.625 29.125 441.234 29.0157C 440.515 28.8125 439.757 28.6094 438.961 28.4063C 438.164 28.1875 437.375 27.9453 436.593 27.6797C 435.812 27.3985 435.062 27.0703 434.343 26.6953C 433.64 26.3203 433.015 25.875 432.468 25.3594C 431.937 24.8282 431.507 24.211 431.179 23.5079C 430.867 22.7891 430.711 21.9532 430.711 21C 430.711 19.25 431.054 17.7891 431.742 16.6172C 432.445 15.4297 433.367 14.4844 434.507 13.7813C 435.648 13.0625 436.945 12.5547 438.398 12.2579C 439.851 11.961 441.328 11.8125 442.828 11.8125C 443.859 11.8125 444.945 11.9219 446.086 12.1407C 447.226 12.3438 448.336 12.6563 449.414 13.0782C 450.492 13.4844 451.5 13.9844 452.437 14.5782C 453.375 15.1719 454.156 15.8516 454.781 16.6172L 450.164 20.4141C 449.82 19.4766 449.367 18.6719 448.804 18C 448.257 17.3282 447.656 16.7813 447 16.3594C 446.359 15.9219 445.695 15.6016 445.007 15.3985C 444.336 15.1953 443.711 15.0938 443.133 15.0938C 442.57 15.0938 441.937 15.1172 441.234 15.1641C 440.531 15.211 439.867 15.3438 439.242 15.5625C 438.633 15.7813 438.109 16.1172 437.672 16.5703C 437.25 17.0079 437.039 17.6172 437.039 18.3985C 437.039 18.961 437.164 19.4453 437.414 19.8516C 437.679 20.2422 438.023 20.586 438.445 20.8829C 438.867 21.1641 439.343 21.4063 439.875 21.6094C 440.422 21.7969 440.976 21.9688 441.539 22.125C 442.101 22.2657 442.648 22.3907 443.179 22.5C 443.711 22.6094 444.187 22.7266 444.609 22.8516C 445.328 23.0547 446.086 23.2657 446.883 23.4844C 447.695 23.6875 448.492 23.9297 449.273 24.211C 450.054 24.4766 450.804 24.7969 451.523 25.1719C 452.257 25.5313 452.898 25.9766 453.445 26.5079C 453.992 27.0391 454.429 27.6641 454.757 28.3829C 455.086 29.086 455.25 29.9219 455.25 30.8907Z"/>
</defs>
</svg>
