<svg width="968" height="105" viewBox="0 0 968 105" version="1.1" xmlns="http://www.w3.org/2000/svg" xmlns:xlink="http://www.w3.org/1999/xlink">
<title>SavvyAudioVisual_Mobile</title>
<desc>Created using Figma</desc>
<g id="Canvas" transform="translate(391 290)">
<g id="SavvyAudioVisual_Mobile" filter="url(#filter0_i)">
<use xlink:href="#path0_fill" transform="translate(-394 -289)" fill="#BE2C17"/>
<use xlink:href="#path1_fill" transform="translate(-394 -289)" fill="#F29F1A"/>
<use xlink:href="#path2_fill" transform="translate(-394 -289)" fill="#418BC4"/>
</g>
</g>
<defs>
<filter id="filter0_i" filterUnits="userSpaceOnUse" x="-395" y="-290" width="976" height="109" color-interpolation-filters="sRGB">
<feFlood flood-opacity="0" result="BackgroundImageFix"/>
<feBlend mode="normal" in="SourceGraphic" in2="BackgroundImageFix" result="shape"/>
<feColorMatrix in="SourceAlpha" type="matrix" values="0 0 0 0 0 0 0 0 0 0 0 0 0 0 0 0 0 0 255 0" result="hardAlpha"/>
<feOffset dx="0" dy="4"/>
<feGaussianBlur stdDeviation="2"/>
<feComposite in2="hardAlpha" operator="arithmetic" k2="-1" k3="1"/>
<feColorMatrix type="matrix" values="0 0 0 0 0 0 0 0 0 0 0 0 0 0 0 0 0 0 0.25 0"/>
<feBlend mode="normal" in2="shape" result="effect1_innerShadow"/>
</filter>
<path id="path0_fill" d="M 704.016 79L 687 79L 661.781 11.5L 680.766 11.5L 699.469 65.8281L 716.391 11.5L 727.922 11.5L 704.016 79ZM 751.688 11.7812C 751.688 12.9687 751.453 14.0937 750.984 15.1562C 750.547 16.2188 749.938 17.1406 749.156 17.9219C 748.375 18.7031 747.453 19.3281 746.391 19.7969C 745.328 20.2344 744.203 20.4531 743.016 20.4531C 741.828 20.4531 740.703 20.2344 739.641 19.7969C 738.609 19.3281 737.703 18.7031 736.922 17.9219C 736.141 17.1406 735.516 16.2188 735.047 15.1562C 734.609 14.0937 734.391 12.9687 734.391 11.7812C 734.391 10.5938 734.609 9.48438 735.047 8.45312C 735.516 7.39062 736.141 6.46875 736.922 5.6875C 737.703 4.90625 738.609 4.29687 739.641 3.85938C 740.703 3.39062 741.828 3.15625 743.016 3.15625C 744.203 3.15625 745.328 3.39062 746.391 3.85938C 747.453 4.29687 748.375 4.90625 749.156 5.6875C 749.938 6.46875 750.547 7.39062 750.984 8.45312C 751.453 9.48438 751.688 10.5938 751.688 11.7812ZM 750.984 79L 735.094 79L 735.094 24.9062L 750.984 24.9062L 750.984 79ZM 810.891 61.7031C 810.891 64.0781 810.547 66.1875 809.859 68.0312C 809.172 69.875 808.234 71.4844 807.047 72.8594C 805.859 74.2031 804.453 75.3438 802.828 76.2812C 801.203 77.1875 799.453 77.9219 797.578 78.4844C 795.734 79.0469 793.797 79.4531 791.766 79.7031C 789.734 79.9531 787.719 80.0781 785.719 80.0781C 783.031 80.0781 780.656 79.9062 778.594 79.5625C 776.531 79.2188 774.562 78.6719 772.688 77.9219C 770.812 77.1406 768.938 76.1406 767.062 74.9219C 765.219 73.7031 763.156 72.2188 760.875 70.4688L 770.109 62.9219C 770.953 64.5156 772.062 65.9688 773.438 67.2812C 774.844 68.5625 776.297 69.6719 777.797 70.6094C 779.297 71.5469 780.75 72.2656 782.156 72.7656C 783.562 73.2656 784.703 73.5156 785.578 73.5156C 786.297 73.5156 787.109 73.5 788.016 73.4688C 788.922 73.4062 789.844 73.3125 790.781 73.1875C 791.719 73.0312 792.641 72.8125 793.547 72.5312C 794.453 72.25 795.25 71.875 795.938 71.4062C 796.656 70.9062 797.219 70.2969 797.625 69.5781C 798.062 68.8281 798.281 67.9375 798.281 66.9062C 798.281 65.8438 798 64.9219 797.438 64.1406C 796.906 63.3281 796.203 62.625 795.328 62.0312C 794.453 61.4375 793.453 60.9375 792.328 60.5312C 791.203 60.125 790.062 59.7656 788.906 59.4531C 787.781 59.1406 786.688 58.875 785.625 58.6562C 784.562 58.4062 783.641 58.1719 782.859 57.9531C 781.422 57.5469 779.906 57.1406 778.312 56.7344C 776.719 56.2969 775.141 55.8125 773.578 55.2812C 772.016 54.7188 770.516 54.0625 769.078 53.3125C 767.672 52.5625 766.422 51.6719 765.328 50.6406C 764.266 49.5781 763.406 48.3438 762.75 46.9375C 762.125 45.5 761.812 43.8281 761.812 41.9219C 761.812 38.4219 762.5 35.5 763.875 33.1562C 765.281 30.7812 767.125 28.8906 769.406 27.4844C 771.688 26.0469 774.281 25.0313 777.188 24.4375C 780.094 23.8437 783.047 23.5469 786.047 23.5469C 788.109 23.5469 790.281 23.7656 792.562 24.2031C 794.844 24.6094 797.062 25.2344 799.219 26.0781C 801.375 26.8906 803.391 27.8906 805.266 29.0781C 807.141 30.2656 808.703 31.625 809.953 33.1562L 800.719 40.75C 800.031 38.875 799.125 37.2656 798 35.9219C 796.906 34.5781 795.703 33.4844 794.391 32.6406C 793.109 31.7656 791.781 31.125 790.406 30.7188C 789.062 30.3125 787.812 30.1094 786.656 30.1094C 785.531 30.1094 784.266 30.1562 782.859 30.25C 781.453 30.3438 780.125 30.6094 778.875 31.0469C 777.656 31.4844 776.609 32.1562 775.734 33.0625C 774.891 33.9375 774.469 35.1562 774.469 36.7188C 774.469 37.8438 774.719 38.8125 775.219 39.625C 775.75 40.4062 776.438 41.0938 777.281 41.6875C 778.125 42.25 779.078 42.7344 780.141 43.1406C 781.234 43.5156 782.344 43.8594 783.469 44.1719C 784.594 44.4531 785.688 44.7031 786.75 44.9219C 787.812 45.1406 788.766 45.375 789.609 45.625C 791.047 46.0312 792.562 46.4531 794.156 46.8906C 795.781 47.2969 797.375 47.7812 798.938 48.3438C 800.5 48.875 802 49.5156 803.438 50.2656C 804.906 50.9844 806.188 51.875 807.281 52.9375C 808.375 54 809.25 55.25 809.906 56.6875C 810.562 58.0938 810.891 59.7656 810.891 61.7031ZM 818.156 55.8438C 818.156 53.375 818.359 50.8125 818.766 48.1562C 819.203 45.5 819.812 42.8438 820.594 40.1875C 821.406 37.5312 822.375 34.9062 823.5 32.3125C 824.625 29.7188 825.891 27.2344 827.297 24.8594L 838.875 24.8594C 838.094 27.2031 837.391 29.6562 836.766 32.2188C 836.172 34.75 835.656 37.2969 835.219 39.8594C 834.812 42.3906 834.484 44.875 834.234 47.3125C 834.016 49.75 833.906 52.0156 833.906 54.1094C 833.906 55.3281 833.953 56.6406 834.047 58.0469C 834.172 59.4219 834.375 60.8125 834.656 62.2188C 834.938 63.5938 835.328 64.9219 835.828 66.2031C 836.359 67.4844 837.031 68.625 837.844 69.625C 838.656 70.5938 839.641 71.375 840.797 71.9688C 841.984 72.5312 843.375 72.8125 844.969 72.8125C 846.531 72.8125 847.922 72.4688 849.141 71.7812C 850.391 71.0625 851.484 70.1406 852.422 69.0156C 853.359 67.8594 854.156 66.5469 854.812 65.0781C 855.469 63.6094 856 62.1094 856.406 60.5781C 856.844 59.0156 857.156 57.5 857.344 56.0312C 857.562 54.5312 857.672 53.1875 857.672 52L 857.672 24.8594L 873.516 24.8594L 873.516 79L 867.422 79L 860.156 66.3906C 859.25 68.4844 858.141 70.3906 856.828 72.1094C 855.547 73.7969 854.078 75.25 852.422 76.4688C 850.766 77.6875 848.922 78.625 846.891 79.2812C 844.891 79.9375 842.719 80.2656 840.375 80.2656C 836.625 80.2656 833.359 79.6562 830.578 78.4375C 827.797 77.2188 825.484 75.5312 823.641 73.375C 821.797 71.2188 820.422 68.6562 819.516 65.6875C 818.609 62.6875 818.156 59.4062 818.156 55.8438ZM 941.25 79L 925.406 79L 925.406 72.5312C 923.531 75.0938 921.266 77 918.609 78.25C 915.984 79.4688 913.094 80.0781 909.938 80.0781C 905.812 80.0781 902.125 79.3438 898.875 77.875C 895.625 76.4062 892.875 74.4062 890.625 71.875C 888.375 69.3125 886.656 66.3125 885.469 62.875C 884.281 59.4375 883.688 55.75 883.688 51.8125C 883.688 47.875 884.281 44.1875 885.469 40.75C 886.656 37.3125 888.375 34.3281 890.625 31.7969C 892.875 29.2344 895.625 27.2187 898.875 25.75C 902.125 24.2813 905.812 23.5469 909.938 23.5469C 912.031 23.5469 914.016 23.8594 915.891 24.4844C 917.797 25.1094 919.531 26 921.094 27.1562C 922.688 28.2812 924.078 29.6562 925.266 31.2812C 926.484 32.875 927.438 34.6562 928.125 36.625L 935.156 24.8594L 941.25 24.8594L 941.25 79ZM 925.312 51.8125C 925.312 50.4062 925.234 48.9219 925.078 47.3594C 924.953 45.7969 924.719 44.25 924.375 42.7188C 924.031 41.1875 923.547 39.7344 922.922 38.3594C 922.328 36.9531 921.547 35.7188 920.578 34.6562C 919.641 33.5625 918.5 32.7031 917.156 32.0781C 915.812 31.4531 914.25 31.1406 912.469 31.1406C 910.688 31.1406 909.141 31.4688 907.828 32.125C 906.516 32.75 905.391 33.6094 904.453 34.7031C 903.516 35.7656 902.734 37 902.109 38.4062C 901.516 39.8125 901.047 41.2812 900.703 42.8125C 900.359 44.3438 900.109 45.8906 899.953 47.4531C 899.828 48.9844 899.766 50.4375 899.766 51.8125C 899.766 53.1875 899.828 54.6562 899.953 56.2188C 900.109 57.7812 900.359 59.3281 900.703 60.8594C 901.047 62.3906 901.516 63.8594 902.109 65.2656C 902.734 66.6719 903.516 67.9219 904.453 69.0156C 905.391 70.0781 906.516 70.9375 907.828 71.5938C 909.141 72.2188 910.688 72.5312 912.469 72.5312C 914.094 72.5312 915.531 72.2031 916.781 71.5469C 918.062 70.8594 919.172 69.9531 920.109 68.8281C 921.078 67.7031 921.891 66.4219 922.547 64.9844C 923.203 63.5469 923.734 62.0625 924.141 60.5312C 924.547 59 924.844 57.4844 925.031 55.9844C 925.219 54.4531 925.312 53.0625 925.312 51.8125ZM 970.359 79L 954.516 79L 954.516 -0.078125L 960.609 -0.078125L 970.359 16.375L 970.359 79Z"/>
<path id="path1_fill" d="M 400.125 46.7031L 400.125 47.5938C 400.062 50.2188 399.781 52.9375 399.281 55.75C 398.812 58.5625 398.141 61.375 397.266 64.1875C 396.391 67 395.344 69.7812 394.125 72.5312C 392.906 75.2812 391.531 77.9062 390 80.4062C 388.5 82.9375 386.875 85.2969 385.125 87.4844C 383.375 89.7031 381.531 91.6562 379.594 93.3438L 372.609 89.3125C 373.703 87.4688 374.688 85.4531 375.562 83.2656C 376.469 81.1094 377.281 78.8438 378 76.4688C 378.719 74.0938 379.328 71.6562 379.828 69.1562C 380.359 66.6562 380.797 64.1719 381.141 61.7031C 381.484 59.2344 381.734 56.8125 381.891 54.4375C 382.078 52.0312 382.172 49.75 382.172 47.5938C 382.172 45.9062 382.156 44 382.125 41.875C 382.125 39.7188 382 37.5312 381.75 35.3125C 381.531 33.0938 381.156 30.9375 380.625 28.8438C 380.094 26.7188 379.297 24.8281 378.234 23.1719C 377.203 21.5156 375.859 20.1875 374.203 19.1875C 372.578 18.1875 370.547 17.6875 368.109 17.6875C 365.953 17.6875 364.094 18.0625 362.531 18.8125C 361 19.5312 359.688 20.5156 358.594 21.7656C 357.531 22.9844 356.672 24.4062 356.016 26.0312C 355.391 27.6563 354.891 29.375 354.516 31.1875C 354.172 32.9688 353.938 34.7812 353.812 36.625C 353.719 38.4375 353.672 40.1562 353.672 41.7812L 353.672 54.8594L 373.875 54.8594L 373.875 62.5938L 353.672 62.5938L 353.672 79L 335.062 79L 335.062 44.6875C 335.062 39.7812 335.844 35.2188 337.406 31C 338.969 26.7812 341.172 23.125 344.016 20.0312C 346.891 16.9062 350.328 14.4687 354.328 12.7188C 358.359 10.9375 362.844 10.0469 367.781 10.0469C 371.125 10.0469 374.25 10.5312 377.156 11.5C 380.094 12.4375 382.766 13.75 385.172 15.4375C 387.578 17.0937 389.719 19.0781 391.594 21.3906C 393.5 23.6719 395.078 26.1719 396.328 28.8906C 397.609 31.6094 398.578 34.4844 399.234 37.5156C 399.891 40.5469 400.188 43.6094 400.125 46.7031ZM 408 55.8438C 408 53.375 408.203 50.8125 408.609 48.1562C 409.047 45.5 409.656 42.8438 410.438 40.1875C 411.25 37.5312 412.219 34.9062 413.344 32.3125C 414.469 29.7188 415.734 27.2344 417.141 24.8594L 428.719 24.8594C 427.938 27.2031 427.234 29.6562 426.609 32.2188C 426.016 34.75 425.5 37.2969 425.062 39.8594C 424.656 42.3906 424.328 44.875 424.078 47.3125C 423.859 49.75 423.75 52.0156 423.75 54.1094C 423.75 55.3281 423.797 56.6406 423.891 58.0469C 424.016 59.4219 424.219 60.8125 424.5 62.2188C 424.781 63.5938 425.172 64.9219 425.672 66.2031C 426.203 67.4844 426.875 68.625 427.688 69.625C 428.5 70.5938 429.484 71.375 430.641 71.9688C 431.828 72.5312 433.219 72.8125 434.812 72.8125C 436.375 72.8125 437.766 72.4688 438.984 71.7812C 440.234 71.0625 441.328 70.1406 442.266 69.0156C 443.203 67.8594 444 66.5469 444.656 65.0781C 445.312 63.6094 445.844 62.1094 446.25 60.5781C 446.688 59.0156 447 57.5 447.188 56.0312C 447.406 54.5312 447.516 53.1875 447.516 52L 447.516 24.8594L 463.359 24.8594L 463.359 79L 457.266 79L 450 66.3906C 449.094 68.4844 447.984 70.3906 446.672 72.1094C 445.391 73.7969 443.922 75.25 442.266 76.4688C 440.609 77.6875 438.766 78.625 436.734 79.2812C 434.734 79.9375 432.562 80.2656 430.219 80.2656C 426.469 80.2656 423.203 79.6562 420.422 78.4375C 417.641 77.2188 415.328 75.5312 413.484 73.375C 411.641 71.2188 410.266 68.6562 409.359 65.6875C 408.453 62.6875 408 59.4062 408 55.8438ZM 531.141 79L 525.047 79L 518.016 67.2344C 517.328 69.2031 516.375 70.9844 515.156 72.5781C 513.969 74.1719 512.578 75.5469 510.984 76.7031C 509.422 77.8281 507.688 78.7031 505.781 79.3281C 503.906 79.9531 501.922 80.2656 499.828 80.2656C 495.703 80.2656 492.016 79.5312 488.766 78.0625C 485.516 76.5938 482.766 74.5938 480.516 72.0625C 478.266 69.5 476.547 66.5 475.359 63.0625C 474.172 59.625 473.578 55.9375 473.578 52C 473.578 48.0625 474.172 44.375 475.359 40.9375C 476.547 37.5 478.266 34.5156 480.516 31.9844C 482.766 29.4531 485.516 27.4531 488.766 25.9844C 492.016 24.5156 495.703 23.7812 499.828 23.7812C 502.984 23.7812 505.875 24.3906 508.5 25.6094C 511.156 26.8281 513.422 28.7344 515.297 31.3281L 515.297 4.9375L 531.141 4.9375L 531.141 79ZM 515.203 52C 515.203 50.75 515.109 49.375 514.922 47.875C 514.734 46.375 514.438 44.8594 514.031 43.3281C 513.625 41.7969 513.094 40.3125 512.438 38.875C 511.781 37.4375 510.969 36.1562 510 35.0312C 509.062 33.9062 507.953 33.0156 506.672 32.3594C 505.422 31.6719 503.984 31.3281 502.359 31.3281C 500.578 31.3281 499.031 31.6562 497.719 32.3125C 496.406 32.9375 495.281 33.7969 494.344 34.8906C 493.406 35.9531 492.625 37.1875 492 38.5938C 491.406 40 490.938 41.4688 490.594 43C 490.25 44.5312 490 46.0781 489.844 47.6406C 489.719 49.1719 489.656 50.625 489.656 52C 489.656 53.375 489.719 54.8438 489.844 56.4062C 490 57.9375 490.25 59.4688 490.594 61C 490.938 62.5312 491.406 64.0156 492 65.4531C 492.625 66.8594 493.406 68.1094 494.344 69.2031C 495.281 70.2656 496.406 71.125 497.719 71.7812C 499.031 72.4062 500.578 72.7188 502.359 72.7188C 504.141 72.7188 505.703 72.4062 507.047 71.7812C 508.391 71.1562 509.531 70.3125 510.469 69.25C 511.438 68.1562 512.219 66.9219 512.812 65.5469C 513.438 64.1406 513.922 62.6719 514.266 61.1406C 514.609 59.5781 514.844 58.0156 514.969 56.4531C 515.125 54.8906 515.203 53.4062 515.203 52ZM 561 11.7812C 561 12.9687 560.766 14.0937 560.297 15.1562C 559.859 16.2188 559.25 17.1406 558.469 17.9219C 557.688 18.7031 556.766 19.3281 555.703 19.7969C 554.641 20.2344 553.516 20.4531 552.328 20.4531C 551.141 20.4531 550.016 20.2344 548.953 19.7969C 547.922 19.3281 547.016 18.7031 546.234 17.9219C 545.453 17.1406 544.828 16.2188 544.359 15.1562C 543.922 14.0937 543.703 12.9687 543.703 11.7812C 543.703 10.5938 543.922 9.48438 544.359 8.45312C 544.828 7.39062 545.453 6.46875 546.234 5.6875C 547.016 4.90625 547.922 4.29687 548.953 3.85938C 550.016 3.39062 551.141 3.15625 552.328 3.15625C 553.516 3.15625 554.641 3.39062 555.703 3.85938C 556.766 4.29687 557.688 4.90625 558.469 5.6875C 559.25 6.46875 559.859 7.39062 560.297 8.45312C 560.766 9.48438 561 10.5938 561 11.7812ZM 560.297 79L 544.406 79L 544.406 24.9062L 560.297 24.9062L 560.297 79ZM 630.797 51.8125C 630.797 54.625 630.422 57.2656 629.672 59.7344C 628.922 62.2031 627.875 64.4844 626.531 66.5781C 625.219 68.6719 623.625 70.5625 621.75 72.25C 619.875 73.9062 617.812 75.3125 615.562 76.4688C 613.344 77.625 610.953 78.5156 608.391 79.1406C 605.859 79.7656 603.25 80.0781 600.562 80.0781C 597.875 80.0781 595.266 79.7656 592.734 79.1406C 590.203 78.5156 587.812 77.625 585.562 76.4688C 583.344 75.3125 581.297 73.9062 579.422 72.25C 577.547 70.5625 575.938 68.6719 574.594 66.5781C 573.281 64.4844 572.25 62.2031 571.5 59.7344C 570.75 57.2344 570.375 54.5938 570.375 51.8125C 570.375 49.0312 570.75 46.4062 571.5 43.9375C 572.25 41.4375 573.281 39.1406 574.594 37.0469C 575.938 34.9531 577.547 33.0781 579.422 31.4219C 581.297 29.7344 583.344 28.3125 585.562 27.1562C 587.812 26 590.203 25.1094 592.734 24.4844C 595.266 23.8594 597.875 23.5469 600.562 23.5469C 603.25 23.5469 605.859 23.8594 608.391 24.4844C 610.953 25.1094 613.344 26 615.562 27.1562C 617.812 28.3125 619.875 29.7344 621.75 31.4219C 623.625 33.0781 625.219 34.9531 626.531 37.0469C 627.875 39.1406 628.922 41.4375 629.672 43.9375C 630.422 46.4062 630.797 49.0312 630.797 51.8125ZM 614.672 51.8125C 614.672 50.3125 614.578 48.7344 614.391 47.0781C 614.234 45.3906 613.953 43.75 613.547 42.1562C 613.141 40.5312 612.578 38.9844 611.859 37.5156C 611.172 36.0156 610.312 34.7188 609.281 33.625C 608.25 32.5 607.016 31.6094 605.578 30.9531C 604.141 30.2656 602.469 29.9219 600.562 29.9219C 598.75 29.9219 597.141 30.2656 595.734 30.9531C 594.328 31.6406 593.094 32.5625 592.031 33.7188C 591 34.8438 590.125 36.1562 589.406 37.6562C 588.719 39.1562 588.156 40.7188 587.719 42.3438C 587.281 43.9375 586.969 45.5625 586.781 47.2188C 586.594 48.8438 586.5 50.375 586.5 51.8125C 586.5 53.25 586.594 54.7969 586.781 56.4531C 586.969 58.0781 587.281 59.7031 587.719 61.3281C 588.156 62.9531 588.719 64.5156 589.406 66.0156C 590.125 67.4844 591 68.7969 592.031 69.9531C 593.094 71.0781 594.328 71.9844 595.734 72.6719C 597.141 73.3594 598.75 73.7031 600.562 73.7031C 602.438 73.7031 604.094 73.375 605.531 72.7188C 606.969 72.0312 608.203 71.125 609.234 70C 610.297 68.875 611.172 67.5781 611.859 66.1094C 612.547 64.6406 613.094 63.0938 613.5 61.4688C 613.938 59.8438 614.234 58.2031 614.391 56.5469C 614.578 54.8906 614.672 53.3125 614.672 51.8125Z"/>
<path id="path2_fill" d="M 62.9531 58.375C 62.9531 61.2812 62.5781 63.8438 61.8281 66.0625C 61.1094 68.2812 60.0781 70.2031 58.7344 71.8281C 57.4219 73.4531 55.8594 74.8125 54.0469 75.9062C 52.2344 77 50.25 77.875 48.0938 78.5312C 45.9688 79.1875 43.7031 79.6562 41.2969 79.9375C 38.9219 80.2188 36.5 80.3594 34.0312 80.3594C 30.7812 80.3594 27.7812 80.1094 25.0312 79.6094C 22.2812 79.1406 19.6875 78.3906 17.25 77.3594C 14.8438 76.2969 12.5156 74.9375 10.2656 73.2812C 8.04688 71.625 5.82812 69.6094 3.60938 67.2344L 13.1719 57.5312C 14.0469 59.6875 15.25 61.6875 16.7812 63.5312C 18.3125 65.3438 19.9844 66.9062 21.7969 68.2188C 23.6406 69.5312 25.5469 70.5625 27.5156 71.3125C 29.4844 72.0625 31.3438 72.4375 33.0938 72.4375C 35.1562 72.4375 37.0938 72.2969 38.9062 72.0156C 40.7188 71.7031 42.2969 71.2031 43.6406 70.5156C 44.9844 69.8281 46.0312 68.9219 46.7812 67.7969C 47.5625 66.6406 47.9531 65.2031 47.9531 63.4844C 47.9531 62.1719 47.6562 61.0469 47.0625 60.1094C 46.4688 59.1719 45.6875 58.375 44.7188 57.7188C 43.7812 57.0312 42.7031 56.4531 41.4844 55.9844C 40.2656 55.5156 39.0156 55.125 37.7344 54.8125C 36.4844 54.4688 35.25 54.1719 34.0312 53.9219C 32.8125 53.6406 31.7344 53.3594 30.7969 53.0781C 28.9531 52.5469 27.0312 51.9844 25.0312 51.3906C 23.0312 50.7656 21.0625 50.0625 19.125 49.2812C 17.1875 48.5 15.3438 47.6094 13.5938 46.6094C 11.875 45.5781 10.3594 44.375 9.04688 43C 7.73438 41.5938 6.6875 39.9844 5.90625 38.1719C 5.125 36.3281 4.73438 34.2188 4.73438 31.8438C 4.73438 29 5.07812 26.4844 5.76562 24.2969C 6.48438 22.0781 7.48438 20.1563 8.76562 18.5312C 10.0469 16.9062 11.5625 15.5469 13.3125 14.4531C 15.0625 13.3281 16.9844 12.4375 19.0781 11.7812C 21.1719 11.0937 23.3906 10.6094 25.7344 10.3281C 28.1094 10.0156 30.5312 9.85938 33 9.85938C 36.375 9.85938 39.4375 10.1719 42.1875 10.7969C 44.9688 11.4219 47.5312 12.3125 49.875 13.4688C 52.2188 14.625 54.3594 16.0156 56.2969 17.6406C 58.2656 19.2344 60.1094 21.0156 61.8281 22.9844L 52.2656 32.6875C 51.5156 30.4375 50.4688 28.4063 49.125 26.5938C 47.8125 24.7812 46.3438 23.2344 44.7188 21.9531C 43.0938 20.6406 41.3906 19.6406 39.6094 18.9531C 37.8281 18.2344 36.1094 17.875 34.4531 17.875C 32.2969 17.875 30.3125 18.0312 28.5 18.3438C 26.6875 18.625 25.125 19.1094 23.8125 19.7969C 22.5312 20.4531 21.5312 21.3594 20.8125 22.5156C 20.0938 23.6406 19.7344 25.0469 19.7344 26.7344C 19.7344 28.0781 20 29.2188 20.5312 30.1562C 21.0625 31.0938 21.7656 31.8906 22.6406 32.5469C 23.5469 33.2031 24.5625 33.75 25.6875 34.1875C 26.8125 34.5938 27.9688 34.9531 29.1562 35.2656C 30.375 35.5781 31.5625 35.8594 32.7188 36.1094C 33.9062 36.3281 34.9844 36.5781 35.9531 36.8594C 37.8281 37.3906 39.7969 37.9531 41.8594 38.5469C 43.9219 39.1406 45.9531 39.8438 47.9531 40.6562C 49.9531 41.4375 51.8594 42.3438 53.6719 43.375C 55.4844 44.4062 57.0781 45.6406 58.4531 47.0781C 59.8281 48.4844 60.9219 50.125 61.7344 52C 62.5469 53.8438 62.9531 55.9688 62.9531 58.375ZM 127.5 79L 111.656 79L 111.656 72.5312C 109.781 75.0938 107.516 77 104.859 78.25C 102.234 79.4688 99.3438 80.0781 96.1875 80.0781C 92.0625 80.0781 88.375 79.3438 85.125 77.875C 81.875 76.4062 79.125 74.4062 76.875 71.875C 74.625 69.3125 72.9062 66.3125 71.7188 62.875C 70.5312 59.4375 69.9375 55.75 69.9375 51.8125C 69.9375 47.875 70.5312 44.1875 71.7188 40.75C 72.9062 37.3125 74.625 34.3281 76.875 31.7969C 79.125 29.2344 81.875 27.2187 85.125 25.75C 88.375 24.2813 92.0625 23.5469 96.1875 23.5469C 98.2812 23.5469 100.266 23.8594 102.141 24.4844C 104.047 25.1094 105.781 26 107.344 27.1562C 108.938 28.2812 110.328 29.6562 111.516 31.2812C 112.734 32.875 113.688 34.6562 114.375 36.625L 121.406 24.8594L 127.5 24.8594L 127.5 79ZM 111.562 51.8125C 111.562 50.4062 111.484 48.9219 111.328 47.3594C 111.203 45.7969 110.969 44.25 110.625 42.7188C 110.281 41.1875 109.797 39.7344 109.172 38.3594C 108.578 36.9531 107.797 35.7188 106.828 34.6562C 105.891 33.5625 104.75 32.7031 103.406 32.0781C 102.062 31.4531 100.5 31.1406 98.7188 31.1406C 96.9375 31.1406 95.3906 31.4688 94.0781 32.125C 92.7656 32.75 91.6406 33.6094 90.7031 34.7031C 89.7656 35.7656 88.9844 37 88.3594 38.4062C 87.7656 39.8125 87.2969 41.2812 86.9531 42.8125C 86.6094 44.3438 86.3594 45.8906 86.2031 47.4531C 86.0781 48.9844 86.0156 50.4375 86.0156 51.8125C 86.0156 53.1875 86.0781 54.6562 86.2031 56.2188C 86.3594 57.7812 86.6094 59.3281 86.9531 60.8594C 87.2969 62.3906 87.7656 63.8594 88.3594 65.2656C 88.9844 66.6719 89.7656 67.9219 90.7031 69.0156C 91.6406 70.0781 92.7656 70.9375 94.0781 71.5938C 95.3906 72.2188 96.9375 72.5312 98.7188 72.5312C 100.344 72.5312 101.781 72.2031 103.031 71.5469C 104.312 70.8594 105.422 69.9531 106.359 68.8281C 107.328 67.7031 108.141 66.4219 108.797 64.9844C 109.453 63.5469 109.984 62.0625 110.391 60.5312C 110.797 59 111.094 57.4844 111.281 55.9844C 111.469 54.4531 111.562 53.0625 111.562 51.8125ZM 168.609 79L 154.359 79L 134.672 24.8594L 150.516 24.8594L 164.953 67.9844L 178.969 24.8594L 189.938 24.8594L 168.609 79ZM 224.484 79L 210.234 79L 190.547 24.8594L 206.391 24.8594L 220.828 67.9844L 234.844 24.8594L 245.812 24.8594L 224.484 79ZM 300.984 24.8594L 281.297 72.4844C 279.047 77.9219 276.531 83.2969 273.75 88.6094C 271 93.9531 268.016 99.0781 264.797 103.984L 258.609 100.234C 259.391 98.8281 260.312 97.2031 261.375 95.3594C 262.438 93.5156 263.484 91.6094 264.516 89.6406C 265.547 87.6719 266.5 85.7188 267.375 83.7812C 268.25 81.875 268.922 80.125 269.391 78.5312L 245.719 24.8594L 261.562 24.8594L 277.641 61.4688L 290.016 24.8594L 300.984 24.8594Z"/>
</defs>
</svg>
