<svg width="457" height="53" viewBox="0 0 457 53" version="1.1" xmlns="http://www.w3.org/2000/svg" xmlns:xlink="http://www.w3.org/1999/xlink">
<title>SavvyAudiophiles</title>
<desc>Created using Figma</desc>
<g id="Canvas" transform="translate(146 251)">
<g id="SavvyAudiophiles">
<g id="SavvyAudiophiles">
<use xlink:href="#path0_fill" transform="translate(-147 -251)" fill="#FFFFFF"/>
</g>
</g>
</g>
<defs>
<path id="path0_fill" d="M 31.4766 29.6875C 31.4766 31.1406 31.2891 32.4219 30.9141 33.5312C 30.5547 34.6406 30.0391 35.6016 29.3672 36.4141C 28.7109 37.2266 27.9297 37.9062 27.0234 38.4531C 26.1172 39 25.125 39.4375 24.0469 39.7656C 22.9844 40.0938 21.8516 40.3281 20.6484 40.4688C 19.4609 40.6094 18.25 40.6797 17.0156 40.6797C 15.3906 40.6797 13.8906 40.5547 12.5156 40.3047C 11.1406 40.0703 9.84375 39.6953 8.625 39.1797C 7.42188 38.6484 6.25781 37.9688 5.13281 37.1406C 4.02344 36.3125 2.91406 35.3047 1.80469 34.1172L 6.58594 29.2656C 7.02344 30.3438 7.625 31.3438 8.39062 32.2656C 9.15625 33.1719 9.99219 33.9531 10.8984 34.6094C 11.8203 35.2656 12.7734 35.7812 13.7578 36.1562C 14.7422 36.5312 15.6719 36.7188 16.5469 36.7188C 17.5781 36.7188 18.5469 36.6484 19.4531 36.5078C 20.3594 36.3516 21.1484 36.1016 21.8203 35.7578C 22.4922 35.4141 23.0156 34.9609 23.3906 34.3984C 23.7812 33.8203 23.9766 33.1016 23.9766 32.2422C 23.9766 31.5859 23.8281 31.0234 23.5312 30.5547C 23.2344 30.0859 22.8438 29.6875 22.3594 29.3594C 21.8906 29.0156 21.3516 28.7266 20.7422 28.4922C 20.1328 28.2578 19.5078 28.0625 18.8672 27.9062C 18.2422 27.7344 17.625 27.5859 17.0156 27.4609C 16.4062 27.3203 15.8672 27.1797 15.3984 27.0391C 14.4766 26.7734 13.5156 26.4922 12.5156 26.1953C 11.5156 25.8828 10.5312 25.5312 9.5625 25.1406C 8.59375 24.75 7.67188 24.3047 6.79688 23.8047C 5.9375 23.2891 5.17969 22.6875 4.52344 22C 3.86719 21.2969 3.34375 20.4922 2.95312 19.5859C 2.5625 18.6641 2.36719 17.6094 2.36719 16.4219C 2.36719 15 2.53906 13.7422 2.88281 12.6484C 3.24219 11.5391 3.74219 10.5781 4.38281 9.76562C 5.02344 8.95312 5.78125 8.27344 6.65625 7.72656C 7.53125 7.16406 8.49219 6.71875 9.53906 6.39062C 10.5859 6.04687 11.6953 5.80469 12.8672 5.66406C 14.0547 5.50781 15.2656 5.42969 16.5 5.42969C 18.1875 5.42969 19.7188 5.58594 21.0938 5.89844C 22.4844 6.21094 23.7656 6.65625 24.9375 7.23438C 26.1094 7.8125 27.1797 8.50781 28.1484 9.32031C 29.1328 10.1172 30.0547 11.0078 30.9141 11.9922L 26.1328 16.8438C 25.7578 15.7188 25.2344 14.7031 24.5625 13.7969C 23.9062 12.8906 23.1719 12.1172 22.3594 11.4766C 21.5469 10.8203 20.6953 10.3203 19.8047 9.97656C 18.9141 9.61719 18.0547 9.4375 17.2266 9.4375C 16.1484 9.4375 15.1562 9.51562 14.25 9.67188C 13.3438 9.8125 12.5625 10.0547 11.9062 10.3984C 11.2656 10.7266 10.7656 11.1797 10.4062 11.7578C 10.0469 12.3203 9.86719 13.0234 9.86719 13.8672C 9.86719 14.5391 10 15.1094 10.2656 15.5781C 10.5312 16.0469 10.8828 16.4453 11.3203 16.7734C 11.7734 17.1016 12.2812 17.375 12.8438 17.5938C 13.4062 17.7969 13.9844 17.9766 14.5781 18.1328C 15.1875 18.2891 15.7812 18.4297 16.3594 18.5547C 16.9531 18.6641 17.4922 18.7891 17.9766 18.9297C 18.9141 19.1953 19.8984 19.4766 20.9297 19.7734C 21.9609 20.0703 22.9766 20.4219 23.9766 20.8281C 24.9766 21.2188 25.9297 21.6719 26.8359 22.1875C 27.7422 22.7031 28.5391 23.3203 29.2266 24.0391C 29.9141 24.7422 30.4609 25.5625 30.8672 26.5C 31.2734 27.4219 31.4766 28.4844 31.4766 29.6875ZM 63.75 40L 55.8281 40L 55.8281 36.7656C 54.8906 38.0469 53.7578 39 52.4297 39.625C 51.1172 40.2344 49.6719 40.5391 48.0938 40.5391C 46.0312 40.5391 44.1875 40.1719 42.5625 39.4375C 40.9375 38.7031 39.5625 37.7031 38.4375 36.4375C 37.3125 35.1562 36.4531 33.6562 35.8594 31.9375C 35.2656 30.2188 34.9688 28.375 34.9688 26.4062C 34.9688 24.4375 35.2656 22.5938 35.8594 20.875C 36.4531 19.1562 37.3125 17.6641 38.4375 16.3984C 39.5625 15.1172 40.9375 14.1094 42.5625 13.375C 44.1875 12.6406 46.0312 12.2734 48.0938 12.2734C 49.1406 12.2734 50.1328 12.4297 51.0703 12.7422C 52.0234 13.0547 52.8906 13.5 53.6719 14.0781C 54.4688 14.6406 55.1641 15.3281 55.7578 16.1406C 56.3672 16.9375 56.8438 17.8281 57.1875 18.8125L 60.7031 12.9297L 63.75 12.9297L 63.75 40ZM 55.7812 26.4062C 55.7812 25.7031 55.7422 24.9609 55.6641 24.1797C 55.6016 23.3984 55.4844 22.625 55.3125 21.8594C 55.1406 21.0938 54.8984 20.3672 54.5859 19.6797C 54.2891 18.9766 53.8984 18.3594 53.4141 17.8281C 52.9453 17.2812 52.375 16.8516 51.7031 16.5391C 51.0312 16.2266 50.25 16.0703 49.3594 16.0703C 48.4688 16.0703 47.6953 16.2344 47.0391 16.5625C 46.3828 16.875 45.8203 17.3047 45.3516 17.8516C 44.8828 18.3828 44.4922 19 44.1797 19.7031C 43.8828 20.4062 43.6484 21.1406 43.4766 21.9062C 43.3047 22.6719 43.1797 23.4453 43.1016 24.2266C 43.0391 24.9922 43.0078 25.7188 43.0078 26.4062C 43.0078 27.0938 43.0391 27.8281 43.1016 28.6094C 43.1797 29.3906 43.3047 30.1641 43.4766 30.9297C 43.6484 31.6953 43.8828 32.4297 44.1797 33.1328C 44.4922 33.8359 44.8828 34.4609 45.3516 35.0078C 45.8203 35.5391 46.3828 35.9688 47.0391 36.2969C 47.6953 36.6094 48.4688 36.7656 49.3594 36.7656C 50.1719 36.7656 50.8906 36.6016 51.5156 36.2734C 52.1562 35.9297 52.7109 35.4766 53.1797 34.9141C 53.6641 34.3516 54.0703 33.7109 54.3984 32.9922C 54.7266 32.2734 54.9922 31.5312 55.1953 30.7656C 55.3984 30 55.5469 29.2422 55.6406 28.4922C 55.7344 27.7266 55.7812 27.0312 55.7812 26.4062ZM 84.3047 40L 77.1797 40L 67.3359 12.9297L 75.2578 12.9297L 82.4766 34.4922L 89.4844 12.9297L 94.9688 12.9297L 84.3047 40ZM 112.242 40L 105.117 40L 95.2734 12.9297L 103.195 12.9297L 110.414 34.4922L 117.422 12.9297L 122.906 12.9297L 112.242 40ZM 150.492 12.9297L 140.648 36.7422C 139.523 39.4609 138.266 42.1484 136.875 44.8047C 135.5 47.4766 134.008 50.0391 132.398 52.4922L 129.305 50.6172C 129.695 49.9141 130.156 49.1016 130.688 48.1797C 131.219 47.2578 131.742 46.3047 132.258 45.3203C 132.773 44.3359 133.25 43.3594 133.688 42.3906C 134.125 41.4375 134.461 40.5625 134.695 39.7656L 122.859 12.9297L 130.781 12.9297L 138.82 31.2344L 145.008 12.9297L 150.492 12.9297ZM 186.469 23.8516L 186.469 24.2969C 186.438 25.6094 186.297 26.9688 186.047 28.375C 185.812 29.7812 185.477 31.1875 185.039 32.5938C 184.602 34 184.078 35.3906 183.469 36.7656C 182.859 38.1406 182.172 39.4531 181.406 40.7031C 180.656 41.9688 179.844 43.1484 178.969 44.2422C 178.094 45.3516 177.172 46.3281 176.203 47.1719L 172.711 45.1562C 173.258 44.2344 173.75 43.2266 174.188 42.1328C 174.641 41.0547 175.047 39.9219 175.406 38.7344C 175.766 37.5469 176.07 36.3281 176.32 35.0781C 176.586 33.8281 176.805 32.5859 176.977 31.3516C 177.148 30.1172 177.273 28.9062 177.352 27.7188C 177.445 26.5156 177.492 25.375 177.492 24.2969C 177.492 23.4531 177.484 22.5 177.469 21.4375C 177.469 20.3594 177.406 19.2656 177.281 18.1562C 177.172 17.0469 176.984 15.9688 176.719 14.9219C 176.453 13.8594 176.055 12.9141 175.523 12.0859C 175.008 11.2578 174.336 10.5937 173.508 10.0938C 172.695 9.59375 171.68 9.34375 170.461 9.34375C 169.383 9.34375 168.453 9.53125 167.672 9.90625C 166.906 10.2656 166.25 10.7578 165.703 11.3828C 165.172 11.9922 164.742 12.7031 164.414 13.5156C 164.102 14.3281 163.852 15.1875 163.664 16.0938C 163.492 16.9844 163.375 17.8906 163.312 18.8125C 163.266 19.7188 163.242 20.5781 163.242 21.3906L 163.242 27.9297L 173.344 27.9297L 173.344 31.7969L 163.242 31.7969L 163.242 40L 153.938 40L 153.938 22.8438C 153.938 20.3906 154.328 18.1094 155.109 16C 155.891 13.8906 156.992 12.0625 158.414 10.5156C 159.852 8.95312 161.57 7.73437 163.57 6.85938C 165.586 5.96875 167.828 5.52344 170.297 5.52344C 171.969 5.52344 173.531 5.76562 174.984 6.25C 176.453 6.71875 177.789 7.375 178.992 8.21875C 180.195 9.04687 181.266 10.0391 182.203 11.1953C 183.156 12.3359 183.945 13.5859 184.57 14.9453C 185.211 16.3047 185.695 17.7422 186.023 19.2578C 186.352 20.7734 186.5 22.3047 186.469 23.8516ZM 190.406 28.4219C 190.406 27.1875 190.508 25.9062 190.711 24.5781C 190.93 23.25 191.234 21.9219 191.625 20.5938C 192.031 19.2656 192.516 17.9531 193.078 16.6562C 193.641 15.3594 194.273 14.1172 194.977 12.9297L 200.766 12.9297C 200.375 14.1016 200.023 15.3281 199.711 16.6094C 199.414 17.875 199.156 19.1484 198.938 20.4297C 198.734 21.6953 198.57 22.9375 198.445 24.1562C 198.336 25.375 198.281 26.5078 198.281 27.5547C 198.281 28.1641 198.305 28.8203 198.352 29.5234C 198.414 30.2109 198.516 30.9062 198.656 31.6094C 198.797 32.2969 198.992 32.9609 199.242 33.6016C 199.508 34.2422 199.844 34.8125 200.25 35.3125C 200.656 35.7969 201.148 36.1875 201.727 36.4844C 202.32 36.7656 203.016 36.9062 203.812 36.9062C 204.594 36.9062 205.289 36.7344 205.898 36.3906C 206.523 36.0312 207.07 35.5703 207.539 35.0078C 208.008 34.4297 208.406 33.7734 208.734 33.0391C 209.062 32.3047 209.328 31.5547 209.531 30.7891C 209.75 30.0078 209.906 29.25 210 28.5156C 210.109 27.7656 210.164 27.0938 210.164 26.5L 210.164 12.9297L 218.086 12.9297L 218.086 40L 215.039 40L 211.406 33.6953C 210.953 34.7422 210.398 35.6953 209.742 36.5547C 209.102 37.3984 208.367 38.125 207.539 38.7344C 206.711 39.3438 205.789 39.8125 204.773 40.1406C 203.773 40.4688 202.688 40.6328 201.516 40.6328C 199.641 40.6328 198.008 40.3281 196.617 39.7188C 195.227 39.1094 194.07 38.2656 193.148 37.1875C 192.227 36.1094 191.539 34.8281 191.086 33.3438C 190.633 31.8438 190.406 30.2031 190.406 28.4219ZM 251.977 40L 248.93 40L 245.414 34.1172C 245.07 35.1016 244.594 35.9922 243.984 36.7891C 243.391 37.5859 242.695 38.2734 241.898 38.8516C 241.117 39.4141 240.25 39.8516 239.297 40.1641C 238.359 40.4766 237.367 40.6328 236.32 40.6328C 234.258 40.6328 232.414 40.2656 230.789 39.5312C 229.164 38.7969 227.789 37.7969 226.664 36.5312C 225.539 35.25 224.68 33.75 224.086 32.0312C 223.492 30.3125 223.195 28.4688 223.195 26.5C 223.195 24.5312 223.492 22.6875 224.086 20.9688C 224.68 19.25 225.539 17.7578 226.664 16.4922C 227.789 15.2266 229.164 14.2266 230.789 13.4922C 232.414 12.7578 234.258 12.3906 236.32 12.3906C 237.898 12.3906 239.344 12.6953 240.656 13.3047C 241.984 13.9141 243.117 14.8672 244.055 16.1641L 244.055 2.96875L 251.977 2.96875L 251.977 40ZM 244.008 26.5C 244.008 25.875 243.961 25.1875 243.867 24.4375C 243.773 23.6875 243.625 22.9297 243.422 22.1641C 243.219 21.3984 242.953 20.6562 242.625 19.9375C 242.297 19.2188 241.891 18.5781 241.406 18.0156C 240.938 17.4531 240.383 17.0078 239.742 16.6797C 239.117 16.3359 238.398 16.1641 237.586 16.1641C 236.695 16.1641 235.922 16.3281 235.266 16.6562C 234.609 16.9688 234.047 17.3984 233.578 17.9453C 233.109 18.4766 232.719 19.0938 232.406 19.7969C 232.109 20.5 231.875 21.2344 231.703 22C 231.531 22.7656 231.406 23.5391 231.328 24.3203C 231.266 25.0859 231.234 25.8125 231.234 26.5C 231.234 27.1875 231.266 27.9219 231.328 28.7031C 231.406 29.4688 231.531 30.2344 231.703 31C 231.875 31.7656 232.109 32.5078 232.406 33.2266C 232.719 33.9297 233.109 34.5547 233.578 35.1016C 234.047 35.6328 234.609 36.0625 235.266 36.3906C 235.922 36.7031 236.695 36.8594 237.586 36.8594C 238.477 36.8594 239.258 36.7031 239.93 36.3906C 240.602 36.0781 241.172 35.6562 241.641 35.125C 242.125 34.5781 242.516 33.9609 242.812 33.2734C 243.125 32.5703 243.367 31.8359 243.539 31.0703C 243.711 30.2891 243.828 29.5078 243.891 28.7266C 243.969 27.9453 244.008 27.2031 244.008 26.5ZM 266.906 6.39062C 266.906 6.98437 266.789 7.54687 266.555 8.07812C 266.336 8.60938 266.031 9.07031 265.641 9.46094C 265.25 9.85156 264.789 10.1641 264.258 10.3984C 263.727 10.6172 263.164 10.7266 262.57 10.7266C 261.977 10.7266 261.414 10.6172 260.883 10.3984C 260.367 10.1641 259.914 9.85156 259.523 9.46094C 259.133 9.07031 258.82 8.60938 258.586 8.07812C 258.367 7.54687 258.258 6.98437 258.258 6.39062C 258.258 5.79688 258.367 5.24219 258.586 4.72656C 258.82 4.19531 259.133 3.73438 259.523 3.34375C 259.914 2.95312 260.367 2.64844 260.883 2.42969C 261.414 2.19531 261.977 2.07812 262.57 2.07812C 263.164 2.07812 263.727 2.19531 264.258 2.42969C 264.789 2.64844 265.25 2.95312 265.641 3.34375C 266.031 3.73438 266.336 4.19531 266.555 4.72656C 266.789 5.24219 266.906 5.79688 266.906 6.39062ZM 266.555 40L 258.609 40L 258.609 12.9531L 266.555 12.9531L 266.555 40ZM 301.805 26.4062C 301.805 27.8125 301.617 29.1328 301.242 30.3672C 300.867 31.6016 300.344 32.7422 299.672 33.7891C 299.016 34.8359 298.219 35.7812 297.281 36.625C 296.344 37.4531 295.312 38.1562 294.188 38.7344C 293.078 39.3125 291.883 39.7578 290.602 40.0703C 289.336 40.3828 288.031 40.5391 286.688 40.5391C 285.344 40.5391 284.039 40.3828 282.773 40.0703C 281.508 39.7578 280.312 39.3125 279.188 38.7344C 278.078 38.1562 277.055 37.4531 276.117 36.625C 275.18 35.7812 274.375 34.8359 273.703 33.7891C 273.047 32.7422 272.531 31.6016 272.156 30.3672C 271.781 29.1172 271.594 27.7969 271.594 26.4062C 271.594 25.0156 271.781 23.7031 272.156 22.4688C 272.531 21.2188 273.047 20.0703 273.703 19.0234C 274.375 17.9766 275.18 17.0391 276.117 16.2109C 277.055 15.3672 278.078 14.6563 279.188 14.0781C 280.312 13.5 281.508 13.0547 282.773 12.7422C 284.039 12.4297 285.344 12.2734 286.688 12.2734C 288.031 12.2734 289.336 12.4297 290.602 12.7422C 291.883 13.0547 293.078 13.5 294.188 14.0781C 295.312 14.6563 296.344 15.3672 297.281 16.2109C 298.219 17.0391 299.016 17.9766 299.672 19.0234C 300.344 20.0703 300.867 21.2188 301.242 22.4688C 301.617 23.7031 301.805 25.0156 301.805 26.4062ZM 293.742 26.4062C 293.742 25.6562 293.695 24.8672 293.602 24.0391C 293.523 23.1953 293.383 22.375 293.18 21.5781C 292.977 20.7656 292.695 19.9922 292.336 19.2578C 291.992 18.5078 291.562 17.8594 291.047 17.3125C 290.531 16.75 289.914 16.3047 289.195 15.9766C 288.477 15.6328 287.641 15.4609 286.688 15.4609C 285.781 15.4609 284.977 15.6328 284.273 15.9766C 283.57 16.3203 282.953 16.7812 282.422 17.3594C 281.906 17.9219 281.469 18.5781 281.109 19.3281C 280.766 20.0781 280.484 20.8594 280.266 21.6719C 280.047 22.4688 279.891 23.2812 279.797 24.1094C 279.703 24.9219 279.656 25.6875 279.656 26.4062C 279.656 27.125 279.703 27.8984 279.797 28.7266C 279.891 29.5391 280.047 30.3516 280.266 31.1641C 280.484 31.9766 280.766 32.7578 281.109 33.5078C 281.469 34.2422 281.906 34.8984 282.422 35.4766C 282.953 36.0391 283.57 36.4922 284.273 36.8359C 284.977 37.1797 285.781 37.3516 286.688 37.3516C 287.625 37.3516 288.453 37.1875 289.172 36.8594C 289.891 36.5156 290.508 36.0625 291.023 35.5C 291.555 34.9375 291.992 34.2891 292.336 33.5547C 292.68 32.8203 292.953 32.0469 293.156 31.2344C 293.375 30.4219 293.523 29.6016 293.602 28.7734C 293.695 27.9453 293.742 27.1562 293.742 26.4062ZM 335.602 26.4062C 335.602 28.375 335.305 30.2188 334.711 31.9375C 334.117 33.6562 333.258 35.1562 332.133 36.4375C 331.008 37.7031 329.633 38.7031 328.008 39.4375C 326.383 40.1719 324.539 40.5391 322.477 40.5391C 320.898 40.5391 319.445 40.2344 318.117 39.625C 316.805 39 315.68 38.0469 314.742 36.7656L 314.742 52.4922L 306.82 52.4922L 306.82 12.9297L 309.867 12.9297L 313.383 18.8125C 313.727 17.8281 314.195 16.9375 314.789 16.1406C 315.398 15.3281 316.094 14.6406 316.875 14.0781C 317.672 13.5 318.539 13.0547 319.477 12.7422C 320.43 12.4297 321.43 12.2734 322.477 12.2734C 324.539 12.2734 326.383 12.6406 328.008 13.375C 329.633 14.1094 331.008 15.1172 332.133 16.3984C 333.258 17.6641 334.117 19.1562 334.711 20.875C 335.305 22.5938 335.602 24.4375 335.602 26.4062ZM 327.562 26.4062C 327.562 25.7188 327.523 24.9922 327.445 24.2266C 327.383 23.4453 327.266 22.6719 327.094 21.9062C 326.922 21.1406 326.68 20.4062 326.367 19.7031C 326.07 19 325.688 18.3828 325.219 17.8516C 324.75 17.3047 324.18 16.875 323.508 16.5625C 322.852 16.2344 322.086 16.0703 321.211 16.0703C 320.305 16.0703 319.516 16.2266 318.844 16.5391C 318.188 16.8516 317.617 17.2812 317.133 17.8281C 316.664 18.3594 316.273 18.9766 315.961 19.6797C 315.664 20.3672 315.43 21.0938 315.258 21.8594C 315.086 22.625 314.961 23.3984 314.883 24.1797C 314.82 24.9609 314.789 25.7031 314.789 26.4062C 314.789 27.0312 314.836 27.7266 314.93 28.4922C 315.023 29.2422 315.172 30 315.375 30.7656C 315.578 31.5312 315.844 32.2734 316.172 32.9922C 316.5 33.7109 316.898 34.3516 317.367 34.9141C 317.852 35.4766 318.406 35.9297 319.031 36.2734C 319.672 36.6016 320.398 36.7656 321.211 36.7656C 322.102 36.7656 322.875 36.6094 323.531 36.2969C 324.188 35.9688 324.75 35.5391 325.219 35.0078C 325.688 34.4609 326.07 33.8359 326.367 33.1328C 326.68 32.4297 326.922 31.6953 327.094 30.9297C 327.266 30.1641 327.383 29.3906 327.445 28.6094C 327.523 27.8281 327.562 27.0938 327.562 26.4062ZM 368.391 24.4844C 368.391 26.3125 368.164 28.2188 367.711 30.2031C 367.273 32.1875 366.656 34.1328 365.859 36.0391C 365.062 37.9453 364.109 39.7344 363 41.4062C 361.891 43.0938 360.672 44.5469 359.344 45.7656L 356.367 44.1484C 356.789 43.3672 357.188 42.4922 357.562 41.5234C 357.938 40.5547 358.273 39.5312 358.57 38.4531C 358.883 37.3594 359.156 36.2344 359.391 35.0781C 359.641 33.9219 359.844 32.7812 360 31.6562C 360.172 30.5156 360.297 29.4141 360.375 28.3516C 360.469 27.2734 360.516 26.2734 360.516 25.3516C 360.516 24.7422 360.492 24.0938 360.445 23.4062C 360.398 22.7031 360.297 22.0078 360.141 21.3203C 360 20.6172 359.805 19.9453 359.555 19.3047C 359.305 18.6641 358.969 18.1016 358.547 17.6172C 358.141 17.1328 357.641 16.7422 357.047 16.4453C 356.469 16.1484 355.781 16 354.984 16C 354.203 16 353.508 16.1797 352.898 16.5391C 352.289 16.8828 351.75 17.3438 351.281 17.9219C 350.812 18.4844 350.406 19.1328 350.062 19.8672C 349.734 20.6016 349.461 21.3594 349.242 22.1406C 349.039 22.9062 348.891 23.6641 348.797 24.4141C 348.703 25.1641 348.656 25.8359 348.656 26.4297L 348.656 40L 340.711 40L 340.711 2.96875L 348.633 2.96875L 348.633 16.9141C 349.648 15.4297 350.891 14.2891 352.359 13.4922C 353.844 12.6797 355.484 12.2734 357.281 12.2734C 359.156 12.2734 360.789 12.5781 362.18 13.1875C 363.57 13.7969 364.727 14.6484 365.648 15.7422C 366.57 16.8203 367.258 18.1094 367.711 19.6094C 368.164 21.0938 368.391 22.7188 368.391 24.4844ZM 381.938 6.39062C 381.938 6.98437 381.82 7.54687 381.586 8.07812C 381.367 8.60938 381.062 9.07031 380.672 9.46094C 380.281 9.85156 379.82 10.1641 379.289 10.3984C 378.758 10.6172 378.195 10.7266 377.602 10.7266C 377.008 10.7266 376.445 10.6172 375.914 10.3984C 375.398 10.1641 374.945 9.85156 374.555 9.46094C 374.164 9.07031 373.852 8.60938 373.617 8.07812C 373.398 7.54687 373.289 6.98437 373.289 6.39062C 373.289 5.79688 373.398 5.24219 373.617 4.72656C 373.852 4.19531 374.164 3.73438 374.555 3.34375C 374.945 2.95312 375.398 2.64844 375.914 2.42969C 376.445 2.19531 377.008 2.07812 377.602 2.07812C 378.195 2.07812 378.758 2.19531 379.289 2.42969C 379.82 2.64844 380.281 2.95312 380.672 3.34375C 381.062 3.73438 381.367 4.19531 381.586 4.72656C 381.82 5.24219 381.938 5.79688 381.938 6.39062ZM 381.586 40L 373.641 40L 373.641 12.9531L 381.586 12.9531L 381.586 40ZM 396.164 40L 388.242 40L 388.242 0.460938L 391.289 0.460938L 396.164 8.6875L 396.164 40ZM 409.289 27.1562C 410.258 27.375 411.227 27.5469 412.195 27.6719C 413.164 27.7969 414.141 27.8594 415.125 27.8594C 416.156 27.8594 417.109 27.7656 417.984 27.5781C 418.875 27.375 419.641 27.0469 420.281 26.5938C 420.938 26.125 421.453 25.5078 421.828 24.7422C 422.203 23.9766 422.391 23.0234 422.391 21.8828C 422.391 20.9609 422.266 20.1172 422.016 19.3516C 421.766 18.5859 421.391 17.9297 420.891 17.3828C 420.406 16.8359 419.805 16.4141 419.086 16.1172C 418.367 15.8047 417.531 15.6484 416.578 15.6484C 415.688 15.6484 414.883 15.8125 414.164 16.1406C 413.461 16.4688 412.836 16.9141 412.289 17.4766C 411.758 18.0234 411.297 18.6641 410.906 19.3984C 410.531 20.1328 410.219 20.8984 409.969 21.6953C 409.719 22.4922 409.539 23.2969 409.43 24.1094C 409.32 24.9219 409.266 25.6875 409.266 26.4062C 409.266 26.5312 409.266 26.6562 409.266 26.7812C 409.266 26.9062 409.273 27.0312 409.289 27.1562ZM 428.812 21.8125C 428.812 22.9219 428.633 23.9141 428.273 24.7891C 427.914 25.6484 427.422 26.4062 426.797 27.0625C 426.188 27.7188 425.477 28.2734 424.664 28.7266C 423.852 29.1797 422.984 29.5547 422.062 29.8516C 421.141 30.1328 420.188 30.3359 419.203 30.4609C 418.234 30.5859 417.289 30.6484 416.367 30.6484C 415.195 30.6484 414.039 30.5703 412.898 30.4141C 411.758 30.2422 410.633 29.9766 409.523 29.6172C 409.695 30.6484 409.969 31.6328 410.344 32.5703C 410.719 33.4922 411.219 34.3047 411.844 35.0078C 412.469 35.6953 413.234 36.2422 414.141 36.6484C 415.062 37.0547 416.148 37.2578 417.398 37.2578C 418.227 37.2578 419.016 37.1328 419.766 36.8828C 420.516 36.6328 421.203 36.2812 421.828 35.8281C 422.453 35.375 423 34.8359 423.469 34.2109C 423.953 33.5859 424.344 32.8906 424.641 32.125L 428.062 33.3906C 427.547 34.625 426.836 35.6953 425.93 36.6016C 425.039 37.4922 424.023 38.2344 422.883 38.8281C 421.758 39.4062 420.555 39.8359 419.273 40.1172C 418.008 40.3984 416.75 40.5391 415.5 40.5391C 413.438 40.5391 411.531 40.1953 409.781 39.5078C 408.031 38.8047 406.523 37.8281 405.258 36.5781C 403.992 35.3281 403 33.8359 402.281 32.1016C 401.562 30.3672 401.203 28.4688 401.203 26.4062C 401.203 24.3438 401.562 22.4453 402.281 20.7109C 403 18.9766 403.992 17.4844 405.258 16.2344C 406.523 14.9844 408.031 14.0156 409.781 13.3281C 411.531 12.625 413.438 12.2734 415.5 12.2734C 416.5 12.2734 417.523 12.3438 418.57 12.4844C 419.617 12.625 420.633 12.8516 421.617 13.1641C 422.602 13.4609 423.531 13.8516 424.406 14.3359C 425.281 14.8203 426.039 15.4219 426.68 16.1406C 427.336 16.8438 427.852 17.6641 428.227 18.6016C 428.617 19.5391 428.812 20.6094 428.812 21.8125ZM 457.055 31.3516C 457.055 32.5391 456.883 33.5938 456.539 34.5156C 456.195 35.4375 455.727 36.2422 455.133 36.9297C 454.539 37.6016 453.836 38.1719 453.023 38.6406C 452.211 39.0938 451.336 39.4609 450.398 39.7422C 449.477 40.0234 448.508 40.2266 447.492 40.3516C 446.477 40.4766 445.469 40.5391 444.469 40.5391C 443.125 40.5391 441.938 40.4531 440.906 40.2812C 439.875 40.1094 438.891 39.8359 437.953 39.4609C 437.016 39.0703 436.078 38.5703 435.141 37.9609C 434.219 37.3516 433.188 36.6094 432.047 35.7344L 436.664 31.9609C 437.086 32.7578 437.641 33.4844 438.328 34.1406C 439.031 34.7812 439.758 35.3359 440.508 35.8047C 441.258 36.2734 441.984 36.6328 442.688 36.8828C 443.391 37.1328 443.961 37.2578 444.398 37.2578C 444.758 37.2578 445.164 37.25 445.617 37.2344C 446.07 37.2031 446.531 37.1562 447 37.0938C 447.469 37.0156 447.93 36.9062 448.383 36.7656C 448.836 36.625 449.234 36.4375 449.578 36.2031C 449.938 35.9531 450.219 35.6484 450.422 35.2891C 450.641 34.9141 450.75 34.4688 450.75 33.9531C 450.75 33.4219 450.609 32.9609 450.328 32.5703C 450.062 32.1641 449.711 31.8125 449.273 31.5156C 448.836 31.2188 448.336 30.9688 447.773 30.7656C 447.211 30.5625 446.641 30.3828 446.062 30.2266C 445.5 30.0703 444.953 29.9375 444.422 29.8281C 443.891 29.7031 443.43 29.5859 443.039 29.4766C 442.32 29.2734 441.562 29.0703 440.766 28.8672C 439.969 28.6484 439.18 28.4062 438.398 28.1406C 437.617 27.8594 436.867 27.5312 436.148 27.1562C 435.445 26.7812 434.82 26.3359 434.273 25.8203C 433.742 25.2891 433.312 24.6719 432.984 23.9688C 432.672 23.25 432.516 22.4141 432.516 21.4609C 432.516 19.7109 432.859 18.25 433.547 17.0781C 434.25 15.8906 435.172 14.9453 436.312 14.2422C 437.453 13.5234 438.75 13.0156 440.203 12.7188C 441.656 12.4219 443.133 12.2734 444.633 12.2734C 445.664 12.2734 446.75 12.3828 447.891 12.6016C 449.031 12.8047 450.141 13.1172 451.219 13.5391C 452.297 13.9453 453.305 14.4453 454.242 15.0391C 455.18 15.6328 455.961 16.3125 456.586 17.0781L 451.969 20.875C 451.625 19.9375 451.172 19.1328 450.609 18.4609C 450.062 17.7891 449.461 17.2422 448.805 16.8203C 448.164 16.3828 447.5 16.0625 446.812 15.8594C 446.141 15.6562 445.516 15.5547 444.938 15.5547C 444.375 15.5547 443.742 15.5781 443.039 15.625C 442.336 15.6719 441.672 15.8047 441.047 16.0234C 440.438 16.2422 439.914 16.5781 439.477 17.0312C 439.055 17.4688 438.844 18.0781 438.844 18.8594C 438.844 19.4219 438.969 19.9062 439.219 20.3125C 439.484 20.7031 439.828 21.0469 440.25 21.3438C 440.672 21.625 441.148 21.8672 441.68 22.0703C 442.227 22.2578 442.781 22.4297 443.344 22.5859C 443.906 22.7266 444.453 22.8516 444.984 22.9609C 445.516 23.0703 445.992 23.1875 446.414 23.3125C 447.133 23.5156 447.891 23.7266 448.688 23.9453C 449.5 24.1484 450.297 24.3906 451.078 24.6719C 451.859 24.9375 452.609 25.2578 453.328 25.6328C 454.062 25.9922 454.703 26.4375 455.25 26.9688C 455.797 27.5 456.234 28.125 456.562 28.8438C 456.891 29.5469 457.055 30.3828 457.055 31.3516Z"/>
</defs>
</svg>
