<svg width="512" height="651" viewBox="0 0 512 651" version="1.1" xmlns="http://www.w3.org/2000/svg" xmlns:xlink="http://www.w3.org/1999/xlink">
<title>SavvyLens</title>
<desc>Created using Figma</desc>
<g id="Canvas" transform="translate(823 -611)">
<g id="SavvyLens">
<g id="SavvyLens_512">
<g id="Canvas">
<g id="SavvyLens 512">
<g id="Ellipse">
<g id="Vector">
<use xlink:href="#path0_fill" transform="translate(-823 611)" fill="#555555"/>
</g>
<mask id="mask0_alpha" mask-type="alpha">
<g id="mask0 outline ins">
<g id="Vector">
<use xlink:href="#path0_fill" transform="translate(-823 611)" fill="#FFFFFF"/>
</g>
</g>
</mask>
<g id="Group" mask="url(#mask0_alpha)">
<g id="Vector">
<use xlink:href="#path1_fill" transform="translate(-831 603)"/>
</g>
</g>
</g>
<g id="Ellipse">
<g id="Vector">
<use xlink:href="#path2_fill" transform="translate(-791 643)" fill="#555555"/>
</g>
<mask id="mask1_alpha" mask-type="alpha">
<g id="mask1 outline ins">
<g id="Vector">
<use xlink:href="#path2_fill" transform="translate(-791 643)" fill="#FFFFFF"/>
</g>
</g>
</mask>
<g id="Group" mask="url(#mask1_alpha)">
<g id="Vector">
<use xlink:href="#path3_fill" transform="translate(-797 637)"/>
</g>
</g>
</g>
<g id="Ellipse">
<g id="Vector">
<use xlink:href="#path4_fill" transform="translate(-775 659)" fill="#555555"/>
</g>
<mask id="mask2_alpha" mask-type="alpha">
<g id="mask2 outline ins">
<g id="Vector">
<use xlink:href="#path4_fill" transform="translate(-775 659)" fill="#FFFFFF"/>
</g>
</g>
</mask>
<g id="Group" mask="url(#mask2_alpha)">
<g id="Vector">
<use xlink:href="#path5_fill" transform="translate(-779 655)"/>
</g>
</g>
</g>
<g id="Ellipse">
<g id="Vector">
<use xlink:href="#path6_fill" transform="translate(-763 671)" fill="#555555"/>
</g>
<mask id="mask3_alpha" mask-type="alpha">
<g id="mask3 outline ins">
<g id="Vector">
<use xlink:href="#path6_fill" transform="translate(-763 671)" fill="#FFFFFF"/>
</g>
</g>
</mask>
<g id="Group" mask="url(#mask3_alpha)">
<g id="Vector">
<use xlink:href="#path7_fill" transform="translate(-765 669)"/>
</g>
</g>
</g>
<g id="Ellipse">
<g id="Vector">
<use xlink:href="#path8_fill" transform="translate(-755 679)" fill="#555555"/>
</g>
<mask id="mask4_alpha" mask-type="alpha">
<g id="mask4 outline ins">
<g id="Vector">
<use xlink:href="#path8_fill" transform="translate(-755 679)" fill="#FFFFFF"/>
</g>
</g>
</mask>
<g id="Group" mask="url(#mask4_alpha)">
<g id="Vector">
<use xlink:href="#path9_fill" transform="translate(-757 677)"/>
</g>
</g>
</g>
<g id="Ellipse">
<g id="Vector">
<use xlink:href="#path10_fill" transform="translate(-747 687)" fill="#555555"/>
</g>
<mask id="mask5_alpha" mask-type="alpha">
<g id="mask5 outline ins">
<g id="Vector">
<use xlink:href="#path10_fill" transform="translate(-747 687)" fill="#FFFFFF"/>
</g>
</g>
</mask>
<g id="Group" mask="url(#mask5_alpha)">
<g id="Vector">
<use xlink:href="#path11_fill" transform="translate(-749 685)"/>
</g>
</g>
</g>
<g id="Ellipse">
<g id="Vector">
<use xlink:href="#path12_fill" transform="translate(-727 707)" fill="#555555"/>
</g>
<mask id="mask6_alpha" mask-type="alpha">
<g id="mask6 outline ins">
<g id="Vector">
<use xlink:href="#path12_fill" transform="translate(-727 707)" fill="#FFFFFF"/>
</g>
</g>
</mask>
<g id="Group" mask="url(#mask6_alpha)">
<g id="Vector">
<use xlink:href="#path13_fill" transform="translate(-729 705)"/>
</g>
</g>
</g>
<g id="Ellipse">
<g id="Vector">
<use xlink:href="#path14_fill" transform="translate(-719 715)" fill="#555555"/>
</g>
<mask id="mask7_alpha" mask-type="alpha">
<g id="mask7 outline ins">
<g id="Vector">
<use xlink:href="#path14_fill" transform="translate(-719 715)" fill="#FFFFFF"/>
</g>
</g>
</mask>
<g id="Group" mask="url(#mask7_alpha)">
<g id="Vector">
<use xlink:href="#path15_fill" transform="translate(-721 713)"/>
</g>
</g>
</g>
<g id="Ellipse">
<g id="Vector">
<use xlink:href="#path16_fill" transform="translate(-711 723)" fill="#555555"/>
</g>
<mask id="mask8_alpha" mask-type="alpha">
<g id="mask8 outline ins">
<g id="Vector">
<use xlink:href="#path16_fill" transform="translate(-711 723)" fill="#FFFFFF"/>
</g>
</g>
</mask>
<g id="Group" mask="url(#mask8_alpha)">
<g id="Vector">
<use xlink:href="#path17_fill" transform="translate(-713 721)"/>
</g>
</g>
</g>
<g id="Ellipse">
<g id="Vector">
<use xlink:href="#path18_fill" transform="translate(-695 739)" fill="#555555"/>
</g>
<mask id="mask9_alpha" mask-type="alpha">
<g id="mask9 outline ins">
<g id="Vector">
<use xlink:href="#path18_fill" transform="translate(-695 739)" fill="#FFFFFF"/>
</g>
</g>
</mask>
<g id="Group" mask="url(#mask9_alpha)">
<g id="Vector">
<use xlink:href="#path19_fill" transform="translate(-697 737)"/>
</g>
</g>
</g>
<g id="Ellipse">
<g id="Vector">
<use xlink:href="#path20_fill" transform="translate(-679 755)" fill="#666666"/>
</g>
<mask id="mask10_alpha" mask-type="alpha">
<g id="mask10 outline ins">
<g id="Vector">
<use xlink:href="#path20_fill" transform="translate(-679 755)" fill="#FFFFFF"/>
</g>
</g>
</mask>
<g id="Group" mask="url(#mask10_alpha)">
<g id="Vector">
<use xlink:href="#path21_fill" transform="translate(-681 753)" fill="#222222"/>
</g>
</g>
</g>
<g id="Ellipse">
<g id="Vector">
<use xlink:href="#path22_fill" transform="translate(-663 771)" fill="#333333"/>
</g>
<mask id="mask11_alpha" mask-type="alpha">
<g id="mask11 outline ins">
<g id="Vector">
<use xlink:href="#path22_fill" transform="translate(-663 771)" fill="#FFFFFF"/>
</g>
</g>
</mask>
<g id="Group" mask="url(#mask11_alpha)">
<g id="Vector">
<use xlink:href="#path23_fill" transform="translate(-664 770)"/>
</g>
</g>
</g>
<g id="Ellipse">
<g id="Vector">
<use xlink:href="#path24_fill" transform="translate(-639 795)" fill="#777777"/>
</g>
<mask id="mask12_alpha" mask-type="alpha">
<g id="mask12 outline ins">
<g id="Vector">
<use xlink:href="#path24_fill" transform="translate(-639 795)" fill="#FFFFFF"/>
</g>
</g>
</mask>
<g id="Group" mask="url(#mask12_alpha)">
<g id="Vector">
<use xlink:href="#path25_fill" transform="translate(-640 794)" fill="#222222"/>
</g>
</g>
</g>
<g id="Polygon">
<g id="Vector">
<use xlink:href="#path26_fill" transform="matrix(5.55112e-17 -1 1 5.55112e-17 -599 894.713)" fill="#F0F0F0"/>
</g>
</g>
<g id="Ellipse 2">
<g id="Vector">
<use xlink:href="#path27_fill" transform="translate(-659 775)" fill="url(#paint40_linear)"/>
</g>
</g>
<g id="Ellipse 2">
<g id="Vector">
<use xlink:href="#path27_fill" transform="translate(-659 775)" fill="url(#paint41_linear)"/>
</g>
</g>
<g id="Ellipse 2">
<g id="Vector">
<use xlink:href="#path27_fill" transform="translate(-659 775)" fill="url(#paint42_radial)"/>
</g>
</g>
</g>
</g>
</g>
<g id="SavvyLens_128">
<g id="Canvas">
<g id="SavvyLens 128">
<g id="Ellipse">
<g id="Vector">
<use xlink:href="#path28_fill" transform="translate(-631 1134)" fill="#555555"/>
</g>
<mask id="mask13_alpha" mask-type="alpha">
<g id="mask0 outline ins">
<g id="Vector">
<use xlink:href="#path28_fill" transform="translate(-631 1134)" fill="#FFFFFF"/>
</g>
</g>
</mask>
<g id="Group" mask="url(#mask13_alpha)">
<g id="Vector">
<use xlink:href="#path29_fill" transform="translate(-633 1132)"/>
</g>
</g>
</g>
<g id="Ellipse">
<g id="Vector">
<use xlink:href="#path30_fill" transform="translate(-623 1142)" fill="#555555"/>
</g>
<mask id="mask14_alpha" mask-type="alpha">
<g id="mask1 outline ins">
<g id="Vector">
<use xlink:href="#path30_fill" transform="translate(-623 1142)" fill="#FFFFFF"/>
</g>
</g>
</mask>
<g id="Group" mask="url(#mask14_alpha)">
<g id="Vector">
<use xlink:href="#path31_fill" transform="translate(-625 1140)"/>
</g>
</g>
</g>
<g id="Ellipse">
<g id="Vector">
<use xlink:href="#path32_fill" transform="translate(-616 1149)" fill="#555555"/>
</g>
<mask id="mask15_alpha" mask-type="alpha">
<g id="mask2 outline ins">
<g id="Vector">
<use xlink:href="#path32_fill" transform="translate(-616 1149)" fill="#FFFFFF"/>
</g>
</g>
</mask>
<g id="Group" mask="url(#mask15_alpha)">
<g id="Vector">
<use xlink:href="#path33_fill" transform="translate(-617 1148)"/>
</g>
</g>
</g>
<g id="Ellipse">
<g id="Vector">
<use xlink:href="#path34_fill" transform="translate(-614 1151)" fill="#555555"/>
</g>
<mask id="mask16_alpha" mask-type="alpha">
<g id="mask3 outline ins">
<g id="Vector">
<use xlink:href="#path34_fill" transform="translate(-614 1151)" fill="#FFFFFF"/>
</g>
</g>
</mask>
<g id="Group" mask="url(#mask16_alpha)">
<g id="Vector">
<use xlink:href="#path35_fill" transform="translate(-615 1150)"/>
</g>
</g>
</g>
<g id="Ellipse">
<g id="Vector">
<use xlink:href="#path36_fill" transform="translate(-607 1158)" fill="#555555"/>
</g>
<mask id="mask17_alpha" mask-type="alpha">
<g id="mask4 outline ins">
<g id="Vector">
<use xlink:href="#path36_fill" transform="translate(-607 1158)" fill="#FFFFFF"/>
</g>
</g>
</mask>
<g id="Group" mask="url(#mask17_alpha)">
<g id="Vector">
<use xlink:href="#path37_fill" transform="translate(-608 1157)"/>
</g>
</g>
</g>
<g id="Ellipse">
<g id="Vector">
<use xlink:href="#path38_fill" transform="translate(-605 1160)" fill="#555555"/>
</g>
<mask id="mask18_alpha" mask-type="alpha">
<g id="mask5 outline ins">
<g id="Vector">
<use xlink:href="#path38_fill" transform="translate(-605 1160)" fill="#FFFFFF"/>
</g>
</g>
</mask>
<g id="Group" mask="url(#mask18_alpha)">
<g id="Vector">
<use xlink:href="#path39_fill" transform="translate(-606 1159)"/>
</g>
</g>
</g>
<g id="Ellipse">
<g id="Vector">
<use xlink:href="#path40_fill" transform="translate(-599 1166)" fill="#555555"/>
</g>
<mask id="mask19_alpha" mask-type="alpha">
<g id="mask6 outline ins">
<g id="Vector">
<use xlink:href="#path40_fill" transform="translate(-599 1166)" fill="#FFFFFF"/>
</g>
</g>
</mask>
<g id="Group" mask="url(#mask19_alpha)">
<g id="Vector">
<use xlink:href="#path41_fill" transform="translate(-600 1165)"/>
</g>
</g>
</g>
<g id="Ellipse">
<g id="Vector">
<use xlink:href="#path42_fill" transform="translate(-595 1170)" fill="#555555"/>
</g>
<mask id="mask20_alpha" mask-type="alpha">
<g id="mask7 outline ins">
<g id="Vector">
<use xlink:href="#path42_fill" transform="translate(-595 1170)" fill="#FFFFFF"/>
</g>
</g>
</mask>
<g id="Group" mask="url(#mask20_alpha)">
<g id="Vector">
<use xlink:href="#path43_fill" transform="translate(-596 1169)" fill="#222222"/>
</g>
</g>
</g>
<g id="Ellipse">
<g id="Vector">
<use xlink:href="#path44_fill" transform="translate(-591 1174)" fill="#333333"/>
</g>
<mask id="mask21_alpha" mask-type="alpha">
<g id="mask8 outline ins">
<g id="Vector">
<use xlink:href="#path44_fill" transform="translate(-591 1174)" fill="#FFFFFF"/>
</g>
</g>
</mask>
<g id="Group" mask="url(#mask21_alpha)">
<g id="Vector">
<use xlink:href="#path45_fill" transform="translate(-592 1173)"/>
</g>
</g>
</g>
<g id="Ellipse">
<g id="Vector">
<use xlink:href="#path46_fill" transform="translate(-585 1180)" fill="#777777"/>
</g>
<mask id="mask22_alpha" mask-type="alpha">
<g id="mask9 outline ins">
<g id="Vector">
<use xlink:href="#path46_fill" transform="translate(-585 1180)" fill="#FFFFFF"/>
</g>
</g>
</mask>
<g id="Group" mask="url(#mask22_alpha)">
<g id="Vector">
<use xlink:href="#path47_fill" transform="translate(-586 1179)" fill="#222222"/>
</g>
</g>
</g>
<g id="Polygon">
<g id="Vector">
<use xlink:href="#path48_fill" transform="matrix(5.55112e-17 -1 1 5.55112e-17 -575 1204.93)" fill="#F0F0F0"/>
</g>
</g>
<g id="Ellipse 2">
<g id="Vector">
<use xlink:href="#path49_fill" transform="translate(-590 1175)" fill="url(#paint74_linear)"/>
</g>
</g>
<g id="Ellipse 2">
<g id="Vector">
<use xlink:href="#path49_fill" transform="translate(-590 1175)" fill="url(#paint75_linear)"/>
</g>
</g>
<g id="Ellipse 2">
<g id="Vector">
<use xlink:href="#path49_fill" transform="translate(-590 1175)" fill="url(#paint76_radial)"/>
</g>
</g>
</g>
</g>
</g>
<g id="SavvyLens_64">
<g id="Canvas">
<g id="SavvyLens 64">
<g id="Ellipse">
<g id="Vector">
<use xlink:href="#path40_fill" transform="translate(-485 1173)" fill="#555555"/>
</g>
<mask id="mask23_alpha" mask-type="alpha">
<g id="mask0 outline ins">
<g id="Vector">
<use xlink:href="#path40_fill" transform="translate(-485 1173)" fill="#FFFFFF"/>
</g>
</g>
</mask>
<g id="Group" mask="url(#mask23_alpha)">
<g id="Vector">
<use xlink:href="#path50_fill" transform="translate(-487 1171)"/>
</g>
</g>
</g>
<g id="Ellipse">
<g id="Vector">
<use xlink:href="#path42_fill" transform="translate(-481 1177)" fill="#555555"/>
</g>
<mask id="mask24_alpha" mask-type="alpha">
<g id="mask1 outline ins">
<g id="Vector">
<use xlink:href="#path42_fill" transform="translate(-481 1177)" fill="#FFFFFF"/>
</g>
</g>
</mask>
<g id="Group" mask="url(#mask24_alpha)">
<g id="Vector">
<use xlink:href="#path43_fill" transform="translate(-482 1176)"/>
</g>
</g>
</g>
<g id="Ellipse">
<g id="Vector">
<use xlink:href="#path51_fill" transform="translate(-477.5 1180.5)" fill="#555555"/>
</g>
<mask id="mask25_alpha" mask-type="alpha">
<g id="mask2 outline ins">
<g id="Vector">
<use xlink:href="#path51_fill" transform="translate(-477.5 1180.5)" fill="#FFFFFF"/>
</g>
</g>
</mask>
<g id="Group" mask="url(#mask25_alpha)">
<g id="Vector">
<use xlink:href="#path52_fill" transform="translate(-478 1180)"/>
</g>
</g>
</g>
<g id="Ellipse">
<g id="Vector">
<use xlink:href="#path53_fill" transform="translate(-476.5 1181.5)" fill="#555555"/>
</g>
<mask id="mask26_alpha" mask-type="alpha">
<g id="mask3 outline ins">
<g id="Vector">
<use xlink:href="#path53_fill" transform="translate(-476.5 1181.5)" fill="#FFFFFF"/>
</g>
</g>
</mask>
<g id="Group" mask="url(#mask26_alpha)">
<g id="Vector">
<use xlink:href="#path54_fill" transform="translate(-477 1181)"/>
</g>
</g>
</g>
<g id="Ellipse">
<g id="Vector">
<use xlink:href="#path55_fill" transform="translate(-473 1185)" fill="#555555"/>
</g>
<mask id="mask27_alpha" mask-type="alpha">
<g id="mask4 outline ins">
<g id="Vector">
<use xlink:href="#path55_fill" transform="translate(-473 1185)" fill="#FFFFFF"/>
</g>
</g>
</mask>
<g id="Group" mask="url(#mask27_alpha)">
<g id="Vector">
<use xlink:href="#path56_fill" transform="translate(-473.5 1184.5)"/>
</g>
</g>
</g>
<g id="Ellipse">
<g id="Vector">
<use xlink:href="#path57_fill" transform="translate(-472 1186)" fill="#555555"/>
</g>
<mask id="mask28_alpha" mask-type="alpha">
<g id="mask5 outline ins">
<g id="Vector">
<use xlink:href="#path57_fill" transform="translate(-472 1186)" fill="#FFFFFF"/>
</g>
</g>
</mask>
<g id="Group" mask="url(#mask28_alpha)">
<g id="Vector">
<use xlink:href="#path58_fill" transform="translate(-472.5 1185.5)"/>
</g>
</g>
</g>
<g id="Ellipse">
<g id="Vector">
<use xlink:href="#path59_fill" transform="translate(-469 1189)" fill="#555555"/>
</g>
<mask id="mask29_alpha" mask-type="alpha">
<g id="mask6 outline ins">
<g id="Vector">
<use xlink:href="#path59_fill" transform="translate(-469 1189)" fill="#FFFFFF"/>
</g>
</g>
</mask>
<g id="Group" mask="url(#mask29_alpha)">
<g id="Vector">
<use xlink:href="#path60_fill" transform="translate(-469.5 1188.5)"/>
</g>
</g>
</g>
<g id="Ellipse">
<g id="Vector">
<use xlink:href="#path61_fill" transform="translate(-467 1191)" fill="#555555"/>
</g>
<mask id="mask30_alpha" mask-type="alpha">
<g id="mask7 outline ins">
<g id="Vector">
<use xlink:href="#path61_fill" transform="translate(-467 1191)" fill="#FFFFFF"/>
</g>
</g>
</mask>
<g id="Group" mask="url(#mask30_alpha)">
<g id="Vector">
<use xlink:href="#path62_fill" transform="translate(-468 1190)" fill="#222222"/>
</g>
</g>
</g>
<g id="Ellipse">
<g id="Vector">
<use xlink:href="#path63_fill" transform="translate(-465 1193)" fill="#333333"/>
</g>
<mask id="mask31_alpha" mask-type="alpha">
<g id="mask8 outline ins">
<g id="Vector">
<use xlink:href="#path63_fill" transform="translate(-465 1193)" fill="#FFFFFF"/>
</g>
</g>
</mask>
<g id="Group" mask="url(#mask31_alpha)">
<g id="Vector">
<use xlink:href="#path64_fill" transform="translate(-466 1192)"/>
</g>
</g>
</g>
<g id="Ellipse">
<g id="Vector">
<use xlink:href="#path65_fill" transform="translate(-462 1196)" fill="#777777"/>
</g>
<mask id="mask32_alpha" mask-type="alpha">
<g id="mask9 outline ins">
<g id="Vector">
<use xlink:href="#path65_fill" transform="translate(-462 1196)" fill="#FFFFFF"/>
</g>
</g>
</mask>
<g id="Group" mask="url(#mask32_alpha)">
<g id="Vector">
<use xlink:href="#path66_fill" transform="translate(-463 1195)" fill="#222222"/>
</g>
</g>
</g>
<g id="Polygon">
<g id="Vector">
<use xlink:href="#path67_fill" transform="matrix(5.55112e-17 -1 1 5.55112e-17 -457 1208.46)" fill="#F0F0F0"/>
</g>
</g>
<g id="Ellipse 2">
<g id="Vector">
<use xlink:href="#path68_fill" transform="translate(-464.5 1193.5)" fill="url(#paint108_linear)"/>
</g>
</g>
<g id="Ellipse 2">
<g id="Vector">
<use xlink:href="#path68_fill" transform="translate(-464.5 1193.5)" fill="url(#paint109_linear)"/>
</g>
</g>
<g id="Ellipse 2">
<g id="Vector">
<use xlink:href="#path68_fill" transform="translate(-464.5 1193.5)" fill="url(#paint110_radial)"/>
</g>
</g>
</g>
</g>
</g>
</g>
</g>
<defs>
<linearGradient id="paint40_linear" x1="0" y1="0" x2="1" y2="0" gradientUnits="userSpaceOnUse" gradientTransform="matrix(5.75 -184 196.835 6.1511 -96.2101 177.848)">
<stop offset="0" stop-color="#EABF3C"/>
<stop offset="1" stop-color="#F2C94C" stop-opacity="0"/>
</linearGradient>
<linearGradient id="paint41_linear" x1="0" y1="0" x2="1" y2="0" gradientUnits="userSpaceOnUse" gradientTransform="matrix(-138 180 -192.556 -147.626 338.556 165.626)">
<stop offset="0" stop-color="#6FCF97" stop-opacity="0.76"/>
<stop offset="1" stop-color="#F2C94C" stop-opacity="0"/>
</linearGradient>
<radialGradient id="paint42_radial" cx="0.5" cy="0.5" r="0.5" gradientUnits="userSpaceOnUse" gradientTransform="matrix(-52 316 -338.043 -55.6273 229.021 -90.1864)">
<stop offset="0" stop-color="#FC7A06"/>
<stop offset="1" stop-color="#F2C94C" stop-opacity="0"/>
</radialGradient>
<linearGradient id="paint74_linear" x1="0" y1="0" x2="1" y2="0" gradientUnits="userSpaceOnUse" gradientTransform="matrix(1.4375 -46 49.2088 1.53777 -24.0525 44.4622)">
<stop offset="0" stop-color="#EABF3C"/>
<stop offset="1" stop-color="#F2C94C" stop-opacity="0"/>
</linearGradient>
<linearGradient id="paint75_linear" x1="0" y1="0" x2="1" y2="0" gradientUnits="userSpaceOnUse" gradientTransform="matrix(-34.5 45 -48.139 -36.9066 84.639 41.4066)">
<stop offset="0" stop-color="#6FCF97" stop-opacity="0.76"/>
<stop offset="1" stop-color="#F2C94C" stop-opacity="0"/>
</linearGradient>
<radialGradient id="paint76_radial" cx="0.5" cy="0.5" r="0.5" gradientUnits="userSpaceOnUse" gradientTransform="matrix(-13 79 -84.5107 -13.9068 57.2554 -22.5466)">
<stop offset="0" stop-color="#FC7A06"/>
<stop offset="1" stop-color="#F2C94C" stop-opacity="0"/>
</radialGradient>
<linearGradient id="paint108_linear" x1="0" y1="0" x2="1" y2="0" gradientUnits="userSpaceOnUse" gradientTransform="matrix(0.71875 -23 24.6044 0.768887 -12.0263 22.2312)">
<stop offset="0" stop-color="#EABF3C"/>
<stop offset="1" stop-color="#F2C94C" stop-opacity="0"/>
</linearGradient>
<linearGradient id="paint109_linear" x1="0" y1="0" x2="1" y2="0" gradientUnits="userSpaceOnUse" gradientTransform="matrix(-17.25 22.5 -24.0695 -18.4533 42.3195 20.7032)">
<stop offset="0" stop-color="#6FCF97" stop-opacity="0.76"/>
<stop offset="1" stop-color="#F2C94C" stop-opacity="0"/>
</linearGradient>
<radialGradient id="paint110_radial" cx="0.5" cy="0.5" r="0.5" gradientUnits="userSpaceOnUse" gradientTransform="matrix(-6.5 39.5 -42.2554 -6.95341 28.6277 -11.2733)">
<stop offset="0" stop-color="#FC7A06"/>
<stop offset="1" stop-color="#F2C94C" stop-opacity="0"/>
</radialGradient>
<path id="path0_fill" d="M 512 256C 512 397.385 397.385 512 256 512C 114.615 512 0 397.385 0 256C 0 114.615 114.615 0 256 0C 397.385 0 512 114.615 512 256Z"/>
<path id="path1_fill" d="M 512 264C 512 400.967 400.967 512 264 512L 264 528C 409.803 528 528 409.803 528 264L 512 264ZM 264 512C 127.033 512 16 400.967 16 264L 0 264C 0 409.803 118.197 528 264 528L 264 512ZM 16 264C 16 127.033 127.033 16 264 16L 264 0C 118.197 0 0 118.197 0 264L 16 264ZM 264 16C 400.967 16 512 127.033 512 264L 528 264C 528 118.197 409.803 0 264 0L 264 16Z"/>
<path id="path2_fill" d="M 448 224C 448 347.712 347.712 448 224 448C 100.288 448 0 347.712 0 224C 0 100.288 100.288 0 224 0C 347.712 0 448 100.288 448 224Z"/>
<path id="path3_fill" d="M 448 230C 448 350.398 350.398 448 230 448L 230 460C 357.025 460 460 357.025 460 230L 448 230ZM 230 448C 109.602 448 12 350.398 12 230L 0 230C 0 357.025 102.975 460 230 460L 230 448ZM 12 230C 12 109.602 109.602 12 230 12L 230 0C 102.975 0 0 102.975 0 230L 12 230ZM 230 12C 350.398 12 448 109.602 448 230L 460 230C 460 102.975 357.025 0 230 0L 230 12Z"/>
<path id="path4_fill" d="M 416 208C 416 322.875 322.875 416 208 416C 93.1248 416 0 322.875 0 208C 0 93.1248 93.1248 0 208 0C 322.875 0 416 93.1248 416 208Z"/>
<path id="path5_fill" d="M 416 212C 416 324.666 324.666 416 212 416L 212 424C 329.084 424 424 329.084 424 212L 416 212ZM 212 416C 99.3339 416 8 324.666 8 212L 0 212C 0 329.084 94.9156 424 212 424L 212 416ZM 8 212C 8 99.3339 99.3339 8 212 8L 212 0C 94.9156 0 0 94.9156 0 212L 8 212ZM 212 8C 324.666 8 416 99.3339 416 212L 424 212C 424 94.9156 329.084 0 212 0L 212 8Z"/>
<path id="path6_fill" d="M 392 196C 392 304.248 304.248 392 196 392C 87.7522 392 0 304.248 0 196C 0 87.7522 87.7522 0 196 0C 304.248 0 392 87.7522 392 196Z"/>
<path id="path7_fill" d="M 392 198C 392 305.143 305.143 392 198 392L 198 396C 307.352 396 396 307.352 396 198L 392 198ZM 198 392C 90.8568 392 4 305.143 4 198L 0 198C 0 307.352 88.6476 396 198 396L 198 392ZM 4 198C 4 90.8568 90.8568 4 198 4L 198 0C 88.6476 0 0 88.6476 0 198L 4 198ZM 198 4C 305.143 4 392 90.8568 392 198L 396 198C 396 88.6476 307.352 0 198 0L 198 4Z"/>
<path id="path8_fill" d="M 376 188C 376 291.83 291.83 376 188 376C 84.1705 376 0 291.83 0 188C 0 84.1705 84.1705 0 188 0C 291.83 0 376 84.1705 376 188Z"/>
<path id="path9_fill" d="M 376 190C 376 292.725 292.725 376 190 376L 190 380C 294.934 380 380 294.934 380 190L 376 190ZM 190 376C 87.275 376 4 292.725 4 190L 0 190C 0 294.934 85.0659 380 190 380L 190 376ZM 4 190C 4 87.275 87.275 4 190 4L 190 0C 85.0659 0 0 85.0659 0 190L 4 190ZM 190 4C 292.725 4 376 87.275 376 190L 380 190C 380 85.0659 294.934 0 190 0L 190 4Z"/>
<path id="path10_fill" d="M 360 180C 360 279.411 279.411 360 180 360C 80.5887 360 0 279.411 0 180C 0 80.5887 80.5887 0 180 0C 279.411 0 360 80.5887 360 180Z"/>
<path id="path11_fill" d="M 360 182C 360 280.307 280.307 360 182 360L 182 364C 282.516 364 364 282.516 364 182L 360 182ZM 182 360C 83.6933 360 4 280.307 4 182L 0 182C 0 282.516 81.4842 364 182 364L 182 360ZM 4 182C 4 83.6933 83.6933 4 182 4L 182 0C 81.4842 0 0 81.4842 0 182L 4 182ZM 182 4C 280.307 4 360 83.6933 360 182L 364 182C 364 81.4842 282.516 0 182 0L 182 4Z"/>
<path id="path12_fill" d="M 320 160C 320 248.366 248.366 320 160 320C 71.6344 320 0 248.366 0 160C 0 71.6344 71.6344 0 160 0C 248.366 0 320 71.6344 320 160Z"/>
<path id="path13_fill" d="M 320 162C 320 249.261 249.261 320 162 320L 162 324C 251.47 324 324 251.47 324 162L 320 162ZM 162 320C 74.739 320 4 249.261 4 162L 0 162C 0 251.47 72.5299 324 162 324L 162 320ZM 4 162C 4 74.739 74.739 4 162 4L 162 0C 72.5299 0 0 72.5299 0 162L 4 162ZM 162 4C 249.261 4 320 74.739 320 162L 324 162C 324 72.5299 251.47 0 162 0L 162 4Z"/>
<path id="path14_fill" d="M 304 152C 304 235.947 235.947 304 152 304C 68.0527 304 0 235.947 0 152C 0 68.0527 68.0527 0 152 0C 235.947 0 304 68.0527 304 152Z"/>
<path id="path15_fill" d="M 304 154C 304 236.843 236.843 304 154 304L 154 308C 239.052 308 308 239.052 308 154L 304 154ZM 154 304C 71.1573 304 4 236.843 4 154L 0 154C 0 239.052 68.9482 308 154 308L 154 304ZM 4 154C 4 71.1573 71.1573 4 154 4L 154 0C 68.9482 0 0 68.9482 0 154L 4 154ZM 154 4C 236.843 4 304 71.1573 304 154L 308 154C 308 68.9482 239.052 0 154 0L 154 4Z"/>
<path id="path16_fill" d="M 288 144C 288 223.529 223.529 288 144 288C 64.471 288 0 223.529 0 144C 0 64.471 64.471 0 144 0C 223.529 0 288 64.471 288 144Z"/>
<path id="path17_fill" d="M 288 146C 288 224.424 224.424 288 146 288L 146 292C 226.634 292 292 226.634 292 146L 288 146ZM 146 288C 67.5756 288 4 224.424 4 146L 0 146C 0 226.634 65.3664 292 146 292L 146 288ZM 4 146C 4 67.5756 67.5756 4 146 4L 146 0C 65.3664 0 0 65.3664 0 146L 4 146ZM 146 4C 224.424 4 288 67.5756 288 146L 292 146C 292 65.3664 226.634 0 146 0L 146 4Z"/>
<path id="path18_fill" d="M 256 128C 256 198.692 198.692 256 128 256C 57.3076 256 0 198.692 0 128C 0 57.3076 57.3076 0 128 0C 198.692 0 256 57.3076 256 128Z"/>
<path id="path19_fill" d="M 256 130C 256 199.588 199.588 256 130 256L 130 260C 201.797 260 260 201.797 260 130L 256 130ZM 130 256C 60.4121 256 4 199.588 4 130L 0 130C 0 201.797 58.203 260 130 260L 130 256ZM 4 130C 4 60.4121 60.4121 4 130 4L 130 0C 58.203 0 0 58.203 0 130L 4 130ZM 130 4C 199.588 4 256 60.4121 256 130L 260 130C 260 58.203 201.797 0 130 0L 130 4Z"/>
<path id="path20_fill" d="M 224 112C 224 173.856 173.856 224 112 224C 50.1441 224 0 173.856 0 112C 0 50.1441 50.1441 0 112 0C 173.856 0 224 50.1441 224 112Z"/>
<path id="path21_fill" d="M 224 114C 224 174.751 174.751 224 114 224L 114 228C 176.96 228 228 176.96 228 114L 224 114ZM 114 224C 53.2487 224 4 174.751 4 114L 0 114C 0 176.96 51.0395 228 114 228L 114 224ZM 4 114C 4 53.2487 53.2487 4 114 4L 114 0C 51.0395 0 0 51.0395 0 114L 4 114ZM 114 4C 174.751 4 224 53.2487 224 114L 228 114C 228 51.0395 176.96 0 114 0L 114 4Z"/>
<path id="path22_fill" d="M 192 96C 192 149.019 149.019 192 96 192C 42.9807 192 0 149.019 0 96C 0 42.9807 42.9807 0 96 0C 149.019 0 192 42.9807 192 96Z"/>
<path id="path23_fill" d="M 192 97C 192 149.467 149.467 192 97 192L 97 194C 150.572 194 194 150.572 194 97L 192 97ZM 97 192C 44.5329 192 2 149.467 2 97L 0 97C 0 150.572 43.4284 194 97 194L 97 192ZM 2 97C 2 44.5329 44.5329 2 97 2L 97 0C 43.4284 0 0 43.4284 0 97L 2 97ZM 97 2C 149.467 2 192 44.5329 192 97L 194 97C 194 43.4284 150.572 0 97 0L 97 2Z"/>
<path id="path24_fill" d="M 144 72C 144 111.765 111.765 144 72 144C 32.2355 144 0 111.765 0 72C 0 32.2355 32.2355 0 72 0C 111.765 0 144 32.2355 144 72Z"/>
<path id="path25_fill" d="M 144 73C 144 112.212 112.212 144 73 144L 73 146C 113.317 146 146 113.317 146 73L 144 73ZM 73 144C 33.7878 144 2 112.212 2 73L 0 73C 0 113.317 32.6832 146 73 146L 73 144ZM 2 73C 2 33.7878 33.7878 2 73 2L 73 0C 32.6832 0 0 32.6832 0 73L 2 73ZM 73 2C 112.212 2 144 33.7878 144 73L 146 73C 146 32.6832 113.317 0 73 0L 73 2Z"/>
<path id="path26_fill" d="M 27.7128 0L 55.4256 16L 55.4256 48L 27.7128 64L -3.95203e-08 48L -3.95203e-08 16L 27.7128 0Z"/>
<path id="path27_fill" d="M 184 92C 184 142.81 142.81 184 92 184C 41.1898 184 0 142.81 0 92C 0 41.1898 41.1898 0 92 0C 142.81 0 184 41.1898 184 92Z"/>
<path id="path28_fill" d="M 128 64C 128 99.3462 99.3462 128 64 128C 28.6538 128 0 99.3462 0 64C 0 28.6538 28.6538 0 64 0C 99.3462 0 128 28.6538 128 64Z"/>
<path id="path29_fill" d="M 128 66C 128 100.242 100.242 128 66 128L 66 132C 102.451 132 132 102.451 132 66L 128 66ZM 66 128C 31.7583 128 4 100.242 4 66L 0 66C 0 102.451 29.5492 132 66 132L 66 128ZM 4 66C 4 31.7583 31.7583 4 66 4L 66 0C 29.5492 0 0 29.5492 0 66L 4 66ZM 66 4C 100.242 4 128 31.7583 128 66L 132 66C 132 29.5492 102.451 0 66 0L 66 4Z"/>
<path id="path30_fill" d="M 112 56C 112 86.9279 86.9279 112 56 112C 25.0721 112 0 86.9279 0 56C 0 25.0721 25.0721 0 56 0C 86.9279 0 112 25.0721 112 56Z"/>
<path id="path31_fill" d="M 112 58C 112 87.8234 87.8234 112 58 112L 58 116C 90.0325 116 116 90.0325 116 58L 112 58ZM 58 112C 28.1766 112 4 87.8234 4 58L 0 58C 0 90.0325 25.9675 116 58 116L 58 112ZM 4 58C 4 28.1766 28.1766 4 58 4L 58 0C 25.9675 0 0 25.9675 0 58L 4 58ZM 58 4C 87.8234 4 112 28.1766 112 58L 116 58C 116 25.9675 90.0325 0 58 0L 58 4Z"/>
<path id="path32_fill" d="M 98 49C 98 76.062 76.062 98 49 98C 21.938 98 0 76.062 0 49C 0 21.938 21.938 0 49 0C 76.062 0 98 21.938 98 49Z"/>
<path id="path33_fill" d="M 98 50C 98 76.5097 76.5097 98 50 98L 50 100C 77.6142 100 100 77.6142 100 50L 98 50ZM 50 98C 23.4903 98 2 76.5097 2 50L 0 50C 0 77.6142 22.3858 100 50 100L 50 98ZM 2 50C 2 23.4903 23.4903 2 50 2L 50 0C 22.3858 0 0 22.3858 0 50L 2 50ZM 50 2C 76.5097 2 98 23.4903 98 50L 100 50C 100 22.3858 77.6142 0 50 0L 50 2Z"/>
<path id="path34_fill" d="M 94 47C 94 72.9574 72.9574 94 47 94C 21.0426 94 0 72.9574 0 47C 0 21.0426 21.0426 0 47 0C 72.9574 0 94 21.0426 94 47Z"/>
<path id="path35_fill" d="M 94 48C 94 73.4051 73.4051 94 48 94L 48 96C 74.5097 96 96 74.5097 96 48L 94 48ZM 48 94C 22.5949 94 2 73.4051 2 48L 0 48C 0 74.5097 21.4903 96 48 96L 48 94ZM 2 48C 2 22.5949 22.5949 2 48 2L 48 0C 21.4903 0 0 21.4903 0 48L 2 48ZM 48 2C 73.4051 2 94 22.5949 94 48L 96 48C 96 21.4903 74.5097 0 48 0L 48 2Z"/>
<path id="path36_fill" d="M 80 40C 80 62.0914 62.0914 80 40 80C 17.9086 80 0 62.0914 0 40C 0 17.9086 17.9086 0 40 0C 62.0914 0 80 17.9086 80 40Z"/>
<path id="path37_fill" d="M 80 41C 80 62.5391 62.5391 80 41 80L 41 82C 63.6437 82 82 63.6437 82 41L 80 41ZM 41 80C 19.4609 80 2 62.5391 2 41L 0 41C 0 63.6437 18.3563 82 41 82L 41 80ZM 2 41C 2 19.4609 19.4609 2 41 2L 41 0C 18.3563 0 0 18.3563 0 41L 2 41ZM 41 2C 62.5391 2 80 19.4609 80 41L 82 41C 82 18.3563 63.6437 0 41 0L 41 2Z"/>
<path id="path38_fill" d="M 76 38C 76 58.9868 58.9868 76 38 76C 17.0132 76 0 58.9868 0 38C 0 17.0132 17.0132 0 38 0C 58.9868 0 76 17.0132 76 38Z"/>
<path id="path39_fill" d="M 76 39C 76 59.4345 59.4345 76 39 76L 39 78C 60.5391 78 78 60.5391 78 39L 76 39ZM 39 76C 18.5655 76 2 59.4345 2 39L 0 39C 0 60.5391 17.4609 78 39 78L 39 76ZM 2 39C 2 18.5655 18.5655 2 39 2L 39 0C 17.4609 0 0 17.4609 0 39L 2 39ZM 39 2C 59.4345 2 76 18.5655 76 39L 78 39C 78 17.4609 60.5391 0 39 0L 39 2Z"/>
<path id="path40_fill" d="M 64 32C 64 49.6731 49.6731 64 32 64C 14.3269 64 0 49.6731 0 32C 0 14.3269 14.3269 0 32 0C 49.6731 0 64 14.3269 64 32Z"/>
<path id="path41_fill" d="M 64 33C 64 50.1208 50.1208 64 33 64L 33 66C 51.2254 66 66 51.2254 66 33L 64 33ZM 33 64C 15.8792 64 2 50.1208 2 33L 0 33C 0 51.2254 14.7746 66 33 66L 33 64ZM 2 33C 2 15.8792 15.8792 2 33 2L 33 0C 14.7746 0 0 14.7746 0 33L 2 33ZM 33 2C 50.1208 2 64 15.8792 64 33L 66 33C 66 14.7746 51.2254 0 33 0L 33 2Z"/>
<path id="path42_fill" d="M 56 28C 56 43.464 43.464 56 28 56C 12.536 56 0 43.464 0 28C 0 12.536 12.536 0 28 0C 43.464 0 56 12.536 56 28Z"/>
<path id="path43_fill" d="M 56 29C 56 43.9117 43.9117 56 29 56L 29 58C 45.0163 58 58 45.0163 58 29L 56 29ZM 29 56C 14.0883 56 2 43.9117 2 29L 0 29C 0 45.0163 12.9837 58 29 58L 29 56ZM 2 29C 2 14.0883 14.0883 2 29 2L 29 0C 12.9837 0 0 12.9837 0 29L 2 29ZM 29 2C 43.9117 2 56 14.0883 56 29L 58 29C 58 12.9837 45.0163 0 29 0L 29 2Z"/>
<path id="path44_fill" d="M 48 24C 48 37.2548 37.2548 48 24 48C 10.7452 48 0 37.2548 0 24C 0 10.7452 10.7452 0 24 0C 37.2548 0 48 10.7452 48 24Z"/>
<path id="path45_fill" d="M 48 25C 48 37.7025 37.7025 48 25 48L 25 50C 38.8071 50 50 38.8071 50 25L 48 25ZM 25 48C 12.2975 48 2 37.7025 2 25L 0 25C 0 38.8071 11.1929 50 25 50L 25 48ZM 2 25C 2 12.2975 12.2975 2 25 2L 25 0C 11.1929 0 0 11.1929 0 25L 2 25ZM 25 2C 37.7025 2 48 12.2975 48 25L 50 25C 50 11.1929 38.8071 0 25 0L 25 2Z"/>
<path id="path46_fill" d="M 36 18C 36 27.9411 27.9411 36 18 36C 8.05887 36 0 27.9411 0 18C 0 8.05887 8.05887 0 18 0C 27.9411 0 36 8.05887 36 18Z"/>
<path id="path47_fill" d="M 36 19C 36 28.3888 28.3888 36 19 36L 19 38C 29.4934 38 38 29.4934 38 19L 36 19ZM 19 36C 9.61116 36 2 28.3888 2 19L 0 19C 0 29.4934 8.50659 38 19 38L 19 36ZM 2 19C 2 9.61116 9.61116 2 19 2L 19 0C 8.50659 0 0 8.50659 0 19L 2 19ZM 19 2C 28.3888 2 36 9.61116 36 19L 38 19C 38 8.50659 29.4934 0 19 0L 19 2Z"/>
<path id="path48_fill" d="M 6.9282 0L 13.8564 4L 13.8564 12L 6.9282 16L -6.48499e-09 12L -6.48499e-09 4L 6.9282 0Z"/>
<path id="path49_fill" d="M 46 23C 46 35.7025 35.7025 46 23 46C 10.2975 46 0 35.7025 0 23C 0 10.2975 10.2975 0 23 0C 35.7025 0 46 10.2975 46 23Z"/>
<path id="path50_fill" d="M 64 34C 64 50.5685 50.5685 64 34 64L 34 68C 52.7777 68 68 52.7777 68 34L 64 34ZM 34 64C 17.4315 64 4 50.5685 4 34L 0 34C 0 52.7777 15.2223 68 34 68L 34 64ZM 4 34C 4 17.4315 17.4315 4 34 4L 34 0C 15.2223 0 0 15.2223 0 34L 4 34ZM 34 4C 50.5685 4 64 17.4315 64 34L 68 34C 68 15.2223 52.7777 0 34 0L 34 4Z"/>
<path id="path51_fill" d="M 49 24.5C 49 38.031 38.031 49 24.5 49C 10.969 49 0 38.031 0 24.5C 0 10.969 10.969 0 24.5 0C 38.031 0 49 10.969 49 24.5Z"/>
<path id="path52_fill" d="M 49 25C 49 38.2548 38.2548 49 25 49L 25 50C 38.8071 50 50 38.8071 50 25L 49 25ZM 25 49C 11.7452 49 1 38.2548 1 25L 0 25C 0 38.8071 11.1929 50 25 50L 25 49ZM 1 25C 1 11.7452 11.7452 1 25 1L 25 0C 11.1929 0 0 11.1929 0 25L 1 25ZM 25 1C 38.2548 1 49 11.7452 49 25L 50 25C 50 11.1929 38.8071 0 25 0L 25 1Z"/>
<path id="path53_fill" d="M 47 23.5C 47 36.4787 36.4787 47 23.5 47C 10.5213 47 0 36.4787 0 23.5C 0 10.5213 10.5213 0 23.5 0C 36.4787 0 47 10.5213 47 23.5Z"/>
<path id="path54_fill" d="M 47 24C 47 36.7025 36.7025 47 24 47L 24 48C 37.2548 48 48 37.2548 48 24L 47 24ZM 24 47C 11.2975 47 1 36.7025 1 24L 0 24C 0 37.2548 10.7452 48 24 48L 24 47ZM 1 24C 1 11.2975 11.2975 1 24 1L 24 0C 10.7452 0 0 10.7452 0 24L 1 24ZM 24 1C 36.7025 1 47 11.2975 47 24L 48 24C 48 10.7452 37.2548 0 24 0L 24 1Z"/>
<path id="path55_fill" d="M 40 20C 40 31.0457 31.0457 40 20 40C 8.9543 40 0 31.0457 0 20C 0 8.9543 8.9543 0 20 0C 31.0457 0 40 8.9543 40 20Z"/>
<path id="path56_fill" d="M 40 20.5C 40 31.2696 31.2696 40 20.5 40L 20.5 41C 31.8218 41 41 31.8218 41 20.5L 40 20.5ZM 20.5 40C 9.73045 40 1 31.2696 1 20.5L 0 20.5C 0 31.8218 9.17816 41 20.5 41L 20.5 40ZM 1 20.5C 1 9.73045 9.73045 1 20.5 1L 20.5 0C 9.17816 0 0 9.17816 0 20.5L 1 20.5ZM 20.5 1C 31.2696 1 40 9.73045 40 20.5L 41 20.5C 41 9.17816 31.8218 0 20.5 0L 20.5 1Z"/>
<path id="path57_fill" d="M 38 19C 38 29.4934 29.4934 38 19 38C 8.50659 38 0 29.4934 0 19C 0 8.50659 8.50659 0 19 0C 29.4934 0 38 8.50659 38 19Z"/>
<path id="path58_fill" d="M 38 19.5C 38 29.7173 29.7173 38 19.5 38L 19.5 39C 30.2696 39 39 30.2696 39 19.5L 38 19.5ZM 19.5 38C 9.28273 38 1 29.7173 1 19.5L 0 19.5C 0 30.2696 8.73045 39 19.5 39L 19.5 38ZM 1 19.5C 1 9.28273 9.28273 1 19.5 1L 19.5 0C 8.73045 0 0 8.73045 0 19.5L 1 19.5ZM 19.5 1C 29.7173 1 38 9.28273 38 19.5L 39 19.5C 39 8.73045 30.2696 0 19.5 0L 19.5 1Z"/>
<path id="path59_fill" d="M 32 16C 32 24.8366 24.8366 32 16 32C 7.16344 32 0 24.8366 0 16C 0 7.16344 7.16344 0 16 0C 24.8366 0 32 7.16344 32 16Z"/>
<path id="path60_fill" d="M 32 16.5C 32 25.0604 25.0604 32 16.5 32L 16.5 33C 25.6127 33 33 25.6127 33 16.5L 32 16.5ZM 16.5 32C 7.93959 32 1 25.0604 1 16.5L 0 16.5C 0 25.6127 7.3873 33 16.5 33L 16.5 32ZM 1 16.5C 1 7.93959 7.93959 1 16.5 1L 16.5 0C 7.3873 0 0 7.3873 0 16.5L 1 16.5ZM 16.5 1C 25.0604 1 32 7.93959 32 16.5L 33 16.5C 33 7.3873 25.6127 0 16.5 0L 16.5 1Z"/>
<path id="path61_fill" d="M 28 14C 28 21.732 21.732 28 14 28C 6.26801 28 0 21.732 0 14C 0 6.26801 6.26801 0 14 0C 21.732 0 28 6.26801 28 14Z"/>
<path id="path62_fill" d="M 28 15C 28 22.1797 22.1797 28 15 28L 15 30C 23.2843 30 30 23.2843 30 15L 28 15ZM 15 28C 7.8203 28 2 22.1797 2 15L 0 15C 0 23.2843 6.71573 30 15 30L 15 28ZM 2 15C 2 7.8203 7.8203 2 15 2L 15 0C 6.71573 0 0 6.71573 0 15L 2 15ZM 15 2C 22.1797 2 28 7.8203 28 15L 30 15C 30 6.71573 23.2843 0 15 0L 15 2Z"/>
<path id="path63_fill" d="M 24 12C 24 18.6274 18.6274 24 12 24C 5.37258 24 0 18.6274 0 12C 0 5.37258 5.37258 0 12 0C 18.6274 0 24 5.37258 24 12Z"/>
<path id="path64_fill" d="M 24 13C 24 19.0751 19.0751 24 13 24L 13 26C 20.1797 26 26 20.1797 26 13L 24 13ZM 13 24C 6.92487 24 2 19.0751 2 13L 0 13C 0 20.1797 5.8203 26 13 26L 13 24ZM 2 13C 2 6.92487 6.92487 2 13 2L 13 0C 5.8203 0 0 5.8203 0 13L 2 13ZM 13 2C 19.0751 2 24 6.92487 24 13L 26 13C 26 5.8203 20.1797 0 13 0L 13 2Z"/>
<path id="path65_fill" d="M 18 9C 18 13.9706 13.9706 18 9 18C 4.02944 18 0 13.9706 0 9C 0 4.02944 4.02944 0 9 0C 13.9706 0 18 4.02944 18 9Z"/>
<path id="path66_fill" d="M 18 10C 18 14.4183 14.4183 18 10 18L 10 20C 15.5228 20 20 15.5228 20 10L 18 10ZM 10 18C 5.58172 18 2 14.4183 2 10L 0 10C 0 15.5228 4.47715 20 10 20L 10 18ZM 2 10C 2 5.58172 5.58172 2 10 2L 10 0C 4.47715 0 0 4.47715 0 10L 2 10ZM 10 2C 14.4183 2 18 5.58172 18 10L 20 10C 20 4.47715 15.5228 0 10 0L 10 2Z"/>
<path id="path67_fill" d="M 3.4641 0L 6.9282 2L 6.9282 6L 3.4641 8L -2.98004e-08 6L -2.98004e-08 2L 3.4641 0Z"/>
<path id="path68_fill" d="M 23 11.5C 23 17.8513 17.8513 23 11.5 23C 5.14873 23 0 17.8513 0 11.5C 0 5.14873 5.14873 0 11.5 0C 17.8513 0 23 5.14873 23 11.5Z"/>
</defs>
</svg>
