<svg width="256" height="250" viewBox="0 0 256 250" version="1.1" xmlns="http://www.w3.org/2000/svg" xmlns:xlink="http://www.w3.org/1999/xlink">
<title>github-white</title>
<desc>Created using Figma</desc>
<g id="Canvas" transform="translate(20 299)">
<g id="github-white">
<g id="Group">
<g id="Vector">
<use xlink:href="#path0_fill" transform="translate(-20 -299)" fill="#FFFFFF"/>
</g>
</g>
</g>
</g>
<defs>
<path id="path0_fill" d="M 128.001 0C 57.3173 0 0 57.3067 0 128.001C 0 184.555 36.6762 232.536 87.5349 249.461C 93.932 250.646 96.2806 246.684 96.2806 243.303C 96.2806 240.251 96.1619 230.168 96.1068 219.472C 60.4968 227.215 52.9826 204.37 52.9826 204.37C 47.16 189.575 38.7704 185.641 38.7704 185.641C 27.1569 177.696 39.6458 177.859 39.6458 177.859C 52.4993 178.762 59.2674 191.05 59.2674 191.05C 70.6838 210.618 89.2116 204.961 96.5159 201.69C 97.6647 193.418 100.982 187.771 104.643 184.574C 76.2118 181.338 46.3248 170.362 46.3248 121.316C 46.3248 107.341 51.3251 95.9224 59.5132 86.9584C 58.1842 83.7344 53.8029 70.7156 60.7532 53.0844C 60.7532 53.0844 71.5019 49.6442 95.9626 66.205C 106.173 63.3689 117.123 61.9466 128.001 61.8978C 138.879 61.9466 149.838 63.3689 160.067 66.205C 184.498 49.6442 195.232 53.0844 195.232 53.0844C 202.199 70.7156 197.816 83.7344 196.487 86.9584C 204.694 95.9224 209.66 107.341 209.66 121.316C 209.66 170.479 179.716 181.304 151.213 184.473C 155.804 188.445 159.895 196.235 159.895 208.177C 159.895 225.303 159.747 239.087 159.747 243.303C 159.747 246.71 162.051 250.701 168.539 249.444C 219.37 232.5 256 184.536 256 128.001C 256 57.3067 198.691 0 128.001 0ZM 47.9406 182.34C 47.6586 182.976 46.6582 183.167 45.7467 182.73C 44.8183 182.313 44.2969 181.446 44.5979 180.808C 44.8734 180.153 45.876 179.97 46.8023 180.409C 47.7328 180.827 48.2627 181.702 47.9406 182.34ZM 54.2368 187.958C 53.6263 188.524 52.433 188.261 51.6233 187.367C 50.786 186.474 50.6292 185.281 51.2481 184.707C 51.8776 184.141 53.0349 184.406 53.8743 185.298C 54.7116 186.201 54.8748 187.386 54.2368 187.958ZM 58.5562 195.146C 57.772 195.691 56.4896 195.18 55.6968 194.042C 54.9126 192.904 54.9126 191.539 55.7138 190.992C 56.5087 190.445 57.772 190.937 58.5753 192.066C 59.3575 193.224 59.3575 194.589 58.5562 195.146ZM 65.8614 203.471C 65.1598 204.245 63.6654 204.037 62.5717 202.982C 61.4525 201.949 61.1409 200.485 61.8446 199.711C 62.5547 198.935 64.0575 199.153 65.1598 200.201C 66.2705 201.231 66.6096 202.706 65.8614 203.471ZM 75.3025 206.282C 74.993 207.284 73.5538 207.74 72.104 207.314C 70.6563 206.875 69.7088 205.701 70.0013 204.688C 70.3023 203.679 71.7479 203.204 73.2083 203.66C 74.6539 204.096 75.6035 205.262 75.3025 206.282ZM 86.0469 207.474C 86.083 208.529 84.8536 209.405 83.3317 209.424C 81.8013 209.458 80.5634 208.603 80.5465 207.565C 80.5465 206.499 81.7483 205.632 83.2787 205.606C 84.8006 205.577 86.0469 206.424 86.0469 207.474ZM 96.6021 207.069C 96.7844 208.099 95.7267 209.157 94.2154 209.439C 92.7296 209.71 91.3539 209.074 91.1653 208.053C 90.9809 206.997 92.0576 205.939 93.5414 205.666C 95.0548 205.403 96.4093 206.022 96.6021 207.069Z"/>
</defs>
</svg>
