<svg width="130" height="130" viewBox="0 0 130 130" version="1.1" xmlns="http://www.w3.org/2000/svg" xmlns:xlink="http://www.w3.org/1999/xlink">
<title>linkedin</title>
<desc>Created using Figma</desc>
<g id="Canvas" transform="translate(273 -70)">
<g id="linkedin">
<g id="Canvas">
<g id="linkedin">
<g id="g4">
<g id="path6">
<g id="Vector">
<use xlink:href="#path0_fill" transform="translate(-273 70)" fill="#FFFFFF"/>
</g>
</g>
<g id="path8">
<g id="Vector">
<use xlink:href="#path1_fill" transform="translate(-255.32 87.839)"/>
</g>
</g>
<g id="path10">
<g id="Vector">
<use xlink:href="#path2_fill" transform="translate(-222.516 117.039)"/>
</g>
</g>
</g>
</g>
</g>
</g>
</g>
<defs>
<path id="path0_fill" d="M 119.984 0L 9.56332 0C 4.28675 0 1.42323e-14 4.18238 1.42323e-14 9.33928L 1.42323e-14 120.225C 1.42323e-14 125.386 4.28675 129.575 9.56332 129.575L 119.984 129.575C 125.27 129.575 129.577 125.386 129.577 120.225L 129.577 9.33928C 129.577 4.18238 125.27 0 119.984 0Z"/>
<path id="path1_fill" d="M 11.1443 1.13536e-15C 17.2901 1.13536e-15 22.2824 4.99312 22.2824 11.1398C 22.2824 17.291 17.2901 22.2859 11.1443 22.2859C 4.98593 22.2859 1.16852e-13 17.291 1.16852e-13 11.1398C 1.16852e-13 4.99312 4.98593 1.13536e-15 11.1443 1.13536e-15ZM 1.5315 30.7389L 20.7499 30.7389L 20.7499 92.5757L 1.5315 92.5757L 1.5315 30.7389Z"/>
<path id="path2_fill" d="M 8.71106e-16 1.5387L 18.4365 1.5387L 18.4365 9.98715L 18.692 9.98715C 21.2565 5.1263 27.5265 4.45287e-14 36.8757 4.45287e-14C 56.3371 4.45287e-14 59.9301 12.8072 59.9301 29.4566L 59.9301 63.3755L 40.7252 63.3755L 40.7252 33.3043C 40.7252 26.13 40.5929 16.9068 30.738 16.9068C 20.7365 16.9068 19.205 24.7191 19.205 32.7851L 19.205 63.3755L 8.71106e-16 63.3755L 8.71106e-16 1.5387Z"/>
</defs>
</svg>
