<svg width="250" height="204" viewBox="0 0 250 204" version="1.1" xmlns="http://www.w3.org/2000/svg" xmlns:xlink="http://www.w3.org/1999/xlink">
<title>twitter</title>
<desc>Created using Figma</desc>
<g id="Canvas" transform="translate(68 -57)">
<g id="twitter">
<g id="Logo  x2014  FIXED">
<g id="Group">
<g id="Vector">
<use xlink:href="#path0_fill" transform="translate(-67.9 57.4)" fill="#FFFFFF"/>
</g>
</g>
</g>
</g>
</g>
<defs>
<path id="path0_fill" d="M 78.5 203.2C 172.8 203.2 224.4 125 224.4 57.3C 224.4 55.1 224.4 52.9 224.3 50.7C 234.3 43.5 243 34.4 249.9 24.1C 240.7 28.2 230.8 30.9 220.4 32.2C 231 25.9 239.1 15.8 243 3.8C 233.1 9.7 222.1 13.9 210.4 16.2C 201 6.2 187.7 1.52588e-06 173 1.52588e-06C 144.7 1.52588e-06 121.7 23 121.7 51.3C 121.7 55.3 122.2 59.2 123 63C 80.4 60.9 42.6 40.4 17.3 9.4C 12.9 17 10.4 25.8 10.4 35.2C 10.4 53 19.5 68.7 33.2 77.9C 24.8 77.6 16.9 75.3 10 71.5C 10 71.7 10 71.9 10 72.2C 10 97 27.7 117.8 51.1 122.5C 46.8 123.7 42.3 124.3 37.6 124.3C 34.3 124.3 31.1 124 28 123.4C 34.5 143.8 53.5 158.6 75.9 159C 58.3 172.8 36.2 181 12.2 181C 8.1 181 4 180.8 -1.52588e-06 180.3C 22.6 194.7 49.6 203.2 78.5 203.2Z"/>
</defs>
</svg>
